<?xml version="1.0" encoding="utf-8"?>
<!-- Generator: Adobe Illustrator 18.1.1, SVG Export Plug-In . SVG Version: 6.00 Build 0)  -->
<svg version="1.1" id="Layer_1" xmlns="http://www.w3.org/2000/svg" xmlns:xlink="http://www.w3.org/1999/xlink" x="0px" y="0px"
	 width="200px" height="200px" viewBox="0 0 200 200" enable-background="new 0 0 200 200" xml:space="preserve">
<g>
	<path fill="#13b2d4" d="M100,0C44.9,0,0,44.9,0,100c0,55.1,44.9,100,100,100s100-44.9,100-100C200,44.9,155.1,0,100,0z M3.7,100
		c0-3.6,0.2-7.1,0.6-10.6c3.8,3,7.4,6.8,7.4,10.6c0,7.4-6.8,1.2,4.6,12.6c-3.1,5.9-0.5,11.1-0.5,17.5c0,8,4,26.1,12,26.1l7.6,15.2
		C16,153.8,3.7,128.3,3.7,100z M118,110c8,16,8,8,16,16c8,8,24.1-8,24.1-8s0,8,8,16c8,8-2,24.1-2,24.1l4.6,9.2
		c-17.5,17.8-41.8,28.9-68.8,28.9c-13.2,0-25.8-2.7-37.2-7.5c3-7.1,8.1-16.6,13.1-16.6c8,0,8,0,8-8c0-16,8-8,8-16s-16-8-24.1-16
		c-8-8-12-16-20.1-16c-4-8-4-8-12-8c-8,0-8-8-16,0c-7-7-7.9-26.1-13.3-31c1.3-5.2,2.9-10.2,5-15c5.4,4.4,2.1,13.9,8.3,13.9
		c8,0,0-16,8-16c8,0,16,0,16-8c0-8,16,0,16,0c8-8,8-8,0-12c-3.6-1.8,8,4,8-4c0-16-8,0,0-16c8-16,16,0,16-8c0-2.4,0.7-4.8,1.7-7
		c4.7-0.7,9.5-1.1,14.3-1.1c9,0,17.7,1.2,26,3.5c-0.8,8.4-7.5,22.5,0.1,22.5c8,0,24.1-8,16-16c4.6,1.8,9.5,4.8,14.1,8.1
		c-4.3,0.3-14.1,1.6-14.1,7.9c0,8-16,8-8,16c8,8-16,0-8,8c8,8,0,16,8,8c8-8,8-16,16-16c8,0,8,8,16,8c8,0-8-16,0-16
		c2.4,0,4.3-0.7,5.8-1.8c6.9,7.7,12.5,16.5,16.6,26.2c-13.1,1.5-22.4,7.7-22.4,7.7c-16-16-24.1,0-32.1,0c-8,0-8,16-8,16
		S110,94,118,110z"/>
</g>
</svg>
