<?xml version="1.0" encoding="utf-8"?>
<!-- Generator: Adobe Illustrator 20.1.0, SVG Export Plug-In . SVG Version: 6.00 Build 0)  -->
<svg version="1.1" id="Layer_1" xmlns="http://www.w3.org/2000/svg" xmlns:xlink="http://www.w3.org/1999/xlink" x="0px" y="0px"
	 width="94.8px" height="22.1px" viewBox="0 0 94.8 22.1" style="enable-background:new 0 0 94.8 22.1;" xml:space="preserve">
<style type="text/css">
	.st0{fill:#4A494A;}
	.st1{fill:#3BB0C9;}
</style>
<g>
	<g>
		<g>
			<path class="st0" d="M35.9,21.8l1.3-6.3c0.1-0.4,0.2-0.8,0.2-1.1c0.1-0.3,0.1-0.6,0.1-0.9c0-0.7-0.3-1.1-0.8-1.1
				c-0.3,0-0.5,0.1-0.8,0.2c-0.3,0.1-0.5,0.3-0.7,0.5c-0.2,0.2-0.4,0.5-0.6,0.7c-0.2,0.3-0.4,0.5-0.5,0.7l-1.5,7.2h-2.9l2.5-11.6
				h2.2l-0.1,2h0.1c0.2-0.2,0.5-0.5,0.8-0.8c0.3-0.3,0.6-0.5,0.9-0.8c0.3-0.2,0.7-0.4,1.1-0.6c0.4-0.2,0.9-0.2,1.4-0.2
				c0.6,0,1.1,0.2,1.4,0.7c0.3,0.4,0.5,1,0.4,1.8c0.2-0.3,0.5-0.6,0.8-0.9c0.3-0.3,0.6-0.6,1-0.8c0.3-0.2,0.7-0.4,1.1-0.6
				c0.4-0.1,0.8-0.2,1.2-0.2c0.7,0,1.3,0.2,1.6,0.5c0.4,0.3,0.6,1,0.6,1.9c0,0.7-0.1,1.5-0.3,2.6l-1.5,7H42l1.4-6.5
				c0.1-0.4,0.1-0.7,0.2-1c0-0.3,0.1-0.6,0.1-0.8c0-0.4-0.1-0.6-0.2-0.8c-0.1-0.2-0.4-0.3-0.7-0.3c-0.2,0-0.5,0.1-0.8,0.2
				c-0.3,0.1-0.5,0.3-0.7,0.6c-0.2,0.2-0.4,0.5-0.6,0.7c-0.2,0.3-0.3,0.5-0.5,0.7l-1.5,7.1H35.9z"/>
		</g>
		<g>
			<path class="st0" d="M50.2,10.2h2.9l-2.5,11.6h-2.9L50.2,10.2z M50.7,6.9c0-0.5,0.2-0.9,0.5-1.2c0.3-0.3,0.8-0.4,1.3-0.4
				c0.5,0,0.9,0.1,1.3,0.4C54,6,54.2,6.4,54.2,6.9c0,0.5-0.2,0.9-0.5,1.2c-0.3,0.3-0.8,0.4-1.3,0.4c-0.5,0-0.9-0.1-1.3-0.4
				C50.8,7.8,50.7,7.4,50.7,6.9z"/>
		</g>
		<g>
			<path class="st0" d="M57,18.4c-0.1,0.4-0.1,0.8,0,1c0.1,0.2,0.3,0.3,0.5,0.3c0.4,0,0.8-0.1,1.2-0.3l-0.1,2
				c-0.3,0.2-0.7,0.3-1.2,0.4c-0.5,0.1-1,0.2-1.6,0.2c-0.7,0-1.2-0.1-1.5-0.4c-0.3-0.3-0.5-0.7-0.5-1.4c0-0.4,0-0.8,0.1-1.2
				l2.9-13.5h2.9L57,18.4z"/>
		</g>
		<g>
			<path class="st0" d="M63.3,18.4c-0.1,0.4-0.1,0.8,0,1c0.1,0.2,0.3,0.3,0.5,0.3c0.4,0,0.8-0.1,1.2-0.3l-0.1,2
				c-0.3,0.2-0.7,0.3-1.2,0.4c-0.5,0.1-1,0.2-1.6,0.2c-0.7,0-1.2-0.1-1.5-0.4c-0.3-0.3-0.5-0.7-0.5-1.4c0-0.4,0-0.8,0.1-1.2
				l2.9-13.5H66L63.3,18.4z"/>
		</g>
		<g>
			<path class="st0" d="M68.8,10.2h2.9l-2.5,11.6h-2.9L68.8,10.2z M69.2,6.9c0-0.5,0.2-0.9,0.5-1.2c0.3-0.3,0.8-0.4,1.3-0.4
				c0.5,0,0.9,0.1,1.3,0.4s0.5,0.7,0.5,1.2c0,0.5-0.2,0.9-0.5,1.2c-0.3,0.3-0.8,0.4-1.3,0.4c-0.5,0-0.9-0.1-1.3-0.4
				C69.4,7.8,69.2,7.4,69.2,6.9z"/>
		</g>
		<g>
			<path class="st0" d="M72.4,18c0-1.2,0.2-2.3,0.5-3.3c0.3-1,0.8-1.9,1.4-2.6c0.6-0.7,1.3-1.3,2-1.7c0.8-0.4,1.6-0.6,2.4-0.6
				c0.7,0,1.4,0.1,1.9,0.3c0.5,0.2,0.9,0.5,1.2,0.9c0.3,0.4,0.5,0.8,0.7,1.3c0.1,0.5,0.2,1,0.2,1.5c0,1.2-0.2,2.3-0.5,3.3
				c-0.3,1-0.8,1.9-1.4,2.6c-0.6,0.7-1.2,1.3-2,1.7c-0.8,0.4-1.6,0.6-2.4,0.6c-0.7,0-1.3-0.1-1.9-0.4c-0.5-0.2-0.9-0.6-1.3-0.9
				c-0.3-0.4-0.6-0.8-0.7-1.3C72.5,19,72.4,18.5,72.4,18z M75.4,17.7c0,1.4,0.5,2.1,1.5,2.1c0.4,0,0.7-0.2,1.1-0.5
				c0.4-0.3,0.7-0.8,1-1.3c0.3-0.5,0.5-1.1,0.7-1.8c0.2-0.7,0.2-1.3,0.2-2c0-0.6-0.1-1.1-0.3-1.4c-0.2-0.3-0.6-0.5-1.2-0.5
				c-0.4,0-0.7,0.2-1.1,0.5c-0.4,0.3-0.7,0.7-1,1.2c-0.3,0.5-0.5,1.1-0.7,1.7C75.5,16.3,75.4,17,75.4,17.7z"/>
		</g>
		<g>
			<path class="st0" d="M90.1,21.8l1.5-7.2c0.1-0.4,0.1-0.8,0.1-1.1c0-0.3-0.1-0.6-0.2-0.8c-0.1-0.2-0.4-0.3-0.8-0.3
				c-0.3,0-0.6,0.1-0.8,0.2c-0.3,0.1-0.5,0.3-0.8,0.6c-0.2,0.2-0.5,0.5-0.7,0.8c-0.2,0.3-0.4,0.6-0.6,0.9l-1.5,7h-2.9L86,10.2h2.2
				l-0.1,2h0.1c0.2-0.2,0.4-0.5,0.7-0.8c0.3-0.3,0.6-0.5,0.9-0.8c0.4-0.2,0.8-0.4,1.2-0.6c0.4-0.2,0.9-0.2,1.5-0.2
				c0.7,0,1.3,0.2,1.7,0.6c0.4,0.4,0.6,1,0.6,1.9c0,0.2,0,0.5,0,0.7c0,0.3-0.1,0.5-0.2,0.9L93,21.8H90.1z"/>
		</g>
	</g>
</g>
<g>
	<path class="st1" d="M9.7,21.8H3.9l2.6-11.7c0.3-1.3,0.6-2.5,1.1-3.8C6.8,7,6.2,7.5,5.7,7.8l-3,1.8L0.5,6l9.1-5.6h4.6L9.7,21.8z"/>
	<path class="st1" d="M29.5,7.4c0,2.9-0.4,5.5-1.2,7.8c-0.8,2.3-2,4-3.5,5.2s-3.2,1.8-5.1,1.8c-2.1,0-3.6-0.6-4.7-1.9
		s-1.6-3-1.6-5.3c0-2.9,0.4-5.5,1.2-7.8c0.8-2.3,2-4.1,3.5-5.3C19.6,0.6,21.3,0,23.2,0c1.3,0,2.5,0.3,3.4,0.9s1.6,1.5,2.1,2.6
		C29.3,4.6,29.5,5.9,29.5,7.4z M22.6,4.6c-0.5,0-1.1,0.5-1.6,1.6c-0.5,1.1-1,2.5-1.3,4.1c-0.3,1.7-0.5,3.2-0.5,4.7
		c0,0.8,0.1,1.4,0.2,1.8c0.1,0.4,0.4,0.6,0.9,0.6c0.6,0,1.1-0.5,1.6-1.4c0.5-0.9,1-2.2,1.3-3.9c0.4-1.7,0.6-3.3,0.6-4.9
		c0-0.8-0.1-1.5-0.3-1.9S23,4.6,22.6,4.6z"/>
</g>
</svg>
