<?xml version="1.0" encoding="utf-8"?>
<!-- Generator: Adobe Illustrator 19.1.0, SVG Export Plug-In . SVG Version: 6.00 Build 0)  -->
<svg version="1.1" id="Layer_1" xmlns="http://www.w3.org/2000/svg" xmlns:xlink="http://www.w3.org/1999/xlink" x="0px" y="0px"
	 width="100px" height="100px" viewBox="0 0 100 100" style="enable-background:new 0 0 100 100;" xml:space="preserve">
<style type="text/css">
	.st0{fill:none;}
	.st1{fill:#13B1D3;}
	.st2{fill:#787878;}
</style>
<g>
	<path class="st0" d="M70.9,79.9c-1.4,0-2.4,0.5-3.1,1.4c-0.6,1-0.9,2.4-0.9,4.4c0,1.9,0.3,3.4,1,4.4c0.6,1,1.7,1.5,3.1,1.5
		c1.4,0,2.4-0.5,3.1-1.5c0.6-1,0.9-2.4,0.9-4.4c0-1.9-0.3-3.4-0.9-4.4C73.4,80.4,72.4,79.9,70.9,79.9z"/>
	<path class="st1" d="M28.8,67.1c1-1,2.5-1.6,4.3-1.6c0.9,0,1.8,0.2,2.5,0.5v-0.5h2.9h5.2h0.1h2.7h0.1h5.2h2.9v0.5
		c0.7-0.3,1.6-0.5,2.5-0.5c3.5,0,5.8,2.1,5.8,5.5c0,0.5-0.1,1-0.2,1.4c1.8-0.7,3.4-1.6,4.8-2.7c5.1-3.7,7.6-8.7,7.6-15.2
		c0-9.5-5.8-14.9-17.3-16.4v-0.3c4.9-1.4,8.7-3.6,11.3-6.7c2.6-3.1,3.9-6.8,3.9-11c0-5-2-8.9-6.1-11.7s-9.7-4.3-16.8-4.3
		c-4.9,0-9.3,0.5-13.2,1.6c-3.8,1.1-7.6,2.9-11.2,5.4l7.8,12.5c4.7-3,9.3-4.4,13.7-4.4c2.4,0,4.2,0.4,5.6,1.3
		c1.4,0.9,2.1,2.2,2.1,4.1c0,4.9-4.7,7.3-14.2,7.3h-4.4v14h4.3c3.5,0,6.3,0.3,8.5,0.8c2.2,0.5,3.7,1.3,4.7,2.3c1,1,1.5,2.5,1.5,4.4
		c0,2.5-0.9,4.3-2.8,5.4c-1.9,1.2-4.9,1.7-9,1.7c-2.6,0-5.5-0.4-8.7-1.1c-3.1-0.7-6.2-1.9-9.2-3.4v11.1h1.4H28.8z"/>
	<path class="st2" d="M25.9,70h-6l-6.4,19.5h-0.1L7.4,70H0v25.5h4.8V83.6c0-1.4-0.1-4.1-0.3-8.2h0.2l6.1,20h5l6.6-20h0.2
		c-0.1,3.2-0.2,5.2-0.2,5.9c0,0.7,0,1.4,0,2v12.1h5V72v-2H25.9z"/>
	<path class="st2" d="M35.6,76L35.6,76c-0.8,0.3-1.6,0.4-2.5,0.4c-0.9,0-1.8-0.2-2.5-0.4h-0.2v19.5h5.2V76z"/>
	<path class="st2" d="M30.2,70.9c0,1.7,1,2.6,2.9,2.6c1,0,1.7-0.2,2.2-0.7c0.1-0.1,0.2-0.3,0.3-0.4v-3c-0.4-0.7-1.3-1.1-2.5-1.1
		C31.2,68.3,30.2,69.2,30.2,70.9z"/>
	<polygon class="st2" points="43.7,95.5 43.7,75.2 43.7,68.3 38.5,68.3 38.5,74.7 38.5,95.5 	"/>
	<path class="st2" d="M51.8,95.5V76v-2.9h0.1V73c-0.2-0.6-0.4-1.3-0.4-2.1c0-0.8,0.1-1.5,0.4-2.1v-0.5h-5.3v6.9v20.3H51.8z"/>
	<path class="st2" d="M54.8,76h-0.2v19.5H60V76h-0.2c-0.7,0.3-1.6,0.4-2.5,0.4C56.4,76.4,55.5,76.2,54.8,76z"/>
	<path class="st2" d="M54.4,70.9c0,1.7,1,2.6,2.9,2.6c1,0,1.7-0.2,2.2-0.7c0.5-0.5,0.7-1.1,0.7-1.9c0-1.7-1-2.6-2.9-2.6
		C55.4,68.3,54.4,69.2,54.4,70.9z"/>
	<path class="st2" d="M98.2,77.4c-1.2-1.2-2.9-1.8-5.2-1.8c-1.3,0-2.5,0.2-3.6,0.7c-1,0.5-1.9,1.2-2.5,2.1h-0.3L86,76H82v19.5h5.3
		v-9.2c0-2.3,0.3-4,1-5c0.7-1,1.7-1.5,3.2-1.5c1.1,0,1.9,0.4,2.4,1.1c0.5,0.7,0.8,1.8,0.8,3.2v11.4h5.3V82.8
		C100,80.4,99.4,78.7,98.2,77.4z"/>
	<path class="st2" d="M76,76.8c-1.4-0.8-3.1-1.2-5-1.2c-3,0-5.4,0.9-7,2.7c-0.5,0.5-0.8,1-1.2,1.6c-0.9,1.6-1.3,3.5-1.3,5.8
		c0,2,0.4,3.8,1.2,5.4c0.1,0.1,0.1,0.2,0.2,0.3c0.8,1.4,1.8,2.5,3.1,3.2c1.4,0.8,3.1,1.2,5,1.2c3,0,5.3-0.9,7-2.7
		c1.7-1.8,2.5-4.3,2.5-7.5c0-2-0.4-3.8-1.2-5.4C78.5,78.8,77.4,77.6,76,76.8z M74,90.1c-0.6,1-1.6,1.5-3.1,1.5
		c-1.4,0-2.5-0.5-3.1-1.5c-0.6-1-1-2.5-1-4.4c0-1.9,0.3-3.4,0.9-4.4c0.6-1,1.7-1.4,3.1-1.4c1.4,0,2.5,0.5,3.1,1.5
		c0.6,1,0.9,2.4,0.9,4.4C75,87.6,74.7,89.1,74,90.1z"/>
</g>
</svg>
