<?xml version="1.0" encoding="utf-8"?>
<!-- Generator: Adobe Illustrator 20.1.0, SVG Export Plug-In . SVG Version: 6.00 Build 0)  -->
<svg version="1.1" id="Layer_1" xmlns="http://www.w3.org/2000/svg" xmlns:xlink="http://www.w3.org/1999/xlink" x="0px" y="0px"
	 width="98.3px" height="22.1px" viewBox="0 0 98.3 22.1" style="enable-background:new 0 0 98.3 22.1;" xml:space="preserve">
<style type="text/css">
	.st0{fill:#4A494A;}
	.st1{fill:#3BB0C9;}
</style>
<g>
	<g>
		<g>
			<path class="st0" d="M39.4,21.8l1.3-6.3c0.1-0.4,0.2-0.8,0.2-1.1C41,14,41,13.8,41,13.5c0-0.7-0.3-1.1-0.8-1.1
				c-0.3,0-0.5,0.1-0.8,0.2c-0.3,0.1-0.5,0.3-0.7,0.5c-0.2,0.2-0.4,0.5-0.6,0.7c-0.2,0.3-0.4,0.5-0.5,0.7l-1.5,7.2h-2.9l2.5-11.6
				h2.2l-0.1,2h0.1c0.2-0.2,0.5-0.5,0.8-0.8c0.3-0.3,0.6-0.5,0.9-0.8c0.3-0.2,0.7-0.4,1.1-0.6c0.4-0.2,0.9-0.2,1.4-0.2
				c0.6,0,1.1,0.2,1.4,0.7c0.3,0.4,0.5,1,0.4,1.8c0.2-0.3,0.5-0.6,0.8-0.9c0.3-0.3,0.6-0.6,1-0.8c0.3-0.2,0.7-0.4,1.1-0.6
				c0.4-0.1,0.8-0.2,1.2-0.2c0.7,0,1.3,0.2,1.6,0.5c0.4,0.3,0.6,1,0.6,1.9c0,0.7-0.1,1.5-0.3,2.6l-1.5,7h-2.9l1.4-6.5
				c0.1-0.4,0.1-0.7,0.2-1c0-0.3,0.1-0.6,0.1-0.8c0-0.4-0.1-0.6-0.2-0.8c-0.1-0.2-0.4-0.3-0.7-0.3c-0.2,0-0.5,0.1-0.8,0.2
				c-0.3,0.1-0.5,0.3-0.7,0.6c-0.2,0.2-0.4,0.5-0.6,0.7c-0.2,0.3-0.3,0.5-0.5,0.7l-1.5,7.1H39.4z"/>
		</g>
		<g>
			<path class="st0" d="M53.7,10.2h2.9l-2.5,11.6h-2.9L53.7,10.2z M54.2,6.9c0-0.5,0.2-0.9,0.5-1.2c0.3-0.3,0.8-0.4,1.3-0.4
				c0.5,0,0.9,0.1,1.3,0.4c0.3,0.3,0.5,0.7,0.5,1.2c0,0.5-0.2,0.9-0.5,1.2c-0.3,0.3-0.8,0.4-1.3,0.4c-0.5,0-0.9-0.1-1.3-0.4
				C54.3,7.8,54.2,7.4,54.2,6.9z"/>
		</g>
		<g>
			<path class="st0" d="M60.4,18.4c-0.1,0.4-0.1,0.8,0,1c0.1,0.2,0.3,0.3,0.5,0.3c0.4,0,0.8-0.1,1.2-0.3l-0.1,2
				c-0.3,0.2-0.7,0.3-1.2,0.4c-0.5,0.1-1,0.2-1.6,0.2c-0.7,0-1.2-0.1-1.5-0.4c-0.3-0.3-0.5-0.7-0.5-1.4c0-0.4,0-0.8,0.1-1.2
				l2.9-13.5h2.9L60.4,18.4z"/>
		</g>
		<g>
			<path class="st0" d="M66.8,18.4c-0.1,0.4-0.1,0.8,0,1c0.1,0.2,0.3,0.3,0.5,0.3c0.4,0,0.8-0.1,1.2-0.3l-0.1,2
				c-0.3,0.2-0.7,0.3-1.2,0.4c-0.5,0.1-1,0.2-1.6,0.2c-0.7,0-1.2-0.1-1.5-0.4c-0.3-0.3-0.5-0.7-0.5-1.4c0-0.4,0-0.8,0.1-1.2
				l2.9-13.5h2.9L66.8,18.4z"/>
		</g>
		<g>
			<path class="st0" d="M72.3,10.2h2.9l-2.5,11.6h-2.9L72.3,10.2z M72.7,6.9c0-0.5,0.2-0.9,0.5-1.2c0.3-0.3,0.8-0.4,1.3-0.4
				c0.5,0,0.9,0.1,1.3,0.4s0.5,0.7,0.5,1.2c0,0.5-0.2,0.9-0.5,1.2c-0.3,0.3-0.8,0.4-1.3,0.4c-0.5,0-0.9-0.1-1.3-0.4
				C72.9,7.8,72.7,7.4,72.7,6.9z"/>
		</g>
		<g>
			<path class="st0" d="M75.9,18c0-1.2,0.2-2.3,0.5-3.3c0.3-1,0.8-1.9,1.4-2.6c0.6-0.7,1.3-1.3,2-1.7c0.8-0.4,1.6-0.6,2.4-0.6
				c0.7,0,1.4,0.1,1.9,0.3c0.5,0.2,0.9,0.5,1.2,0.9c0.3,0.4,0.5,0.8,0.7,1.3c0.1,0.5,0.2,1,0.2,1.5c0,1.2-0.2,2.3-0.5,3.3
				c-0.3,1-0.8,1.9-1.4,2.6c-0.6,0.7-1.2,1.3-2,1.7c-0.8,0.4-1.6,0.6-2.4,0.6c-0.7,0-1.3-0.1-1.9-0.4c-0.5-0.2-0.9-0.6-1.3-0.9
				c-0.3-0.4-0.6-0.8-0.7-1.3C76,19,75.9,18.5,75.9,18z M78.9,17.7c0,1.4,0.5,2.1,1.5,2.1c0.4,0,0.7-0.2,1.1-0.5
				c0.4-0.3,0.7-0.8,1-1.3c0.3-0.5,0.5-1.1,0.7-1.8c0.2-0.7,0.2-1.3,0.2-2c0-0.6-0.1-1.1-0.3-1.4c-0.2-0.3-0.6-0.5-1.2-0.5
				c-0.4,0-0.7,0.2-1.1,0.5c-0.4,0.3-0.7,0.7-1,1.2c-0.3,0.5-0.5,1.1-0.7,1.7C78.9,16.3,78.9,17,78.9,17.7z"/>
		</g>
		<g>
			<path class="st0" d="M93.6,21.8l1.5-7.2c0.1-0.4,0.1-0.8,0.1-1.1c0-0.3-0.1-0.6-0.2-0.8c-0.1-0.2-0.4-0.3-0.8-0.3
				c-0.3,0-0.6,0.1-0.8,0.2c-0.3,0.1-0.5,0.3-0.8,0.6c-0.2,0.2-0.5,0.5-0.7,0.8c-0.2,0.3-0.4,0.6-0.6,0.9l-1.5,7h-2.9l2.5-11.6h2.2
				l-0.1,2h0.1c0.2-0.2,0.4-0.5,0.7-0.8c0.3-0.3,0.6-0.5,0.9-0.8c0.4-0.2,0.8-0.4,1.2-0.6c0.4-0.2,0.9-0.2,1.5-0.2
				c0.7,0,1.3,0.2,1.7,0.6c0.4,0.4,0.6,1,0.6,1.9c0,0.2,0,0.5,0,0.7c0,0.3-0.1,0.5-0.2,0.9l-1.7,7.9H93.6z"/>
		</g>
	</g>
</g>
<g>
	<path class="st1" d="M9.3,7.7c1.8,0,3.2,0.6,4.3,1.7c1.1,1.1,1.7,2.7,1.7,4.6c0,2.6-0.8,4.5-2.4,5.9c-1.6,1.4-3.9,2.1-6.8,2.1
		c-1.3,0-2.5-0.1-3.6-0.3s-2-0.5-2.5-0.9v-4.8c0.8,0.4,1.7,0.8,2.7,1c1,0.2,1.9,0.4,2.7,0.4c2.7,0,4.1-0.9,4.1-2.8
		c0-0.7-0.2-1.3-0.7-1.8s-1.2-0.7-2-0.7c-0.5,0-1.1,0-1.6,0.1c-0.6,0.1-1,0.2-1.4,0.3l-1.8-1.3l3.2-11H17l-1,4.7H9.1L8.2,7.8
		C8.6,7.8,8.9,7.7,9.3,7.7z"/>
	<path class="st1" d="M33,7.4c0,2.9-0.4,5.5-1.2,7.8c-0.8,2.3-2,4-3.4,5.2c-1.5,1.2-3.2,1.8-5.1,1.8c-2.1,0-3.6-0.6-4.7-1.8
		c-1.1-1.2-1.6-3-1.6-5.3c0-2.9,0.4-5.5,1.2-7.8c0.8-2.3,2-4.1,3.4-5.3C23.1,0.6,24.8,0,26.7,0c1.3,0,2.4,0.3,3.4,0.9
		s1.6,1.5,2.1,2.6C32.7,4.6,33,5.9,33,7.4z M26.1,4.6c-0.5,0-1.1,0.5-1.6,1.6s-1,2.5-1.3,4.1s-0.5,3.2-0.5,4.7
		c0,0.8,0.1,1.4,0.2,1.8c0.1,0.4,0.4,0.6,0.9,0.6c0.6,0,1.1-0.5,1.6-1.4c0.5-0.9,1-2.2,1.3-3.9c0.4-1.7,0.6-3.3,0.6-4.9
		c0-0.8-0.1-1.5-0.3-1.9C26.8,4.9,26.5,4.6,26.1,4.6z"/>
</g>
</svg>
