<?xml version="1.0" encoding="utf-8"?>
<!-- Generator: Adobe Illustrator 20.1.0, SVG Export Plug-In . SVG Version: 6.00 Build 0)  -->
<svg version="1.1" id="Layer_1" xmlns="http://www.w3.org/2000/svg" xmlns:xlink="http://www.w3.org/1999/xlink" x="0px" y="0px"
	 width="81.4px" height="22.1px" viewBox="0 0 81.4 22.1" enable-background="new 0 0 81.4 22.1" xml:space="preserve">
<text transform="matrix(1 0 0 1 -0.2844 21.792)" fill="#3BB0C9" font-family="'OpenSans-ExtraboldItalic'" font-size="29.9795px">5</text>
<g>
	<g>
		<g>
			<path fill="#49494A" d="M22.4,21.8l1.3-6.3c0.1-0.4,0.2-0.8,0.2-1.1c0.1-0.3,0.1-0.6,0.1-0.9c0-0.7-0.3-1.1-0.8-1.1
				c-0.3,0-0.5,0.1-0.8,0.2c-0.3,0.1-0.5,0.3-0.7,0.5c-0.2,0.2-0.4,0.4-0.6,0.7c-0.2,0.3-0.4,0.5-0.5,0.7l-1.5,7.2h-2.8l2.5-11.6H21
				l-0.1,2h0.1c0.2-0.2,0.5-0.5,0.8-0.8c0.3-0.3,0.6-0.5,0.9-0.8c0.3-0.2,0.7-0.4,1.1-0.6c0.4-0.2,0.9-0.2,1.4-0.2
				c0.6,0,1.1,0.2,1.4,0.7c0.3,0.4,0.5,1,0.4,1.8c0.2-0.3,0.5-0.6,0.8-0.9c0.3-0.3,0.6-0.6,1-0.8c0.3-0.2,0.7-0.4,1.1-0.6
				c0.4-0.1,0.8-0.2,1.2-0.2c0.7,0,1.3,0.2,1.6,0.5c0.4,0.3,0.6,1,0.6,1.9c0,0.7-0.1,1.5-0.3,2.6l-1.5,7h-2.8l1.4-6.5
				c0.1-0.4,0.1-0.7,0.2-1c0-0.3,0.1-0.6,0.1-0.8c0-0.4-0.1-0.6-0.2-0.8c-0.1-0.2-0.4-0.3-0.7-0.3c-0.2,0-0.5,0.1-0.8,0.2
				c-0.3,0.1-0.5,0.3-0.7,0.6c-0.2,0.2-0.4,0.5-0.6,0.7c-0.2,0.3-0.3,0.5-0.5,0.7l-1.5,7.1H22.4z"/>
		</g>
		<g>
			<path fill="#49494A" d="M36.7,10.2h2.8l-2.5,11.6h-2.8L36.7,10.2z M37.2,6.9c0-0.5,0.2-0.9,0.5-1.2c0.3-0.3,0.8-0.4,1.3-0.4
				c0.5,0,0.9,0.1,1.3,0.4c0.3,0.3,0.5,0.7,0.5,1.2c0,0.5-0.2,0.9-0.5,1.2c-0.3,0.3-0.8,0.4-1.3,0.4c-0.5,0-0.9-0.1-1.3-0.4
				C37.3,7.8,37.2,7.4,37.2,6.9z"/>
		</g>
		<g>
			<path fill="#49494A" d="M43.5,18.4c-0.1,0.4-0.1,0.8,0,1c0.1,0.2,0.3,0.3,0.5,0.3c0.4,0,0.8-0.1,1.2-0.3l-0.1,2
				c-0.3,0.2-0.7,0.3-1.2,0.4c-0.5,0.1-1,0.2-1.6,0.2c-0.7,0-1.2-0.1-1.5-0.4c-0.3-0.3-0.5-0.7-0.5-1.4c0-0.4,0-0.8,0.1-1.2
				l2.8-13.5h2.8L43.5,18.4z"/>
		</g>
		<g>
			<path fill="#49494A" d="M49.8,18.4c-0.1,0.4-0.1,0.8,0,1c0.1,0.2,0.3,0.3,0.5,0.3c0.4,0,0.8-0.1,1.2-0.3l-0.1,2
				c-0.3,0.2-0.7,0.3-1.2,0.4c-0.5,0.1-1,0.2-1.6,0.2c-0.7,0-1.2-0.1-1.5-0.4s-0.5-0.7-0.5-1.4c0-0.4,0-0.8,0.1-1.2l2.8-13.5h2.8
				L49.8,18.4z"/>
		</g>
		<g>
			<path fill="#49494A" d="M55.3,10.2h2.8l-2.5,11.6h-2.8L55.3,10.2z M55.7,6.9c0-0.5,0.2-0.9,0.5-1.2c0.3-0.3,0.8-0.4,1.3-0.4
				c0.5,0,0.9,0.1,1.3,0.4c0.3,0.3,0.5,0.7,0.5,1.2c0,0.5-0.2,0.9-0.5,1.2c-0.3,0.3-0.8,0.4-1.3,0.4c-0.5,0-0.9-0.1-1.3-0.4
				C55.9,7.8,55.7,7.4,55.7,6.9z"/>
		</g>
		<g>
			<path fill="#49494A" d="M58.9,18c0-1.2,0.2-2.3,0.5-3.3c0.3-1,0.8-1.9,1.4-2.6c0.6-0.7,1.3-1.3,2-1.7c0.8-0.4,1.6-0.6,2.4-0.6
				c0.7,0,1.4,0.1,1.9,0.3c0.5,0.2,0.9,0.5,1.2,0.9c0.3,0.4,0.5,0.8,0.7,1.3c0.1,0.5,0.2,1,0.2,1.5c0,1.2-0.2,2.3-0.5,3.3
				c-0.3,1-0.8,1.8-1.4,2.6c-0.6,0.7-1.2,1.3-2,1.7c-0.8,0.4-1.6,0.6-2.4,0.6c-0.7,0-1.3-0.1-1.9-0.4c-0.5-0.2-0.9-0.6-1.3-0.9
				c-0.3-0.4-0.6-0.8-0.7-1.3C59,19,58.9,18.5,58.9,18z M61.8,17.7c0,1.4,0.5,2.1,1.5,2.1c0.4,0,0.7-0.2,1.1-0.5
				c0.4-0.3,0.7-0.8,0.9-1.3c0.3-0.5,0.5-1.1,0.7-1.8c0.2-0.7,0.2-1.3,0.2-2c0-0.6-0.1-1.1-0.3-1.4c-0.2-0.3-0.6-0.5-1.2-0.5
				c-0.4,0-0.7,0.2-1.1,0.5c-0.4,0.3-0.7,0.7-0.9,1.2c-0.3,0.5-0.5,1.1-0.7,1.7C61.9,16.3,61.8,17,61.8,17.7z"/>
		</g>
		<g>
			<path fill="#49494A" d="M76.5,21.8l1.5-7.1c0.1-0.4,0.1-0.8,0.1-1.1c0-0.3-0.1-0.6-0.2-0.8c-0.1-0.2-0.4-0.3-0.8-0.3
				c-0.3,0-0.6,0.1-0.8,0.2c-0.3,0.1-0.5,0.3-0.8,0.6c-0.2,0.2-0.5,0.5-0.7,0.8c-0.2,0.3-0.4,0.6-0.6,0.9l-1.5,7H70l2.5-11.6h2.2
				l-0.1,2h0.1c0.2-0.2,0.4-0.5,0.7-0.8c0.3-0.3,0.6-0.5,0.9-0.8c0.4-0.2,0.8-0.4,1.2-0.6c0.4-0.2,0.9-0.2,1.5-0.2
				c0.7,0,1.3,0.2,1.7,0.6c0.4,0.4,0.6,1,0.6,1.9c0,0.2,0,0.5,0,0.7c0,0.3-0.1,0.5-0.2,0.9l-1.7,7.9H76.5z"/>
		</g>
	</g>
</g>
</svg>
