<?xml version="1.0" encoding="utf-8"?>
<!-- Generator: Adobe Illustrator 20.1.0, SVG Export Plug-In . SVG Version: 6.00 Build 0)  -->
<svg version="1.1" id="Layer_1" xmlns="http://www.w3.org/2000/svg" xmlns:xlink="http://www.w3.org/1999/xlink" x="0px" y="0px"
	 width="50px" height="50px" viewBox="0 0 23.4 23.4" style="enable-background:new 0 0 23.4 23.4;" xml:space="preserve">
<style type="text/css">
	.st0{fill:#3BB0C9;}
</style>
<g>
	<path class="st0" d="M20.1,8.4L20.1,8.4C19.2,7.5,18,7,16.8,7c-1.2,0-2.4,0.5-3.3,1.4l-1.8,1.8L9.9,8.4C9,7.5,7.8,7,6.6,7
		C5.3,7,4.2,7.5,3.3,8.4l0,0c-0.9,0.9-1.4,2.1-1.4,3.3c0,1.2,0.5,2.4,1.4,3.3l0,0c0.9,0.9,2.1,1.4,3.3,1.4c1.2,0,2.4-0.5,3.3-1.4
		l1.8-1.8l1.8,1.8c0.9,0.9,2.1,1.4,3.3,1.4c1.2,0,2.4-0.5,3.3-1.4l0,0c0.9-0.9,1.4-2.1,1.4-3.3S21,9.3,20.1,8.4z M8.4,13.6
		c-0.5,0.5-1.2,0.8-1.9,0.8c-0.7,0-1.4-0.3-1.9-0.8c-0.5-0.5-0.8-1.2-0.8-1.9s0.3-1.4,0.8-1.9C5.2,9.3,5.9,9,6.6,9
		c0.7,0,1.4,0.3,1.9,0.8l1.9,1.9L8.4,13.6z M18.7,13.5L18.7,13.5c-0.5,0.5-1.2,0.8-1.9,0.8c-0.7,0-1.4-0.3-1.9-0.8l-1.9-1.9l1.9-1.9
		C15.4,9.3,16.1,9,16.8,9c0.7,0,1.4,0.3,1.9,0.8c0.5,0.5,0.8,1.2,0.8,1.9S19.2,13,18.7,13.5z"/>
</g>
</svg>
