<?xml version="1.0" encoding="utf-8"?>
<!-- Generator: Adobe Illustrator 18.1.1, SVG Export Plug-In . SVG Version: 6.00 Build 0)  -->
<svg version="1.1" id="Layer_1" xmlns="http://www.w3.org/2000/svg" xmlns:xlink="http://www.w3.org/1999/xlink" x="0px" y="0px"
	 width="200px" height="200px" viewBox="0 0 200 200" enable-background="new 0 0 200 200" xml:space="preserve">
<g>
	<path fill="#13b2d4" d="M100,0C44.9,0,0,44.9,0,100s44.9,100,100,100s100-44.9,100-100S155.1,0,100,0z M100,195.2c-52.5,0-95.2-42.7-95.2-95.2
		S47.5,4.8,100,4.8c52.5,0,95.2,42.7,95.2,95.2S152.5,195.2,100,195.2z"/>
	<path fill="#13b2d4" d="M157.2,109.6c-3.4,0-6.2,2.8-6.2,6.2c0,2,1,3.8,2.5,4.9c-3.1,26.8-26,47.7-53.6,47.7c-27.6,0-50.4-20.8-53.6-47.5
		c1.6-1.1,2.7-3,2.7-5.1c0-3.4-2.8-6.2-6.2-6.2c-3.4,0-6.2,2.8-6.2,6.2c0,2.3,1.3,4.4,3.2,5.4c3.4,30.1,29,53.6,60,53.6
		c31,0,56.6-23.4,60-53.5c2.1-1,3.5-3.1,3.5-5.5C163.4,112.3,160.6,109.6,157.2,109.6z"/>
	<path fill="#13b2d4" d="M63.2,81.2c5.4,0,9.9-4.4,9.9-9.9c0-5.4-4.4-9.9-9.9-9.9c-5.4,0-9.9,4.4-9.9,9.9C53.3,76.8,57.8,81.2,63.2,81.2z
		 M63.2,66.3c2.8,0,5,2.3,5,5c0,2.8-2.3,5-5,5c-2.8,0-5-2.3-5-5C58.2,68.5,60.4,66.3,63.2,66.3z"/>
	<path fill="#13b2d4" d="M63.2,88.7c9.6,0,17.3-7.8,17.3-17.3S72.8,54,63.2,54s-17.3,7.8-17.3,17.3S53.7,88.7,63.2,88.7z M63.2,58.8
		c6.9,0,12.5,5.6,12.5,12.5c0,6.9-5.6,12.5-12.5,12.5s-12.5-5.6-12.5-12.5C50.7,64.4,56.3,58.8,63.2,58.8z"/>
	<path fill="#13b2d4" d="M63.2,96.6c13.9,0,25.3-11.3,25.3-25.3S77.1,46.1,63.2,46.1S38,57.4,38,71.3S49.3,96.6,63.2,96.6z M63.2,50.9
		c11.3,0,20.4,9.2,20.4,20.4c0,11.3-9.2,20.4-20.4,20.4s-20.4-9.2-20.4-20.4C42.8,60.1,51.9,50.9,63.2,50.9z"/>
	<path fill="#13b2d4" d="M138.5,61.5c-5.4,0-9.9,4.4-9.9,9.9c0,5.4,4.4,9.9,9.9,9.9c5.4,0,9.9-4.4,9.9-9.9C148.4,65.9,143.9,61.5,138.5,61.5z
		 M138.5,76.4c-2.8,0-5-2.3-5-5c0-2.8,2.3-5,5-5c2.8,0,5.1,2.3,5.1,5C143.6,74.1,141.3,76.4,138.5,76.4z"/>
	<path fill="#13b2d4" d="M138.5,54c-9.6,0-17.3,7.8-17.3,17.3s7.8,17.3,17.3,17.3c9.6,0,17.3-7.8,17.3-17.3S148.1,54,138.5,54z M138.5,83.8
		c-6.9,0-12.5-5.6-12.5-12.5c0-6.9,5.6-12.5,12.5-12.5c6.9,0,12.5,5.6,12.5,12.5C151,78.2,145.4,83.8,138.5,83.8z"/>
	<path fill="#13b2d4" d="M138.5,46.1c-13.9,0-25.3,11.3-25.3,25.3s11.3,25.3,25.3,25.3c13.9,0,25.3-11.3,25.3-25.3S152.4,46.1,138.5,46.1z
		 M138.5,91.8c-11.3,0-20.4-9.2-20.4-20.4c0-11.3,9.2-20.4,20.4-20.4c11.3,0,20.4,9.2,20.4,20.4C158.9,82.6,149.8,91.8,138.5,91.8z"
		/>
</g>
</svg>
