<?xml version="1.0" encoding="utf-8"?>
<!-- Generator: Adobe Illustrator 19.1.0, SVG Export Plug-In . SVG Version: 6.00 Build 0)  -->
<svg version="1.1" id="Layer_1" xmlns="http://www.w3.org/2000/svg" xmlns:xlink="http://www.w3.org/1999/xlink" x="0px" y="0px"
	 width="150px" height="150px" viewBox="0 0 150 150" style="enable-background:new 0 0 150 150;" xml:space="preserve">
<style type="text/css">
	.st0{fill:#414042;}
</style>
<g>
	<path class="st0" d="M144.4,46.9c0.2-1.2,0.4-2.5,0.4-3.7c0-20.2-30.6-36-69.6-36S5.5,23,5.5,43.2c0,1.3,0.1,2.5,0.4,3.7
		c-0.2,1.2-0.4,2.5-0.4,3.7c0,3.6,1,7,2.8,10.3c-1.8,3.3-2.8,6.7-2.8,10.3c0,1.3,0.1,2.5,0.4,3.7c-0.2,1.2-0.4,2.5-0.4,3.7
		c0,3.6,1,7,2.8,10.3c-1.8,3.3-2.8,6.7-2.8,10.3c0,1.3,0.1,2.5,0.4,3.7c-0.2,1.2-0.4,2.5-0.4,3.7c0,20.2,30.6,35.9,69.6,35.9
		s69.6-15.8,69.6-35.9c0-1.3-0.1-2.5-0.4-3.7c0.2-1.2,0.4-2.5,0.4-3.7c0-3.6-1-7-2.8-10.3c1.8-3.3,2.8-6.7,2.8-10.3
		c0-1.3-0.1-2.5-0.4-3.7c0.2-1.2,0.4-2.5,0.4-3.7c0-3.6-1-7-2.8-10.3c1.8-3.3,2.8-6.7,2.8-10.3C144.8,49.4,144.6,48.1,144.4,46.9z
		 M75.1,138.3c-29.2,0-54.7-9.9-62.6-22.9c11.2,11.9,34.8,19.9,62.6,19.9s51.4-8,62.6-19.9C129.8,128.4,104.3,138.3,75.1,138.3z
		 M140.2,99.3c0,17-29.8,31.5-65.1,31.5S10,116.4,10,99.3c0-2.1,0.4-4.1,1.3-6c10.6,12.7,34.9,21.4,63.9,21.4s53.2-8.7,63.9-21.4
		C139.8,95.3,140.2,97.3,140.2,99.3z M75.1,110.2c-29.2,0-54.7-9.9-62.6-22.9c11.2,11.9,34.8,19.9,62.6,19.9s51.4-8,62.6-19.9
		C129.8,100.3,104.3,110.2,75.1,110.2z M140.2,71.3c0,17-29.8,31.4-65.1,31.4S10,88.3,10,71.3c0-2.1,0.4-4.1,1.3-6
		c10.6,12.7,34.9,21.4,63.9,21.4s53.2-8.7,63.9-21.4C139.8,67.2,140.2,69.2,140.2,71.3z M75.1,11.7c35.3,0,65.1,14.4,65.1,31.5
		c0,17-29.8,31.4-65.1,31.4S10,60.2,10,43.2C10,26.1,39.8,11.7,75.1,11.7z M75.1,82.1c-29.2,0-54.7-9.9-62.6-22.9
		c11.2,11.9,34.8,19.9,62.6,19.9s51.4-8,62.6-19.9C129.8,72.2,104.3,82.1,75.1,82.1z"/>
</g>
</svg>
