<?xml version="1.0" encoding="utf-8"?>
<!-- Generator: Adobe Illustrator 19.1.0, SVG Export Plug-In . SVG Version: 6.00 Build 0)  -->
<svg version="1.1" id="Layer_1" xmlns="http://www.w3.org/2000/svg" xmlns:xlink="http://www.w3.org/1999/xlink" x="0px" y="0px"
	 width="200px" height="200px" viewBox="-59.2 0.8 200 200" style="enable-background:new -59.2 0.8 200 200;" xml:space="preserve"
	>
<style type="text/css">
	.st0{fill:#676767;}
	.st1{opacity:0.8;fill:#F79421;}
</style>
<g>
	<path class="st0" d="M40.8,0.8c-55.1,0-100,44.9-100,100s44.9,100,100,100s100-44.9,100-100S96,0.8,40.8,0.8z M40.8,196
		c-52.5,0-95.2-42.7-95.2-95.2S-11.7,5.7,40.8,5.7c52.5,0,95.2,42.7,95.2,95.2S93.3,196,40.8,196z"/>
	<path class="st1" d="M48.7,78.4c-2,0-3.6,1.6-3.6,3.6v51.5c0,2,1.6,3.6,3.6,3.6h3v-35.8h4.6V137h1.6V96.9h4.6V137h1.6v-35.2h4.6
		V137h1.6V92h4.6v45h1.6V98.2h4.6V137h1.6V99.8h4.6V137h1.6V88h4.6v49h1.6V98.9h4.6V137h1.6v-32.9h4.6V137h1.6v-31.4h4.6V137h1.6
		v-35.8h4.6V137h1.6V99.8h4.6V134c0.6-1.5,1.1-2.9,1.6-4.4V96.1h4.6c-0.3-6.1-1.2-12-2.7-17.7H48.7z"/>
	<path class="st1" d="M-22.1,165.1l0.8-0.8c1-0.2,2-1.4,3.2-1.4c0.8,0,1.6,0.9,1.9,0.9c1.2,0,2.8-1,4-1c0.4,0,0.8,0.2,1.2,0.4
		l-6.3,6.3c0.4,0.3,0.7,0.6,1.1,1l6.5-6.5c0.5,0.4,1.1,0.7,1.6,0.9c1.5,0.5,3,0.4,4.5,0.4c0.5,0,1,0.1,1.5,0.1l-8.9,8.9
		c0.4,0.3,0.8,0.6,1.2,0.9l9.6-9.6c2.6,0.3,5.1,0.9,7.5,1.6l-11.5,11.5c0.4,0.3,0.9,0.5,1.3,0.8L9,167.6c1.3,0.4,2.5,0.7,3.8,1.1
		c1,0.3,2.4,0.4,3.7,0.6L3.2,182.5c0.5,0.2,0.9,0.4,1.4,0.6l13.5-13.5c1.2,0.5,1.9,1.5,3.2,2c1.3,0.5,2.7,0,3.8,0.1l-14,14
		c0.5,0.2,1,0.4,1.5,0.5l13.9-13.9c1.7,1,3.1,2.6,5.4,2.9c0.3,0,0.6,0,0.8,0l-13.1,13.1c0.6,0.1,1.1,0.3,1.7,0.4l13.8-13.8
		c0,0,0.1,0,0.1,0c2.2,0.2,4.6,1.4,6.9,2.1l-13,13c0.6,0.1,1.2,0.2,1.8,0.2l12.7-12.7c2.1,0.6,5,1.5,7.3,1.9l-11.4,11.4
		c0.4,0,0.7,0,1.1,0c0.3,0,0.7,0,1,0L53,179.6c1.4-0.1,2.7-0.6,4.2-0.7c2.1,0,3.7,0.3,5.5,0.1l-11.1,11.1c0.8-0.1,1.6-0.2,2.4-0.3
		l11.5-11.5c5.4-1.7,10.8-3.6,15.7-6.6l-15.5,15.5c1-0.3,2-0.6,3-0.9l14.2-14.2c1.2,1.9,1.4,1.7,3.4,1.8c1.2,0,2.8-0.2,4.3-0.4
		l-5.6,5.6c1.8-1,3.5-2.1,5.3-3.2l2.5-2.5c0,0,0,0,0.1,0c0.3,0,0.6,0.1,0.9,0.1c10.7-7.8,19.7-17.8,26.1-29.5H-37.9
		C-33.7,152-28.3,159-22.1,165.1z"/>
	<path class="st1" d="M36.4,133.4v-4.6c-0.5,0.1-1,0.1-1.5,0.1c-2.7,0-4.9-1-6.2-2.8c-2.2,0.3-3-0.5-3.7-1.5c-0.3-0.4-0.6-0.8-1.1-1
		c-2.1-1.1-4.7-1.5-7.4-1.9c-1.4-0.2-2.8-0.5-4.2-0.8c-2.4-0.6-4.9-1.3-7.3-1.9c-2.9-0.8-5.9-1.7-8.7-2.2l-1.3-0.3
		c-4.7-0.9-9.6-2-14-4c-0.8,0.3-1.6,0.5-1.9,0.5c0,0,0,0,0,0c-2,0-3.4-0.3-4.5-0.6c-2-0.5-3.1-0.7-6.3,0.9l-1.2,0.6
		c-1.9,1-3.9,2.1-6.1,2.4c-1.4,0.2-2.8-0.2-4.2-0.6c-1.3-0.4-2.6-0.7-3.7-0.5c-0.4,0.1-0.7,0.3-1.1,0.5c1.2,7.4,3.4,14.6,6.3,21.3
		h74.4C34.8,137,36.4,135.4,36.4,133.4z"/>
	<path class="st1" d="M-42.6,113.9c1.2,0.3,2.4,0.7,3.4,0.5c1.9-0.3,3.7-1.3,5.5-2.2l1.2-0.6c3.8-1.9,5.5-1.5,7.6-1.1
		c0.9,0.2,2,0.4,3.5,0.5c-0.6-0.4-1.1-0.9-1.5-1.3c-1-1-1.8-1.6-4-2c-0.7-0.1-1.5-0.1-2.4-0.1c-2.6,0-6.1,0-6.6-4
		c-1.2-0.1-2.5-0.1-3.8,0c-1.4,0.1-2.9,0.1-4.3,0c-1.3-0.2-2.5-0.7-3.7-1.2c-0.5-0.2-0.9-0.4-1.4-0.5c0,4,0.4,8,0.9,11.9
		c0.3-0.2,0.6-0.3,1-0.4C-45.7,113-44.1,113.4-42.6,113.9z"/>
	<path class="st1" d="M13.3,107.7c-1.9-0.1-3.9-0.2-5.7-1.2c-1.2-0.6-1.9-1.4-2.5-1.9c-1-0.9-1.1-1.1-2.8,0.1
		c-0.7,0.5-1.1,1.3-1.4,2.2c-0.4,1-0.8,2.1-1.9,2.9l-0.6,0.4l-0.6-0.4c-1.1-0.8-1.9-1.7-2.5-2.4c-1.5-1.6-2.2-2.4-4.5-1.7
		c-1.2,0.3-1.8,1.2-2.6,2.3c-0.7,1-1.4,1.9-2.5,2.5c-0.2,0.1-1.1,0.5-2.2,1c3.7,1.5,7.8,2.3,11.8,3.1l1.3,0.3
		c2.9,0.6,5.9,1.4,8.9,2.3c2.4,0.7,4.8,1.4,7.2,1.9c1.4,0.3,2.8,0.6,4.1,0.8c2.9,0.5,5.6,0.9,7.9,2.1c0.9,0.5,1.4,1.1,1.8,1.6
		c0.5,0.7,0.8,1,2.5,0.7l0.7-0.1l0.3,0.6c1.3,2.6,4.7,2.5,6.3,2.3v-7.2l-0.4,1.1c-1.9-0.8-4.7-1.8-6.1-4.2c-0.1,0.1-0.3,0.1-0.4,0.2
		c-0.3,0.1-0.7,0.4-0.8,0.5L28,118l-0.7-0.9c-0.4-0.5-0.7-1.3-1.1-2.1c-0.3-0.7-0.9-2-1.2-2.2c-0.3-0.1-0.7,0-1.3,0.4
		c-0.5,0.3-1,0.7-1.7,0.5c-0.3-0.1-0.6-0.2-0.9-0.3c-1.7-0.5-3.9-1.2-3.6-5.1C16.2,107.9,14.8,107.8,13.3,107.7z"/>
	<path class="st1" d="M-43.8,101.7c1.3,0.2,2.6,0.1,4,0c1.6-0.1,3.3-0.2,5,0.1l0.8,0.1l0,0.8c0,2.9,1.6,3,4.7,3c0.9,0,1.8,0,2.7,0.1
		c2.7,0.4,3.8,1.4,4.9,2.4c0.7,0.6,1.4,1.3,2.6,1.9c0.1,0,0.2,0.1,0.3,0.1c1.5-0.6,3.3-1.3,3.8-1.6c0.7-0.4,1.3-1.1,1.8-2
		c0.8-1.2,1.8-2.5,3.6-3c3.3-0.9,4.7,0.5,6.4,2.3c0.5,0.5,1,1.1,1.7,1.7c0.3-0.4,0.6-1,0.8-1.6c0.4-1,0.9-2.2,2.1-3
		c2.8-1.9,3.8-1.2,5.1,0.1c0.5,0.5,1.1,1.1,2.1,1.6c1.5,0.8,3.1,0.9,4.9,1c1.9,0.1,3.8,0.2,5.6,1.2l0.6,0.3l-0.1,0.7
		c-0.4,2.9,0.4,3.2,2.2,3.7c0.2,0.1,0.5,0.2,0.7,0.2c0.1,0,0.2-0.1,0.2-0.2c0.6-0.4,1.8-1.2,3.2-0.6c0.8,0.4,1.3,1.4,2.1,3.1
		c0.1,0.3,0.3,0.7,0.4,1c0.1-0.1,0.2-0.1,0.3-0.2c0.3-0.2,0.8-0.4,1-0.6l1.1-1.2l0.5,1.6c0.7,2.3,3.2,3.3,5.2,4.1V82
		c0-2-1.6-3.6-3.6-3.6h-79.1c-1.8,6.9-2.7,14.1-2.8,21.6c0.7,0.2,1.4,0.5,2.1,0.8C-46,101.2-44.9,101.6-43.8,101.7z"/>
	<path class="st1" d="M-22.3,45.9c0.9,0,1.8,0.3,2.5,0.8l11-7c0-0.3-0.1-0.5-0.1-0.8c0-2.4,1.9-4.3,4.3-4.3c2.3,0,4.2,1.8,4.3,4.2
		l10.2,3.7c0.8-0.9,1.9-1.4,3.2-1.4c2.4,0,4.3,1.9,4.3,4.3c0,0.1,0,0.1,0,0.2l10.4,4.7c0.8-0.7,1.8-1.2,3-1.2c1.3,0,2.4,0.6,3.2,1.4
		l10.2-3.7c0.1-2.3,2-4.2,4.3-4.2c2.2,0,4,1.7,4.3,3.8l10,2.7c0.8-1,2-1.7,3.4-1.7c1.5,0,2.9,0.8,3.6,2l9.8-1.8
		c0.4-2,2.1-3.4,4.2-3.4c1.9,0,3.6,1.3,4.1,3.1l9.8,0.9c0.7-1.4,2.1-2.3,3.8-2.3c2.1,0,3.8,1.5,4.2,3.5l10.2,1.9
		C99.8,26.9,72.2,10.9,40.8,10.9c-30.9,0-58.2,15.6-74.4,39.3l7-1C-26,47.3-24.4,45.9-22.3,45.9z"/>
	<path class="st1" d="M118.2,55l-13.1-2.5c-0.8,1.2-2.1,2-3.6,2c-1.9,0-3.6-1.3-4.1-3.1l-9.8-0.9c-0.7,1.4-2.1,2.3-3.8,2.3
		c-1.5,0-2.9-0.8-3.6-2l-9.8,1.8c-0.4,2-2.1,3.4-4.2,3.4c-2.2,0-4-1.7-4.3-3.8l-10-2.7c-0.8,1-2,1.7-3.4,1.7c-1.3,0-2.4-0.6-3.2-1.4
		L35,53.5c-0.1,2.3-2,4.2-4.3,4.2c-2.4,0-4.3-1.9-4.3-4.3c0-0.1,0-0.1,0-0.2L16,48.5c-0.8,0.7-1.8,1.2-3,1.2c-2.3,0-4.2-1.8-4.3-4.2
		l-10.2-3.7c-0.8,0.9-1.9,1.4-3.2,1.4c-0.9,0-1.8-0.3-2.5-0.8l-11,7c0,0.3,0.1,0.5,0.1,0.8c0,2.4-1.9,4.3-4.3,4.3
		c-1.6,0-3-0.9-3.7-2.1l-9.8,1.4c-3.3,5.4-6.1,11.2-8.2,17.3h169.8C123.8,65.4,121.2,60,118.2,55z"/>
</g>
</svg>
