<?xml version="1.0" encoding="utf-8"?>
<!-- Generator: Adobe Illustrator 19.1.0, SVG Export Plug-In . SVG Version: 6.00 Build 0)  -->
<svg version="1.1" id="Layer_1" xmlns="http://www.w3.org/2000/svg" xmlns:xlink="http://www.w3.org/1999/xlink" x="0px" y="0px"
	 width="100px" height="100px" viewBox="0 0 100 100" style="enable-background:new 0 0 100 100;" xml:space="preserve">
<style type="text/css">
	.st0{fill:#787878;}
	.st1{fill:#13B1D3;}
</style>
<g>
	<circle class="st0" cx="8.9" cy="9.9" r="2.3"/>
	<circle class="st0" cx="15" cy="9.9" r="2.3"/>
	<path class="st0" d="M8.6,25.2v2.6h6.3c0.1-0.9,0.3-1.8,0.5-2.6H8.6z"/>
	<path class="st0" d="M2.6,15v2.6h18.1c1.8-1.3,4-2.3,6.3-2.6H2.6z"/>
	<path class="st0" d="M11.8,63.4c-5,0-9.1-4.1-9.1-9.1V12.6c0-5,4.1-9.1,9.1-9.1h41.6c5,0,9.1,4.1,9.1,9.1v2.2h2.6v-2.2
		c0-6.5-5.3-11.8-11.8-11.8H11.8C5.3,0.9,0,6.1,0,12.6v41.6C0,60.7,5.3,66,11.8,66h3v-2.6H11.8z"/>
	<circle class="st0" cx="26.4" cy="26.5" r="2.3"/>
	<circle class="st0" cx="32.4" cy="26.5" r="2.3"/>
	<rect x="11.1" y="34.4" class="st1" width="3.7" height="17.2"/>
	<rect x="28.5" y="51" class="st1" width="3.7" height="17.2"/>
	<path class="st0" d="M26,41.7v2.6h6.3c0.1-0.9,0.3-1.8,0.5-2.6H26z"/>
	<polygon class="st0" points="26,48.4 26,70.8 32.2,70.8 32.2,68.2 28.7,68.2 28.7,51 32.2,51 32.2,48.4 	"/>
	<path class="st0" d="M29.2,80c-5,0-9.1-4.1-9.1-9.1V29.2c0-5,4.1-9.1,9.1-9.1h41.6c5,0,9.1,4.1,9.1,9.1v2.2h2.6v-2.2
		c0-6.5-5.3-11.8-11.8-11.8H29.2c-6.5,0-11.8,5.3-11.8,11.8v41.6c0,6.5,5.3,11.8,11.8,11.8h3V80H29.2z"/>
	<path class="st0" d="M20,34.2h18.1c1.8-1.3,4-2.3,6.3-2.6H20V34.2z"/>
	<rect x="46.1" y="67.5" class="st1" width="11.4" height="17.2"/>
	<circle class="st0" cx="43.8" cy="43" r="2.3"/>
	<circle class="st0" cx="49.8" cy="43" r="2.3"/>
	<rect x="43.5" y="58.3" class="st0" width="46.8" height="2.6"/>
	<rect x="66.7" y="64.9" class="st0" width="23.6" height="2.6"/>
	<rect x="66.7" y="84.8" class="st0" width="23.6" height="2.6"/>
	<rect x="66.7" y="78.2" class="st0" width="23.6" height="2.6"/>
	<rect x="66.7" y="71.5" class="st0" width="23.6" height="2.6"/>
	<path class="st0" d="M60.1,64.9H43.5v22.4h16.7V64.9z M46.1,67.5h11.4v17.2H46.1V67.5z"/>
	<path class="st0" d="M88.2,34H46.6c-6.5,0-11.8,5.3-11.8,11.8v41.6c0,6.5,5.3,11.8,11.8,11.8h41.6c6.5,0,11.8-5.3,11.8-11.8V45.7
		C100,39.3,94.7,34,88.2,34z M97.4,48.1H37.5v2.6h59.9v36.7c0,5-4.1,9.1-9.1,9.1H46.6c-5,0-9.1-4.1-9.1-9.1V45.7
		c0-5,4.1-9.1,9.1-9.1h41.6c5,0,9.1,4.1,9.1,9.1V48.1z"/>
	<polygon class="st0" points="14.8,34.4 14.8,31.8 8.6,31.8 8.6,54.2 14.8,54.2 14.8,51.6 11.2,51.6 11.2,34.4 	"/>
</g>
</svg>
