<?xml version="1.0" encoding="utf-8"?>
<!-- Generator: Adobe Illustrator 20.1.0, SVG Export Plug-In . SVG Version: 6.00 Build 0)  -->
<svg version="1.1" id="Layer_1" xmlns="http://www.w3.org/2000/svg" xmlns:xlink="http://www.w3.org/1999/xlink" x="0px" y="0px"
	 width="81.5px" height="22.1px" viewBox="0 0 81.5 22.1" style="enable-background:new 0 0 81.5 22.1;" xml:space="preserve">
<style type="text/css">
	.st0{fill:#777777;}
	.st1{fill:#888888;}
</style>
<g>
	<g>
		<g>
			<path class="st0" d="M22.5,21.8l1.3-6.3c0.1-0.4,0.2-0.8,0.2-1.1c0.1-0.3,0.1-0.6,0.1-0.9c0-0.7-0.3-1.1-0.8-1.1
				c-0.3,0-0.5,0.1-0.8,0.2c-0.3,0.1-0.5,0.3-0.7,0.5s-0.4,0.5-0.6,0.7c-0.2,0.3-0.4,0.5-0.5,0.7l-1.5,7.2h-2.9l2.5-11.6H21l-0.1,2
				H21c0.2-0.2,0.5-0.5,0.8-0.8s0.6-0.5,0.9-0.8c0.3-0.2,0.7-0.4,1.1-0.6c0.4-0.2,0.9-0.2,1.4-0.2c0.6,0,1.1,0.2,1.4,0.7
				c0.3,0.4,0.5,1,0.4,1.8c0.2-0.3,0.5-0.6,0.8-0.9c0.3-0.3,0.6-0.6,1-0.8c0.3-0.2,0.7-0.4,1.1-0.6c0.4-0.1,0.8-0.2,1.2-0.2
				c0.7,0,1.3,0.2,1.6,0.5c0.4,0.3,0.6,1,0.6,1.9c0,0.7-0.1,1.5-0.3,2.6l-1.5,7h-2.9l1.4-6.5c0.1-0.4,0.1-0.7,0.2-1
				c0-0.3,0.1-0.6,0.1-0.8c0-0.4-0.1-0.6-0.2-0.8s-0.4-0.3-0.7-0.3c-0.2,0-0.5,0.1-0.8,0.2c-0.3,0.1-0.5,0.3-0.7,0.6
				c-0.2,0.2-0.4,0.5-0.6,0.7c-0.2,0.3-0.3,0.5-0.5,0.7l-1.5,7.1h-2.8V21.8z"/>
		</g>
		<g>
			<path class="st0" d="M36.9,10.2h2.9l-2.5,11.6h-2.9L36.9,10.2z M37.3,6.9c0-0.5,0.2-0.9,0.5-1.2s0.8-0.4,1.3-0.4s0.9,0.1,1.3,0.4
				c0.3,0.3,0.5,0.7,0.5,1.2s-0.2,0.9-0.5,1.2c-0.3,0.3-0.8,0.4-1.3,0.4s-0.9-0.1-1.3-0.4C37.5,7.8,37.3,7.4,37.3,6.9z"/>
		</g>
		<g>
			<path class="st0" d="M43.6,18.4c-0.1,0.4-0.1,0.8,0,1s0.3,0.3,0.5,0.3c0.4,0,0.8-0.1,1.2-0.3l-0.1,2c-0.3,0.2-0.7,0.3-1.2,0.4
				S43,22,42.4,22c-0.7,0-1.2-0.1-1.5-0.4s-0.5-0.7-0.5-1.4c0-0.4,0-0.8,0.1-1.2l2.9-13.5h2.9L43.6,18.4z"/>
		</g>
		<g>
			<path class="st0" d="M49.9,18.4c-0.1,0.4-0.1,0.8,0,1s0.3,0.3,0.5,0.3c0.4,0,0.8-0.1,1.2-0.3l-0.1,2c-0.3,0.2-0.7,0.3-1.2,0.4
				s-1,0.2-1.6,0.2c-0.7,0-1.2-0.1-1.5-0.4s-0.5-0.7-0.5-1.4c0-0.4,0-0.8,0.1-1.2l2.9-13.5h2.9L49.9,18.4z"/>
		</g>
		<g>
			<path class="st0" d="M55.4,10.2h2.9l-2.5,11.6H53L55.4,10.2z M55.9,6.9c0-0.5,0.2-0.9,0.5-1.2s0.8-0.4,1.3-0.4s0.9,0.1,1.3,0.4
				c0.3,0.3,0.5,0.7,0.5,1.2S59.3,7.8,59,8.1c-0.3,0.3-0.8,0.4-1.3,0.4s-0.9-0.1-1.3-0.4C56.1,7.8,55.9,7.4,55.9,6.9z"/>
		</g>
		<g>
			<path class="st0" d="M59.1,18c0-1.2,0.2-2.3,0.5-3.3s0.8-1.9,1.4-2.6c0.6-0.7,1.3-1.3,2-1.7c0.8-0.4,1.6-0.6,2.4-0.6
				c0.7,0,1.4,0.1,1.9,0.3s0.9,0.5,1.2,0.9c0.3,0.4,0.5,0.8,0.7,1.3c0.1,0.5,0.2,1,0.2,1.5c0,1.2-0.2,2.3-0.5,3.3s-0.8,1.9-1.4,2.6
				s-1.2,1.3-2,1.7c-0.8,0.4-1.6,0.6-2.4,0.6c-0.7,0-1.3-0.1-1.9-0.4c-0.5-0.2-0.9-0.6-1.3-0.9c-0.3-0.4-0.6-0.8-0.7-1.3
				C59.2,19,59.1,18.5,59.1,18z M62,17.7c0,1.4,0.5,2.1,1.5,2.1c0.4,0,0.7-0.2,1.1-0.5s0.7-0.8,1-1.3s0.5-1.1,0.7-1.8
				c0.2-0.7,0.2-1.3,0.2-2c0-0.6-0.1-1.1-0.3-1.4c-0.2-0.3-0.6-0.5-1.2-0.5c-0.4,0-0.7,0.2-1.1,0.5s-0.7,0.7-1,1.2s-0.5,1.1-0.7,1.7
				C62.1,16.3,62,17,62,17.7z"/>
		</g>
		<g>
			<path class="st0" d="M76.8,21.8l1.5-7.2c0.1-0.4,0.1-0.8,0.1-1.1s-0.1-0.6-0.2-0.8s-0.4-0.3-0.8-0.3c-0.3,0-0.6,0.1-0.8,0.2
				c-0.3,0.1-0.5,0.3-0.8,0.6c-0.2,0.2-0.5,0.5-0.7,0.8s-0.4,0.6-0.6,0.9l-1.5,7h-2.9l2.5-11.6h2.2l-0.1,2h0.1
				c0.2-0.2,0.4-0.5,0.7-0.8c0.3-0.3,0.6-0.5,0.9-0.8c0.4-0.2,0.8-0.4,1.2-0.6c0.4-0.2,0.9-0.2,1.5-0.2c0.7,0,1.3,0.2,1.7,0.6
				c0.4,0.4,0.6,1,0.6,1.9c0,0.2,0,0.5,0,0.7c0,0.3-0.1,0.5-0.2,0.9l-1.7,7.9L76.8,21.8L76.8,21.8z"/>
		</g>
	</g>
</g>
<g>
	<path class="st1" d="M16.4,5.1c0,1.5-0.4,2.7-1.3,3.6c-0.9,1-2.1,1.6-3.7,1.9v0.1c1.3,0.2,2.3,0.8,3,1.6c0.7,0.9,1.1,1.9,1.1,3.1
		c0,2.1-0.9,3.8-2.6,4.9S8.8,22,5.8,22c-1.1,0-2.2-0.1-3.2-0.3c-1-0.2-1.8-0.5-2.5-0.9v-4.9c1.6,1,3.5,1.5,5.6,1.5
		c1.4,0,2.4-0.2,3-0.7c0.7-0.5,1-1.1,1-2c0-0.5-0.1-0.9-0.4-1.2C9,13.4,8.6,13.2,8,13.1c-0.6-0.1-1.4-0.2-2.4-0.2H4.3l0.8-4.3h1.1
		c1.4,0,2.6-0.2,3.4-0.7s1.2-1.1,1.2-1.9c0-0.5-0.2-0.8-0.5-1.1C9.9,4.7,9.5,4.6,8.8,4.6c-1.1,0-2.5,0.4-4,1.2L2.5,2.2
		C3.8,1.4,5,0.8,6.1,0.5C7.3,0.1,8.5,0,9.9,0c2,0,3.6,0.5,4.7,1.4C15.9,2.3,16.4,3.5,16.4,5.1z"/>
</g>
</svg>
