<?xml version="1.0" encoding="utf-8"?>
<!-- Generator: Adobe Illustrator 19.1.0, SVG Export Plug-In . SVG Version: 6.00 Build 0)  -->
<svg version="1.1" id="Layer_1" xmlns="http://www.w3.org/2000/svg" xmlns:xlink="http://www.w3.org/1999/xlink" x="0px" y="0px"
	 width="150px" height="150px" viewBox="0 0 150 150" style="enable-background:new 0 0 150 150;" xml:space="preserve">
<style type="text/css">
	.st0{fill:#414042;}
</style>
<g>
	<path class="st0" d="M150,27.7h-4.1V113h-54c24.4-8.8,47.5-9.2,47.8-9.2l2,0v-85h-2c-33.1,0-59.5,12.8-64.9,15.6
		C43.8,19,11.7,20.9,10.3,21l-1.9,0.1v82.7h2c17.4,0,34.5,4.8,46.6,9.2H4.2V27.7H0.1v89.4h67.1c0,0,0.1,0,0.1,0
		c0.7,2.8,3.8,4.9,7.5,4.9c3.7,0,6.8-2.1,7.5-5H150V27.7z M12.5,25c7.3-0.2,34.6,0.2,60.3,13v77.1c-8.5-4-33.5-14.8-60.3-15.4V25z
		 M137.7,99.8c-7.7,0.3-35.3,2.4-60.8,15.2V38c5.3-2.7,30.2-14.5,60.8-15.1V99.8z"/>
</g>
</svg>
