<?xml version="1.0" encoding="utf-8"?>
<!-- Generator: Adobe Illustrator 20.1.0, SVG Export Plug-In . SVG Version: 6.00 Build 0)  -->
<svg version="1.1" id="Layer_1" xmlns="http://www.w3.org/2000/svg" xmlns:xlink="http://www.w3.org/1999/xlink" x="0px" y="0px"
	 width="23.4px" height="23.4px" viewBox="0 0 23.4 23.4" style="enable-background:new 0 0 23.4 23.4;" xml:space="preserve">
<style type="text/css">
	.st0{fill:#E8272C;}
</style>
<g>
	<path class="st0" d="M19.9,3.4c-4.6-4.6-12-4.6-16.5,0s-4.6,12,0,16.5c4.6,4.6,12,4.6,16.5,0S24.5,7.9,19.9,3.4z M16.9,15.3
		c0.2,0.2,0.2,0.5,0,0.8L16,17c-0.2,0.2-0.5,0.2-0.8,0l-3.6-3.7L8,17c-0.2,0.2-0.5,0.2-0.8,0l-0.9-0.9c-0.2-0.2-0.2-0.5,0-0.8
		l3.7-3.7L6.4,8c-0.2-0.2-0.2-0.5,0-0.8l0.9-0.9c0.2-0.2,0.5-0.2,0.8,0l3.7,3.7l3.7-3.7c0.2-0.2,0.5-0.2,0.8,0L17,7.3
		c0.2,0.2,0.2,0.5,0,0.8l-3.7,3.7L16.9,15.3z"/>
</g>
</svg>
