<?xml version="1.0" encoding="utf-8"?>
<!-- Generator: Adobe Illustrator 20.1.0, SVG Export Plug-In . SVG Version: 6.00 Build 0)  -->
<svg version="1.1" id="Layer_1" xmlns="http://www.w3.org/2000/svg" xmlns:xlink="http://www.w3.org/1999/xlink" x="0px" y="0px"
	 width="23.4px" height="23.4px" viewBox="0 0 23.4 23.4" style="enable-background:new 0 0 23.4 23.4;" xml:space="preserve">
<style type="text/css">
	.st0{fill:#02A64D;}
</style>
<g>
	<path class="st0" d="M11.7,0C5.2,0,0,5.2,0,11.7s5.2,11.7,11.7,11.7c6.4,0,11.7-5.2,11.7-11.7S18.1,0,11.7,0z M17.9,9.4l-8.1,6.9
		c-0.1,0.1-0.2,0.1-0.4,0.1s-0.3-0.1-0.4-0.2l-0.7-0.9l-2.1-2.5c-0.2-0.2-0.1-0.6,0.1-0.8L7,11.3c0.1-0.1,0.1-0.1,0.3-0.1
		c0.2,0,0.4,0.1,0.5,0.3l1.7,1.9l6.8-5.8c0.1-0.1,0.2-0.1,0.4-0.1s0.3,0.1,0.4,0.2l0.7,0.9C18.2,8.8,18.1,9.2,17.9,9.4z"/>
</g>
</svg>
