<?xml version="1.0" encoding="utf-8"?>
<!-- Generator: Adobe Illustrator 20.1.0, SVG Export Plug-In . SVG Version: 6.00 Build 0)  -->
<svg version="1.1" id="Layer_1" xmlns="http://www.w3.org/2000/svg" xmlns:xlink="http://www.w3.org/1999/xlink" x="0px" y="0px"
	 width="100px" height="100px" viewBox="0 0 100 100" style="enable-background:new 0 0 100 100;" xml:space="preserve">
<style type="text/css">
	.st0{fill:#4A494A;}
</style>
<path class="st0" d="M64.5,59.9c-0.3-0.3-0.8-0.4-1.2-0.2c-0.1,0.1-0.2,0.1-0.3,0.2c-0.3,0.2-0.7,0.3-1.1,0.4
	c-0.4,0.1-0.8,0.2-1.2,0.3c-0.2,0-0.4,0.1-0.6,0.1c-0.1,0-0.2,0-0.3,0c-0.1,0-0.2,0-0.3,0c-0.1,0-0.2,0-0.3,0c-0.1,0-0.3,0-0.4,0
	c0,0-0.1,0,0,0l0,0l-0.1,0c-0.1,0-0.1,0-0.2,0c-0.1,0-0.2,0-0.3,0c-0.9-0.1-1.8-0.4-2.7-0.8c-0.9-0.4-1.8-1-2.5-1.7
	c-0.8-0.7-1.5-1.5-2-2.5c-0.5-0.9-0.9-2-1.1-3.1c-0.1-0.6-0.1-1.1-0.1-1.7c0-0.2,0-0.3,0-0.5c0,0,0,0,0,0l0-0.1l0-0.1
	c0-0.1,0-0.2,0-0.2c0-0.3,0.1-0.6,0.1-0.9c0.4-2.4,1.6-4.8,3.5-6.5c0.5-0.4,1-0.9,1.5-1.2c0.5-0.4,1.1-0.7,1.7-1
	c0.6-0.3,1.2-0.5,1.8-0.7c0.6-0.2,1.3-0.3,1.9-0.3c0.3,0,0.7,0,1,0c0.1,0,0.2,0,0.2,0l0.3,0l0.2,0c0.1,0,0,0,0,0l0.1,0l0.3,0
	c0.7,0.1,1.4,0.2,2.1,0.3c1.4,0.3,2.8,0.8,4.1,1.5c2.6,1.4,4.7,3.6,6.1,6.3c0.7,1.3,1.1,2.8,1.4,4.2c0.1,0.4,0.1,0.7,0.1,1.1l0,0.3
	l0,0.3c0,0.1,0,0.2,0,0.3c0,0.1,0,0.2,0,0.3l0,0.2l0,0.3c0,0.2,0,0.5,0,0.7c0,0.4-0.1,0.8-0.1,1.2c0,0.4-0.1,0.8-0.2,1.2
	c-0.1,0.4-0.2,0.8-0.3,1.2c-0.2,0.8-0.5,1.6-0.8,2.3c-0.6,1.5-1.4,3-2.4,4.3C70.6,68,68,70.2,65,71.5c-1.5,0.7-3.1,1.2-4.7,1.4
	c-0.8,0.1-1.6,0.2-2.5,0.2l-0.2,0l-0.1,0l-0.3,0l-0.4,0l-0.2,0c0.1,0,0,0,0,0l-0.1,0c-0.4,0-0.9,0-1.3-0.1c-1.8-0.1-3.5-0.4-5.2-0.9
	c-1.7-0.5-3.3-1.1-4.9-2c-3.1-1.7-5.9-3.9-8-6.7c-1.1-1.4-2-2.8-2.8-4.4c-0.8-1.5-1.4-3.2-1.9-4.8c-0.5-1.7-0.7-3.3-0.8-5l0-0.3
	l0-0.1l0-0.1l0-0.1l0-0.3l0-0.1l0-0.1l0-0.2l0-0.4l0-0.1c0,0,0,0,0,0l0-0.2c0-0.2,0-0.4,0-0.6c0-0.8,0.1-1.7,0.2-2.6
	c0.1-0.9,0.3-1.7,0.4-2.6c0.2-0.9,0.4-1.7,0.6-2.6c0.5-1.7,1.1-3.3,1.8-4.8c1.4-3.1,3.3-5.8,5.5-8c0.6-0.5,1.1-1.1,1.7-1.5
	c0.6-0.5,1.2-0.9,1.9-1.4c0.6-0.4,1.3-0.8,2-1.2c0.3-0.2,0.7-0.3,1-0.5c0.2-0.1,0.4-0.2,0.5-0.2c0.2-0.1,0.4-0.2,0.5-0.2
	c0.7-0.3,1.4-0.6,2.2-0.8c0.2-0.1,0.4-0.1,0.6-0.2c0.2-0.1,0.4-0.1,0.6-0.2c0.4-0.1,0.7-0.2,1.1-0.3c0.2,0,0.4-0.1,0.6-0.1
	c0.2,0,0.4-0.1,0.6-0.1c0.2,0,0.4-0.1,0.6-0.1l0.3-0.1l0.3,0c0.2,0,0.4-0.1,0.6-0.1c0.2,0,0.4-0.1,0.6-0.1c0.2,0,0.5-0.1,0.6-0.1
	c0.1,0,0.3,0,0.4,0l0.3,0l0.1,0l0.2,0c0.2,0,0.4,0,0.7,0l0.3,0c0,0,0.1,0,0,0l0.1,0l0.1,0c0.2,0,0.4,0,0.6,0c0.7,0,1.5,0,2.2,0
	c1.5,0.1,2.9,0.2,4.3,0.5c2.8,0.5,5.4,1.4,7.8,2.6c2.4,1.2,4.5,2.6,6.3,4.1c0.1,0.1,0.2,0.2,0.3,0.3c0.1,0.1,0.2,0.2,0.3,0.3
	c0.2,0.2,0.4,0.4,0.7,0.6c0.2,0.2,0.4,0.4,0.6,0.6c0.2,0.2,0.4,0.4,0.6,0.6c0.8,0.8,1.5,1.7,2.2,2.5c1.3,1.7,2.4,3.4,3.2,5
	c0.1,0.1,0.1,0.2,0.2,0.3c0,0.1,0.1,0.2,0.1,0.3c0.1,0.2,0.2,0.4,0.3,0.6c0.1,0.2,0.2,0.4,0.3,0.6c0.1,0.2,0.2,0.4,0.2,0.6
	c0.3,0.8,0.6,1.5,0.8,2.1c0.4,1.1,0.7,2.1,0.9,2.9c0.1,0.3,0.4,0.6,0.8,0.5l0,0c0.4,0,0.6-0.3,0.7-0.7c0-0.9,0-2-0.1-3.2
	c-0.1-1.5-0.4-3.3-0.9-5.2c-0.5-1.9-1.3-4.1-2.4-6.3c-1.1-2.2-2.5-4.5-4.4-6.7c-0.7-0.9-1.5-1.7-2.4-2.6c1.3-5.1-1.6-9.5-1.6-9.5
	c-4.9-0.3-8,1.5-9.2,2.4c-0.2-0.1-0.4-0.2-0.6-0.2c-0.8-0.3-1.7-0.7-2.6-0.9c-0.9-0.3-1.8-0.5-2.7-0.8c-0.9-0.2-1.9-0.4-2.8-0.5
	c-0.2,0-0.3,0-0.5-0.1C59.7,2.9,53.6,0,53.6,0c-6.8,4.3-8.1,10.4-8.1,10.4c0.1,0.1,0.1,0.2,0.2,0.3c-0.5,0.1-0.9,0.3-1.4,0.4
	c-0.5,0.2-1,0.4-1.6,0.5c-0.5,0.2-1,0.4-1.6,0.6c-1,0.4-2.1,0.9-3.1,1.5c-1,0.6-2,1.2-2.9,1.8c0,0-0.1,0-0.1,0.1
	c0-0.1-0.1-0.2-0.1-0.2c-9.5-3.6-17.9,0.7-17.9,0.7c-0.8,10.1,3.8,16.4,4.7,17.6c-0.2,0.6-0.4,1.3-0.6,1.9c-0.7,2.3-1.2,4.6-1.5,7
	c0,0.3-0.1,0.7-0.1,1C10.7,48.1,8.1,56.9,8.1,56.9c7.3,8.4,15.8,8.9,15.8,8.9c0,0,0,0,0,0c1.1,1.9,2.3,3.8,3.7,5.5
	c0.6,0.7,1.2,1.4,1.9,2.1c-2.7,7.6,0.4,14,0.4,14c8.1,0.3,13.5-3.6,14.6-4.5c0.8,0.3,1.6,0.5,2.5,0.7c2.5,0.6,5.1,1,7.6,1.1
	c0.6,0,1.3,0,1.9,0l0.3,0l0.2,0l0.4,0l0.4,0c0,0,0,0,0,0c3.8,5.5,10.6,6.2,10.6,6.2c5.4-5.7,5.1-11.4,5.1-11.4
	c-0.1,0-0.1-0.1-0.2-0.1c1.1-0.7,2.1-1.5,3-2.4c1.9-1.7,3.6-3.7,5-5.8c0.1-0.2,0.3-0.4,0.4-0.6c5.4,0.3,9.2-3.4,9.2-3.4
	c-1-6.3-4.9-9-4.9-9c0,0-0.1,0-0.1,0c0-0.4,0.1-0.7,0.1-1.1c0-0.6,0.1-1.2,0.1-1.8l0-0.5l0-0.2l0-0.1c0-0.2,0-0.1,0-0.2l0-0.4l0-0.5
	c0-0.2,0-0.3,0-0.5c0-0.2,0-0.3,0-0.5l-0.1-0.5l-0.1-0.5c-0.1-0.6-0.2-1.2-0.4-1.8c-0.6-2.4-1.5-4.7-2.8-6.8
	c-1.3-2.1-2.8-3.9-4.6-5.5c-1.8-1.6-3.7-2.8-5.8-3.7c-2.1-0.9-4.2-1.5-6.4-1.8c-1.1-0.1-2.2-0.2-3.2-0.2l-0.4,0l-0.1,0
	c0,0-0.2,0-0.1,0l-0.2,0l-0.4,0c-0.2,0-0.3,0-0.4,0c-0.5,0.1-1.1,0.1-1.6,0.2c-2.1,0.4-4.2,1.2-6,2.2c-1.8,1.1-3.3,2.4-4.6,3.9
	c-1.3,1.5-2.2,3.2-2.9,4.9c-0.7,1.7-1.1,3.5-1.2,5.3c0,0.4,0,0.9,0,1.3c0,0.1,0,0.2,0,0.3l0,0.3c0,0.2,0,0.4,0,0.6
	c0.1,0.9,0.2,1.7,0.5,2.5c0.5,1.6,1.2,3.1,2.2,4.4c0.9,1.3,2,2.3,3.2,3.1c1.2,0.8,2.4,1.4,3.7,1.8c1.3,0.4,2.5,0.5,3.7,0.5
	c0.1,0,0.3,0,0.4,0c0.1,0,0.2,0,0.2,0c0.1,0,0.2,0,0.2,0c0.1,0,0.2,0,0.4,0c0,0,0.1,0,0.1,0l0.1,0c0.1,0,0.2,0,0.2,0
	c0.2,0,0.3,0,0.4-0.1c0.1,0,0.3-0.1,0.4-0.1c0.3-0.1,0.5-0.1,0.8-0.2c0.5-0.2,1-0.4,1.4-0.6c0.4-0.2,0.9-0.5,1.2-0.8
	c0.1-0.1,0.2-0.2,0.3-0.2C64.8,60.9,64.8,60.3,64.5,59.9L64.5,59.9z"/>
</svg>
