<?xml version="1.0" encoding="utf-8"?>
<!-- Generator: Adobe Illustrator 20.1.0, SVG Export Plug-In . SVG Version: 6.00 Build 0)  -->
<svg version="1.1" id="Layer_1" xmlns="http://www.w3.org/2000/svg" xmlns:xlink="http://www.w3.org/1999/xlink" x="0px" y="0px"
	 width="11px" height="11px" viewBox="0 0 11 11" style="enable-background:new 0 0 11 11;" xml:space="preserve">
<style type="text/css">
	.st0{fill:#888888;}
	.st1{fill:#FFFFFF;}
</style>
<g>
	<path class="st0" d="M5.5,0.3c-2.9,0-5.2,2.3-5.2,5.2s2.3,5.2,5.2,5.2c2.9,0,5.2-2.3,5.2-5.2S8.4,0.3,5.5,0.3z"/>
</g>
<g>
	<path class="st1" d="M4.5,4.8V4.5c0.1,0,0.2-0.1,0.4-0.1c0.1,0,0.3-0.1,0.5-0.1c0.2,0,0.3-0.1,0.5-0.1c0.2,0,0.3,0,0.4,0l0.2,0.1
		L5.6,8.1h0.6v0.3C6.1,8.4,6,8.5,5.9,8.5c-0.1,0-0.2,0.1-0.3,0.1c-0.1,0-0.2,0.1-0.3,0.1c-0.1,0-0.2,0-0.3,0c-0.2,0-0.4,0-0.5-0.1
		C4.4,8.6,4.3,8.5,4.3,8.4c0-0.1,0-0.2,0-0.3c0-0.1,0-0.2,0.1-0.4L5,4.9L4.5,4.8z M5.2,2.8c0-0.2,0.1-0.4,0.2-0.5
		c0.1-0.1,0.3-0.2,0.5-0.2c0.2,0,0.4,0.1,0.5,0.2c0.1,0.1,0.2,0.3,0.2,0.5c0,0.2-0.1,0.3-0.2,0.4C6.3,3.4,6.2,3.5,5.9,3.5
		c-0.2,0-0.4-0.1-0.5-0.2C5.3,3.2,5.2,3,5.2,2.8z"/>
</g>
</svg>
