<?xml version="1.0" encoding="utf-8"?>
<!-- Generator: Adobe Illustrator 20.1.0, SVG Export Plug-In . SVG Version: 6.00 Build 0)  -->
<svg version="1.1" id="Layer_1" xmlns="http://www.w3.org/2000/svg" xmlns:xlink="http://www.w3.org/1999/xlink" x="0px" y="0px"
	 width="50px" height="50px" viewBox="0 0 50 50" style="enable-background:new 0 0 50 50;" xml:space="preserve">
<style type="text/css">
	.st0{fill:url(#SVGID_1_);}
</style>
<linearGradient id="SVGID_1_" gradientUnits="userSpaceOnUse" x1="25" y1="60.5069" x2="25" y2="14.4761">
	<stop  offset="0" style="stop-color:#FFF200"/>
	<stop  offset="1" style="stop-color:#F15A29"/>
</linearGradient>
<path class="st0" d="M33,32.9c-0.2-0.2-0.4-0.2-0.6-0.1c-0.1,0-0.1,0.1-0.2,0.1C32,33,31.8,33,31.6,33.1c-0.2,0.1-0.4,0.1-0.6,0.2
	c-0.1,0-0.2,0-0.3,0c-0.1,0-0.1,0-0.2,0c-0.1,0-0.1,0-0.2,0c-0.1,0-0.1,0-0.2,0c-0.1,0-0.1,0-0.2,0c0,0,0,0,0,0l0,0l0,0
	c0,0-0.1,0-0.1,0c-0.1,0-0.1,0-0.2,0c-0.5-0.1-1-0.2-1.5-0.4c-0.5-0.2-1-0.5-1.4-0.9c-0.4-0.4-0.8-0.8-1.1-1.4
	c-0.3-0.5-0.5-1.1-0.6-1.7c0-0.3-0.1-0.6-0.1-0.9c0-0.1,0-0.2,0-0.3c0,0,0,0,0,0l0,0l0-0.1c0,0,0-0.1,0-0.1c0-0.2,0-0.3,0.1-0.5
	c0.2-1.3,0.9-2.6,1.9-3.6c0.3-0.2,0.5-0.5,0.8-0.7c0.3-0.2,0.6-0.4,0.9-0.5c0.3-0.2,0.7-0.3,1-0.4c0.3-0.1,0.7-0.2,1.1-0.2
	c0.2,0,0.4,0,0.5,0c0,0,0.1,0,0.1,0l0.1,0l0.1,0c0,0,0,0,0,0l0,0l0.1,0c0.4,0,0.8,0.1,1.2,0.2c0.8,0.2,1.5,0.5,2.2,0.8
	c1.4,0.8,2.6,2,3.3,3.5c0.4,0.7,0.6,1.5,0.8,2.3c0,0.2,0.1,0.4,0.1,0.6l0,0.2l0,0.2c0,0.1,0,0.1,0,0.2c0,0.1,0,0.1,0,0.1l0,0.1
	l0,0.1c0,0.1,0,0.3,0,0.4c0,0.2,0,0.4-0.1,0.7c0,0.2-0.1,0.4-0.1,0.7c0,0.2-0.1,0.4-0.1,0.7c-0.1,0.4-0.2,0.9-0.4,1.3
	c-0.3,0.8-0.8,1.6-1.3,2.4c-1.1,1.5-2.5,2.6-4.2,3.4c-0.8,0.4-1.7,0.6-2.6,0.8c-0.4,0.1-0.9,0.1-1.4,0.1l-0.1,0l-0.1,0l-0.1,0
	l-0.2,0l-0.1,0c0.1,0,0,0,0,0l0,0c-0.2,0-0.5,0-0.7,0c-1-0.1-1.9-0.2-2.8-0.5c-0.9-0.3-1.8-0.6-2.7-1.1c-1.7-0.9-3.2-2.2-4.4-3.7
	c-0.6-0.7-1.1-1.6-1.6-2.4c-0.4-0.8-0.8-1.7-1-2.6c-0.2-0.9-0.4-1.8-0.5-2.8l0-0.2l0,0l0,0l0-0.1l0-0.2l0,0l0-0.1l0-0.1l0-0.2l0,0
	c0,0,0,0,0,0l0-0.1c0-0.1,0-0.2,0-0.3c0-0.5,0.1-0.9,0.1-1.4c0.1-0.5,0.1-1,0.2-1.4c0.1-0.5,0.2-0.9,0.3-1.4c0.3-0.9,0.6-1.8,1-2.7
	c0.8-1.7,1.8-3.2,3-4.4c0.3-0.3,0.6-0.6,1-0.9c0.3-0.3,0.7-0.5,1-0.7c0.4-0.2,0.7-0.4,1.1-0.6c0.2-0.1,0.4-0.2,0.6-0.3
	c0.1,0,0.2-0.1,0.3-0.1c0.1,0,0.2-0.1,0.3-0.1c0.4-0.2,0.8-0.3,1.2-0.4c0.1,0,0.2-0.1,0.3-0.1c0.1,0,0.2-0.1,0.3-0.1
	c0.2-0.1,0.4-0.1,0.6-0.2c0.1,0,0.2,0,0.3-0.1c0.1,0,0.2,0,0.3-0.1c0.1,0,0.2,0,0.3-0.1l0.2,0l0.2,0c0.1,0,0.2,0,0.3,0
	c0.1,0,0.2,0,0.4,0c0.1,0,0.3,0,0.4,0c0.1,0,0.1,0,0.2,0l0.1,0l0.1,0l0.1,0c0.1,0,0.2,0,0.4,0l0.2,0c0,0,0.1,0,0,0l0,0l0.1,0
	c0.1,0,0.2,0,0.3,0c0.4,0,0.8,0,1.2,0c0.8,0,1.6,0.1,2.3,0.3c1.5,0.3,3,0.8,4.3,1.4c1.3,0.6,2.5,1.4,3.5,2.3
	c0.1,0.1,0.1,0.1,0.2,0.2c0.1,0.1,0.1,0.1,0.2,0.2c0.1,0.1,0.2,0.2,0.4,0.3c0.1,0.1,0.2,0.2,0.3,0.3c0.1,0.1,0.2,0.2,0.3,0.3
	c0.4,0.5,0.8,0.9,1.2,1.4c0.7,0.9,1.3,1.9,1.8,2.7c0,0.1,0.1,0.1,0.1,0.2c0,0.1,0.1,0.1,0.1,0.2c0.1,0.1,0.1,0.2,0.2,0.3
	c0,0.1,0.1,0.2,0.1,0.3c0,0.1,0.1,0.2,0.1,0.3c0.2,0.4,0.3,0.8,0.5,1.2c0.2,0.6,0.4,1.1,0.5,1.6c0,0.2,0.2,0.3,0.4,0.3h0
	c0.2,0,0.4-0.2,0.4-0.4c0-0.5,0-1.1-0.1-1.8c-0.1-0.8-0.2-1.8-0.5-2.9c-0.3-1.1-0.7-2.2-1.3-3.4c-0.6-1.2-1.4-2.5-2.4-3.7
	c-0.4-0.5-0.8-0.9-1.3-1.4c0.7-2.8-0.9-5.2-0.9-5.2c-2.7-0.2-4.4,0.8-5,1.3c-0.1,0-0.2-0.1-0.3-0.1c-0.5-0.2-0.9-0.4-1.4-0.5
	c-0.5-0.2-1-0.3-1.5-0.4c-0.5-0.1-1-0.2-1.5-0.3c-0.1,0-0.2,0-0.3,0C30.3,1.6,27,0,27,0c-3.8,2.4-4.5,5.7-4.5,5.7
	c0,0.1,0.1,0.1,0.1,0.2c-0.3,0.1-0.5,0.1-0.8,0.2c-0.3,0.1-0.6,0.2-0.9,0.3c-0.3,0.1-0.6,0.2-0.9,0.3C19.5,7,19,7.3,18.4,7.6
	c-0.5,0.3-1.1,0.6-1.6,1c0,0,0,0-0.1,0c0-0.1,0-0.1,0-0.1c-5.2-2-9.8,0.4-9.8,0.4c-0.4,5.5,2.1,9,2.6,9.7c-0.1,0.3-0.2,0.7-0.3,1
	c-0.4,1.3-0.7,2.5-0.9,3.9c0,0.2,0,0.4-0.1,0.6C3.4,26.4,2,31.3,2,31.3c4,4.6,8.7,4.9,8.7,4.9c0,0,0,0,0,0c0.6,1.1,1.3,2.1,2.1,3
	c0.3,0.4,0.7,0.8,1,1.1C12.3,44.5,14,48,14,48c4.5,0.2,7.4-2,8-2.4c0.4,0.1,0.9,0.3,1.3,0.4c1.4,0.4,2.8,0.6,4.2,0.6
	c0.4,0,0.7,0,1.1,0l0.2,0l0.1,0l0.2,0l0.2,0c0,0,0,0,0,0c2.1,3,5.8,3.4,5.8,3.4c3-3.1,2.8-6.2,2.8-6.2c0,0-0.1,0-0.1-0.1
	c0.6-0.4,1.1-0.8,1.7-1.3c1.1-1,2-2,2.7-3.2c0.1-0.1,0.1-0.2,0.2-0.3c3,0.2,5.1-1.8,5.1-1.8c-0.6-3.5-2.7-5-2.7-5c0,0,0,0-0.1,0
	c0-0.2,0-0.4,0.1-0.6c0-0.3,0-0.7,0-1l0-0.2l0-0.1l0-0.1c0-0.1,0-0.1,0-0.1l0-0.2l0-0.3c0-0.1,0-0.2,0-0.3c0-0.1,0-0.2,0-0.3l0-0.3
	l0-0.3c-0.1-0.3-0.1-0.7-0.2-1c-0.3-1.3-0.8-2.6-1.5-3.7c-0.7-1.1-1.5-2.2-2.5-3c-1-0.9-2.1-1.5-3.2-2c-1.1-0.5-2.3-0.8-3.5-1
	c-0.6-0.1-1.2-0.1-1.8-0.1l-0.2,0l-0.1,0c0,0-0.1,0-0.1,0l-0.1,0l-0.2,0c-0.1,0-0.2,0-0.2,0c-0.3,0-0.6,0.1-0.9,0.1
	c-1.2,0.2-2.3,0.6-3.3,1.2c-1,0.6-1.8,1.3-2.5,2.2c-0.7,0.8-1.2,1.8-1.6,2.7c-0.4,1-0.6,1.9-0.6,2.9c0,0.2,0,0.5,0,0.7
	c0,0.1,0,0.1,0,0.2l0,0.2c0,0.1,0,0.2,0,0.3c0,0.5,0.1,0.9,0.3,1.4c0.3,0.9,0.7,1.7,1.2,2.4c0.5,0.7,1.1,1.3,1.8,1.7
	c0.7,0.4,1.3,0.8,2,1c0.7,0.2,1.4,0.3,2,0.3c0.1,0,0.2,0,0.2,0c0,0,0.1,0,0.1,0c0,0,0.1,0,0.1,0c0.1,0,0.1,0,0.2,0c0,0,0,0,0.1,0
	l0.1,0c0,0,0.1,0,0.1,0c0.1,0,0.2,0,0.2,0c0.1,0,0.2,0,0.2,0c0.1,0,0.3-0.1,0.4-0.1c0.3-0.1,0.5-0.2,0.8-0.3
	c0.2-0.1,0.5-0.3,0.7-0.4c0.1,0,0.1-0.1,0.2-0.1C33.1,33.5,33.2,33.1,33,32.9L33,32.9z"/>
</svg>
