<?xml version="1.0" encoding="utf-8"?>
<!-- Generator: Adobe Illustrator 19.1.0, SVG Export Plug-In . SVG Version: 6.00 Build 0)  -->
<svg version="1.1" id="Layer_1" xmlns="http://www.w3.org/2000/svg" xmlns:xlink="http://www.w3.org/1999/xlink" x="0px" y="0px"
	 width="150px" height="150px" viewBox="0 0 150 150" style="enable-background:new 0 0 150 150;" xml:space="preserve">
<style type="text/css">
	.st0{fill:#414042;}
</style>
<path class="st0" d="M134.1,63.7l-5.7,1.1c0.6,3.3,1,6.8,1,10.2c0,30-24.4,54.4-54.4,54.4c-30,0-54.4-24.4-54.4-54.4
	C20.6,45,45,20.6,75,20.6c16.8,0,32.5,7.7,42.8,20.8L70,84.7L53.7,63.8l-4.6,3.6l20.1,25.9l56.2-50.9l0,0l0,0
	c-11.2-17.2-30-27.4-50.5-27.4c-33.2,0-60.2,27-60.2,60.2c0,33.2,27,60.2,60.2,60.2c33.2,0,60.2-27,60.2-60.2
	C135.2,71.2,134.8,67.4,134.1,63.7z"/>
</svg>
