<?xml version="1.0" encoding="utf-8"?>
<!-- Generator: Adobe Illustrator 19.1.0, SVG Export Plug-In . SVG Version: 6.00 Build 0)  -->
<svg version="1.1" id="Layer_1" xmlns="http://www.w3.org/2000/svg" xmlns:xlink="http://www.w3.org/1999/xlink" x="0px" y="0px"
	 width="200px" height="200px" viewBox="-59.2 0.8 200 200" style="enable-background:new -59.2 0.8 200 200;" xml:space="preserve"
	>
<style type="text/css">
	.st0{fill:#676767;}
	.st1{fill:#EA242A;}
</style>
<path class="st0" d="M40.8,0.8c-55.1,0-100,44.9-100,100s44.9,100,100,100s100-44.9,100-100S96,0.8,40.8,0.8z M40.8,196
	c-52.5,0-95.2-42.7-95.2-95.2S-11.7,5.7,40.8,5.7c52.5,0,95.2,42.7,95.2,95.2S93.3,196,40.8,196z"/>
<g>
	<polygon class="st1" points="48.6,66.9 48.6,66.9 48.4,67.6 	"/>
	<path class="st1" d="M83.5,68.3c-5.8-5.8-13.5-9-21.7-9c-4.1,0-8,0.8-11.6,2.3l-1.7,5.3c0,0,0,0,0,0l1.7-5.2l5,1.6L55,64.2
		c2.2-0.6,4.5-0.9,6.9-0.9c7.1,0,13.8,2.8,18.8,7.8c5,5,7.8,11.7,7.8,18.8c0,7.1-2.8,13.8-7.8,18.8l-39.9,39.9L0.9,108.8
		c-5-5-7.8-11.7-7.8-18.8c0-7.1,2.8-13.8,7.8-18.8c5-5,11.7-7.8,18.8-7.8c3,0,5.9,0.5,8.6,1.5l0.4-2.2l5.2,1l0.1-0.6
		c-4.4-2.3-9.3-3.6-14.4-3.6c-8.2,0-15.9,3.2-21.7,9c-5.8,5.8-9,13.5-9,21.7s3.2,15.9,9,21.7l42.7,42.7l42.7-42.7
		c5.8-5.8,9-13.5,9-21.7S89.3,74.1,83.5,68.3z"/>
	<path class="st1" d="M42.7,85.1l9.6-1.4l-16.5,39.8l0,0l-0.1,0.3l2.8-29.1l-10.8,0.7l0.1-0.3l0,0L34,63.6l0,0l-5.2-1l-0.4,2.2
		l-1.6,7.9c-2.2-0.9-4.6-1.4-7.1-1.4c-5,0-9.7,1.9-13.2,5.5C3,80.3,1.1,85,1.1,90c0,5,1.9,9.7,5.5,13.2l34.3,34.3l34.3-34.3
		c3.5-3.5,5.5-8.2,5.5-13.2c0-5-1.9-9.7-5.5-13.2c-3.5-3.5-8.2-5.5-13.2-5.5c-3.6,0-7.1,1-10.1,3l3.2-10l0.3-0.9l-5-1.6l-1.7,5.2
		l-0.2,0.7L42.7,85.1z"/>
</g>
</svg>
