<?xml version="1.0" encoding="utf-8"?>
<!-- Generator: Adobe Illustrator 18.1.1, SVG Export Plug-In . SVG Version: 6.00 Build 0)  -->
<!DOCTYPE svg PUBLIC "-//W3C//DTD SVG 1.1//EN" "http://www.w3.org/Graphics/SVG/1.1/DTD/svg11.dtd">
<svg version="1.1" id="twitter" xmlns="http://www.w3.org/2000/svg" xmlns:xlink="http://www.w3.org/1999/xlink" x="0px" y="0px"
	 width="140px" height="140px" viewBox="0 0 140 140" enable-background="new 0 0 140 140" xml:space="preserve">
<path fill-rule="evenodd" clip-rule="evenodd" fill="#FFFFFF" d="M40.5,119.5V52.2H18.1v67.3H40.5L40.5,119.5z M29.3,43
	C37.1,43,42,37.8,42,31.3c-0.1-6.6-4.9-11.6-12.5-11.6c-7.7,0-12.7,5-12.7,11.6c0,6.5,4.9,11.6,12.4,11.6H29.3L29.3,43z"/>
<path fill-rule="evenodd" clip-rule="evenodd" fill="#FFFFFF" d="M52.9,119.5h22.4V81.9c0-2,0.1-4,0.7-5.5c1.6-4,5.3-8.2,11.5-8.2
	c8.1,0,11.3,6.2,11.3,15.2v36h22.4V80.9c0-20.7-11-30.3-25.8-30.3c-12.1,0-17.4,6.7-20.3,11.3h0.1v-9.8H52.9
	C53.2,58.5,52.9,119.5,52.9,119.5L52.9,119.5z"/>
</svg>
