<?xml version="1.0" encoding="utf-8"?>
<!-- Generator: Adobe Illustrator 18.1.1, SVG Export Plug-In . SVG Version: 6.00 Build 0)  -->
<svg version="1.1" id="Layer_1" xmlns="http://www.w3.org/2000/svg" xmlns:xlink="http://www.w3.org/1999/xlink" x="0px" y="0px"
	 width="60.8px" height="14.2px" viewBox="-48.2 93.8 60.8 14.2" enable-background="new -48.2 93.8 60.8 14.2"
	 xml:space="preserve">
<g>
	<g>
		<rect x="-48" y="106.1" fill="#FFFFFF" width="7.9" height="0.5"/>
	</g>
	<g>
		<polygon fill="#FFFFFF" points="-40,103.7 -44.7,103.7 -44.7,103.7 -48,103.7 -48,104.9 -40,104.9 		"/>
	</g>
	<g>
		<rect x="-48" y="94.4" fill="#FFFFFF" width="3.3" height="6.5"/>
	</g>
	<g>
		<rect x="-48" y="101.2" fill="#FFFFFF" width="3.3" height="1.8"/>
	</g>
	<g>
		<rect x="-38.9" y="94.4" fill="#FFFFFF" width="3.3" height="6.5"/>
	</g>
	<g>
		<rect x="-38.9" y="101.2" fill="#FFFFFF" width="3.3" height="1.8"/>
	</g>
	<g>
		<rect x="-38.9" y="106.1" fill="#FFFFFF" width="3.3" height="0.5"/>
	</g>
	<g>
		<rect x="-38.9" y="103.7" fill="#FFFFFF" width="3.3" height="1.3"/>
	</g>
	<g>
		<rect x="-31.6" y="106.1" fill="#FFFFFF" width="3.3" height="0.5"/>
	</g>
	<g>
		<rect x="-31.6" y="103.7" fill="#FFFFFF" width="3.3" height="1.3"/>
	</g>
	<g>
		<polygon fill="#FFFFFF" points="-28.3,97.1 -25.4,97.1 -25.4,94.4 -34.6,94.4 -34.6,97.1 -31.6,97.1 -31.6,101 -28.3,101 		"/>
	</g>
	<g>
		<rect x="-31.6" y="101.2" fill="#FFFFFF" width="3.3" height="1.8"/>
	</g>
	<g>
		<polygon fill="#FFFFFF" points="-17.5,103 -18,101.2 -20.6,101.2 -20.1,103 		"/>
	</g>
	<g>
		<polygon fill="#FFFFFF" points="-14.9,103 -14.4,101.2 -16.9,101.2 -17.4,103 		"/>
	</g>
	<g>
		<path fill="#FFFFFF" d="M-21.4,103v-1.7v-0.1h-2.9v1.8H-21.4z"/>
	</g>
	<g>
		<path fill="#FFFFFF" d="M-13.5,103h3v-1.8h-3l0,0V103z"/>
	</g>
	<g>
		<path fill="#FFFFFF" d="M-21.6,97.8L-21.6,97.8l1,3.2h2.6l-2-6.6h-4.4v6.5h2.9C-21.5,100.2-21.5,99.1-21.6,97.8z"/>
	</g>
	<g>
		<path fill="#FFFFFF" d="M-13.5,97.9L-13.5,97.9c0,1.3,0,2.1,0,2.5c0,0.2,0,0.4,0,0.7h3v-6.7h-4.4l-1.9,6.5h2.4L-13.5,97.9z"/>
	</g>
	<g>
		<polygon fill="#FFFFFF" points="-15.5,104.9 -15.1,103.7 -19.9,103.7 -19.5,104.9 		"/>
	</g>
	<g>
		<rect x="-13.5" y="103.7" fill="#FFFFFF" width="3" height="1.3"/>
	</g>
	<g>
		<rect x="-24.3" y="103.7" fill="#FFFFFF" width="2.9" height="1.3"/>
	</g>
	<g>
		<polygon fill="#FFFFFF" points="-19.1,106.6 -15.9,106.6 -15.8,106.1 -19.2,106.1 		"/>
	</g>
	<g>
		<rect x="-24.3" y="106.1" fill="#FFFFFF" width="2.9" height="0.5"/>
	</g>
	<g>
		<rect x="-13.5" y="106.1" fill="#FFFFFF" width="3" height="0.5"/>
	</g>
	<g>
		<path fill="#FFFFFF" d="M-1.7,103h3.4c0.1-0.4,0.1-0.8,0.1-1.2v-0.6h-3.3v0.3C-1.5,102.1-1.5,102.6-1.7,103z"/>
	</g>
	<g>
		<path fill="#FFFFFF" d="M-8.5,103h3.4c-0.1-0.4-0.2-0.8-0.2-1.4v-0.4h-3.3v0.6C-8.6,102.2-8.5,102.6-8.5,103z"/>
	</g>
	<g>
		<rect x="-1.5" y="94.4" fill="#FFFFFF" width="3.3" height="6.5"/>
	</g>
	<g>
		<rect x="-8.6" y="94.4" fill="#FFFFFF" width="3.3" height="6.5"/>
	</g>
	<g>
		<path fill="#FFFFFF" d="M0.9,104.9c0.3-0.4,0.5-0.8,0.6-1.3h-3.7c-0.3,0.2-0.7,0.3-1.2,0.3s-0.9-0.1-1.2-0.3h-3.8
			c0.1,0.5,0.4,0.9,0.6,1.3H0.9z"/>
	</g>
	<g>
		<path fill="#FFFFFF" d="M-3.4,106.7c1.2,0,2.1-0.2,2.9-0.6h-5.8C-5.5,106.5-4.6,106.7-3.4,106.7z"/>
	</g>
	<g>
		<path fill="#FFFFFF" d="M6.3,101.6c0.9,0.4,1.4,0.7,1.6,0.8c0.2,0.1,0.3,0.3,0.4,0.4c0.1,0.1,0.1,0.1,0.1,0.2h3.3c0,0,0,0,0-0.1
			c0-0.6-0.1-1.2-0.4-1.7H5.5C5.7,101.3,6,101.5,6.3,101.6z"/>
	</g>
	<g>
		<path fill="#FFFFFF" d="M11.1,100.9c-0.4-0.5-1.1-1-2.2-1.5c-1.1-0.5-1.8-0.8-2-1c-0.2-0.2-0.4-0.4-0.4-0.6s0.1-0.4,0.3-0.6
			C7,97.1,7.3,97,7.7,97c0.8,0,1.8,0.3,2.9,0.8l1-2.5c-1.3-0.6-2.6-0.9-3.8-0.9c-1.4,0-2.5,0.3-3.4,0.9c-0.7,0.5-1.1,1.4-1.1,2.5
			c0,0.6,0.1,1.1,0.3,1.6c0.2,0.4,0.5,0.8,0.9,1.2c0.2,0.1,0.4,0.3,0.6,0.5h6.1C11.2,100.9,11.1,100.9,11.1,100.9z"/>
	</g>
	<g>
		<path fill="#FFFFFF" d="M4.9,106.6c0.5,0.1,1.2,0.2,2,0.2c1,0,1.8-0.2,2.5-0.5c0.1,0,0.2-0.1,0.3-0.1H3.5
			C4,106.3,4.5,106.5,4.9,106.6z"/>
	</g>
	<g>
		<path fill="#FFFFFF" d="M8.1,103.8c-0.2,0.2-0.6,0.3-1.1,0.3c-0.6,0-1.2-0.1-1.9-0.3c-0.2,0-0.3-0.1-0.5-0.1H3.1v1.3H11l0,0
			c0.2-0.4,0.4-0.8,0.5-1.2H8.1C8.2,103.7,8.2,103.8,8.1,103.8z"/>
	</g>
</g>
</svg>
