<?xml version="1.0" encoding="utf-8"?>
<!-- Generator: Adobe Illustrator 18.1.1, SVG Export Plug-In . SVG Version: 6.00 Build 0)  -->
<svg version="1.1" id="Layer_1" xmlns="http://www.w3.org/2000/svg" xmlns:xlink="http://www.w3.org/1999/xlink" x="0px" y="0px"
	 width="97.2px" height="14.2px" viewBox="-50 93.8 97.2 14.2" enable-background="new -50 93.8 97.2 14.2" xml:space="preserve">
<g>
	<rect x="-48" y="106.1" fill="#444444" width="7.9" height="0.5"/>
	<polygon fill="#444444" points="-40,103.7 -44.7,103.7 -44.7,103.7 -48,103.7 -48,104.9 -40,104.9 	"/>
	<rect x="-48" y="94.4" fill="#444444" width="3.3" height="6.5"/>
	<rect x="-48" y="101.2" fill="#444444" width="3.3" height="1.8"/>
	<rect x="-38.9" y="94.4" fill="#444444" width="3.3" height="6.5"/>
	<rect x="-38.9" y="101.2" fill="#444444" width="3.3" height="1.8"/>
	<rect x="-38.9" y="106.1" fill="#444444" width="3.3" height="0.5"/>
	<rect x="-38.9" y="103.7" fill="#444444" width="3.3" height="1.3"/>
	<rect x="-31.6" y="106.1" fill="#444444" width="3.3" height="0.5"/>
	<rect x="-31.6" y="103.7" fill="#444444" width="3.3" height="1.3"/>
	<polygon fill="#444444" points="-28.3,97.1 -25.4,97.1 -25.4,94.4 -34.6,94.4 -34.6,97.1 -31.6,97.1 -31.6,101 -28.3,101 	"/>
	<rect x="-31.6" y="101.2" fill="#444444" width="3.3" height="1.8"/>
	<polygon fill="#444444" points="-17.5,103 -18,101.2 -20.6,101.2 -20.1,103 	"/>
	<polygon fill="#444444" points="-14.9,103 -14.4,101.2 -16.9,101.2 -17.4,103 	"/>
	<path fill="#444444" d="M-21.4,103v-1.7v-0.1h-2.9v1.8H-21.4z"/>
	<path fill="#444444" d="M-13.5,103h3v-1.8h-3l0,0V103z"/>
	<path fill="#444444" d="M-21.6,97.8L-21.6,97.8l1,3.2h2.6l-2-6.6h-4.4v6.5h2.9C-21.5,100.2-21.5,99.1-21.6,97.8z"/>
	<path fill="#444444" d="M-13.5,97.9L-13.5,97.9c0,1.3,0,2.1,0,2.5c0,0.2,0,0.4,0,0.7h3v-6.7h-4.4l-1.9,6.5h2.4L-13.5,97.9z"/>
	<polygon fill="#444444" points="-15.5,104.9 -15.1,103.7 -19.9,103.7 -19.5,104.9 	"/>
	<rect x="-13.5" y="103.7" fill="#444444" width="3" height="1.3"/>
	<rect x="-24.3" y="103.7" fill="#444444" width="2.9" height="1.3"/>
	<polygon fill="#444444" points="-19.1,106.6 -15.9,106.6 -15.8,106.1 -19.2,106.1 	"/>
	<rect x="-24.3" y="106.1" fill="#444444" width="2.9" height="0.5"/>
	<rect x="-13.5" y="106.1" fill="#444444" width="3" height="0.5"/>
	<path fill="#444444" d="M-1.7,103h3.4c0.1-0.4,0.1-0.8,0.1-1.2v-0.6h-3.3v0.3C-1.5,102.1-1.5,102.6-1.7,103z"/>
	<path fill="#444444" d="M-8.5,103h3.4c-0.1-0.4-0.2-0.8-0.2-1.4v-0.4h-3.3v0.6C-8.6,102.2-8.5,102.6-8.5,103z"/>
	<rect x="-1.5" y="94.4" fill="#444444" width="3.3" height="6.5"/>
	<rect x="-8.6" y="94.4" fill="#444444" width="3.3" height="6.5"/>
	<path fill="#444444" d="M0.9,104.9c0.3-0.4,0.5-0.8,0.6-1.3h-3.7c-0.3,0.2-0.7,0.3-1.2,0.3s-0.9-0.1-1.2-0.3h-3.8
		c0.1,0.5,0.4,0.9,0.6,1.3H0.9z"/>
	<path fill="#444444" d="M-3.4,106.7c1.2,0,2.1-0.2,2.9-0.6h-5.8C-5.5,106.5-4.6,106.7-3.4,106.7z"/>
	<path fill="#444444" d="M6.3,101.6c0.9,0.4,1.4,0.7,1.6,0.8c0.2,0.1,0.3,0.3,0.4,0.4c0.1,0.1,0.1,0.1,0.1,0.2h3.3c0,0,0,0,0-0.1
		c0-0.6-0.1-1.2-0.4-1.7H5.5C5.7,101.3,6,101.5,6.3,101.6z"/>
	<path fill="#444444" d="M11.1,100.9c-0.4-0.5-1.1-1-2.2-1.5c-1.1-0.5-1.8-0.8-2-1c-0.2-0.2-0.4-0.4-0.4-0.6s0.1-0.4,0.3-0.6
		C7,97.1,7.3,97,7.7,97c0.8,0,1.8,0.3,2.9,0.8l1-2.5c-1.3-0.6-2.6-0.9-3.8-0.9c-1.4,0-2.5,0.3-3.4,0.9c-0.7,0.5-1.1,1.4-1.1,2.5
		c0,0.6,0.1,1.1,0.3,1.6c0.2,0.4,0.5,0.8,0.9,1.2c0.2,0.1,0.4,0.3,0.6,0.5h6.1C11.2,100.9,11.1,100.9,11.1,100.9z"/>
	<path fill="#444444" d="M4.9,106.6c0.5,0.1,1.2,0.2,2,0.2c1,0,1.8-0.2,2.5-0.5c0.1,0,0.2-0.1,0.3-0.1H3.5
		C4,106.3,4.5,106.5,4.9,106.6z"/>
	<path fill="#444444" d="M8.1,103.8c-0.2,0.2-0.6,0.3-1.1,0.3c-0.6,0-1.2-0.1-1.9-0.3c-0.2,0-0.3-0.1-0.5-0.1H3.1v1.3H11l0,0
		c0.2-0.4,0.4-0.8,0.5-1.2H8.1C8.2,103.7,8.2,103.8,8.1,103.8z"/>
</g>
<g enable-background="new    ">
	<path fill="#444444" d="M14.5,103.9H15v0.9c0.2-0.2,0.4-0.3,0.7-0.3c0.6,0,1,0.5,1,1.2c0,0.3-0.1,0.6-0.3,0.8
		c-0.2,0.2-0.5,0.4-0.8,0.4c-0.2,0-0.3,0-0.5-0.1c-0.1-0.1-0.1-0.1-0.3-0.2v0.3h-0.5V103.9z M15.6,106.4c0.3,0,0.6-0.3,0.6-0.7
		c0-0.4-0.3-0.7-0.6-0.7c-0.3,0-0.6,0.3-0.6,0.7C15,106.1,15.2,106.4,15.6,106.4z"/>
	<path fill="#444444" d="M17.7,106.6l-0.8-2h0.6L18,106l0.5-1.4h0.6l-1.3,3h-0.6L17.7,106.6z"/>
</g>
<g>
	<path fill="#444444" d="M23.6,102.9c-0.1-0.1-0.4-0.1-0.6-0.1c-0.7,0-0.9,0.4-1.1,0.6l0,0v-0.5h-1.1v3.9H22v-2.1
		c0-0.2,0-0.8,0.7-0.8l0,0C22.9,103.5,23.3,103.1,23.6,102.9z"/>
	<path fill="#444444" d="M25.8,103.3L25.8,103.3c-0.1-0.2-0.5-0.5-1.1-0.5c-1,0-2,0.8-2,2.1c0,1.1,0.7,2.1,2,2.1
		c0.5,0,0.9-0.2,1.1-0.6l0,0v0.4H27v-3.9h-1.2V103.3z M24.8,105.9c-0.7,0-1-0.6-1-1s0.3-1,1-1s1,0.5,1,1
		C25.8,105.3,25.6,105.9,24.8,105.9z"/>
	<rect x="27.2" y="102.9" fill="#444444" width="1.2" height="3.9"/>
	<rect x="27.2" y="101.6" fill="#444444" width="1.2" height="0.9"/>
	<path fill="#444444" d="M35.1,102.9h-1.2v-1.3h-1.2v1.3h-1l0.1,0.1c0.2,0.1,0.4,0.4,0.4,0.8h0.5v3h1.2v-3h0.4
		C34.5,103.4,34.8,103.1,35.1,102.9z"/>
	<path fill="#444444" d="M37.4,103.3L37.4,103.3c-0.2-0.2-0.5-0.5-1.2-0.5c-1,0-2,0.8-2,2.1c0,1.1,0.7,2.1,2,2.1
		c0.5,0,0.9-0.2,1.1-0.6l0,0v0.4h1.2v-3.9h-1.2L37.4,103.3L37.4,103.3z M36.4,105.9c-0.7,0-1-0.6-1-1s0.3-1,1-1s1,0.5,1,1
		C37.4,105.3,37.1,105.9,36.4,105.9z"/>
	<path fill="#444444" d="M41.9,103.1c-0.2-0.2-0.6-0.3-1-0.3c-0.7,0-0.9,0.4-1.1,0.6l0,0v-0.5h-1.1v3.9h1.2v-2.1
		c0-0.2,0-0.8,0.7-0.8c0.6,0,0.6,0.5,0.6,0.8v2.1h1.2v-2.4C42.4,103.6,42.1,103.3,41.9,103.1z"/>
	<polygon fill="#444444" points="46.2,102.9 44.8,102.9 43.7,104.3 43.7,104.3 43.7,101.6 42.5,101.6 42.5,106.8 43.7,106.8 
		43.7,104.9 43.7,104.9 44.8,106.8 46.2,106.8 44.7,104.6 	"/>
	<path fill="#444444" d="M31.7,103.1c-0.2-0.2-0.7-0.3-1-0.3c-0.7,0-0.9,0.4-1.1,0.6l0,0v-0.5h-1.1v3.9h1.2v-2.1
		c0-0.2,0-0.8,0.7-0.8c0.6,0,0.6,0.5,0.6,0.8v2.1h1.2v-2.4C32.1,103.6,31.9,103.3,31.7,103.1z"/>
</g>
</svg>
