<?xml version="1.0" encoding="utf-8"?>
<!-- Generator: Adobe Illustrator 19.1.0, SVG Export Plug-In . SVG Version: 6.00 Build 0)  -->
<svg version="1.1" id="Layer_1" xmlns="http://www.w3.org/2000/svg" xmlns:xlink="http://www.w3.org/1999/xlink" x="0px" y="0px"
	 width="100px" height="100px" viewBox="0 0 100 100" style="enable-background:new 0 0 100 100;" xml:space="preserve">
<style type="text/css">
	.st0{fill:#787878;}
</style>
<path class="st0" d="M50,0C30.4,0,13.5,11.3,5.2,27.7c-2.2,4.3-3.7,9-4.6,14C0.2,44.4,0,47.2,0,50c0,27.6,22.4,50,50,50
	c27.6,0,50-22.4,50-50C100,22.4,77.6,0,50,0z M4.4,50c0-1.7,0.1-3.4,0.3-5c1.8,1.4,3.5,3.2,3.5,5c0,3.5-3.2,0.6,2.2,6
	c-1.5,2.8-0.3,5.2-0.3,8.3c0,3.8,1.9,12.3,5.7,12.3l3.6,7.2C10.2,75.5,4.4,63.4,4.4,50z M58.5,54.7c3.8,7.6,3.8,3.8,7.6,7.6
	c3.8,3.8,11.4-3.8,11.4-3.8s0,3.8,3.8,7.6c3.8,3.8-0.9,11.4-0.9,11.4l2.2,4.4C74.3,90.3,62.8,95.6,50,95.6c-6.2,0-12.2-1.3-17.6-3.5
	c1.4-3.3,3.8-7.9,6.2-7.9c3.8,0,3.8,0,3.8-3.8c0-7.6,3.8-3.8,3.8-7.6c0-3.8-7.6-3.8-11.4-7.6c-3.8-3.8-5.7-7.6-9.5-7.6
	c-1.9-3.8-1.9-3.8-5.7-3.8c-3.8,0-3.8-3.8-7.6,0c-3.3-3.3-3.7-12.4-6.3-14.7c0.6-2.4,1.4-4.8,2.4-7.1c2.6,2.1,1,6.6,3.9,6.6
	c3.8,0,0-7.6,3.8-7.6c3.8,0,7.6,0,7.6-3.8c0-3.8,7.6,0,7.6,0c3.8-3.8,3.8-3.8,0-5.7c-1.7-0.8,3.8,1.9,3.8-1.9c0-7.6-3.8,0,0-7.6
	c3.8-7.6,7.6,0,7.6-3.8c0-1.1,0.3-2.3,0.8-3.3c2.2-0.3,4.5-0.5,6.8-0.5c4.3,0,8.4,0.6,12.3,1.7c-0.4,4-3.5,10.7,0,10.7
	c3.8,0,11.4-3.8,7.6-7.6c2.2,0.9,4.5,2.3,6.7,3.8c-2,0.1-6.7,0.8-6.7,3.8c0,3.8-7.6,3.8-3.8,7.6c3.8,3.8-7.6,0-3.8,3.8
	c3.8,3.8,0,7.6,3.8,3.8c3.8-3.8,3.8-7.6,7.6-7.6c3.8,0,3.8,3.8,7.6,3.8c3.8,0-3.8-7.6,0-7.6c1.2,0,2-0.4,2.7-0.8
	c3.2,3.7,5.9,7.8,7.9,12.4c-6.2,0.7-10.6,3.6-10.6,3.6c-7.6-7.6-11.4,0-15.2,0c-3.8,0-3.8,7.6-3.8,7.6S54.7,47.2,58.5,54.7z"/>
</svg>
