<?xml version="1.0" encoding="utf-8"?>
<!-- Generator: Adobe Illustrator 19.1.0, SVG Export Plug-In . SVG Version: 6.00 Build 0)  -->
<svg version="1.1" id="Layer_1" xmlns="http://www.w3.org/2000/svg" xmlns:xlink="http://www.w3.org/1999/xlink" x="0px" y="0px"
	 width="100px" height="100px" viewBox="0 0 100 100" style="enable-background:new 0 0 100 100;" xml:space="preserve">
<style type="text/css">
	.st0{fill:#787878;}
</style>
<path class="st0" d="M50,10c-15.7,0-29.2,9-35.8,22.2c-1.7,3.5-3,7.2-3.6,11.2C10.2,45.5,10,47.7,10,50c0,22.1,17.9,40,40,40
	c22.1,0,40-17.9,40-40C90,27.9,72.1,10,50,10z M13.5,50c0-1.4,0.1-2.7,0.2-4c1.4,1.1,2.8,2.6,2.8,4c0,2.8-2.6,0.5,1.7,4.8
	c-1.2,2.2-0.2,4.2-0.2,6.6c0,3,1.5,9.9,4.6,9.9l2.9,5.8C18.2,70.4,13.5,60.7,13.5,50z M56.8,53.8c3,6.1,3,3,6.1,6.1c3,3,9.1-3,9.1-3
	s0,3,3,6.1c3,3-0.8,9.1-0.8,9.1l1.7,3.5c-6.6,6.8-15.8,10.9-26,10.9c-5,0-9.8-1-14.1-2.8c1.2-2.7,3.1-6.3,5-6.3c3,0,3,0,3-3
	c0-6.1,3-3,3-6.1c0-3-6.1-3-9.1-6.1c-3-3-4.6-6.1-7.6-6.1c-1.5-3-1.5-3-4.6-3c-3,0-3-3-6.1,0c-2.6-2.6-3-9.9-5-11.7
	c0.5-2,1.1-3.9,1.9-5.7c2.1,1.7,0.8,5.3,3.1,5.3c3,0,0-6.1,3-6.1c3,0,6.1,0,6.1-3c0-3,6.1,0,6.1,0c3-3,3-3,0-4.6
	c-1.4-0.7,3,1.5,3-1.5c0-6.1-3,0,0-6.1c3-6.1,6.1,0,6.1-3c0-0.9,0.3-1.8,0.6-2.6c1.8-0.3,3.6-0.4,5.4-0.4c3.4,0,6.7,0.5,9.8,1.3
	c-0.3,3.2-2.8,8.5,0,8.5c3,0,9.1-3,6.1-6.1c1.7,0.7,3.6,1.8,5.3,3.1c-1.6,0.1-5.3,0.6-5.3,3c0,3-6.1,3-3,6.1c3,3-6.1,0-3,3
	c3,3,0,6.1,3,3c3-3,3-6.1,6.1-6.1c3,0,3,3,6.1,3c3,0-3-6.1,0-6.1c0.9,0,1.6-0.3,2.2-0.7c2.6,2.9,4.7,6.3,6.3,9.9
	c-5,0.6-8.5,2.9-8.5,2.9c-6.1-6.1-9.1,0-12.2,0c-3,0-3,6.1-3,6.1S53.8,47.7,56.8,53.8z"/>
</svg>
