<?xml version="1.0" encoding="utf-8"?>
<!-- Generator: Adobe Illustrator 19.1.0, SVG Export Plug-In . SVG Version: 6.00 Build 0)  -->
<svg version="1.1" id="Layer_1" xmlns="http://www.w3.org/2000/svg" xmlns:xlink="http://www.w3.org/1999/xlink" x="0px" y="0px"
	 width="170.3px" height="100px" viewBox="0 0 170.3 100" style="enable-background:new 0 0 170.3 100;" xml:space="preserve">
<style type="text/css">
	.st0{fill:none;}
	.st1{fill:#787878;}
	.st2{fill:#13B1D3;}
	.st3{fill:#04A64D;}
	.st4{fill:#FFFFFF;}
</style>
<g>
	<path class="st0" d="M113.9,89c-0.6,0-1,0.2-1.3,0.5c-0.3,0.4-0.4,0.9-0.4,1.8v0.3c0,0.9,0.1,1.6,0.4,2c0.3,0.4,0.7,0.6,1.3,0.6
		c1,0,1.6-0.9,1.6-2.6c0-0.8-0.1-1.5-0.4-1.9C114.9,89.2,114.5,89,113.9,89z"/>
	<path class="st0" d="M4.9,86.6H3.7v7.3h1c2.3,0,3.4-1.2,3.4-3.7C8.1,87.8,7.1,86.6,4.9,86.6z"/>
	<path class="st0" d="M47.3,86.6h-1.1v3.3H47c0.7,0,1.3-0.1,1.6-0.4c0.4-0.3,0.5-0.7,0.5-1.3c0-0.6-0.2-1-0.5-1.2
		C48.4,86.7,47.9,86.6,47.3,86.6z"/>
	<path class="st0" d="M69.7,88.5c-0.9,0-1.3,0.5-1.3,1.6c0,0.5,0.1,0.8,0.3,1.1c0.2,0.3,0.5,0.4,1,0.4c0.4,0,0.8-0.1,1-0.4
		c0.2-0.3,0.3-0.6,0.3-1.1C71,89.1,70.6,88.5,69.7,88.5z"/>
	<path class="st0" d="M157.6,89c-0.6,0-1,0.2-1.3,0.5s-0.4,0.9-0.4,1.8v0.3c0,0.9,0.1,1.6,0.4,2c0.3,0.4,0.7,0.6,1.3,0.6
		c1,0,1.6-0.9,1.6-2.6c0-0.8-0.1-1.5-0.4-1.9C158.6,89.2,158.2,89,157.6,89z"/>
	<path class="st0" d="M67.6,97.1c0,0.3,0.2,0.6,0.5,0.8c0.3,0.2,0.7,0.3,1.3,0.3c0.8,0,1.5-0.1,2-0.3s0.7-0.5,0.7-0.9
		c0-0.3-0.1-0.5-0.4-0.7C71.3,96,70.9,96,70.3,96h-1.2c-0.4,0-0.8,0.1-1.1,0.3S67.6,96.7,67.6,97.1z"/>
	<path class="st1" d="M73.5,28.3L50.1,76.8l28-27.8l13.3,2.4l23.3-48.5L87,30.3L73.5,28.3z M88.9,32.2l16.6-16.5L89.8,48.4l-11.3-2
		l-1.4-0.2l-1,1L59.3,63.8l15.8-32.5L86.6,33l1.3,0.2L88.9,32.2z"/>
	<path class="st1" d="M54.2,56c-3.5-5.3-5.6-11.7-5.6-18.6c0-18.6,15.2-33.8,33.8-33.8c6.8,0,13.1,2,18.4,5.5l1.9-1.9
		c-5.8-3.9-12.8-6.3-20.4-6.3c-20.1,0-36.5,16.4-36.5,36.5c0,8,2.6,15.4,7,21.4L54.2,56z"/>
	<path class="st1" d="M118.9,37.3c0-7.1-2-13.7-5.5-19.3l-1.4,2.9c2.7,4.9,4.2,10.4,4.2,16.4c0,3.2-0.5,6.3-1.3,9.2
		c0.9,0.2,1.7,0.6,2.5,1C118.4,44.3,118.9,40.9,118.9,37.3z"/>
	<path class="st1" d="M82.4,71.2c-5.5,0-10.7-1.3-15.3-3.7l-2,2c5.1,2.8,11,4.4,17.3,4.4c7.5,0,14.5-2.3,20.3-6.2
		c-0.6-0.6-1.2-1.4-1.7-2.1C95.7,69.1,89.3,71.2,82.4,71.2z"/>
	<polygon class="st2" points="75.1,31.3 59.3,63.8 76.2,47.1 77.2,46.1 78.6,46.4 89.8,48.4 105.5,15.7 88.9,32.2 88,33.2 86.6,33 	
		"/>
	<path class="st3" d="M122,58.8c0-5.7-4.6-10.3-10.3-10.3c-5.7,0-10.3,4.6-10.3,10.3s4.6,10.3,10.3,10.3
		C117.4,69.1,122,64.5,122,58.8z M109.7,63c-0.1,0-0.3-0.1-0.4-0.2l-0.7-0.8l-1.8-2.2c-0.2-0.2-0.1-0.5,0.1-0.7l0.8-0.7
		c0.1-0.1,0.1-0.1,0.3-0.1c0.2,0,0.3,0.1,0.5,0.3l1.5,1.7l6-5.1c0.1-0.1,0.2-0.1,0.3-0.1c0.1,0,0.3,0.1,0.4,0.2l0.7,0.8
		c0.2,0.2,0.1,0.5-0.1,0.7l-7.2,6.1C109.9,63,109.8,63,109.7,63z"/>
	<path class="st4" d="M117.2,56.1l-0.7-0.8c-0.1-0.1-0.3-0.2-0.4-0.2c-0.1,0-0.2,0.1-0.3,0.1l-6,5.1l-1.5-1.7
		c-0.1-0.1-0.3-0.3-0.5-0.3c-0.1,0-0.2,0.1-0.3,0.1l-0.8,0.7c-0.2,0.2-0.3,0.5-0.1,0.7l1.8,2.2l0.7,0.8c0.1,0.1,0.3,0.2,0.4,0.2
		c0.1,0,0.2-0.1,0.3-0.1l7.2-6.1C117.4,56.6,117.4,56.3,117.2,56.1z"/>
	<path class="st1" d="M4.8,84.6H1.3v11.2h3.2c2,0,3.5-0.5,4.6-1.5c1-1,1.6-2.4,1.6-4.2c0-1.7-0.5-3.1-1.5-4.1
		C8.1,85.1,6.6,84.6,4.8,84.6z M4.7,93.9h-1v-7.3h1.3c2.1,0,3.2,1.2,3.2,3.6C8.1,92.7,7,93.9,4.7,93.9z"/>
	<path class="st1" d="M20.1,89.9c0,0.6,0,1.6,0.1,3.1h-0.1l-4.9-8.4h-3v11.2h2.1v-5.3c0-0.6,0-1.7-0.1-3.2h0.1l4.9,8.5h3V84.6h-2.1
		V89.9z"/>
	<path class="st1" d="M28.6,89.4c-0.8-0.4-1.3-0.6-1.5-0.8c-0.2-0.1-0.4-0.3-0.5-0.5c-0.1-0.2-0.1-0.3-0.1-0.5
		c0-0.3,0.1-0.6,0.4-0.8s0.6-0.3,1-0.3c0.4,0,0.8,0,1.2,0.1c0.4,0.1,0.9,0.3,1.5,0.5l0.8-1.8c-0.6-0.3-1.1-0.4-1.7-0.6
		c-0.5-0.1-1.1-0.2-1.7-0.2c-1.2,0-2.1,0.3-2.8,0.9c-0.7,0.6-1,1.3-1,2.3c0,0.5,0.1,1,0.3,1.4c0.2,0.4,0.5,0.7,0.8,1
		c0.3,0.3,0.9,0.6,1.5,0.9c0.7,0.3,1.2,0.6,1.5,0.8c0.2,0.2,0.4,0.3,0.5,0.5c0.1,0.2,0.2,0.4,0.2,0.6c0,0.4-0.1,0.7-0.4,0.9
		c-0.3,0.2-0.7,0.3-1.2,0.3c-0.4,0-0.9-0.1-1.4-0.2c-0.5-0.1-1.2-0.4-1.9-0.7v2.2c0.9,0.5,2,0.7,3.2,0.7c1.3,0,2.3-0.3,3-0.9
		c0.7-0.6,1.1-1.4,1.1-2.4c0-0.7-0.2-1.3-0.6-1.9C30.4,90.4,29.6,89.9,28.6,89.4z"/>
	<path class="st1" d="M47.4,84.6h-3.6v11.2h2.4v-4h1c1.4,0,2.5-0.3,3.2-1c0.8-0.6,1.1-1.6,1.1-2.8c0-1.2-0.4-2-1.1-2.6
		C49.8,84.9,48.7,84.6,47.4,84.6z M48.6,89.5c-0.4,0.3-0.9,0.4-1.6,0.4h-0.8v-3.3h1.1c0.6,0,1.1,0.1,1.4,0.4
		c0.3,0.3,0.5,0.7,0.5,1.2C49.1,88.8,49,89.2,48.6,89.5z"/>
	<rect x="52.8" y="87.3" class="st1" width="2.3" height="8.6"/>
	<path class="st1" d="M54,83.9c-0.9,0-1.3,0.4-1.3,1.1c0,0.8,0.4,1.2,1.3,1.2c0.4,0,0.7-0.1,1-0.3c0.2-0.2,0.3-0.5,0.3-0.8
		C55.2,84.3,54.8,83.9,54,83.9z"/>
	<path class="st1" d="M61.8,87.1c-0.6,0-1.1,0.1-1.6,0.3c-0.5,0.2-0.8,0.5-1.1,0.9h-0.1l-0.3-1.1H57v8.6h2.3v-4c0-1,0.1-1.7,0.4-2.2
		s0.8-0.7,1.4-0.7c0.5,0,0.8,0.2,1.1,0.5c0.2,0.3,0.3,0.8,0.3,1.4v5h2.3v-5.6c0-1-0.3-1.8-0.8-2.3C63.6,87.4,62.8,87.1,61.8,87.1z"
		/>
	<path class="st1" d="M70.6,87.2c-0.3,0-0.6-0.1-0.9-0.1c-1.1,0-2,0.3-2.6,0.8c-0.6,0.5-0.9,1.2-0.9,2.2c0,0.6,0.1,1.1,0.4,1.5
		c0.3,0.4,0.6,0.7,1.1,0.9c-0.4,0.2-0.6,0.4-0.8,0.6c-0.2,0.2-0.3,0.5-0.3,0.8c0,0.3,0.1,0.5,0.3,0.7c0.2,0.2,0.4,0.4,0.6,0.5
		c-0.6,0.1-1.1,0.4-1.4,0.7c-0.3,0.3-0.5,0.8-0.5,1.3c0,0.8,0.3,1.3,0.9,1.8c0.6,0.4,1.5,0.6,2.7,0.6c1.6,0,2.8-0.3,3.6-0.8
		c0.8-0.6,1.3-1.3,1.3-2.3c0-0.8-0.2-1.4-0.7-1.8c-0.5-0.4-1.2-0.6-2.2-0.6h-1.5c-0.9,0-1.3-0.2-1.3-0.5c0-0.2,0.1-0.4,0.4-0.6
		l0.3,0l0.4,0c1.1,0,2-0.3,2.7-0.8s1-1.2,1-2.2c0-0.5-0.1-0.9-0.4-1.3l1.3-0.3v-1.2h-3C71.1,87.3,70.9,87.2,70.6,87.2z M69.1,96h1.2
		c0.6,0,1,0.1,1.3,0.2c0.3,0.1,0.4,0.3,0.4,0.7c0,0.4-0.2,0.7-0.7,0.9s-1.1,0.3-2,0.3c-0.6,0-1-0.1-1.3-0.3
		c-0.3-0.2-0.5-0.4-0.5-0.8c0-0.3,0.1-0.6,0.4-0.8S68.6,96,69.1,96z M70.7,91.2c-0.2,0.3-0.5,0.4-1,0.4c-0.4,0-0.8-0.1-1-0.4
		c-0.2-0.3-0.3-0.6-0.3-1.1c0-1,0.4-1.6,1.3-1.6c0.9,0,1.3,0.5,1.3,1.6C71,90.6,70.9,90.9,70.7,91.2z"/>
	<polygon class="st1" points="92.7,89 88.3,89 88.3,84.6 85.9,84.6 85.9,95.9 88.3,95.9 88.3,91 92.7,91 92.7,95.9 95.1,95.9 
		95.1,84.6 92.7,84.6 	"/>
	<path class="st1" d="M100,93.9c-0.2-0.2-0.3-0.4-0.3-0.7V89h2.4v-1.8h-2.4v-1.8h-1.5l-0.7,1.8L96.3,88v1h1.1v4.1
		c0,0.9,0.2,1.7,0.6,2.1c0.4,0.5,1.1,0.7,2,0.7c0.8,0,1.6-0.1,2.1-0.4v-1.7c-0.6,0.2-1.1,0.3-1.5,0.3
		C100.5,94.1,100.2,94.1,100,93.9z"/>
	<path class="st1" d="M106.5,93.9c-0.2-0.2-0.3-0.4-0.3-0.7V89h2.4v-1.8h-2.4v-1.8h-1.5l-0.7,1.8l-1.3,0.8v1h1.1v4.1
		c0,0.9,0.2,1.7,0.6,2.1c0.4,0.5,1.1,0.7,2,0.7c0.8,0,1.6-0.1,2.1-0.4v-1.7c-0.6,0.2-1.1,0.3-1.5,0.3
		C107,94.1,106.7,94.1,106.5,93.9z"/>
	<path class="st1" d="M114.7,87.1c-1.1,0-1.9,0.4-2.4,1.3h-0.1l-0.3-1.1h-1.9v12.4h2.3v-3.5c0-0.1,0-0.5-0.1-1.2h0.1
		c0.6,0.7,1.4,1.1,2.4,1.1c0.7,0,1.3-0.2,1.7-0.5c0.5-0.4,0.9-0.9,1.1-1.5c0.3-0.7,0.4-1.5,0.4-2.4c0-1.4-0.3-2.5-0.9-3.3
		C116.5,87.5,115.7,87.1,114.7,87.1z M114,94.1c-0.6,0-1-0.2-1.3-0.6c-0.3-0.4-0.4-1.1-0.4-2v-0.3c0-0.8,0.1-1.4,0.4-1.8
		c0.3-0.4,0.7-0.5,1.3-0.5c0.6,0,1,0.2,1.2,0.6c0.3,0.4,0.4,1.1,0.4,1.9C115.5,93.3,115,94.1,114,94.1z"/>
	<polygon class="st1" points="136.4,89 132,89 132,84.6 129.6,84.6 129.6,95.9 132,95.9 132,91 136.4,91 136.4,95.9 138.8,95.9 
		138.8,84.6 136.4,84.6 	"/>
	<path class="st1" d="M143.7,93.9c-0.2-0.2-0.3-0.4-0.3-0.7V89h2.4v-1.8h-2.4v-1.8h-1.5l-0.7,1.8L140,88v1h1.1v4.1
		c0,0.9,0.2,1.7,0.6,2.1c0.4,0.5,1.1,0.7,2,0.7c0.8,0,1.6-0.1,2.1-0.4v-1.7c-0.6,0.2-1.1,0.3-1.5,0.3
		C144.2,94.1,143.9,94.1,143.7,93.9z"/>
	<path class="st1" d="M150.2,93.9c-0.2-0.2-0.3-0.4-0.3-0.7V89h2.4v-1.8h-2.4v-1.8h-1.5l-0.7,1.8l-1.3,0.8v1h1.1v4.1
		c0,0.9,0.2,1.7,0.6,2.1c0.4,0.5,1.1,0.7,2,0.7c0.8,0,1.6-0.1,2.1-0.4v-1.7c-0.6,0.2-1.1,0.3-1.5,0.3
		C150.7,94.1,150.4,94.1,150.2,93.9z"/>
	<path class="st1" d="M158.4,87.1c-1.1,0-1.9,0.4-2.4,1.3h-0.1l-0.3-1.1h-1.9v12.4h2.3v-3.5c0-0.1,0-0.5-0.1-1.2h0.1
		c0.6,0.7,1.4,1.1,2.4,1.1c0.7,0,1.3-0.2,1.7-0.5c0.5-0.4,0.9-0.9,1.1-1.5c0.3-0.7,0.4-1.5,0.4-2.4c0-1.4-0.3-2.5-0.9-3.3
		C160.2,87.5,159.4,87.1,158.4,87.1z M157.6,94.1c-0.6,0-1-0.2-1.3-0.6c-0.3-0.4-0.4-1.1-0.4-2v-0.3c0-0.8,0.1-1.4,0.4-1.8
		s0.7-0.5,1.3-0.5c0.6,0,1,0.2,1.2,0.6c0.3,0.4,0.4,1.1,0.4,1.9C159.2,93.3,158.7,94.1,157.6,94.1z"/>
	<path class="st1" d="M168.8,92.2c-0.1-0.3-0.4-0.6-0.7-0.8c-0.3-0.2-0.8-0.5-1.5-0.8c-0.8-0.3-1.2-0.5-1.5-0.7
		c-0.2-0.2-0.3-0.3-0.3-0.5c0-0.4,0.3-0.6,1-0.6c0.4,0,0.8,0.1,1.1,0.2c0.4,0.1,0.8,0.3,1.2,0.5l0.7-1.7c-1-0.5-2-0.7-3-0.7
		c-1.1,0-1.9,0.2-2.5,0.6c-0.6,0.4-0.9,1-0.9,1.8c0,0.4,0.1,0.8,0.2,1.1c0.1,0.3,0.4,0.6,0.7,0.8c0.3,0.2,0.8,0.5,1.5,0.8
		c0.5,0.2,0.8,0.4,1.1,0.5c0.3,0.1,0.5,0.3,0.6,0.4s0.2,0.3,0.2,0.4c0,0.5-0.4,0.7-1.3,0.7c-0.4,0-0.9-0.1-1.4-0.2
		c-0.5-0.1-1-0.3-1.5-0.5v1.9c0.4,0.2,0.8,0.3,1.2,0.4s1,0.1,1.6,0.1c1.2,0,2.1-0.2,2.7-0.7c0.6-0.5,0.9-1.1,0.9-2
		C169,92.9,169,92.5,168.8,92.2z"/>
	<circle class="st1" cx="37.3" cy="90.6" r="1.1"/>
	<circle class="st1" cx="79.7" cy="90.6" r="1.1"/>
	<circle class="st1" cx="123.7" cy="90.6" r="1.1"/>
</g>
</svg>
