<?xml version="1.0" encoding="utf-8"?>
<!-- Generator: Adobe Illustrator 18.1.1, SVG Export Plug-In . SVG Version: 6.00 Build 0)  -->
<!DOCTYPE svg PUBLIC "-//W3C//DTD SVG 1.1//EN" "http://www.w3.org/Graphics/SVG/1.1/DTD/svg11.dtd">
<svg version="1.1" id="Layer_1" xmlns="http://www.w3.org/2000/svg" xmlns:xlink="http://www.w3.org/1999/xlink" x="0px" y="0px"
	 width="140px" height="140px" viewBox="0 0 140 140" enable-background="new 0 0 140 140" xml:space="preserve">
<g>
	<path fill="none" d="M119.1,85.9c-1,0-1.8,0.9-1.8,2c0,1.2,0.8,2.1,1.8,2.1c1,0,1.8-0.9,1.8-2.1C120.9,86.8,120.1,85.9,119.1,85.9z
		"/>
	<path fill="none" d="M24.2,86c-1,0-1.8,0.9-1.8,2c0,1.1,0.8,2,1.8,2c1,0,1.8-0.9,1.8-2C26,86.8,25.2,86,24.2,86z"/>
	<path fill="none" d="M117.5,44.7c-8.4,0-15.2,6.8-15.2,15.2S109.1,75,117.5,75s15.2-6.8,15.2-15.2S125.9,44.7,117.5,44.7z
		 M117.5,72c-6.7,0-12.2-5.5-12.2-12.2c0-6.7,5.5-12.2,12.2-12.2s12.2,5.5,12.2,12.2C129.7,66.6,124.2,72,117.5,72z"/>
	<path fill="none" d="M23.8,44.7c-8.4,0-15.2,6.8-15.2,15.2S15.5,75,23.8,75C32.2,75,39,68.2,39,59.8S32.2,44.7,23.8,44.7z M23.8,72
		c-6.7,0-12.2-5.5-12.2-12.2c0-6.7,5.5-12.2,12.2-12.2c6.7,0,12.2,5.5,12.2,12.2C36,66.6,30.6,72,23.8,72z"/>
	<circle fill="#00B1D3" cx="23.8" cy="59.8" r="12.2"/>
	<path fill="#666666" d="M117.5,42.7c-8.3,0-15.3,6-16.8,13.8h-7.8l3.6,3.6l-3.8,3.8h8.1c1.8,7.5,8.6,13.1,16.7,13.1
		c9.5,0,17.2-7.7,17.2-17.2S127,42.7,117.5,42.7z M117.5,75c-8.4,0-15.2-6.8-15.2-15.2s6.8-15.2,15.2-15.2s15.2,6.8,15.2,15.2
		S125.9,75,117.5,75z"/>
	<circle fill="#00B1D3" cx="117.5" cy="59.8" r="12.2"/>
	<path fill="#666666" d="M26,85.6L26,85.6c-0.1-0.1-0.1-0.2-0.3-0.3c-0.6-0.5-1.2-0.8-1.8-0.8c-1.8,0-3.1,1.5-3.1,3.4
		c0,2,1.3,3.5,3,3.5c0.5,0,1-0.2,1.5-0.4c0.4-0.2,0.6-0.4,0.7-0.6h0v0.9h1.5v-6.6H26V85.6z M24.2,90c-1,0-1.8-0.9-1.8-2
		c0-1.2,0.8-2,1.8-2c1,0,1.8,0.8,1.8,2C26,89.2,25.2,90,24.2,90z"/>
	<path fill="#666666" d="M119.3,84.4c-0.8,0-1.5,0.3-2,0.8v-2.8h-1.6v8.9h1.5v-0.9c0.3,0.3,0.5,0.5,0.8,0.6c0.4,0.2,0.9,0.4,1.4,0.4
		c0.9,0,1.8-0.4,2.4-1.2c0.5-0.6,0.8-1.6,0.8-2.4C122.5,86,121.1,84.4,119.3,84.4z M119.1,90c-1.1,0-1.8-0.9-1.8-2.1
		c0-1.1,0.8-2,1.8-2c1,0,1.8,0.9,1.8,2.1C120.9,89.2,120.1,90,119.1,90z"/>
	<polygon fill="#666666" points="70.3,60.1 66.6,56.5 59.9,56.5 63.5,60.1 59.8,63.9 66.5,63.9 	"/>
	<polygon fill="#666666" points="81.3,60.1 77.7,56.5 70.9,56.5 74.5,60.1 70.8,63.9 77.5,63.9 	"/>
	<polygon fill="#666666" points="59.3,60.1 55.6,56.5 48.9,56.5 52.5,60.1 48.7,63.9 55.5,63.9 	"/>
	<polygon fill="#666666" points="92.3,60.1 88.7,56.5 81.9,56.5 85.5,60.1 81.8,63.9 88.5,63.9 	"/>
	<path fill="#666666" d="M48.3,60.1l-3.6-3.6h-4c-1.6-7.9-8.5-13.8-16.8-13.8c-9.5,0-17.2,7.7-17.2,17.2S14.4,77,23.8,77
		c8.1,0,14.8-5.6,16.7-13.1h4L48.3,60.1z M23.8,75c-8.4,0-15.2-6.8-15.2-15.2s6.8-15.2,15.2-15.2c8.4,0,15.2,6.8,15.2,15.2
		S32.2,75,23.8,75z"/>
</g>
</svg>
