<?xml version="1.0" encoding="utf-8"?>
<!-- Generator: Adobe Illustrator 18.1.1, SVG Export Plug-In . SVG Version: 6.00 Build 0)  -->
<!DOCTYPE svg PUBLIC "-//W3C//DTD SVG 1.1//EN" "http://www.w3.org/Graphics/SVG/1.1/DTD/svg11.dtd">
<svg version="1.1" id="Layer_1" xmlns="http://www.w3.org/2000/svg" xmlns:xlink="http://www.w3.org/1999/xlink" x="0px" y="0px"
	 width="140px" height="140px" viewBox="0 0 140 140" enable-background="new 0 0 140 140" xml:space="preserve">
<g id="_x35_151e0c8492e5103c096af88a5006e1e">
	<path id="XMLID_1_" fill="#666666" d="M2.8,72.9c5.8-1.6,14.7-2.9,29.5-3.5c-0.5-1.1-0.5-1.6-1.1-2.6c-5.8,0-23.2,0.5-29.1,2.1l0,0
		c0,0-0.5,0-0.5-0.5s0-0.5,0-0.5c5.8-1.6,22.7-2.1,29.1-2.1c-1.6-4.2-2.1-8.5-2.1-13.7c0-9,3.2-12.7,6.3-17.4
		c-3.2-10,1.1-17.4,1.1-17.4s5.8-1.6,17.4,6.9c6.3-2.6,22.7-3.2,30.6-0.5c4.8-3.2,13.7-7.4,17.4-6.3c1.1,1.6,3.2,5.8,1.6,16.4
		c1.1,2.1,7.4,6.9,7.4,20.1c0,4.8-0.5,9-1.6,12.1c14.8,0,23.8,1.1,29.6,2.1c0,0,0.5,0,0.5,0.5c0,0,0,0.5-0.5,0.5l0,0
		c-5.8-1.1-14.8-2.6-30.1-2.1c0,1.1-0.5,1.6-1.1,2.6c5.3,0,19,0.5,30.6,4.2c0,0,0.5,0,0,0.5c0,0,0,0-0.5,0l0,0
		c-11.6-3.7-25.9-4.2-30.6-4.2c-4.2,9-12.7,12.7-26.4,14.3c4.2,3.2,5.8,6.3,5.8,15.8s0,10.6,0,13.2c0,3.7,5.3,5.3,5.3,6.3
		s-4.2,1.1-6.3,0c-5.8-2.1-5.3-6.9-5.3-6.9v-12.7c0,0,0.5-6.9-2.1-6.9c0,1.6,0,15.8,0,21.1c0,4.2,3.2,5.8,3.2,7.4
		c0,3.2-5.8,0-7.4-2.1c-2.6-2.6-2.6-8.5-2.6-13.2c0-4.2,0-14.3,0-14.3h-1.6c0,0,0.5,21.1-1.1,24.8c-2.1,4.8-9,6.9-9,4.2
		c0-1.6,1.6-1.1,2.6-4.2c1.1-3.2,0.5-24.8,0.5-24.8s-2.1,1.6-2.1,5.3c0,1.6,0,12.7,0,15.8c0,4.2-5.8,6.3-8.5,6.3
		c-1.6,0-3.2,0-3.2-1.1c0-1.6,5.3-3.2,5.3-6.9c0-3.2,0-11.6,0-11.6s-2.6,0.5-6.3,0.5c-9.5,0-12.1-5.8-13.7-9.5
		c-1.6-4.2-4.2-6.3-6.9-7.9c-1.6-1.1-2.1-2.1,0-2.6c8.5-1.6,10,9.5,15.8,11.1c4.2,1.6,9,0.5,11.6-1.1c0-3.2,2.6-6.3,4.8-7.9
		C45,81.1,36.7,78.2,32.5,70.3c-20.2,0.8-30.3,3.9-30.8,3.9l0,0c0,0-0.5,0-0.5-0.5C1.1,73.7,2.2,72.9,2.8,72.9z"/>
</g>
</svg>
