<?xml version="1.0" encoding="utf-8"?>
<!-- Generator: Adobe Illustrator 18.1.1, SVG Export Plug-In . SVG Version: 6.00 Build 0)  -->
<!DOCTYPE svg PUBLIC "-//W3C//DTD SVG 1.1//EN" "http://www.w3.org/Graphics/SVG/1.1/DTD/svg11.dtd">
<svg version="1.1" id="Layer_1" xmlns="http://www.w3.org/2000/svg" xmlns:xlink="http://www.w3.org/1999/xlink" x="0px" y="0px"
	 width="140px" height="140px" viewBox="0 0 140 140" enable-background="new 0 0 140 140" xml:space="preserve">
<g>
	<path fill="#676767" d="M68.5,11.5c24.7,0,44.8,21.2,44.8,47.2c0,12.7-4.7,24.6-13.2,33.5l-7.1,7.5h0l-24.4,25.7L44,99.6h0
		l-7.1-7.5c-8.5-8.9-13.2-20.8-13.2-33.5C23.7,32.6,43.8,11.5,68.5,11.5 M68.5,7C41.3,7,19.3,30.2,19.3,58.7
		c0,14.3,5.5,27.2,14.4,36.5h0l0.1,0.1l34.6,36.4l34.6-36.4l0.1-0.1h0c8.9-9.3,14.4-22.3,14.4-36.5C117.7,30.2,95.7,7,68.5,7L68.5,7
		z"/>
</g>
<g>
	<path fill="#676767" d="M68.5,75.9c-9.9,0-17.9-8-17.9-17.9c0-9.9,8-17.9,17.9-17.9s17.9,8,17.9,17.9
		C86.4,67.9,78.4,75.9,68.5,75.9z M68.5,44.5C61.1,44.5,55,50.6,55,58c0,7.4,6.1,13.5,13.5,13.5S82,65.5,82,58
		C82,50.6,75.9,44.5,68.5,44.5z"/>
</g>
</svg>
