<?xml version="1.0" encoding="utf-8"?>
<!-- Generator: Adobe Illustrator 18.1.1, SVG Export Plug-In . SVG Version: 6.00 Build 0)  -->
<!DOCTYPE svg PUBLIC "-//W3C//DTD SVG 1.1//EN" "http://www.w3.org/Graphics/SVG/1.1/DTD/svg11.dtd">
<svg version="1.1" id="Layer_1" xmlns="http://www.w3.org/2000/svg" xmlns:xlink="http://www.w3.org/1999/xlink" x="0px" y="0px"
	 width="200px" height="200px" viewBox="30 -30 200 200" enable-background="new 30 -30 200 200" xml:space="preserve">
<g>
	<path fill="#666666" d="M178.1,11.2c0-0.1,0.1-0.1,0.1-0.2l4.1-7.2c1.1-1.8,0.4-4.2-1.4-5.2l-10.1-5.8c-1.8-1.1-4.2-0.4-5.2,1.4
		l-4.1,7.2v0.1c-7.7-3.3-16.1-5.4-24.8-6.2v-6.5h14.1v-9.3c0-2.6-2.1-4.8-4.8-4.8h-32c-2.6,0-4.8,2.1-4.8,4.8v9.2h14.1v6.5
		C82.5-1.3,50.2,33,50.2,74.8c0,44,35.8,79.8,79.8,79.8s79.8-35.8,79.8-79.8C209.8,48.8,197.3,25.8,178.1,11.2z M130,145.5
		c-39,0-70.8-31.7-70.8-70.8S91,4,130,4s70.8,31.7,70.8,70.8S169,145.5,130,145.5z"/>
	<path fill="#666666" d="M130,9.5c-36,0-65.2,29.3-65.2,65.2c0,36,29.3,65.2,65.2,65.2c36,0,65.2-29.3,65.2-65.2S166,9.5,130,9.5z
		 M162.5,129l-2-3.5c-0.6,0.3-1.2,0.7-1.7,1l2,3.5c-8.8,4.9-19,7.8-29.7,8v-4.1c-0.3,0-0.7,0-1,0s-0.7,0-1,0v4.1
		c-10.8-0.2-20.9-3-29.7-8l2-3.5c-0.6-0.3-1.2-0.7-1.7-1l-2,3.5c-8.9-5.4-16.4-12.9-21.8-21.8l3.5-2c-0.3-0.6-0.7-1.2-1-1.7l-3.5,2
		c-4.9-8.8-7.8-19-8-29.7H71c0-0.3,0-0.7,0-1s0-0.7,0-1h-4.1c0.2-10.8,3-20.9,8-29.7l3.5,2c0.3-0.6,0.7-1.2,1-1.7l-3.5-2
		c5.4-8.9,12.9-16.4,21.8-21.8l2,3.5c0.6-0.3,1.2-0.7,1.7-1l-2-3.5c8.8-4.9,19-7.8,29.7-8v4.1c0.3,0,0.7,0,1,0s0.7,0,1,0v-4.1
		c10.8,0.2,20.9,3,29.7,8l-2,3.5c0.6,0.3,1.2,0.7,1.7,1l2-3.5c8.9,5.4,16.4,12.9,21.8,21.8l-3.5,2c0.3,0.6,0.7,1.2,1,1.7l3.5-2
		c4.9,8.8,7.8,19,8,29.7h-4.1c0,0.3,0,0.7,0,1s0,0.7,0,1h4.1c-0.2,10.8-3,20.9-8,29.7l-3.5-2c-0.3,0.6-0.7,1.2-1,1.7l3.5,2
		C178.9,116.1,171.4,123.6,162.5,129z"/>
	<path fill="#666666" d="M135,74.4l-5-56.7l-5,56.7c-0.3,2.9,2,5.4,5,5.4S135.2,77.3,135,74.4z"/>
</g>
</svg>
