<?xml version="1.0" encoding="utf-8"?>
<!-- Generator: Adobe Illustrator 18.1.1, SVG Export Plug-In . SVG Version: 6.00 Build 0)  -->
<!DOCTYPE svg PUBLIC "-//W3C//DTD SVG 1.1//EN" "http://www.w3.org/Graphics/SVG/1.1/DTD/svg11.dtd">
<svg version="1.1" id="Layer_1" xmlns="http://www.w3.org/2000/svg" xmlns:xlink="http://www.w3.org/1999/xlink" x="0px" y="0px"
	 width="34px" height="34px" viewBox="-52 54 34 34" enable-background="new -52 54 34 34" xml:space="preserve">
<g>
	<path fill="#666666" d="M-24.6,74.7v-0.5c0.3-0.3,0.7-0.9,0.8-1.9c0.4-0.4,0.5-0.9,0.5-1.5c0-0.4-0.1-0.7-0.3-1l0,0
		c0.2-0.5,0.3-1.2,0.1-1.9c-0.4-1.5-2.2-2.1-3.8-2.1c-1.4,0-2.5,0.5-3,1.3c-0.4,0.2-0.6,0.5-0.7,0.7c-0.3,0.7-0.2,1.4,0,2
		c0,0,0,0,0,0.1c-0.2,0.3-0.3,0.6-0.3,1c0,0.5,0.1,0.9,0.4,1.3c0.5,0.2,0.9,0.5,1.2,0.7c-0.1-0.3-0.1-0.6-0.1-1.1
		c-0.6,0-0.8-1.6,0-1.6c0-0.2-1.1-2,0.2-2.3c0.2-0.7,1.2-1.1,2.2-1.1c1.2,0,2.6,0.5,2.8,1.4c0.2,1-0.4,1.9-0.4,2
		c0.8,0,0.5,1.6,0,1.6c0,1.7-0.8,2-0.8,2v1.6c2,0.8,4.4,2,4.4,2.4V80c0,0.8-0.6,1.4-1.4,1.4h-4.1c-0.2,0.4-0.5,0.7-0.8,1h4.9
		c1.3,0,2.4-1.1,2.4-2.4v-2.3C-20.2,77.3-20.2,76.5-24.6,74.7z"/>
	<path fill="#666666" d="M-27.9,80v-4.2c0-0.4,0-1.6-6.8-4.4v-1.3c0.5-0.4,1.1-1.3,1.2-3c0.5-0.5,0.8-1.3,0.8-2.1
		c0-0.5-0.1-0.9-0.3-1.3c-0.1-0.1-0.1-0.2-0.2-0.2c0.3-0.7,0.6-1.8,0.3-2.9c-0.5-2-3.1-2.9-5.3-2.9c-2,0-3.6,0.7-4.2,1.9
		c-0.5,0.3-0.8,0.6-1,1c-0.5,1-0.2,2.1,0.2,2.9c-0.1,0.1-0.2,0.2-0.3,0.3c-0.2,0.4-0.3,0.8-0.3,1.3c0,0.8,0.3,1.6,0.8,2
		c0.1,1.7,0.7,2.6,1.2,3v1.3c-6.8,2.8-6.8,4-6.8,4.4V80c0,1.3,1.1,2.4,2.4,2.4h12.9h3C-29,82.4-27.9,81.3-27.9,80z M-46.2,81.4
		c-0.8,0-1.4-0.6-1.4-1.4v-4.2c0-0.6,3.7-2.5,6.8-3.7v-2.5c0,0-1.2-0.4-1.2-3.1c-0.9,0-1.2-2.5,0-2.5c0-0.4-1.7-3.1,0.4-3.6
		c0.3-1.1,1.8-1.7,3.4-1.7c1.9,0,4,0.8,4.3,2.1c0.4,1.5-0.6,2.9-0.6,3.1c1.2,0,0.8,2.5,0,2.5c0,2.7-1.2,3.1-1.2,3.1V72
		c3.1,1.2,6.8,3.1,6.8,3.7V80c0,0.8-0.6,1.4-1.4,1.4H-46.2z"/>
</g>
</svg>
