<?xml version="1.0" encoding="utf-8"?>
<!-- Generator: Adobe Illustrator 18.1.1, SVG Export Plug-In . SVG Version: 6.00 Build 0)  -->
<!DOCTYPE svg PUBLIC "-//W3C//DTD SVG 1.1//EN" "http://www.w3.org/Graphics/SVG/1.1/DTD/svg11.dtd">
<svg version="1.1" id="Layer_1" xmlns="http://www.w3.org/2000/svg" xmlns:xlink="http://www.w3.org/1999/xlink" x="0px" y="0px"
	 width="200px" height="200px" viewBox="0 0 200 200" enable-background="new 0 0 200 200" xml:space="preserve">
<g>
	<path fill="#666666" d="M195.8,164.2l-12-33.9c-0.2-0.5-0.5-0.8-0.8-1.2c0-0.2,0.1-0.5,0.1-0.7V35.5c0-2.4-2-4.4-4.4-4.4H23.8
		c-2.4,0-4.4,2-4.4,4.4v92.9c0,0.3,0,0.5,0.1,0.7c-0.3,0.3-0.6,0.6-0.8,1L4.7,164.1c-0.8,1.8,0.7,3.8,2.7,3.8h185.7
		C195.1,167.9,196.5,166,195.8,164.2z M174.2,123.9h-11.3v17.5c0,2.1-1.7,3.8-3.8,3.8H69.9c-2.1,0-3.8-1.7-3.8-3.8v-7.3H54.5
		c-1.4,0-2.6-1.2-2.6-2.6v-7.5H28.3v-84h145.9V123.9z"/>
	<path fill="#666666" d="M161.6,78.9c0-1.4-1.1-2.5-2.5-2.5H69.9c-1.4,0-2.5,1.1-2.5,2.5v8h5.1v-5.5h73.9v57.4H72.5v-4.8h-5.1v7.3
		c0,1.4,1.1,2.5,2.5,2.5H159c1.4,0,2.5-1.1,2.5-2.5V78.9z M152.7,106.7c1.8,0,3.3,1.5,3.3,3.2s-1.5,3.2-3.3,3.2
		c-1.8,0-3.2-1.5-3.2-3.2S150.9,106.7,152.7,106.7z"/>
	<circle fill="#666666" cx="152.7" cy="109.9" r="2"/>
	<path fill="#666666" d="M76.8,132.8c0.7,0,1.3-0.6,1.3-1.3V89.5c0-0.7-0.6-1.3-1.3-1.3H54.5c-0.7,0-1.3,0.6-1.3,1.3v41.9
		c0,0.7,0.6,1.3,1.3,1.3H76.8z M67.5,128.1c0,0.2,0,0.5-0.1,0.7c-0.3,0.6-0.9,1.1-1.6,1.1c-0.7,0-1.3-0.4-1.6-1.1
		c-0.1-0.2-0.1-0.4-0.1-0.7l0,0v0c0-0.2,0-0.5,0.1-0.7c0.3-0.6,0.9-1.1,1.6-1.1c0.7,0,1.3,0.4,1.6,1.1
		C67.5,127.6,67.5,127.8,67.5,128.1L67.5,128.1L67.5,128.1z M55.9,90.9h19.6v33.8H55.9V90.9z"/>
	<circle fill="#666666" cx="65.8" cy="128.1" r="1.1"/>
</g>
<rect x="33.5" y="45.5" fill="#00B1D3" width="134.5" height="21.5"/>
<rect x="33.5" y="76.4" fill="#666666" width="30.1" height="6"/>
<rect x="33.5" y="87.4" fill="#666666" width="16.8" height="6"/>
<rect x="57.6" y="102.4" fill="#666666" width="16.4" height="2.9"/>
<rect x="57.6" y="107.4" fill="#666666" width="16.4" height="2.9"/>
<rect x="57.6" y="112.4" fill="#666666" width="16.4" height="2.9"/>
<rect x="57.6" y="117.4" fill="#666666" width="16.4" height="2.9"/>
<rect x="33.5" y="98.4" fill="#666666" width="16.8" height="6"/>
<rect x="33.5" y="109.4" fill="#666666" width="16.8" height="6"/>
<rect x="57.5" y="92.2" fill="#00B1D3" width="16.6" height="7.8"/>
<rect x="80.5" y="98.9" fill="#666666" width="31.5" height="2.9"/>
<g>
	<path fill="#666666" d="M140.5,101.9v27.9h-21.2v-27.9H140.5 M143.5,98.9h-27.2v33.9h27.2V98.9L143.5,98.9z"/>
</g>
<rect x="80.5" y="103.9" fill="#666666" width="31.5" height="2.9"/>
<rect x="80.5" y="108.9" fill="#666666" width="31.5" height="2.9"/>
<rect x="80.5" y="113.9" fill="#666666" width="31.5" height="2.9"/>
<rect x="80.5" y="124.9" fill="#666666" width="31.5" height="2.9"/>
<rect x="80.5" y="129.9" fill="#666666" width="31.5" height="2.9"/>
<path fill="#00B1D3" d="M143.6,95H80.2v-7.3c0-0.9-0.8-1.7-1.7-1.7l-3.3,0v-1.2h68.3V95z"/>
</svg>
