<?xml version="1.0" encoding="utf-8"?>
<!-- Generator: Adobe Illustrator 18.1.1, SVG Export Plug-In . SVG Version: 6.00 Build 0)  -->
<!DOCTYPE svg PUBLIC "-//W3C//DTD SVG 1.1//EN" "http://www.w3.org/Graphics/SVG/1.1/DTD/svg11.dtd">
<svg version="1.1" id="twitter" xmlns="http://www.w3.org/2000/svg" xmlns:xlink="http://www.w3.org/1999/xlink" x="0px" y="0px"
	 viewBox="0 0 125 125" enable-background="new 0 0 125 125" xml:space="preserve">
<path fill="#FFFFFF" d="M116.2,29c-4,1.8-8.2,3-12.7,3.5c4.5-2.7,8-7.1,9.7-12.3c-4.3,2.5-9,4.4-14,5.4c-4-4.3-9.7-7-16.1-7
	c-12.2,0-22,9.9-22,22.2c0,1.7,0.2,3.4,0.6,5.1c-18.3-0.9-34.6-9.8-45.4-23.2c-1.9,3.3-3,7.1-3,11.1c0,7.7,3.9,14.5,9.8,18.5
	c-3.6-0.1-7-1.1-10-2.8c0,0.1,0,0.2,0,0.3c0,10.7,7.6,19.7,17.7,21.7C28.9,72,27,72.3,25,72.3c-1.4,0-2.8-0.1-4.1-0.4
	c2.8,8.8,10.9,15.2,20.6,15.4c-7.5,5.9-17,9.5-27.4,9.5c-1.8,0-3.5-0.1-5.3-0.3c9.8,6.3,21.3,10,33.8,10c40.5,0,62.7-33.8,62.7-63.1
	c0-1,0-1.9-0.1-2.9C109.5,37.3,113.3,33.4,116.2,29z"/>
</svg>
