<?xml version="1.0" encoding="iso-8859-1"?>
<!-- Generator: Adobe Illustrator 19.1.0, SVG Export Plug-In . SVG Version: 6.00 Build 0)  -->
<svg version="1.1" id="Layer_1" xmlns="http://www.w3.org/2000/svg" xmlns:xlink="http://www.w3.org/1999/xlink" x="0px" y="0px"
	 width="266px" height="74px" viewBox="0 0 266 74" style="enable-background:new 0 0 266 74;" xml:space="preserve">
<g>
	<path style="fill:#E6E7E8;" d="M76.285,24.873h3.001l5.092,17.595h0.091l5.865-17.595h2.591l6.229,17.595h0.091l4.956-17.595h2.728
		l-6.184,21.005h-2.819l-6.274-17.186h-0.091l-5.865,17.186h-2.819L76.285,24.873z"/>
	<path style="fill:#E6E7E8;" d="M107.643,35.375c0-1.606,0.273-3.083,0.818-4.433c0.546-1.348,1.303-2.515,2.273-3.5
		c0.97-0.985,2.137-1.751,3.501-2.297c1.364-0.545,2.849-0.818,4.455-0.818c1.606,0,3.084,0.273,4.433,0.818
		c1.348,0.546,2.515,1.312,3.501,2.297c0.985,0.985,1.75,2.152,2.296,3.5c0.545,1.349,0.818,2.827,0.818,4.433
		c0,1.607-0.273,3.085-0.818,4.433c-0.546,1.349-1.312,2.516-2.296,3.5c-0.985,0.985-2.152,1.751-3.501,2.297
		c-1.349,0.545-2.827,0.818-4.433,0.818c-1.607,0-3.091-0.273-4.455-0.818c-1.364-0.546-2.531-1.311-3.501-2.297
		c-0.97-0.985-1.727-2.152-2.273-3.5C107.916,38.46,107.643,36.982,107.643,35.375z M110.371,35.375
		c0,1.182,0.189,2.297,0.568,3.342c0.379,1.046,0.932,1.955,1.659,2.728s1.607,1.387,2.637,1.841
		c1.03,0.455,2.182,0.682,3.455,0.682c1.273,0,2.425-0.227,3.455-0.682c1.03-0.454,1.909-1.068,2.637-1.841s1.28-1.682,1.66-2.728
		c0.378-1.045,0.568-2.16,0.568-3.342c0-1.182-0.19-2.296-0.568-3.341c-0.379-1.046-0.932-1.955-1.66-2.728
		c-0.727-0.773-1.607-1.387-2.637-1.841c-1.031-0.455-2.182-0.682-3.455-0.682c-1.273,0-2.425,0.227-3.455,0.682
		c-1.031,0.454-1.91,1.068-2.637,1.841c-0.727,0.773-1.281,1.682-1.659,2.728C110.56,33.079,110.371,34.193,110.371,35.375z"/>
	<path style="fill:#E6E7E8;" d="M133.26,30.783c0-0.393-0.016-0.871-0.045-1.432c-0.031-0.56-0.053-1.129-0.068-1.705
		c-0.016-0.576-0.038-1.114-0.068-1.614c-0.031-0.5-0.046-0.887-0.046-1.16h2.728c0.03,0.788,0.052,1.546,0.068,2.273
		c0.015,0.727,0.053,1.198,0.114,1.409c0.697-1.242,1.591-2.258,2.683-3.046c1.091-0.788,2.424-1.182,4.001-1.182
		c0.273,0,0.538,0.023,0.796,0.068c0.257,0.045,0.523,0.099,0.796,0.16l-0.318,2.682c-0.364-0.121-0.712-0.182-1.045-0.182
		c-1.182,0-2.205,0.19-3.069,0.568c-0.864,0.379-1.576,0.902-2.137,1.568c-0.561,0.667-0.978,1.448-1.25,2.341
		c-0.273,0.894-0.409,1.857-0.409,2.887v11.457h-2.728V30.783z"/>
	<path style="fill:#E6E7E8;" d="M180.782,13.689h11.957c1.667,0,3.243,0.152,4.728,0.454c1.485,0.303,2.781,0.826,3.887,1.568
		c1.106,0.743,1.985,1.743,2.637,3.001c0.652,1.258,0.978,2.842,0.978,4.751c0,1.88-0.303,3.456-0.909,4.729
		c-0.607,1.273-1.44,2.289-2.501,3.046c-1.061,0.758-2.319,1.296-3.773,1.614s-3.031,0.478-4.728,0.478h-5.183v12.548h-7.093V13.689
		z M187.874,27.328h4.728c0.636,0,1.25-0.06,1.841-0.182c0.591-0.121,1.121-0.325,1.591-0.614c0.47-0.287,0.848-0.682,1.137-1.182
		c0.288-0.5,0.432-1.129,0.432-1.887c0-0.818-0.19-1.478-0.568-1.978c-0.379-0.5-0.864-0.886-1.455-1.159
		c-0.591-0.273-1.25-0.447-1.978-0.523c-0.727-0.075-1.425-0.114-2.091-0.114h-3.637V27.328z"/>
	<path style="fill:#E6E7E8;" d="M207.593,23.781h6.82v22.096h-6.82V23.781z"/>
	<path style="fill:#E6E7E8;" d="M218.519,23.781h6.547v3.001h0.091c0.212-0.424,0.515-0.848,0.909-1.273
		c0.393-0.424,0.864-0.803,1.409-1.137c0.546-0.333,1.167-0.606,1.864-0.818c0.697-0.212,1.455-0.318,2.273-0.318
		c1.728,0,3.122,0.265,4.183,0.796c1.061,0.53,1.887,1.266,2.478,2.205c0.591,0.94,0.993,2.046,1.205,3.319
		c0.211,1.273,0.318,2.653,0.318,4.138v12.185h-6.819V35.057c0-0.637-0.023-1.296-0.068-1.978c-0.045-0.682-0.182-1.311-0.409-1.886
		c-0.227-0.576-0.576-1.046-1.046-1.409c-0.47-0.364-1.144-0.546-2.023-0.546c-0.879,0-1.591,0.159-2.137,0.478
		c-0.546,0.318-0.963,0.743-1.25,1.273c-0.288,0.531-0.477,1.13-0.568,1.796c-0.091,0.667-0.136,1.364-0.136,2.091v11.002h-6.82
		V23.781z"/>
	<path style="fill:#E6E7E8;" d="M265.523,44.013c0,4.183-1.054,7.358-3.16,9.526c-2.107,2.166-5.312,3.25-9.616,3.25
		c-1.971,0-3.91-0.22-5.82-0.659c-1.909-0.44-3.668-1.296-5.274-2.568l3.773-5.638c1.061,0.878,2.175,1.576,3.342,2.091
		c1.167,0.515,2.448,0.773,3.842,0.773c2.091,0,3.63-0.508,4.615-1.523c0.985-1.016,1.478-2.312,1.478-3.888v-2.137h-0.091
		c-0.789,1.061-1.766,1.812-2.932,2.25c-1.167,0.44-2.266,0.659-3.297,0.659c-1.637,0-3.122-0.28-4.455-0.841
		c-1.334-0.56-2.478-1.348-3.432-2.364c-0.955-1.015-1.69-2.22-2.205-3.614c-0.516-1.394-0.773-2.924-0.773-4.592
		c0-1.455,0.234-2.88,0.705-4.274c0.47-1.394,1.137-2.622,2.001-3.683c0.864-1.061,1.916-1.917,3.16-2.569
		c1.242-0.651,2.652-0.977,4.228-0.977c0.97,0,1.856,0.106,2.66,0.318c0.803,0.212,1.523,0.486,2.16,0.818
		c0.636,0.334,1.182,0.705,1.637,1.114c0.455,0.409,0.818,0.811,1.091,1.204h0.091v-2.91h6.274V44.013z M248.337,34.694
		c0,0.727,0.137,1.417,0.409,2.068c0.273,0.653,0.659,1.228,1.16,1.728c0.5,0.5,1.075,0.902,1.727,1.204
		c0.652,0.304,1.371,0.455,2.16,0.455c0.757,0,1.47-0.151,2.137-0.455c0.666-0.303,1.25-0.705,1.75-1.204
		c0.5-0.5,0.887-1.075,1.159-1.728c0.273-0.651,0.409-1.341,0.409-2.068s-0.136-1.417-0.409-2.069
		c-0.273-0.652-0.659-1.228-1.159-1.728c-0.5-0.5-1.084-0.901-1.75-1.204c-0.667-0.303-1.379-0.455-2.137-0.455
		c-0.789,0-1.508,0.152-2.16,0.455c-0.652,0.303-1.227,0.705-1.727,1.204c-0.5,0.5-0.887,1.076-1.16,1.728
		C248.474,33.277,248.337,33.966,248.337,34.694z"/>
	<path style="fill:none;" d="M44.142,33.54c0,0,0-4.381,2.19-4.381c2.191,0,4.381-4.381,8.762,0c0,0,2.532-1.688,6.113-2.1
		c-1.124-2.631-2.664-5.041-4.538-7.148c-0.393,0.283-0.908,0.486-1.576,0.486c-2.191,0,2.19,4.381,0,4.381
		c-2.191,0-2.191-2.191-4.381-2.191c-2.19,0-2.19,2.191-4.381,4.381c-2.19,2.191,0,0-2.19-2.191c-2.19-2.191,4.381,0,2.19-2.191
		c-2.19-2.191,2.191-2.191,2.191-4.381c0-1.718,2.695-2.089,3.858-2.169c-1.264-0.912-2.613-1.714-3.858-2.213
		c2.19,2.191-2.191,4.381-4.381,4.381c-2.058,0-0.25-3.866-0.023-6.15c-2.257-0.631-4.638-0.969-7.096-0.969
		c-1.33,0-2.636,0.099-3.913,0.289c-0.273,0.595-0.468,1.248-0.468,1.901c0,2.191-2.19-2.191-4.381,2.191c-2.191,4.381,0,0,0,4.381
		c0,2.191-3.17,0.606-2.191,1.095c2.191,1.095,2.191,1.095,0,3.286c0,0-4.381-2.19-4.381,0c0,2.191-2.191,2.191-4.381,2.191
		c-2.19,0,0,4.381-2.19,4.381c-1.684,0-0.779-2.59-2.261-3.787c-0.564,1.313-1.023,2.681-1.369,4.094
		c1.476,1.323,1.724,6.548,3.63,8.455c2.19-2.191,2.19,0,4.381,0c2.191,0,2.191,0,3.286,2.19c2.191,0,3.286,2.191,5.476,4.381
		c2.19,2.191,6.571,2.191,6.571,4.381c0,2.19-2.19,0-2.19,4.381c0,2.19,0,2.19-2.19,2.19c-1.379,0-2.758,2.605-3.591,4.535
		c3.126,1.312,6.56,2.037,10.162,2.037c7.357,0,14.008-3.023,18.779-7.894l-1.256-2.511c0,0,2.738-4.381,0.548-6.571
		c-2.191-2.191-2.191-4.381-2.191-4.381s-4.381,4.381-6.571,2.191c-2.19-2.191-2.19,0-4.381-4.381
		C39.761,35.73,44.142,33.54,44.142,33.54z"/>
	<path style="fill:none;" d="M14.023,45.588c0-1.758-0.705-3.163,0.148-4.782c-3.091-3.104-1.243-1.421-1.243-3.433
		c0-1.043-0.993-2.085-2.033-2.892c-0.104,0.95-0.157,1.915-0.157,2.892c0,7.732,3.338,14.683,8.651,19.493l-2.08-4.16
		C15.118,52.707,14.023,47.778,14.023,45.588z"/>
	<path style="fill:#E6E7E8;" d="M37.023,8.53c-11.288,0-21.082,6.518-25.816,15.988c-1.251,2.502-2.148,5.209-2.627,8.057
		c-0.262,1.561-0.399,3.163-0.399,4.798c0,15.904,12.939,28.842,28.842,28.842c15.904,0,28.843-12.939,28.843-28.842
		C65.866,21.469,52.927,8.53,37.023,8.53z M10.737,37.373c0-0.977,0.053-1.942,0.157-2.892c1.04,0.807,2.033,1.849,2.033,2.892
		c0,2.012-1.847,0.329,1.243,3.433c-0.854,1.619-0.148,3.024-0.148,4.782c0,2.191,1.095,7.119,3.286,7.119l2.08,4.16
		C14.075,52.057,10.737,45.105,10.737,37.373z M41.952,40.111c2.19,4.381,2.19,2.191,4.381,4.381
		c2.191,2.191,6.571-2.191,6.571-2.191s0,2.191,2.191,4.381c2.19,2.19-0.548,6.571-0.548,6.571l1.256,2.511
		c-4.771,4.871-11.422,7.894-18.779,7.894c-3.603,0-7.036-0.725-10.162-2.037c0.832-1.93,2.212-4.535,3.591-4.535
		c2.19,0,2.19,0,2.19-2.19c0-4.381,2.19-2.191,2.19-4.381c0-2.191-4.381-2.191-6.571-4.381c-2.191-2.191-3.286-4.381-5.476-4.381
		c-1.095-2.19-1.095-2.19-3.286-2.19c-2.19,0-2.19-2.191-4.381,0c-1.907-1.907-2.154-7.132-3.63-8.455
		c0.345-1.413,0.805-2.781,1.369-4.094c1.483,1.197,0.577,3.787,2.261,3.787c2.19,0,0-4.381,2.19-4.381c2.19,0,4.381,0,4.381-2.191
		c0-2.19,4.381,0,4.381,0c2.191-2.19,2.191-2.19,0-3.286c-0.98-0.49,2.191,1.095,2.191-1.095c0-4.381-2.191,0,0-4.381
		c2.19-4.381,4.381,0,4.381-2.191c0-0.653,0.195-1.306,0.468-1.901c1.277-0.191,2.583-0.289,3.913-0.289
		c2.459,0,4.839,0.338,7.096,0.969c-0.227,2.285-2.035,6.15,0.023,6.15c2.19,0,6.571-2.191,4.381-4.381
		c1.245,0.499,2.593,1.301,3.858,2.213c-1.163,0.08-3.858,0.45-3.858,2.169c0,2.19-4.381,2.19-2.191,4.381
		c2.191,2.191-4.381,0-2.19,2.191c2.19,2.191,0,4.381,2.19,2.191c2.191-2.191,2.191-4.381,4.381-4.381
		c2.19,0,2.19,2.191,4.381,2.191c2.19,0-2.191-4.381,0-4.381c0.668,0,1.182-0.203,1.576-0.486c1.874,2.107,3.414,4.517,4.538,7.148
		c-3.582,0.413-6.113,2.1-6.113,2.1c-4.381-4.381-6.571,0-8.762,0c-2.19,0-2.19,4.381-2.19,4.381S39.761,35.73,41.952,40.111z"/>
	<path style="fill:none;" d="M21.359,9.13c2.306,0,4.183-1.876,4.183-4.183c0-2.306-1.876-4.182-4.183-4.182
		s-4.183,1.876-4.183,4.182C17.176,7.253,19.052,9.13,21.359,9.13z"/>
	<linearGradient id="SVGID_1_" gradientUnits="userSpaceOnUse" x1="0.4771" y1="37" x2="73.5816" y2="37">
		<stop  offset="0" style="stop-color:#3BB0C9"/>
		<stop  offset="1" style="stop-color:#D8D9DA"/>
	</linearGradient>
	<path style="fill:url(#SVGID_1_);" d="M37.029,0.815c-0.189,0-0.342,0.153-0.342,0.342s0.153,0.342,0.342,0.342
		c19.778,0,35.868,16.091,35.868,35.868s-16.09,35.868-35.868,35.868S1.161,57.145,1.161,37.367
		c0-12.067,5.997-23.213,16.049-29.889c0.856,1.398,2.393,2.336,4.149,2.336c2.683,0,4.867-2.183,4.867-4.867
		c0-2.683-2.183-4.866-4.867-4.866s-4.867,2.183-4.867,4.866c0,0.682,0.142,1.331,0.397,1.921
		C6.61,13.668,0.477,25.047,0.477,37.367c0,20.155,16.397,36.552,36.552,36.552s36.552-16.397,36.552-36.552
		S57.184,0.815,37.029,0.815z M21.359,0.764c2.306,0,4.183,1.876,4.183,4.182c0,2.307-1.876,4.183-4.183,4.183
		s-4.183-1.876-4.183-4.183C17.176,2.641,19.052,0.764,21.359,0.764z"/>
	<circle style="fill:#3BB0C9;" cx="21.359" cy="4.947" r="3.122"/>
	<rect x="147.527" y="13.702" style="fill:#E6E7E8;" width="2.728" height="32.176"/>
	<path style="fill:#E6E7E8;" d="M173.098,28.556h-0.091c-0.425-0.727-0.955-1.356-1.591-1.887c-0.637-0.53-1.326-0.969-2.069-1.318
		c-0.743-0.348-1.523-0.607-2.341-0.773s-1.622-0.25-2.41-0.25c-1.607,0-3.091,0.273-4.455,0.818
		c-1.364,0.546-2.531,1.312-3.501,2.297c-0.97,0.985-1.727,2.152-2.273,3.5c-0.545,1.349-0.818,2.827-0.818,4.433
		c0,1.607,0.273,3.085,0.818,4.433c0.546,1.349,1.303,2.516,2.273,3.5c0.97,0.985,2.137,1.751,3.501,2.297
		c1.364,0.545,2.849,0.818,4.455,0.818c0.788,0,1.591-0.084,2.41-0.25c0.818-0.167,1.598-0.424,2.341-0.773
		c0.742-0.348,1.432-0.788,2.069-1.318c0.637-0.53,1.167-1.16,1.591-1.887h0.091v3.683h2.728V13.702h-2.728V28.556z M172.689,38.717
		c-0.455,1.046-1.076,1.955-1.864,2.728c-0.789,0.773-1.713,1.387-2.773,1.841c-1.061,0.455-2.213,0.682-3.456,0.682
		c-1.273,0-2.425-0.227-3.455-0.682c-1.031-0.454-1.91-1.068-2.637-1.841c-0.727-0.773-1.281-1.682-1.659-2.728
		c-0.379-1.045-0.568-2.16-0.568-3.342c0-1.182,0.189-2.296,0.568-3.341c0.379-1.046,0.932-1.955,1.659-2.728
		c0.727-0.773,1.607-1.387,2.637-1.841c1.03-0.455,2.182-0.682,3.455-0.682c1.242,0,2.394,0.227,3.456,0.682
		c1.06,0.454,1.985,1.068,2.773,1.841c0.788,0.773,1.409,1.682,1.864,2.728c0.455,1.045,0.682,2.16,0.682,3.341
		C173.371,36.557,173.144,37.672,172.689,38.717z"/>
	<line style="fill:#666766;" x1="77.087" y1="25.741" x2="77.087" y2="25.285"/>
	<path style="fill:#E6E7E8;" d="M210.969,21.632c-2.683,0-4.867-2.183-4.867-4.867s2.183-4.867,4.867-4.867
		c2.684,0,4.867,2.183,4.867,4.867S213.652,21.632,210.969,21.632z M210.969,12.582c-2.306,0-4.183,1.876-4.183,4.183
		s1.876,4.183,4.183,4.183c2.307,0,4.183-1.876,4.183-4.183S213.275,12.582,210.969,12.582z"/>
	<circle style="fill:#3BB0C9;" cx="210.969" cy="16.765" r="3.122"/>
</g>
</svg>
