<?xml version="1.0" encoding="utf-8"?>
<!-- Generator: Adobe Illustrator 19.0.1, SVG Export Plug-In . SVG Version: 6.00 Build 0)  -->
<!DOCTYPE svg PUBLIC "-//W3C//DTD SVG 1.1//EN" "http://www.w3.org/Graphics/SVG/1.1/DTD/svg11.dtd">
<svg version="1.1" id="Layer_1" xmlns="http://www.w3.org/2000/svg" xmlns:xlink="http://www.w3.org/1999/xlink" x="0px" y="0px"
	 width="216px" height="60px" viewBox="-41 71 216 60" style="enable-background:new -41 71 216 60;" xml:space="preserve">
<style type="text/css">
	.st0{fill:#E6E7E8;}
	.st1{fill:none;}
	.st2{fill:url(#SVGID_1_);}
	.st3{fill:#3BB0C9;}
</style>
<g>
	<path class="st0" d="M21.2,91.2h2.4l4.1,14.2h0.1l4.8-14.2h2.1l5,14.2h0.1l4-14.2H46l-5,17h-2.3l-5.1-13.9h-0.1l-4.8,13.9h-2.3
		L21.2,91.2z"/>
	<path class="st0" d="M46.5,99.7c0-1.3,0.2-2.5,0.6-3.6s1-2,1.9-2.8c0.8-0.8,1.7-1.5,2.8-1.9s2.3-0.6,3.6-0.6c1.3,0,2.5,0.2,3.6,0.6
		c1,0.4,2,1,2.8,1.9c0.8,0.8,1.5,1.8,1.9,2.8c0.4,1,0.6,2.3,0.6,3.6s-0.2,2.5-0.6,3.6c-0.4,1-1,2-1.9,2.8c-0.8,0.8-1.8,1.5-2.8,1.9
		c-1,0.4-2.3,0.6-3.6,0.6c-1.3,0-2.5-0.2-3.6-0.6c-1.1-0.4-2-1-2.8-1.9c-0.8-0.8-1.4-1.8-1.9-2.8C46.7,102.2,46.5,101,46.5,99.7z
		 M48.8,99.7c0,1,0.2,1.9,0.5,2.7c0.3,0.8,0.7,1.6,1.4,2.2c0.6,0.6,1.3,1.1,2.1,1.5c0.8,0.4,1.8,0.6,2.8,0.6s1.9-0.2,2.8-0.6
		c0.8-0.4,1.5-0.9,2.1-1.5c0.6-0.6,1-1.4,1.4-2.2c0.3-0.8,0.5-1.8,0.5-2.7c0-1-0.2-1.9-0.5-2.7c-0.3-0.8-0.7-1.6-1.4-2.2
		c-0.6-0.6-1.3-1.1-2.1-1.5c-0.8-0.4-1.8-0.6-2.8-0.6s-1.9,0.2-2.8,0.6c-0.8,0.4-1.5,0.9-2.1,1.5c-0.6,0.6-1,1.4-1.4,2.2
		C48.9,97.9,48.8,98.7,48.8,99.7z"/>
	<path class="st0" d="M67.2,96c0-0.3,0-0.7,0-1.1c0-0.5-0.1-0.9-0.1-1.4s0-0.9-0.1-1.3c0-0.4,0-0.7,0-1h2.2c0,0.6,0.1,1.2,0.1,1.9
		c0,0.6,0.1,1,0.1,1.1c0.6-1,1.3-1.9,2.2-2.4c0.9-0.6,1.9-1,3.2-1c0.2,0,0.4,0,0.6,0.1c0.2,0,0.4,0.1,0.6,0.2l-0.2,2.2
		c-0.3-0.1-0.6-0.2-0.8-0.2c-1,0-1.8,0.2-2.5,0.5s-1.3,0.7-1.7,1.3c-0.5,0.6-0.8,1.1-1,1.9c-0.2,0.7-0.3,1.5-0.3,2.3v9.3h-2.2
		L67.2,96L67.2,96z"/>
	<path class="st0" d="M105.6,82.2h9.7c1.4,0,2.6,0.2,3.8,0.4c1.2,0.2,2.3,0.6,3.1,1.3c0.9,0.6,1.6,1.4,2.1,2.4
		c0.6,1,0.8,2.3,0.8,3.9c0,1.5-0.2,2.8-0.7,3.8c-0.5,1-1.1,1.9-2,2.4c-0.9,0.6-1.9,1-3.1,1.3c-1.2,0.2-2.4,0.4-3.8,0.4h-4.2v10.1
		h-5.7V82.2z M111.3,93.3h3.8c0.5,0,1-0.1,1.5-0.2c0.5-0.1,0.9-0.2,1.3-0.5c0.4-0.2,0.6-0.6,0.9-1c0.2-0.4,0.3-0.9,0.3-1.5
		s-0.2-1.2-0.5-1.6c-0.3-0.4-0.7-0.7-1.2-1c-0.5-0.2-1-0.3-1.6-0.4s-1.1-0.1-1.7-0.1h-2.9v6.2H111.3z"/>
	<path class="st0" d="M127.2,90.3h5.5v17.8h-5.5V90.3z"/>
	<path class="st0" d="M136,90.3h5.2v2.4h0.1c0.2-0.3,0.4-0.6,0.7-1c0.3-0.3,0.7-0.6,1.1-0.9c0.4-0.2,1-0.5,1.5-0.6
		c0.6-0.2,1.2-0.2,1.9-0.2c1.4,0,2.5,0.2,3.4,0.6c0.9,0.4,1.5,1,2,1.8c0.5,0.7,0.8,1.6,1,2.7c0.2,1,0.2,2.2,0.2,3.3v9.8h-5.5v-8.7
		c0-0.5,0-1-0.1-1.6c0-0.6-0.2-1-0.3-1.5c-0.2-0.5-0.5-0.8-0.8-1.1c-0.4-0.3-0.9-0.4-1.6-0.4s-1.3,0.2-1.7,0.4c-0.4,0.2-0.8,0.6-1,1
		c-0.2,0.4-0.4,0.9-0.5,1.5c-0.1,0.6-0.1,1.1-0.1,1.7v8.9H136V90.3z"/>
	<path class="st0" d="M174,106.7c0,3.4-0.9,6-2.6,7.7c-1.7,1.8-4.3,2.7-7.7,2.7c-1.6,0-3.1-0.2-4.7-0.6c-1.5-0.3-3-1-4.3-2.1
		l3.1-4.5c0.9,0.7,1.8,1.3,2.7,1.7c1,0.4,1.9,0.6,3.1,0.6c1.7,0,2.9-0.4,3.7-1.2c0.8-0.8,1.2-1.9,1.2-3.1v-1.7h-0.1
		c-0.6,0.9-1.5,1.5-2.3,1.9c-1,0.3-1.9,0.6-2.7,0.6c-1.3,0-2.5-0.2-3.6-0.6c-1-0.5-2-1-2.7-1.9c-0.8-0.8-1.4-1.8-1.8-2.9
		c-0.4-1.1-0.6-2.3-0.6-3.7c0-1.2,0.2-2.3,0.6-3.5c0.4-1.1,0.9-2.1,1.6-3c0.7-0.9,1.5-1.5,2.6-2.1c1-0.6,2.2-0.8,3.4-0.8
		c0.8,0,1.5,0.1,2.2,0.2c0.6,0.2,1.2,0.4,1.8,0.6c0.5,0.2,1,0.6,1.3,0.9c0.4,0.3,0.6,0.6,0.9,1h0.1v-2.3h5.1L174,106.7L174,106.7z
		 M160.1,99.1c0,0.6,0.1,1.1,0.3,1.7c0.2,0.6,0.6,1,1,1.4c0.4,0.4,0.9,0.7,1.4,1c0.6,0.2,1.1,0.4,1.8,0.4s1.2-0.2,1.7-0.4
		c0.6-0.2,1-0.6,1.5-1c0.4-0.4,0.7-0.9,1-1.4c0.2-0.6,0.3-1,0.3-1.7c0-0.6-0.1-1.1-0.3-1.7c-0.2-0.6-0.6-1-1-1.4s-0.9-0.7-1.5-1
		c-0.6-0.2-1.1-0.4-1.7-0.4c-0.6,0-1.2,0.2-1.8,0.4c-0.6,0.2-1,0.6-1.4,1s-0.7,0.9-1,1.4C160.2,98,160.1,98.6,160.1,99.1z"/>
	<path class="st1" d="M-4.8,98.3c0,0,0-3.6,1.8-3.6s3.6-3.6,7.1,0c0,0,2-1.4,4.9-1.7c-0.9-2.1-2.2-4-3.6-5.7
		c-0.3,0.2-0.7,0.4-1.3,0.4c-1.8,0,1.8,3.6,0,3.6s-1.8-1.8-3.6-1.8S-1.2,91.2-3,93s0,0-1.8-1.8s3.6,0,1.8-1.8
		c-1.8-1.8,1.8-1.8,1.8-3.6c0-1.4,2.2-1.7,3.1-1.8c-1-0.7-2.1-1.4-3.1-1.8c1.8,1.8-1.8,3.6-3.6,3.6c-1.7,0-0.2-3.1,0-5
		c-1.9-0.5-3.7-0.8-5.7-0.8c-1,0-2.1,0.1-3.1,0.2c-0.2,0.5-0.4,1-0.4,1.5c0,1.8-1.8-1.8-3.6,1.8c-1.8,3.6,0,0,0,3.6
		c0,1.8-2.6,0.5-1.8,0.9c1.8,0.9,1.8,0.9,0,2.7c0,0-3.6-1.8-3.6,0s-1.8,1.8-3.6,1.8c-1.8,0,0,3.6-1.8,3.6c-1.4,0-0.6-2.1-1.9-3.1
		c-0.5,1-0.8,2.2-1.1,3.3c1.2,1,1.4,5.2,2.9,6.9c1.8-1.8,1.8,0,3.6,0c1.8,0,1.8,0,2.7,1.8c1.8,0,2.7,1.8,4.4,3.6s5.3,1.8,5.3,3.6
		s-1.8,0-1.8,3.6c0,1.8,0,1.8-1.8,1.8c-1.1,0-2.3,2.1-2.9,3.6c2.5,1,5.3,1.6,8.2,1.6c6,0,11.3-2.4,15.2-6.4l-1-2.1
		c0,0,2.2-3.6,0.4-5.3c-1.8-1.8-1.8-3.6-1.8-3.6s-3.5,3.6-5.2,1.8s-1.8,0-3.6-3.6C-8.2,100-4.8,98.3-4.8,98.3z"/>
	<path class="st1" d="M-29.1,107.9c0-1.5-0.6-2.6,0.1-3.9c-2.5-2.5-1-1.1-1-2.7c0-0.8-0.8-1.7-1.6-2.3c-0.1,0.7-0.2,1.5-0.2,2.3
		c0,6.2,2.7,11.9,7,15.7l-1.7-3.4C-28.2,113.8-29.1,109.7-29.1,107.9z"/>
	<path class="st0" d="M-10.5,78.1c-9.1,0-17,5.2-20.8,12.9c-1,2-1.7,4.2-2.1,6.5c-0.2,1.3-0.3,2.6-0.3,3.9
		c0,12.8,10.4,23.2,23.2,23.2s23.2-10.4,23.2-23.2C12.8,88.5,2.3,78.1-10.5,78.1z M-31.7,101.3c0-0.8,0.1-1.5,0.2-2.3
		c0.8,0.6,1.6,1.5,1.6,2.3c0,1.6-1.5,0.2,1,2.7c-0.7,1.3-0.1,2.4-0.1,3.9c0,1.8,0.9,5.7,2.7,5.7l1.7,3.4
		C-29,113.2-31.7,107.6-31.7,101.3z M-6.5,103.6c1.8,3.6,1.8,1.8,3.6,3.6s5.3-1.8,5.3-1.8s0,1.8,1.8,3.6s-0.4,5.3-0.4,5.3l1,2
		c-3.9,4-9.2,6.4-15.2,6.4c-2.9,0-5.7-0.6-8.2-1.6c0.6-1.5,1.8-3.6,2.9-3.6c1.8,0,1.8,0,1.8-1.8c0-3.6,1.8-1.8,1.8-3.6
		s-3.6-1.8-5.3-3.6c-1.8-1.8-2.7-3.6-4.4-3.6c-0.9-1.8-0.9-1.8-2.7-1.8c-1.8,0-1.8-1.8-3.6,0c-1.5-1.5-1.8-5.7-2.9-6.9
		c0.2-1.1,0.6-2.3,1.1-3.3c1.2,1,0.5,3.1,1.9,3.1c1.8,0,0-3.6,1.8-3.6s3.6,0,3.6-1.8c0-1.8,3.6,0,3.6,0c1.8-1.8,1.8-1.8,0-2.7
		c-0.8-0.4,1.8,0.9,1.8-0.9c0-3.6-1.8,0,0-3.6s3.6,0,3.6-1.8c0-0.6,0.2-1,0.4-1.5c1-0.2,2.1-0.2,3.1-0.2c2,0,3.9,0.2,5.7,0.8
		c-0.2,1.9-1.6,5,0,5c1.8,0,5.3-1.8,3.6-3.6c1,0.4,2.1,1,3.1,1.8c-1.1,0.1-3.3,0.3-3.3,1.8c0,1.8-3.6,1.8-1.8,3.6s-3.6,0-1.8,1.8
		s0,3.6,1.8,1.8c1.8-1.8,1.8-3.6,3.6-3.6s1.8,1.8,3.6,1.8s-1.8-3.6,0-3.6c0.6,0,1-0.2,1.3-0.4C6.9,89,8.2,90.9,9,93
		c-2.9,0.3-4.9,1.7-4.9,1.7c-3.6-3.6-5.3,0-7.1,0s-1.8,3.6-1.8,3.6S-8.2,100-6.5,103.6z"/>
	<path class="st1" d="M-23.1,78.6c1.9,0,3.4-1.5,3.4-3.4s-1.5-3.4-3.4-3.4c-1.9,0-3.4,1.5-3.4,3.4C-26.5,77-25,78.6-23.1,78.6z"/>
	
		<linearGradient id="SVGID_1_" gradientUnits="userSpaceOnUse" x1="-39.9605" y1="103" x2="19.0531" y2="103" gradientTransform="matrix(1 0 0 -1 0 204)">
		<stop  offset="0" style="stop-color:#3BB0C9"/>
		<stop  offset="1" style="stop-color:#D8D9DA"/>
	</linearGradient>
	<path class="st2" d="M-10.5,71.9c-0.2,0-0.2,0.2-0.2,0.2s0.2,0.2,0.2,0.2c16,0,29,13,29,29s-13,29-29,29s-28.9-13-28.9-29
		c0-9.8,4.8-18.7,12.9-24.1c0.7,1.1,1.9,1.9,3.3,1.9c2.2,0,4-1.8,4-4c0-2.2-1.8-4-4-4s-3.9,1.9-3.9,4c0,0.6,0.1,1,0.3,1.5
		C-35,82.2-40,91.4-40,101.3c0,16.3,13.2,29.5,29.5,29.5s29.5-13.2,29.5-29.5S5.8,71.9-10.5,71.9z M-23.1,71.8
		c1.9,0,3.4,1.5,3.4,3.4s-1.5,3.4-3.4,3.4c-1.9,0-3.4-1.5-3.4-3.4C-26.5,73.3-25,71.8-23.1,71.8z"/>
	<circle class="st3" cx="-23.1" cy="75.2" r="2.5"/>
	<rect x="78.7" y="82.3" class="st0" width="2.2" height="26"/>
	<path class="st0" d="M99.4,94.2L99.4,94.2c-0.4-0.6-0.8-1.1-1.4-1.5c-0.5-0.4-1-0.8-1.7-1c-0.6-0.2-1.2-0.5-1.9-0.6
		c-0.6-0.2-1.3-0.2-1.9-0.2c-1.3,0-2.5,0.2-3.6,0.6c-1.1,0.4-2,1-2.8,1.9c-0.8,0.8-1.4,1.8-1.9,2.8c-0.4,1-0.6,2.3-0.6,3.6
		s0.2,2.5,0.6,3.6c0.4,1,1,2,1.9,2.8c0.8,0.8,1.7,1.5,2.8,1.9c1.1,0.4,2.3,0.6,3.6,0.6c0.6,0,1.3-0.1,1.9-0.2
		c0.6-0.2,1.3-0.3,1.9-0.6c0.6-0.2,1.1-0.6,1.7-1c0.5-0.4,1-1,1.3-1.5h0.1v3h2.2V82.3h-2.2L99.4,94.2L99.4,94.2z M99,102.5
		c-0.4,0.8-0.9,1.6-1.5,2.2c-0.6,0.6-1.4,1.1-2.3,1.5c-0.9,0.4-1.8,0.6-2.8,0.6s-1.9-0.2-2.8-0.6c-0.8-0.4-1.5-0.9-2.1-1.5
		c-0.6-0.6-1-1.4-1.4-2.2c-0.3-0.8-0.5-1.8-0.5-2.7c0-1,0.2-1.9,0.5-2.7c0.3-0.8,0.7-1.6,1.4-2.2c0.6-0.6,1.3-1.1,2.1-1.5
		c0.8-0.4,1.8-0.6,2.8-0.6c1,0,1.9,0.2,2.8,0.6s1.6,0.9,2.3,1.5c0.6,0.6,1.1,1.4,1.5,2.2s0.6,1.8,0.6,2.7
		C99.6,100.7,99.4,101.6,99,102.5z"/>
	<line class="st1" x1="21.9" y1="92" x2="21.9" y2="91.6"/>
	<path class="st0" d="M130,88.6c-2.2,0-4-1.8-4-4c0-2.2,1.8-4,4-4c2.2,0,4,1.8,4,4S132.1,88.6,130,88.6z M130,81.3
		c-1.9,0-3.4,1.5-3.4,3.4s1.5,3.4,3.4,3.4s3.4-1.5,3.4-3.4S131.8,81.3,130,81.3z"/>
	<circle class="st3" cx="130" cy="84.7" r="2.5"/>
</g>
</svg>
