<?xml version="1.0" encoding="iso-8859-1"?>
<!-- Generator: Adobe Illustrator 19.1.0, SVG Export Plug-In . SVG Version: 6.00 Build 0)  -->
<svg version="1.1" id="Layer_1" xmlns="http://www.w3.org/2000/svg" xmlns:xlink="http://www.w3.org/1999/xlink" x="0px" y="0px"
	 width="300px" height="300px" viewBox="0 0 300 300" style="enable-background:new 0 0 300 300;" xml:space="preserve">
<g>
	<path style="fill:#666766;" d="M267.908,151.451c0-64.999-52.881-117.88-117.88-117.88c-46.132,0-86.161,26.639-105.51,65.343
		c-5.111,10.224-8.78,21.29-10.737,32.93c-1.072,6.378-1.631,12.929-1.631,19.607c0,64.997,52.881,117.877,117.877,117.877
		C215.027,269.328,267.908,216.448,267.908,151.451z M42.599,151.45c0-3.995,0.218-7.938,0.643-11.819
		c4.252,3.296,8.309,7.558,8.309,11.819c0,8.221-7.549,1.344,5.082,14.029c-3.489,6.615-0.606,12.358-0.606,19.543
		c0,8.953,4.476,29.095,13.429,29.095l8.5,17C56.241,211.46,42.599,183.048,42.599,151.45z M226.779,226.619
		c-19.499,19.908-46.682,32.26-76.751,32.26c-14.724,0-28.756-2.962-41.533-8.323c3.402-7.887,9.039-18.534,14.676-18.534
		c8.952,0,8.952,0,8.952-8.952c0-17.905,8.952-8.953,8.952-17.905c0-8.952-17.904-8.952-26.857-17.905
		c-8.953-8.952-13.429-17.904-22.381-17.904c-4.476-8.952-4.476-8.952-13.429-8.952c-8.952,0-8.952-8.953-17.904,0
		c-7.792-7.792-8.802-29.148-14.836-34.554c1.412-5.775,3.291-11.367,5.594-16.734c6.06,4.893,2.358,15.478,9.242,15.478
		c8.952,0,0-17.905,8.952-17.905c8.952,0,17.905,0,17.905-8.952c0-8.952,17.904,0,17.904,0c8.953-8.952,8.953-8.952,0-13.429
		c-4.004-2.002,8.953,4.476,8.953-4.476c0-17.904-8.953,0,0-17.904c8.952-17.905,17.905,0,17.905-8.953
		c0-2.669,0.796-5.338,1.913-7.77c5.218-0.779,10.558-1.182,15.992-1.182c10.049,0,19.777,1.38,29.003,3.961
		c-0.928,9.337-8.317,25.135,0.093,25.135c8.952,0,26.857-8.953,17.905-17.905c5.088,2.039,10.599,5.317,15.766,9.042
		c-4.751,0.327-15.766,1.841-15.766,8.863c0,8.952-17.905,8.952-8.953,17.904c8.953,8.953-17.904,0-8.952,8.953
		c8.952,8.952,0,17.904,8.952,8.952c8.953-8.952,8.953-17.905,17.905-17.905c8.952,0,8.952,8.953,17.905,8.953
		c8.952,0-8.953-17.905,0-17.905c2.728,0,4.833-0.831,6.441-1.987c7.659,8.611,13.953,18.461,18.545,29.213
		c-14.639,1.686-24.985,8.584-24.985,8.584c-17.905-17.904-26.857,0-35.81,0c-8.952,0-8.952,17.905-8.952,17.905
		s-17.905,8.952-8.952,26.857c8.952,17.905,8.952,8.952,17.904,17.905c8.953,8.953,26.857-8.952,26.857-8.952s0,8.953,8.953,17.905
		c8.952,8.952-2.238,26.857-2.238,26.857L226.779,226.619z"/>
</g>
<linearGradient id="SVGID_1_" gradientUnits="userSpaceOnUse" x1="124.452" y1="296.5031" x2="175.6057" y2="6.3962">
	<stop  offset="0" style="stop-color:#3BB0C9"/>
	<stop  offset="0.3929" style="stop-color:#3DB1CA"/>
	<stop  offset="0.5344" style="stop-color:#44B3CB"/>
	<stop  offset="0.6353" style="stop-color:#4FB8CF"/>
	<stop  offset="0.7169" style="stop-color:#60BFD3"/>
	<stop  offset="0.7868" style="stop-color:#76C8D9"/>
	<stop  offset="0.8487" style="stop-color:#92D3E1"/>
	<stop  offset="0.9046" style="stop-color:#B2E0EA"/>
	<stop  offset="0.9544" style="stop-color:#D6EFF4"/>
	<stop  offset="1" style="stop-color:#FFFFFF"/>
</linearGradient>
<path style="fill:none;stroke:url(#SVGID_1_);stroke-linecap:round;stroke-miterlimit:10;" d="M69.928,28.448
	C29.791,54.64,3.262,99.947,3.262,151.45c0,81.057,65.71,146.767,146.767,146.767s146.767-65.71,146.767-146.767
	S231.086,4.683,150.029,4.683"/>
<circle style="fill:none;stroke:#666766;stroke-miterlimit:10;" cx="86.009" cy="18.926" r="18.492"/>
<circle style="fill:#0DB1D3;" cx="86.009" cy="18.926" r="12.76"/>
</svg>
