<?xml version="1.0" encoding="utf-8"?>
<!-- Generator: Adobe Illustrator 18.1.1, SVG Export Plug-In . SVG Version: 6.00 Build 0)  -->
<!DOCTYPE svg PUBLIC "-//W3C//DTD SVG 1.1//EN" "http://www.w3.org/Graphics/SVG/1.1/DTD/svg11.dtd">
<svg version="1.1" id="Layer_1" xmlns="http://www.w3.org/2000/svg" xmlns:xlink="http://www.w3.org/1999/xlink" x="0px" y="0px"
	 width="200px" height="200px" viewBox="0 0 200 200" enable-background="new 0 0 200 200" xml:space="preserve">
<g>
	<path fill="none" d="M42.8,61.7c1.2-2.2,2.4-4.3,3.8-6.3C45.3,57.4,44,59.5,42.8,61.7z"/>
	<path fill="none" d="M48.6,52.7c0.7-0.9,1.5-1.8,2.2-2.7C50.1,50.9,49.4,51.8,48.6,52.7z"/>
	<path fill="none" d="M37.7,75.1c0.5-1.9,1-3.7,1.7-5.5C38.7,71.3,38.2,73.2,37.7,75.1z"/>
	<path fill="none" d="M40.4,66.8c0.7-1.8,1.5-3.5,2.4-5.2C42,63.3,41.1,65.1,40.4,66.8z"/>
	<path fill="none" d="M185,113.7c0.7,0.9,1.3,1.9,1.8,2.8C186.3,115.5,185.7,114.6,185,113.7z"/>
	<path fill="none" d="M177.4,107.1c1,0.5,1.9,1.2,2.8,1.8C179.4,108.3,178.4,107.7,177.4,107.1z"/>
	<path fill="none" d="M37.7,75.1c-1,3.8-1.6,7.7-1.8,11.7c-0.9,0.2-1.8,0.5-2.6,0.8c0.9-0.3,1.7-0.5,2.6-0.8
		C36.1,82.8,36.7,78.8,37.7,75.1z"/>
	<path fill="none" d="M95.8,151.1c0.3,0,0.7,0,1,0C96.4,151.1,96.1,151.1,95.8,151.1L95.8,151.1z"/>
	<path fill="none" d="M186.8,138.8c1.8-3.3,2.8-7.1,2.8-11.2v0C189.7,131.7,188.6,135.5,186.8,138.8z"/>
	<path fill="none" d="M30.7,88.5c0.8-0.4,1.7-0.7,2.5-1C32.4,87.8,31.6,88.1,30.7,88.5z"/>
	<path fill="none" d="M186.8,138.8c-0.5,1-1.2,1.9-1.8,2.8C185.7,140.8,186.3,139.8,186.8,138.8z"/>
	<path fill="none" d="M180.3,146.4c-0.9,0.7-1.9,1.3-2.8,1.8C178.4,147.7,179.4,147.1,180.3,146.4z"/>
	<path fill="#00B1D3" d="M166.3,109.3c-3,0-5.9,0.7-8.6,2.1l-10.4,5.5l3.2-11.3c1.5-5.1,2.2-10.3,2.2-15.5c0-30.9-25.1-56-56-56
		C67,34.1,42.5,57.4,40.9,87l-0.2,3.7l-3.6,0.9c-12.4,3-21.1,14-21.1,26.8c0,15.2,12.4,27.6,27.6,27.6c0.2,0,0.4,0,0.6,0l0.3,0
		l0.1,0h0.1h51.1h0l0,0c0.2,0,0.3,0,0.5,0c0.1,0,0.3,0,0.4,0s0.3,0,0.4,0c0.2,0,0.3,0,0.5,0l0,0h0h67.4h0.1l0.1,0c0.3,0,0.5,0,0.8,0
		c10.1,0,18.4-8.3,18.4-18.4C184.7,117.5,176.4,109.3,166.3,109.3z M76.1,116.6h-4.7l-5.3-7.6l-5.1,7.6h-4.8l7.6-10.9l-7.6-11H61
		l5.1,7.6l5.3-7.6h4.7l-7.6,11L76.1,116.6z M93.8,116.6h-3.6v-2.1h-0.1c-0.2,0.4-0.9,0.9-1.7,1.5c-1,0.7-2.3,1.1-3.6,1.1
		c-4.3,0-7.5-3.7-7.5-8.7c0-4.8,3.3-8.5,7.7-8.5c1.7,0,3.1,0.6,4.6,1.9c0.3,0.3,0.4,0.4,0.6,0.7h0.1v-2.2h3.6V116.6z M113.4,116.6
		h-3.6v-2.1h-0.1c-0.2,0.4-0.9,0.9-1.7,1.5c-1,0.7-2.3,1.1-3.6,1.1c-4.3,0-7.5-3.7-7.5-8.7c0-4.8,3.3-8.5,7.7-8.5
		c1.7,0,3.1,0.6,4.6,1.9c0.3,0.3,0.4,0.4,0.6,0.7h0.1v-2.2h3.6V116.6z M122.9,117c-3.9,0-7-2.8-7.2-6.7h4.2c0.1,1.7,1.2,2.8,3.1,2.8
		c1.7,0,3-1.2,3-2.7s-0.8-2.4-3-3.2c-3.2-1.2-3.7-1.4-4.6-2.3c-1.2-1.1-1.9-2.8-1.9-4.4c0-3.4,2.9-6.2,6.5-6.2
		c3.6,0,6.3,2.6,6.5,6.2h-4.2c-0.1-1.5-1-2.3-2.4-2.3c-1.4,0-2.3,0.8-2.3,2.2c0,1.2,0.8,2,2.7,2.6l1,0.4c1.9,0.7,2.8,1.2,3.8,2
		c1.3,1.2,2,2.7,2,4.6C130.1,113.9,126.9,117,122.9,117z"/>
	<path fill="#00B1D3" d="M85.7,103.4c-2.5,0-4.5,2.2-4.5,5c0,2.8,2,4.9,4.5,4.9c2.5,0,4.4-2.1,4.4-5
		C90.1,105.5,88.2,103.4,85.7,103.4z"/>
	<path fill="#00B1D3" d="M105.3,103.4c-2.5,0-4.5,2.2-4.5,5c0,2.8,2,4.9,4.5,4.9c2.5,0,4.4-2.1,4.4-5
		C109.7,105.5,107.8,103.4,105.3,103.4z"/>
	<path fill="#666666" d="M166.3,101.3c-2.2,0-4.5,0.3-6.7,0.9c0.8-4,1.1-8,1.1-12c0-35.3-28.7-64-64-64c-33.3,0-60.8,25.4-63.7,58.3
		C18.2,89,8,102.7,8,118.5c0,19.6,16,35.6,35.6,35.6c0.3,0,0.6,0,0.9,0l0.2,0h51c0.1,0,0.2,0,0.4,0c0.2,0,0.5,0,0.7,0s0.5,0,0.7,0
		c0.1,0,0.2,0,0.4,0h67.3c0.4,0,0.7,0,1.1,0c14.6,0,26.4-11.8,26.4-26.4C192.7,113.1,180.8,101.3,166.3,101.3z M186.8,138.8
		c-0.5,1-1.2,1.9-1.8,2.8c-1.3,1.8-2.9,3.4-4.8,4.8c-0.9,0.7-1.9,1.3-2.8,1.8c-3.3,1.8-7.1,2.8-11.2,2.8c-0.3,0-0.7,0-1,0H97.8
		c-0.3,0-0.7,0-1,0s-0.7,0-1,0H44.6c-0.3,0-0.7,0-1,0c-18,0-32.6-14.6-32.6-32.6c0-4.3,0.8-8.4,2.4-12.2c1-2.5,2.3-4.9,3.9-7
		c0.3-0.4,0.5-0.7,0.8-1.1c0.6-0.7,1.1-1.4,1.7-2s1.2-1.3,1.9-1.9c1-0.9,2-1.7,3.1-2.5c1.8-1.3,3.8-2.4,5.9-3.3
		c0.8-0.4,1.7-0.7,2.5-1c0.9-0.3,1.7-0.5,2.6-0.8c0.2-4,0.8-7.9,1.8-11.7c0.5-1.9,1-3.7,1.7-5.5c0.3-0.9,0.7-1.8,1-2.7
		c0.7-1.8,1.5-3.5,2.4-5.2c1.2-2.2,2.4-4.3,3.8-6.3c0.6-0.9,1.3-1.8,2-2.7c0.7-0.9,1.5-1.8,2.2-2.7c0.6-0.7,1.3-1.4,1.9-2.1
		c2.6-2.7,5.5-5.2,8.5-7.4c0.8-0.6,1.6-1.1,2.3-1.6c9.5-6.2,20.9-9.8,33.1-9.8c15.8,0,30.2,6,41,15.8c0.7,0.7,1.4,1.3,2.1,2
		c2.1,2.1,4,4.3,5.7,6.6c7.6,10.2,12.1,22.8,12.1,36.5c0,5.9-0.8,11.5-2.4,16.9c3.3-1.7,7-2.7,10.9-2.7c4,0,7.8,1,11.2,2.8
		c1,0.5,1.9,1.2,2.8,1.8c1.8,1.3,3.4,2.9,4.8,4.8c0.7,0.9,1.3,1.9,1.8,2.8c1.8,3.3,2.8,7.1,2.8,11.2v0
		C189.7,131.7,188.6,135.5,186.8,138.8z"/>
	<polygon fill="#FFFFFF" points="71.4,94.7 66.1,102.3 61,94.7 56.2,94.7 63.7,105.7 56.2,116.6 61,116.6 66.1,109 71.4,116.6 
		76.1,116.6 68.5,105.7 76.1,94.7 	"/>
	<path fill="#FFFFFF" d="M90.2,102.4L90.2,102.4c-0.2-0.3-0.3-0.4-0.6-0.7c-1.4-1.3-2.9-1.9-4.6-1.9c-4.4,0-7.7,3.7-7.7,8.5
		c0,5,3.2,8.7,7.5,8.7c1.3,0,2.5-0.4,3.6-1.1c0.9-0.6,1.5-1.1,1.7-1.5h0.1v2.1h3.6v-16.4h-3.6V102.4z M85.7,113.4
		c-2.5,0-4.5-2.2-4.5-4.9c0-2.8,1.9-5,4.5-5c2.5,0,4.4,2.1,4.4,4.9C90.1,111.2,88.3,113.4,85.7,113.4z"/>
	<path fill="#FFFFFF" d="M109.8,102.4L109.8,102.4c-0.2-0.3-0.3-0.4-0.6-0.7c-1.4-1.3-2.9-1.9-4.6-1.9c-4.4,0-7.7,3.7-7.7,8.5
		c0,5,3.2,8.7,7.5,8.7c1.3,0,2.5-0.4,3.6-1.1c0.9-0.6,1.5-1.1,1.7-1.5h0.1v2.1h3.6v-16.4h-3.6V102.4z M105.3,113.4
		c-2.5,0-4.5-2.2-4.5-4.9c0-2.8,1.9-5,4.5-5c2.5,0,4.4,2.1,4.4,4.9C109.7,111.2,107.8,113.4,105.3,113.4z"/>
	<path fill="#FFFFFF" d="M124.3,103.4l-1-0.4c-1.9-0.6-2.7-1.4-2.7-2.6c0-1.4,0.9-2.2,2.3-2.2c1.4,0,2.3,0.9,2.4,2.3h4.2
		c-0.2-3.6-2.9-6.2-6.5-6.2c-3.6,0-6.5,2.8-6.5,6.2c0,1.6,0.7,3.3,1.9,4.4c0.9,0.9,1.4,1.2,4.6,2.3c2.2,0.8,3,1.6,3,3.2
		s-1.2,2.7-3,2.7c-1.8,0-3-1.1-3.1-2.8h-4.2c0.2,3.9,3.2,6.7,7.2,6.7c4,0,7.1-3.1,7.1-7c0-1.8-0.7-3.3-2-4.6
		C127.2,104.6,126.2,104.1,124.3,103.4z"/>
</g>
</svg>
