<?xml version="1.0" encoding="utf-8"?>
<!-- Generator: Adobe Illustrator 18.1.1, SVG Export Plug-In . SVG Version: 6.00 Build 0)  -->
<svg version="1.1" id="Layer_1" xmlns="http://www.w3.org/2000/svg" xmlns:xlink="http://www.w3.org/1999/xlink" x="0px" y="0px"
	 width="140px" height="140px" viewBox="-29 31 140 140" enable-background="new -29 31 140 140" xml:space="preserve">
<g>
	<path fill="#666666" d="M82.5,156.2H0.7c-7.4,0-13.5-6.1-13.5-13.5V60.9c0-7.4,6.1-13.5,13.5-13.5h81.8C90,47.4,96,53.4,96,60.9
		v81.8C96,150.1,90,156.2,82.5,156.2z M0.7,50.4c-5.8,0-10.5,4.7-10.5,10.5v81.8c0,5.8,4.7,10.5,10.5,10.5h81.8
		c5.8,0,10.5-4.7,10.5-10.5V60.9c0-5.8-4.7-10.5-10.5-10.5H0.7z"/>
</g>
<g>
	<g>
		<g>
			<circle fill="#666666" cx="9.4" cy="68.6" r="12.5"/>
		</g>
		<g>
			<circle fill="#666666" cx="41.6" cy="68.6" r="12.5"/>
		</g>
		<g>
			<circle fill="#666666" cx="73.9" cy="68.6" r="12.5"/>
		</g>
	</g>
	<g>
		<g>
			<circle fill="#666666" cx="9.4" cy="101.8" r="12.5"/>
		</g>
		<g>
			<circle fill="#666666" cx="41.6" cy="101.8" r="12.5"/>
		</g>
		<g>
			<circle fill="#666666" cx="73.9" cy="101.8" r="12.5"/>
		</g>
	</g>
	<g>
		<g>
			<circle fill="#666666" cx="9.4" cy="134.9" r="12.5"/>
		</g>
		<g>
			<circle fill="#666666" cx="41.6" cy="134.9" r="12.5"/>
		</g>
		<g>
			<circle fill="#666666" cx="73.9" cy="134.9" r="12.5"/>
		</g>
	</g>
</g>
</svg>
