<?xml version="1.0" encoding="utf-8"?>
<!-- Generator: Adobe Illustrator 18.1.1, SVG Export Plug-In . SVG Version: 6.00 Build 0)  -->
<!DOCTYPE svg PUBLIC "-//W3C//DTD SVG 1.1//EN" "http://www.w3.org/Graphics/SVG/1.1/DTD/svg11.dtd">
<svg version="1.1" id="twitter" xmlns="http://www.w3.org/2000/svg" xmlns:xlink="http://www.w3.org/1999/xlink" x="0px" y="0px"
	 viewBox="49.5 49.5 26 26" enable-background="new 49.5 49.5 26 26" xml:space="preserve">
<g id="_x35_151e0c8492e5103c096af88a5006e1e">
	<path id="XMLID_1_" fill="#FFFFFF" d="M49.8,63.1c1.1-0.3,2.7-0.7,5.5-0.8c-0.1-0.2-0.1-0.3-0.2-0.5c-1.1,0-4.4,0.1-5.5,0.4l0,0
		c0,0-0.1,0-0.1-0.1s0-0.1,0-0.1c1.1-0.3,4.3-0.4,5.5-0.4c-0.3-0.8-0.4-1.6-0.4-2.6c0-1.7,0.6-2.4,1.2-3.3c-0.6-1.9,0.2-3.3,0.2-3.3
		s1.1-0.3,3.3,1.3c1.2-0.5,4.3-0.6,5.8-0.1c0.9-0.6,2.6-1.4,3.3-1.2c0.2,0.3,0.6,1.1,0.3,3.1c0.2,0.4,1.4,1.3,1.4,3.8
		c0,0.9-0.1,1.7-0.3,2.3c2.8,0,4.5,0.2,5.6,0.4c0,0,0.1,0,0.1,0.1c0,0,0,0.1-0.1,0.1l0,0c-1.1-0.2-2.8-0.5-5.7-0.4
		c0,0.2-0.1,0.3-0.2,0.5c1,0,3.6,0.1,5.8,0.8c0,0,0.1,0,0,0.1c0,0,0,0-0.1,0c0,0,0,0,0,0c-2.2-0.7-4.9-0.8-5.8-0.8
		c-0.8,1.7-2.4,2.4-5,2.7c0.8,0.6,1.1,1.2,1.1,3s0,2,0,2.5c0,0.7,1,1,1,1.2c0,0.2-0.8,0.2-1.2,0c-1.1-0.4-1-1.3-1-1.3l0-2.4
		c0,0,0.1-1.3-0.4-1.3c0,0.3,0,3,0,4c0,0.8,0.6,1.1,0.6,1.4c0,0.6-1.1,0-1.4-0.4c-0.5-0.5-0.5-1.6-0.5-2.5c0-0.8,0-2.7,0-2.7h-0.3
		c0,0,0.1,4-0.2,4.7c-0.4,0.9-1.7,1.3-1.7,0.8c0-0.3,0.3-0.2,0.5-0.8c0.2-0.6,0.1-4.7,0.1-4.7s-0.4,0.3-0.4,1c0,0.3,0,2.4,0,3
		c0,0.8-1.1,1.2-1.6,1.2c-0.3,0-0.6,0-0.6-0.2c0-0.3,1-0.6,1-1.3c0-0.6,0-2.2,0-2.2s-0.5,0.1-1.2,0.1c-1.8,0-2.3-1.1-2.6-1.8
		c-0.3-0.8-0.8-1.2-1.3-1.5c-0.3-0.2-0.4-0.4,0-0.5c1.6-0.3,1.9,1.8,3,2.1c0.8,0.3,1.7,0.1,2.2-0.2c0-0.6,0.5-1.2,0.9-1.5
		c-2.7-0.3-4.2-1.2-5-2.7C52.5,62.5,50.9,62.9,49.8,63.1c-0.1,0-0.2,0.1-0.3,0.1l0,0c0,0-0.1,0-0.1-0.1c0,0,0-0.1,0-0.1
		C49.6,63.2,49.7,63.1,49.8,63.1z"/>
</g>
</svg>
