<?xml version="1.0" encoding="utf-8"?>
<!-- Generator: Adobe Illustrator 18.1.1, SVG Export Plug-In . SVG Version: 6.00 Build 0)  -->
<svg version="1.1" id="Layer_1" xmlns="http://www.w3.org/2000/svg" xmlns:xlink="http://www.w3.org/1999/xlink" x="0px" y="0px"
	 width="116.1px" height="20.7px" viewBox="0 0 116.1 20.7" enable-background="new 0 0 116.1 20.7" xml:space="preserve">
<g>
	<defs>
		<rect id="SVGID_1_" y="0" width="116.1" height="20.7"/>
	</defs>
	<clipPath id="SVGID_2_">
		<use xlink:href="#SVGID_1_"  overflow="visible"/>
	</clipPath>
	<path clip-path="url(#SVGID_2_)" fill="none" stroke="#000000" stroke-width="0.75" stroke-miterlimit="10" d="M34.2,11.9
		c-1,0-3.4,0.2-4.4,0.2c-0.3,0-0.5,0.1-0.7,0.1c-0.3,0-0.5,0-0.8,0c-0.3,0-0.4,0.1-0.7,0.2c-0.2,0.1-0.3,0.1-0.5,0
		c-0.1,0-0.2-0.1-0.3-0.1c-0.1,0-0.3,0-0.4,0c-0.6,0-1.2,0-1.8,0c-0.7,0-1.5,0-2.2,0c-0.3,0-0.5-0.1-0.8-0.1c-0.3,0-0.5,0-0.8,0
		c-0.3,0-0.5,0-0.8,0c-0.2,0-0.4-0.1-0.7-0.1c-0.4,0-0.7,0-1.1,0c-0.6,0-1.1,0-1.7,0c-0.1,0-0.3,0-0.4,0c0,0-0.1-0.1-0.1-0.1
		c-0.1-0.1-0.4-0.1-0.5-0.1c-0.4,0-0.8,0-1.1,0c-0.3,0-0.6,0.1-0.8,0.1c-0.2,0-0.7,0.1-0.9,0.1c-0.2,0-0.2-0.3-0.4-0.4
		c-0.1-0.1-0.3-0.1-0.5-0.1c-0.4,0-0.7,0-1.1,0c-0.2,0-0.4,0-0.6-0.1c-0.3,0-0.7,0-1,0c-0.2,0-0.5,0-0.7,0c-0.2,0-0.3-0.1-0.4-0.1
		c-0.4-0.1-0.8,0-1.1,0H5.5c-0.5,0-1.1,0.1-1.7,0c-0.4-0.1-0.7-0.1-1.1-0.1c-0.4,0-0.8,0-1.3,0c-0.2,0-0.4,0-0.5,0
		c-0.2,0-0.3,0.2-0.4,0.2c0.1,0,0.1,0,0.2,0 M77.3,11.5c0.5,0.2,0.9,0.1,1.5,0.2c0.5,0.1,1,0.1,1.5,0.1c0.3,0,0.7,0.1,1,0.1
		c0.3,0,0.5,0,0.8-0.1c0.4-0.1,0.6-0.1,1-0.2c0.1,0,0.2-0.1,0.4,0c0.2,0,0.5,0.1,0.7,0.2c0.4,0.1,0.8,0.2,1.2,0.2c0.5,0,1.1,0,1.6,0
		h1.4c0.5,0,1.1-0.1,1.6,0c0.6,0.1,1.1,0.2,1.7,0.2c0.6,0,1.2-0.1,1.8,0.1c0.7,0.2,1.6,0.1,2.4,0.1c0.4,0,0.9,0.1,1.3,0.1
		c0.7,0,1.4,0,2.1,0c0.8,0,1.6,0,2.4,0c0.5,0,1,0,1.4,0c0.5-0.1,1.1,0,1.6,0c1.1,0,2.2,0,3.3,0c0.5,0,1,0,1.5,0
		c0.4,0,0.7-0.1,1.1-0.1c0.9,0,1.7-0.1,2.6-0.1c0.2,0,1.8,0.1,1.8-0.1 M74.5,8.8c0.6,0,1.1,0.1,1.6,0c0.7-0.1,1.4-0.1,2.2-0.1
		c0.2,0,0.4,0,0.6,0c0.3,0,0.5,0.1,0.7,0.2c0.2,0,0.3,0,0.4,0c0.4,0,0.6,0,1.1,0.1c0.6,0.1,1.3,0.2,1.9,0.3c0.1,0,0.1,0,0.2,0.1
		c0.2,0,0.2,0,0.4,0.1c0.1,0.1,0.1,0.1,0.2,0.1c0.2,0,0.3,0,0.5,0.1c0.1,0.1,0.1,0.1,0.3,0.1c0.1,0,0.2,0,0.3,0
		c0.4,0,0.9,0.2,1.3,0.3c0.2,0,0.4,0.1,0.6,0.2c0.3,0.2,0.6,0.2,0.9,0.2c0.2,0,0.4,0,0.6,0.1c0.4,0.1,0.9,0.1,1.3,0.1
		c0.2,0,0.4,0,0.6,0c0.2,0,0.3,0,0.5,0c0.2,0,0.3,0.1,0.5,0.1c0.3,0,0.5,0.1,0.8,0.1c0.3,0,0.5,0,0.8,0h4h3.2c1.1,0,2.2,0,3.4,0
		c0.7,0,1.5,0.1,2.2-0.1c0.4-0.1,0.9-0.3,1.3-0.3c0.4,0,0.8,0,1.2,0h0.7c1.3,0,2.6,0,3.9,0.1c0.1,0,0.3,0,0.5,0c0.1,0,0.1,0,0.2,0.1
		c0.1,0.1,0.2,0.1,0.4,0.1c0.3,0.1,1,0,1.4,0 M44.9,2.3c0,0.1,0.6,0.2,0.7,0.2c0.1,0,0.2,0.1,0.3,0.1C46,2.8,46,2.8,46.3,2.9
		c0.2,0.1,0.2,0.2,0.4,0.3c0.1,0,0.2,0,0.3,0.1c0.2,0.1,0.1,0.1,0.1,0.2c0,0.1,0.1,0.1,0.2,0.2c0.1,0.1,0.1,0.1,0.2,0.2
		c0.1,0,0.1,0.1,0.2,0.1C47.9,4.1,48,4.4,48,4.6c0.1,0.2,0.2,0.3,0.4,0.4c0.1,0.1,0.2,0.1,0.2,0.2c0,0.1,0.1,0.1,0.2,0.1
		c0,0,0.1,0,0.2,0c0.1,0,0.1,0.1,0.2,0.1c0.1,0.1,0.3,0.2,0.4,0.2c0.1,0,0.2,0.1,0.3,0.2c0,0,0,0.1,0.1,0.2c0.1,0.1,0.2,0.1,0.2,0.1
		c0.1,0,0.1,0.1,0.1,0.2c0.1,0.1,0.3,0.2,0.5,0.2c0.4,0.1,0.7,0.1,1,0.4c0.2,0.2,0.3,0.3,0.6,0.4c0.1,0,0.2,0,0.3,0.1
		c0.2,0.1,0.5,0.2,0.7,0.2c0.3,0,0.6,0.1,0.9,0.1c0.2,0,0.5,0,0.7,0c0.5,0,1.1,0,1.5,0c0.5,0.1,1.1,0.1,1.7,0.1c0.1,0,0.3,0,0.4,0
		c0.1,0,0.1,0.1,0.1,0.2c0.1,0.1,0.3,0,0.4,0.1c0.2,0,0.2,0.1,0.3,0.1c0.2,0.1,0.3,0.1,0.6,0.1c0.2,0,0.4,0.1,0.6,0.1
		c0.2,0,0.3-0.1,0.5-0.1c0.2,0,0.6,0.1,0.7,0.1c0.3,0.1,0.2,0,0.4,0.2c0.2,0.2,0.3,0.2,0.6,0.2c0.3,0,0.7,0,1,0c0.1,0,0.3,0,0.4,0
		c0.2,0,0.1-0.1,0.2-0.2c0.1-0.2,0.3-0.2,0.5-0.2c0.2,0,0.5,0,0.7,0c0.2,0,0.3,0.1,0.4,0.2c0.1,0,0.2,0,0.3,0.1
		c0.1,0.1,0.1,0.1,0.3,0.2c0.3,0,0.7,0,1.1,0c0.4,0,0.8-0.1,1.2-0.1c0.5,0,1,0,1.5-0.1c0.2,0,0.3-0.1,0.4-0.1c0.2,0,0.5,0,0.8,0
		c0.2,0,0.3,0,0.5,0 M48.4,9.4c0.5,0,1.2-0.1,1.7-0.3c0.1,0,0.2-0.1,0.3-0.1c0.1,0,0.1-0.1,0.2-0.2c0.2-0.1,0.7,0,0.9,0.1
		C51.6,9,51.8,9,52,9.1c0.5,0.2,1.1,0.3,1.6,0.3c0.2,0,0.4,0,0.6,0c0.1,0,0.2,0,0.3,0c0.1,0,0.1,0.1,0.1,0.2c0,0,0.2-0.2,0.2-0.2
		 M0.7,12.7C2,12.7,3.3,13,4.6,13c0.2,0,0.3-0.1,0.5-0.2c0.1-0.1,0.2-0.1,0.3-0.2c0,0,0,0,0.1-0.1c0.1,0,0.2,0,0.4,0
		c0.4,0.1,0.5,0.2,0.8,0.4c0.3,0.3,1,0.2,1.3,0.2c0.3,0,0.6,0,0.9,0c0.3,0,0.6-0.1,0.9-0.1c0.4,0,0.8,0,1.2,0c1.1,0,2.3-0.1,3.4,0.1
		c0.2,0,0.2,0.1,0.4,0.2c0.1,0,0.2,0.1,0.3,0.1c0.1,0,0.3,0.1,0.4,0.2c0.2,0.1,0.3,0,0.5,0c0.5,0,1,0,1.5,0c0.4,0,0.7,0,1.1,0.1
		c0.3,0,0.9,0.1,1.2,0.1c0.1,0,0.1,0.1,0.2,0.1c0.3,0,0.6-0.1,0.9-0.1c0.3,0,0.7,0,1,0c0.2,0,0.4-0.1,0.6-0.1c0.5,0,1.1,0,1.6,0
		c0.3,0,0.7,0.1,1,0.1c0.3,0,0.4,0,0.7-0.2c0.2-0.1,0.5-0.2,0.8-0.2c0.4,0,0.7,0.1,1.1,0.2c0.5,0.2,1,0.1,1.5,0.1
		c0.3,0,0.6,0,0.8-0.1c0.2,0,0.5,0,0.7,0c0.8,0,1.6-0.1,2.3-0.3c0-0.1,0-0.2,0-0.3c0-0.1,0.1-0.1,0.2-0.2c0.2-0.2,0.5-0.4,0.7-0.6
		c0,0,0.1-0.1,0.1-0.1c0.1-0.1,0.2-0.2,0.3-0.3c0.2-0.2,0.3-0.4,0.5-0.6c0.2-0.2,0.4-0.4,0.6-0.6c0.1-0.1,0.3-0.2,0.4-0.3
		c0.1-0.1,0.2-0.2,0.3-0.3c0.1-0.1,0.2-0.1,0.3-0.2c0.1-0.1,0.2-0.2,0.2-0.3c0.1-0.2,0.2-0.3,0.3-0.5C36.9,9,37,8.9,37.2,8.7
		c0.1-0.1,0.3-0.2,0.4-0.4c0.1-0.2,0.1-0.5,0.2-0.7c0.1-0.1,0.2-0.2,0.2-0.3c0,0,0-0.1,0-0.2c0-0.1,0.1,0,0.2-0.1
		c0.1-0.1,0.1-0.2,0.2-0.3c0.1-0.1,0.2-0.1,0.3-0.2c0.1-0.1,0.4-0.2,0.4-0.2 M49,10.6c0.2,0.1,0.3,0.1,0.5,0.2
		c0.2,0.1,0.5,0.2,0.7,0.3c0.3,0.1,0.5,0.3,0.8,0.5c0.1,0.1,0.3,0.1,0.4,0.2c0.1,0.1,0.1,0.1,0.2,0.2c0.3,0.1,0.8,0.2,1.1,0.3
		c0.2,0,0.4,0.1,0.6,0.1c0.2,0,0.5,0,0.7,0c0.5,0,1.1,0,1.6,0.1c0.2,0,0.3,0.1,0.5,0.3c0.1,0.2,0.3,0.2,0.6,0.3
		c0.7,0.1,1.3,0.1,2,0.3c0.3,0.1,0.6,0.2,1,0.2c0.3,0.1,0.6,0.1,0.9,0.1c0.4,0,0.9,0.2,1.2,0.4c0.4,0.2,0.7,0.3,1.2,0.3
		c0.2,0,0.4,0,0.6,0c0.2,0,0.4-0.1,0.6-0.1c0.3,0,0.6,0,0.9,0c0.1,0,0.2,0,0.3,0c0.2,0,0.5,0.1,0.6,0c0.2-0.1,0.3-0.2,0.4-0.3
		c0.1-0.1,0.1-0.1,0.3-0.1c0.2-0.1,0.4-0.2,0.6-0.3c0.2-0.1,0.3-0.1,0.5-0.2c0.1-0.1,0.1-0.1,0.2-0.1c0.1,0,0.3,0,0.4,0
		c0.2,0,0.4-0.1,0.7-0.1c0.2,0,0.3,0,0.5,0c0.2,0,0.3,0,0.5-0.1c0.1,0,0.2,0,0.3,0c0.1,0,0.2-0.1,0.3-0.2c0.2-0.1,0.3-0.2,0.5-0.2
		c0.2,0,0.4,0,0.6,0.1c0.5,0.1,0.9,0.1,1.3,0.3c0.2,0.1,0.3,0,0.5,0c0.2,0,0.3,0.1,0.4,0.1c0.1,0,0.3,0,0.4,0c0.5,0,0.9,0.2,1.4,0.2
		c0.3,0,0.5,0.1,0.8,0.2c0.2,0,0.3,0,0.5,0.1c0.1,0,0.2,0.1,0.3,0.1c0.1,0,0.1,0.1,0.2,0.1c0.1,0.1,0.3,0,0.5,0
		c0.4,0,0.9,0.1,1.3,0.1c0.3,0,0.6,0.1,0.9,0.1c0.4,0,0.8-0.1,1.2,0c0.1,0.3,0.3,0.3,0.5,0.3c0.1,0,0.3,0.1,0.4,0.1
		c0.2,0,0.5,0,0.7,0.1c0,0,0.1,0.1,0.1,0.1c0.1,0.1,0.6,0.2,0.6,0.2c0.5,0.2,0.9,0.3,1.4,0.3c0.7,0.1,1.5,0,2.2,0.1
		c0.7,0,1.5,0.2,2.1,0.3c0.3,0.1,0.6,0.1,0.9,0.1c0.1,0,0.3,0,0.4,0c0.2,0,0.2-0.1,0.3-0.1c0.2-0.1,0.4,0,0.6-0.1c0.1,0,0.2,0,0.3,0
		c0.2,0,0.3-0.2,0.5-0.1c0.1,0,0.2,0.1,0.3,0.1c0.3,0.1,0.8,0.1,1.1,0.1c0.1,0,0.2-0.1,0.3-0.1c0.3-0.1,0.7,0,1,0c1.7,0,3.5,0,5.2,0
		h1.8c0.2,0,0.4,0,0.6,0c0.4,0,0.7-0.1,1.1-0.1c0.5,0,1,0,1.6,0c0.3,0,0.6-0.1,0.9-0.1c0.3,0,0.5,0,0.8,0c0.2,0,0.3,0,0.5,0
		c0.2,0,0.4,0.1,0.6,0.1c0.5,0,1,0,1.5,0c0.4,0,0.8,0,1.1-0.1c0.3-0.1,0.7-0.1,1-0.1c0.6,0,2.7,0.3,3.2,0.3 M0.4,14.4
		c0.2,0,0.4,0,0.6-0.1c0.4,0,0.7,0,1.1,0c0.4,0,0.8,0,1.3,0c0.2,0,0.4,0.1,0.6,0.1c0.4,0,0.8,0,1.2,0c0.4,0,0.8-0.1,1.2-0.1
		c0.6,0,1.2,0,1.7,0c0.4,0,0.8,0,1.2,0.1c0.1,0,0.2,0.1,0.4,0.1c0.1,0,0.3,0,0.4,0c0.3,0,0.6,0.2,0.9,0.2c0.4,0,0.8-0.1,1.1,0
		c0.2,0.1,0.4,0.1,0.6,0.2c0.3,0,0.7,0,1,0c0.3,0,0.7,0,1,0c0.3,0,0.6,0.1,0.9,0.1c0.4,0,0.8,0,1.2,0h1.8c0.2,0,0.6-0.1,0.8,0
		c0.1,0,0.1,0.1,0.2,0.2c0.2,0.1,0.4,0.1,0.5,0.2c0.2,0,0.4,0,0.6,0c0.2,0,0.5,0,0.8,0c0.2,0,0.3-0.1,0.5-0.1c0.1,0,0.1-0.1,0.1-0.1
		c0.1,0,0.3,0,0.4,0c0.2,0,0.5,0,0.7,0c0.5,0,1,0.1,1.4,0.1c0.2,0,0.6,0.1,0.8,0.1c0.2-0.1,0.4-0.2,0.6-0.2c0.5-0.1,1.1,0,1.6,0
		c0.3,0,0.5,0,0.8,0c0.1,0,0.3,0,0.5,0c0.1,0,0.2-0.2,0.3-0.2c0.1,0,0.2,0,0.3,0c0.7,0,1.4,0,2.1,0c0.4,0,0.7,0,1.1-0.2
		c0.1,0,0.2-0.1,0.3-0.1c0.1-0.1,0-0.1,0.2-0.2c0.2,0,0.4-0.1,0.6-0.2c0.2,0,0.3,0,0.4-0.1c0.1,0,0.2,0,0.3-0.1
		c0.1,0,0.2-0.2,0.3-0.2c0.2-0.2,0.2-0.4,0.4-0.6c0.1-0.1,0.2-0.2,0.2-0.3c0.1-0.1,0.1-0.3,0.2-0.4c0.1-0.1,0.2-0.2,0.2-0.4
		c0-0.1,0-0.2,0.1-0.3c0.1-0.2,0.3-0.3,0.4-0.5c0.1-0.2,0.1-0.5,0.2-0.7c0.1-0.3,0.4-0.5,0.5-0.7c0-0.1,0.1-0.2,0.1-0.3
		c0.2-0.2,0.2-0.5,0.3-0.7c0.2-0.3,0.3-0.6,0.5-0.8c0.1-0.2,0.3-0.5,0.4-0.7C38.8,7.3,38.9,7,39,6.8c0.1-0.2,0.3-0.4,0.4-0.6
		c0.1-0.3,0.2-0.6,0.4-0.8c0.2-0.3,0.4-0.5,0.5-0.8c0.1-0.3,0.4-0.7,0.5-1c0.1-0.3,0.4-0.5,0.5-0.8c0.1-0.1,0-0.3,0.1-0.4
		c0-0.1,0.1-0.2,0.2-0.3c0.1-0.2,0-0.4,0.1-0.5c0.1-0.3,0.3-0.6,0.5-0.8C42,0.6,42,0.5,42.2,0.4c0.1,0,0.3,0,0.5,0
		c0.1,0,0.2,0.2,0.3,0.2c0.1,0.1,0.3,0.2,0.4,0.3c0.2,0.1,0.1,0.3,0.2,0.4c0.1,0.1,0.3,0.3,0.5,0.4c0.2,0.2,0.5,0.2,0.7,0.4
		C45,2.3,45,2.6,45.1,2.9c0,0.1,0,0.2,0.1,0.3c0.1,0.2,0.4,0.3,0.5,0.6C45.8,4,45.9,4.2,46,4.3c0.2,0.3,0.1,0.6,0.1,0.9
		c0,0.3,0,0.5,0.1,0.7c0,0.2,0,0.3,0.2,0.4c0.2,0.1,0.1,0.2,0.2,0.5c0,0.1,0.1,0.1,0.1,0.2c0.1,0.1,0,0.1,0,0.2
		c0,0.1,0.1,0.3,0.2,0.4c0.1,0.1,0,0.2,0.1,0.3c0,0.1,0.1,0.1,0.2,0.1c0.1,0.1,0.1,0.3,0.3,0.4c0.1,0,0.1,0,0.2,0.1
		c0,0.1,0,0.1,0,0.2c0,0.1,0.1,0.1,0.2,0.2C48,8.9,48,9,48,9.1c0.1,0.1,0.2,0.1,0.3,0.2c0.1,0.1,0.1,0.1,0.1,0.2
		c0.1,0.1,0.2,0.2,0.3,0.3c0.6,0.3,1.1,0.5,1.8,0.5c0.2,0,0.4,0,0.5,0.1c0.1,0.1,0.2,0.2,0.3,0.2c0.2,0,0.5,0,0.7,0
		c0.3,0,0.5-0.1,0.8-0.3c0.1-0.1,0.2-0.1,0.3-0.2c0.1-0.1,0.2-0.1,0.3-0.1c0.2-0.1,0.3-0.2,0.5-0.3c0.2-0.1,0.4-0.1,0.6-0.2
		c0.2-0.1,0.3-0.1,0.5-0.1c0.2-0.1,0.3-0.1,0.4-0.2c0.2,0,0.3,0,0.4,0.1c0.1,0.1,0.3,0.1,0.4,0.2c0.1,0,0.2,0,0.3,0.1
		c0.1,0.1,0.2,0.2,0.3,0.2c0,0,0,0.1,0,0.1c0,0,0.1,0,0.1,0.1c0.2,0.2,0.2,0.4,0.5,0.6c0.4,0.3,0.9,0.3,1.3,0.5
		c0.2,0.1,0.6,0.2,0.9,0.2c0.2,0,0.4,0,0.6,0c0.1,0,0.1,0,0.2,0.1c0,0,0,0.1,0.1,0.1c0.1,0.1,0.1,0,0.2,0.1c0.6,0.2,1.3,0,2,0.2
		c0.2,0,0.5,0.2,0.7,0.1c0.2,0,0.3-0.2,0.3-0.3c0.1-0.1,0.2-0.2,0.5-0.2c0.1,0,0.5,0.1,0.4-0.1c0.3-0.1,0.6,0,0.9-0.1
		c0.2-0.1,0.5-0.3,0.6-0.4c0.2-0.2,0.4-0.5,0.7-0.5c0.2,0,0.3,0.1,0.5,0.1c0.2,0.1,0.5,0.1,0.7,0.1c0.3,0,0.5-0.3,0.7-0.4
		c0.1,0,0.2,0,0.2-0.1c0.1-0.1,0.1-0.1,0.2-0.2c0.1-0.1,0.2-0.2,0.4-0.2c0.7-0.4,1.5-0.7,2.3-1c0.4-0.1,0.7-0.3,1-0.5
		c0.2,0,0.3-0.1,0.3-0.2c0.4,0,0.4,0.1,0.7,0.3c0.2,0.1,0.1,0.2,0.2,0.4c0,0.1,0.2,0.2,0.2,0.4c0.1,0.1,0.1,0.2,0.2,0.3
		c0.1,0,0.2,0,0.2,0.1c0.1,0,0.2,0.1,0.2,0.2c0.2,0.2,0.3,0.3,0.5,0.5c0.1,0.1,0.2,0.3,0.3,0.4c0.2,0.2,0.5,0.3,0.7,0.4
		c0.2,0.1,0.3,0.2,0.3,0.4c0.1,0.2,0.2,0.3,0.3,0.5c0.2,0.2,0.5,0.3,0.7,0.4c0.2,0.1,0.4,0.2,0.6,0.3c0.2,0,0.4,0.1,0.5,0.1
		c0.1,0,0.2,0.1,0.3,0.1c0.1,0.1,0.3,0.1,0.5,0.1c0.3,0,0.6,0.1,0.8,0.2c0.2,0.1,0.3,0.1,0.5,0.1c0.5,0,0.9,0.2,1.4,0.4
		c0.3,0.1,0.8,0.2,1.1,0.2c0.2,0,0.5-0.1,0.8,0c0.1,0,0.2,0.1,0.3,0.2c0.4,0.1,0.9,0,1.4,0.1c0.3,0,0.6,0.1,0.9,0
		c0.2,0,0.5-0.1,0.7-0.1c0.5,0,1,0.2,1.5,0.3c0.7,0.1,1.4,0,2,0c0.4,0,0.8,0,1.2,0c0.6,0,1.2,0,1.8,0c0.3,0,0.7,0.1,1,0.1
		c0.4,0,0.8,0,1.2,0c0.8,0,1.6-0.1,2.4-0.1c0.5,0,0.9-0.1,1.4-0.2c0.4,0,0.8-0.1,1.2-0.1c1,0,2,0,3.1,0c1.5,0,3.2,0.1,4.6-0.1
		c0.2,0,0.3-0.2,0.5-0.2c0.1,0,0.3,0.1,0.4,0.1c0.2,0.1,0.3,0.1,0.5,0.1c0.6,0,1.2,0,1.9,0c0.5,0,1.1-0.1,1.6-0.1c0.2,0,0.5,0,0.7,0
		c0.2,0,0.4,0.1,0.6,0.1 M77.5,15.3c0.3,0,0.8,0.1,1.1,0.2c0.2,0,0.4,0.1,0.7,0.2c0,0,0.3,0.1,0.4,0.1c0.1,0,0.2,0,0.3,0
		c0.2,0,0.3,0.1,0.6,0.1c0.3,0,0.6,0,0.9,0c0.2,0,0.4,0.1,0.6,0.1c0.2,0,0.4,0,0.6,0.1c0.1,0,0.3,0.1,0.4,0.1c0.1,0,0.3,0,0.4,0.1
		c0.1,0,0.1,0.1,0.2,0.1c0.1,0.1,0.2,0.1,0.3,0.2c0.2,0.1,0.4,0.2,0.7,0.3c0.6,0.1,1.2,0.1,1.8,0.1h5.8c0.3,0,0.6,0,0.9,0
		c0.3,0,0.6-0.1,0.9-0.1c0.7,0,1.3,0,2,0c0.3,0,0.6,0,0.9,0c0.2,0,0.4,0,0.6,0.1c0.3,0,0.5,0.1,0.8,0.1c0.1,0,0.2,0,0.3,0
		c0.2,0,0.2,0,0.4-0.2c0.3-0.2,0.5-0.1,0.8,0c0.3,0.1,0.6,0.1,0.9,0.1c0.2,0,0.3,0,0.5-0.1c0.3,0,0.6,0,0.8,0c0.9,0,1.7,0,2.6,0
		c0.2,0,0.4,0,0.7-0.1c0.4,0,0.8-0.1,1.1-0.1c0.6,0,1.2,0.1,1.7,0.1c0.4,0,0.7,0,1.1,0c0.3,0,0.6,0.1,1,0.1c0.4,0,0.9,0.1,1.3,0
		c0.2-0.1,0.3-0.2,0.5-0.2c0.1,0,0.3,0,0.4,0c0.4,0,0.9,0,1.3,0c0.2,0,0.4,0,0.6,0c0.1,0,0.1,0,0.2,0c0,0.1,0.3,0.3,0.3,0.3
		 M0.3,16.1c0.3,0,0.6,0,0.9-0.1c0.5-0.1,1-0.1,1.6-0.1c0.2,0,0.2-0.1,0.3-0.1c0.1,0,0.1,0,0.2,0c0.2,0,0.4,0,0.5,0
		c0.2,0,0.4,0.1,0.6,0.2c0.2,0.1,0.3,0.1,0.5,0.2c0.2,0.1,0.5,0,0.7,0c0.2,0,0.4,0,0.6,0c0.2,0.1,0.3,0.1,0.5,0.2
		c0.4,0.1,0.7,0,1.1,0.1c0.5,0.1,1,0.2,1.6,0.2c1.9,0,3.8,0.2,5.7,0.2H16c0.3,0,0.6,0,0.9,0c0.3-0.1,0.5-0.2,0.9-0.2
		c0.4,0,0.9,0,1.3,0c0.3,0,0.5,0,0.7-0.1c0.2-0.1,0.4-0.2,0.6-0.2c0.1,0,0.4-0.1,0.5,0c0.1,0,0.1,0.1,0.1,0.2
		c0.2,0.2,0.5,0.2,0.8,0.2c0.6,0,1.3-0.1,1.9,0.1c0.2,0.1,0.5,0.1,0.8,0.1c0.2,0,0.5-0.1,0.7-0.1c0.5-0.1,1.1,0,1.6,0h1.9
		c0.2,0,0.5,0.1,0.6,0c0,0,0,0,0.1-0.1c0.1-0.1,0.2-0.1,0.3-0.2c0.1,0,0.2-0.1,0.4-0.1c0.3-0.1,0.5-0.1,0.7-0.1
		c0.4,0,0.9,0.2,1.3,0.1c0.2,0,0.4-0.1,0.6-0.1c0.2,0,0.4-0.1,0.5-0.2c0.1-0.1,0.1-0.1,0.2-0.2c0.1-0.1,0.1-0.1,0.2-0.1
		c0.2-0.1,0.2-0.3,0.3-0.4c0.1-0.1,0.2-0.1,0.4-0.1c0.2,0,0.4-0.1,0.5-0.1c0.1-0.1,0.3-0.2,0.4-0.3c0.1-0.1,0.1-0.2,0.2-0.2
		c0.1,0,0.2-0.1,0.2-0.1c0.2-0.1,0.3-0.1,0.4-0.2c0.2,0,0.2,0,0.3-0.1c0.2-0.1,0.4-0.2,0.5-0.4c0.1-0.1,0.2-0.2,0.3-0.3
		c0.1-0.1,0.4-0.1,0.5-0.2c0.2-0.1,0.4-0.1,0.6-0.1c0.1,0,0.3-0.1,0.4-0.1c0.1,0,0-0.1,0.1-0.2c0,0,0.1,0,0.1,0c0.1,0,0.2,0,0.3-0.1
		c0.2-0.1,0.3-0.2,0.5-0.3c0.2-0.1,0.4-0.1,0.6-0.1c0.2,0,0.5,0,0.6,0c0.1,0,0.2-0.1,0.3-0.1c0.1,0,0.2-0.1,0.3-0.1
		c0.2,0,0.4,0,0.6,0c0.1,0,0.4-0.1,0.5-0.1c0.2-0.1,0.2-0.2,0.4-0.3c0.3-0.2,0.5-0.5,0.8-0.7c0.1-0.1,0.2-0.1,0.2-0.2
		c0.1-0.1,0.1-0.2,0.2-0.2c0.1-0.1,0.2-0.2,0.4-0.3c0.1-0.1,0.2-0.2,0.3-0.2c0.3-0.2,0.6-0.3,1-0.4c0,0,0.4-0.1,0.4-0.1
		c0.1,0,0.2,0,0.3,0c0.2,0,0.1-0.1,0.4,0c0.3,0.1,0.8,0.2,1.1,0.4c0.2,0.1,0.4,0.3,0.6,0.4c0.2,0.1,0.3,0.3,0.5,0.4
		c0.3,0.2,0.7,0.2,1,0.4c0.1,0,0.2,0.1,0.2,0.1c0.2,0.1,0.2,0.2,0.3,0.3c0.2,0.1,0.5,0.1,0.7,0.1c0.1,0,0.4,0,0.5,0.1
		c0.2,0,0.3,0.2,0.4,0.3c0.1,0.1,0.2,0.1,0.3,0.2c0.1,0.1,0.1,0.1,0.3,0.2c0.1,0,0.2,0.1,0.3,0.1c0.1,0.1,0.2,0.1,0.4,0.1
		c0.1,0.1,0.3,0.1,0.4,0.3c0,0,0.1,0.1,0.1,0.1c0.2,0.2,0.3,0.1,0.6,0.2c0.1,0,0.2,0.1,0.3,0.1c0.2,0.1,0.4,0.1,0.5,0.1
		c0.4,0.1,0.8,0.1,1.2,0.2c0.3,0.1,0.4,0.2,0.7,0.3c0.2,0.1,0.5,0,0.6,0.1c0,0,0,0.1,0,0.2c0.1,0.1,0.5,0.2,0.6,0.2
		c0.3,0.1,0.5,0.2,0.8,0.3c0.1,0,0.3,0.1,0.4,0.2c0.2,0.1,0.4,0,0.6,0c0.1,0,0.2,0,0.3,0c0.1,0,0.2,0,0.3,0.1c0.4,0.1,0.9,0,1.3,0
		h1.5c0.3,0,0.8,0.1,1.1,0c0.1,0,0.2-0.1,0.3-0.1c0.1,0,0.3,0,0.5,0c0.4,0,0.8,0,1.1,0c0.2,0,0.3-0.1,0.5-0.1c0.2,0,0.4,0,0.6,0
		c0.4,0,0.7,0,1.1,0c0.8,0,1.7,0,2.5,0c0.6,0,1.4,0.1,2,0.2c0.1,0,1,0,1.1,0.1 M80.1,17.4c0.2,0.1,1.2,0.4,1.5,0.5
		c0.2,0,0.4,0.1,0.5,0.2c0.1,0,0.2,0,0.3,0.1c0.1,0,0.3,0,0.5,0c0.3,0,0.5-0.1,0.7-0.1c0.4,0,1-0.1,1.4,0c0.2,0.1,0.3,0.1,0.5,0.1
		c0.1,0,0.1,0.1,0.2,0.1c0.1,0.1,0.3,0.1,0.4,0.1c0.4,0.1,0.9,0,1.3,0h2.4h1.8c0.4,0,0.8,0,1.1,0s0.7-0.1,1.1-0.2
		c0.3-0.1,0.5,0,0.8,0c0.3-0.1,0.6-0.1,0.9,0.1c0.2,0.1,0.2,0.2,0.5,0.2c0.3,0,0.6-0.1,0.9-0.1c0.3,0,0.4-0.1,0.7-0.1
		c0.2,0,0.5,0,0.7,0c0.8,0,1.5,0.1,2.3,0.1c0.7,0,1.4,0,2.1,0c0.3,0,0.6,0,0.9,0c0.1,0,0.2-0.1,0.4-0.1c0.1,0,0.3,0,0.5,0
		c0.5,0,0.9,0,1.4,0c0.1,0,0.2,0,0.3,0c0.1,0,0.2,0,0.3-0.1c0.2,0,0.1,0,0.4,0c0.4,0,0.8,0,1.2,0c1.4,0,2.9,0,4.3,0
		c0.3,0,0.5,0.1,0.7,0.2c0.2,0.1,0.6,0,0.8,0c0.6,0,0.9,0.1,1.4,0 M47.3,14.3c0.2,0,0.9-0.1,1.1-0.2c0.2-0.1,0.3-0.1,0.5-0.1
		c0.3-0.1,0.6,0.1,0.9,0.1c0.5,0,1.1,0,1.7,0c0.3,0,0.6,0,0.9,0c0.2,0,0.5-0.1,0.7-0.1c0.4,0,0.9,0,1.3,0c0.2,0,0.5,0,0.8,0.1
		c0.1,0,0.2,0.1,0.3,0.1c0.2,0,0.2,0.2,0.4,0.2c0.1,0,0.3,0,0.5,0c0.2,0,0.4,0,0.7,0.1c0.2,0.1,0.5,0.1,0.7,0.2
		c0.2,0.1,0.3,0.3,0.5,0.4c0.1,0,0.1,0,0.2,0.1c0.1,0.1,0.2,0.1,0.3,0.2c0.2,0.1,0.4,0.1,0.5,0.2c0.1,0,0.1,0.1,0.2,0.1
		c0.1,0.1,0.1,0.2,0.2,0.3c0.1,0.1,0.2,0.1,0.2,0.2c0.1,0.1,0.1,0.1,0.2,0.2c0.2,0.2,0.5,0.2,0.7,0.3c0.1,0,0.1,0.1,0.3,0.1
		c0.2,0,0.4,0,0.5,0c0.5,0.1,0.9,0.2,1.4,0.1c0.3-0.1,0.5,0,0.8-0.1c0.2,0,0.2-0.1,0.4-0.1c0.3,0,0.6,0.1,0.8,0.1
		c0.5,0,0.9,0.1,1.3,0.2c0.6,0.2,1.3,0.1,1.9,0.1c0.7,0,1.3,0,2,0c0.4,0,0.7,0.1,1.1,0.1h0.9 M0.2,17.9h1.2c0.5,0,0.9,0,1.4,0
		c0,0,0.3,0,0.4,0c0.1,0,0.2,0.1,0.3,0.1c0.1,0,0.3,0,0.3,0c0,0,0.1,0.1,0.1,0.1c0.1,0,0.2-0.3,0.3-0.3C4.6,17.9,5,18,5.4,18
		c0.2,0,0.3,0,0.5,0.1c0.2,0,0.3,0.1,0.5,0.1c0.1,0,0.3,0.1,0.3,0.1c0.3,0,0.6-0.2,0.8-0.3C7.7,17.9,8,18,8.2,17.9
		c0,0,0.1-0.1,0.1-0.1c0.4,0,0.9,0,1.3,0c0.5,0,1,0.1,1.5,0.1c0.4,0,0.9,0,1.3,0c0.2,0,0.5-0.1,0.7-0.1c0.4,0,0.5,0.3,0.9,0.4
		c0.4,0,0.8-0.1,1.2-0.1c0.6,0,1.2,0,1.8,0c0.6,0,1.1,0.1,1.7,0.1c0.2,0,0.4,0,0.5,0c0.3,0,0.6,0.1,0.9,0.1c0.1,0,0.3,0,0.4-0.1
		c0.2,0,0.4-0.1,0.6-0.2c0.1-0.1,0.2-0.1,0.2,0c0.1,0,0.1,0.1,0.1,0.2c0.1,0.1,0.2,0.1,0.3,0.1c0.3,0,0.5,0.1,0.8,0.1
		c0.6,0,1.2,0.1,1.8,0c0.3-0.1,0.5,0,0.8-0.2c0.1-0.1,0.1-0.1,0.3-0.1c0.2,0,0.5,0,0.7,0c0.1,0,0.2,0,0.4,0c0.2,0,0.4,0.1,0.6,0.1
		c0.2,0,0.1-0.1,0.2-0.1c0.1-0.1,0.4,0,0.6,0c0.2,0,0.3,0,0.4,0c0.2,0.1,0.3,0.1,0.4,0.2c0.3,0,0.7,0,1,0c0.3,0,0.6,0,0.9,0
		c0.2,0,0.3-0.1,0.5-0.1c0.5-0.2,1.1-0.1,1.6-0.2c0.3-0.1,1,0.3,1.3,0.2 M0.2,19.8c0.5,0,1.1,0,1.6,0c0.4,0,0.7,0.2,1.2,0.2
		c0.4,0,0.7-0.4,1-0.3c0.3,0.1,0.6-0.3,1-0.3c0.4,0,0.8,0,1.2,0c0.2,0,0.4,0,0.5,0c0.3,0,0.5,0,0.7,0.1c0.3,0,0.8,0,1.1,0
		c0.4,0,0.8,0,1.2,0c0.2,0,0.5,0.1,0.7,0.1c0.4,0,0.7,0.1,1,0.2c0.2,0,0.3,0,0.5,0c0.3,0,0.5,0,0.8,0c0.3,0,0.6-0.1,0.9-0.1
		c1.1,0,2.3,0,3.4,0c0.7,0,1.3,0.1,1.9,0.1c0.3,0,0.6,0,0.8,0c0.1,0,0.2,0,0.3,0c0.2,0.1,0.3,0.1,0.5,0.2c0.2,0,0.3,0,0.5,0
		c0.3,0,0.5,0.1,0.7,0.1c0.4,0,0.8,0,1.2,0c0.2,0,0.4,0,0.6,0c0.3,0,0.3-0.1,0.5-0.2c0.1-0.1,0.2-0.3,0.4-0.4c0.1,0,0.2-0.1,0.3-0.1
		c0.1-0.1,0.1-0.1,0.3-0.1c0.6,0,1.1,0.1,1.7,0.1c1.1,0,2.1,0.1,3.2,0.1c0.5,0,1,0.1,1.4-0.1c0.2-0.1,0.3-0.2,0.5-0.2
		c0.1,0,0.2,0,0.3-0.1c0,0,0-0.1,0.1-0.1c0.1-0.1,0.2-0.2,0.3-0.3c0.2-0.2,0.5-0.3,0.8-0.3c0.2,0,0.3,0,0.5-0.1c0.1,0,0.1,0,0.2,0
		c0.1,0,0.1-0.1,0.3-0.1c0.2-0.1,0.4-0.1,0.6-0.2c0.1-0.1,0.3-0.2,0.4-0.3c0.2-0.3,0.4-0.5,0.6-0.8c0,0,0.1-0.1,0.1-0.1
		c0.1-0.1,0.1-0.1,0.1-0.2c0.1-0.1,0.3-0.1,0.5-0.2c0.3-0.2,0.4-0.5,0.6-0.7c0.1-0.1,0.2-0.2,0.3-0.3c0,0,0-0.1,0-0.1
		c0,0,0.1,0,0.1,0c0.1-0.1,0.2-0.2,0.3-0.4c0.2-0.2,0.5-0.4,0.7-0.6c0.2-0.1,0.3-0.2,0.5-0.2c0.5,0,1-0.1,1.4,0.1
		c0.1,0,0.3,0.1,0.3,0.2c0,0,0.1,0.1,0.1,0.1c0.1,0.1,0.3,0,0.4,0c0.2,0,0.5,0,0.7,0c0.2,0,0.3-0.2,0.4-0.3c0.2-0.2,0.3-0.3,0.5-0.4
		c0.2-0.1,0.3-0.1,0.5-0.2c0.1-0.1,0.2-0.2,0.3-0.2c0.1,0,0.2,0,0.3,0c0.3,0,0.8,0.1,1.1,0.3c0.2,0.1,0.3,0.2,0.4,0.4
		c0.1,0.2,0.4,0.4,0.6,0.4c0.1,0,0.3,0,0.4,0c0.4,0,0.9,0,1.3,0.2c0.1,0,0.3,0.1,0.4,0.2c0.1,0.1,0.1,0.3,0.3,0.4
		c0.1,0.1,0.4,0,0.5,0c0.3,0,0.6,0,0.9,0c0.5,0,1,0.1,1.5,0c0.3,0,0.6-0.2,0.8-0.2c0.1,0,0.3,0,0.4,0c0.2,0,0.3-0.1,0.5-0.2
		c0,0.2,0.1,0.4,0.3,0.5c0.1,0.1,0.2,0.1,0.2,0.1c0.2,0.1,0.5,0.2,0.6,0.3c0.1,0.1,0.1,0.1,0.2,0.2c0.1,0,0.2,0,0.2,0
		c0,0,0.1,0.1,0.2,0.1c0.3,0.2,0.8,0.2,1.2,0.3c0.3,0.1,0.7,0.3,1,0.4c0.2,0.1,0.4,0.1,0.5,0.2c0.1,0,0.1,0.1,0.2,0.1
		c0.1,0.1,0.3,0.1,0.5,0.1c0.4,0.1,0.7,0.1,1,0C59.8,17,60,17,60.2,17c0.4,0,0.8-0.1,1.2-0.1c0.3,0,0.4-0.1,0.5,0.1
		c0.1,0.1,0.2,0.2,0.3,0.3c0.2,0.2,0.7,0.2,0.9,0.3c0.3,0.1,0.6,0.2,0.8,0.4c0.3,0.2,0.7,0.2,1,0.2c0.5,0,1,0.1,1.5,0.1
		c0.4,0,0.7,0,1.1,0c0.2,0,0.5,0,0.7,0c0.4,0,0.9,0.1,1.2,0c0.2,0,0.3-0.2,0.5-0.3c0.2-0.1,0.4-0.2,0.6-0.3c0.5-0.2,0.9-0.4,1.3-0.6
		c0.3-0.1,0.6-0.3,1-0.4c0.1,0,0.6-0.2,0.7-0.3c0.1-0.1,0.1-0.1,0.2-0.2c0.1-0.1,0.1-0.2,0.2-0.2c0.1-0.1,0.1-0.1,0.2-0.2
		c0.1-0.1,0.2-0.3,0.3-0.4c0,0,0.1-0.1,0.2-0.1c0.1-0.1,0.2-0.1,0.3-0.2c0.4-0.2,0.7-0.5,1.1-0.7c0.2-0.1,0.7-0.3,0.9-0.2
		c0.1,0.1,0.2,0.5,0.2,0.6c0.1,0.2,0.4,0.4,0.6,0.6c0.3,0.2,0.5,0.4,0.8,0.7c0.1,0.1,0.3,0.2,0.4,0.3c0.2,0.1,0.4,0.3,0.6,0.5
		c0.1,0.1,0.3,0.1,0.4,0.2c0.1,0.1,0.2,0.2,0.2,0.3c0.1,0.1,0.3,0.3,0.4,0.4c0.3,0.3,0.7,0.5,1.1,0.7c0.4,0.3,0.7,0.5,1.2,0.5
		c0.3,0,0.4,0,0.7,0.1c0.3,0.1,0.6,0.2,0.9,0.3c0.5,0.1,1,0.1,1.4,0.2c0.3,0.1,0.5,0.1,0.8,0.1c0.4,0,0.7-0.2,1.1-0.2
		c0.5,0,1,0.2,1.5,0.4c0.4,0.2,0.5,0.2,0.9,0.2c0.4,0,0.8,0,1.1,0c1.1,0,2.3,0,3.4,0c1.3,0,2.7,0.2,4,0.1c0.5,0,1-0.1,1.5,0
		c0.4,0,0.8,0.2,1.3,0.2c0.3,0,0.5-0.1,0.8-0.2c0.3-0.1,0.6-0.2,0.9-0.2c0.4,0,0.8-0.1,1.2-0.1c0.3,0,0.6,0.1,0.9,0.2
		c0.3,0.1,0.7,0,1,0.1c1.1,0.1,2.2,0.1,3.3,0.1c0.6,0,1.1,0,1.7,0c0.4,0,0.8-0.1,1.3-0.1c0.3,0,0.5,0,0.8,0c0.4,0,1.5,0.1,1.8,0"/>
	<path clip-path="url(#SVGID_2_)" d="M0.6,11.8c0.4,0,0.6-0.3,0.6-0.6c0-0.4-0.3-0.7-0.6-0.7S0,10.8,0,11.1
		C0,11.5,0.3,11.8,0.6,11.8"/>
	<path clip-path="url(#SVGID_2_)" d="M0.6,13.3c0.4,0,0.6-0.3,0.6-0.6C1.3,12.3,1,12,0.6,12S0,12.3,0,12.6C0,13,0.3,13.3,0.6,13.3"
		/>
	<path clip-path="url(#SVGID_2_)" d="M0.6,15c0.4,0,0.6-0.3,0.6-0.6c0-0.4-0.3-0.7-0.6-0.7S0,13.9,0,14.3C0,14.7,0.3,15,0.6,15"/>
	<path clip-path="url(#SVGID_2_)" d="M0.6,16.7c0.4,0,0.6-0.3,0.6-0.6c0-0.4-0.3-0.6-0.6-0.6S0,15.7,0,16C0,16.4,0.3,16.7,0.6,16.7"
		/>
	<path clip-path="url(#SVGID_2_)" d="M0.6,18.4c0.4,0,0.6-0.3,0.6-0.6c0-0.4-0.3-0.6-0.6-0.6S0,17.4,0,17.8
		C0,18.1,0.3,18.4,0.6,18.4"/>
	<path clip-path="url(#SVGID_2_)" d="M0.6,20.4c0.4,0,0.6-0.3,0.6-0.6c0-0.4-0.3-0.6-0.6-0.6S0,19.4,0,19.8
		C0,20.1,0.3,20.4,0.6,20.4"/>
	<path clip-path="url(#SVGID_2_)" d="M115.4,11.2c0.4,0,0.6-0.3,0.6-0.6c0-0.4-0.3-0.7-0.6-0.7c-0.4,0-0.6,0.3-0.6,0.7
		C114.8,10.9,115.1,11.2,115.4,11.2"/>
	<path clip-path="url(#SVGID_2_)" d="M115.4,12.7c0.4,0,0.6-0.3,0.6-0.6c0-0.4-0.3-0.6-0.6-0.6c-0.4,0-0.6,0.3-0.6,0.6
		C114.8,12.4,115.1,12.7,115.4,12.7"/>
	<path clip-path="url(#SVGID_2_)" d="M115.4,14.4c0.4,0,0.6-0.3,0.6-0.6c0-0.4-0.3-0.7-0.6-0.7c-0.4,0-0.6,0.3-0.6,0.7
		C114.8,14.1,115.1,14.4,115.4,14.4"/>
	<path clip-path="url(#SVGID_2_)" d="M115.4,16.1c0.4,0,0.6-0.3,0.6-0.6c0-0.4-0.3-0.7-0.6-0.7c-0.4,0-0.6,0.3-0.6,0.7
		C114.8,15.8,115.1,16.1,115.4,16.1"/>
	<path clip-path="url(#SVGID_2_)" d="M115.4,17.5c0.4,0,0.6-0.3,0.6-0.6c0-0.4-0.3-0.6-0.6-0.6c-0.4,0-0.6,0.3-0.6,0.6
		C114.7,17.3,115,17.5,115.4,17.5"/>
	<path clip-path="url(#SVGID_2_)" d="M115.4,19c0.4,0,0.6-0.3,0.6-0.6c0-0.4-0.3-0.6-0.6-0.6c-0.4,0-0.6,0.3-0.6,0.6
		C114.8,18.7,115.1,19,115.4,19"/>
	<path clip-path="url(#SVGID_2_)" d="M115.4,20.7c0.4,0,0.6-0.3,0.6-0.6c0-0.4-0.3-0.6-0.6-0.6c-0.4,0-0.6,0.3-0.6,0.6
		C114.8,20.4,115.1,20.7,115.4,20.7"/>
</g>
</svg>
