<?xml version="1.0" encoding="utf-8"?>
<!-- Generator: Adobe Illustrator 18.1.1, SVG Export Plug-In . SVG Version: 6.00 Build 0)  -->
<svg version="1.1" id="Layer_1" xmlns="http://www.w3.org/2000/svg" xmlns:xlink="http://www.w3.org/1999/xlink" x="0px" y="0px"
	 width="179.6px" height="57.8px" viewBox="0 0 179.6 57.8" enable-background="new 0 0 179.6 57.8" xml:space="preserve">
<g id="_x39_muazz_1_">
	<g>
		<path fill="#11B2D3" d="M114.4,36.5c0-0.1,0-0.3,0-0.4c0-0.1,0.1-0.2,0.2-0.1l0,0c0.1,0.3,0,0.7,0.1,1c0,0.5,0.1,1,0.2,1.5
			c0.4-3.7,0.8-7.5,0.9-11.3c0.2,0.2,0.1,0.3,0.1,0.5c0,1.1,0,2.1,0,3.2c0.1,1.7,0,3.4,0.1,5.1c0,0.9,0,1.8,0.1,2.7
			c0-0.6,0.1-1.2,0.1-1.8c0.1-1.8,0.1-3.6,0.1-5.4c0.1-1.2,0-2.4,0.1-3.6c0.1-1.3,0-2.7,0.1-4c0.1-1.1,0-2.1,0.1-3.2
			c0.1,0.1,0.1,0.2,0.1,0.3c0.1,3,0,5.9,0.1,8.9c0,1.5,0,3,0.1,4.4c0.3,0.4,0.2,0.8,0.1,1.2c-0.1,1.4,0,2.8,0,4.2c0,0.2,0,0.3,0,0.4
			c0-0.4,0-0.8,0-1.3c-0.1-1.5-0.1-3.1,0.1-4.6c0-0.1,0-0.3,0-0.4c0-1.7,0-3.3,0-5c0-0.2,0-0.3,0-0.5c0.1-2.6,0.1-5.3,0.1-7.9
			c0,0,0.1,0,0.1,0c0,0.7,0,1.5,0,2.2c0.1,2.2,0,4.5,0.1,6.7c0.1,1.3,0,2.6,0.1,3.9c0,0.1,0,0.2,0.1,0.4c0.1-0.2,0.1-0.3,0.1-0.5
			c0-1.6,0-3.2,0-4.8c0.1-2.2,0.1-4.3,0.1-6.5c0-0.3,0.1-0.7,0.1-1c0,0,0.1,0,0.1,0c0,0.9,0,1.8,0,2.7c0.1,2.2,0.1,4.4,0.1,6.7
			c0,1.3,0,2.6,0.1,3.8c0.1,1.4,0.1,2.8,0.3,4.3c0-0.1,0-0.2,0-0.4c0-2.2,0-4.5,0-6.7c0.1-4.9,0-9.7,0.1-14.6c0-2.3,0-4.7,0.1-7
			c0.3,0,0.1,0.3,0.1,0.4c0,0.9,0,1.7,0,2.6c0,0.2,0,0.3,0,0.5c0,2,0,4,0,6c0.1,4.4,0,8.8,0.1,13.2c0.1,2.3,0,4.6,0.1,6.9
			c0,1.3,0.2,2.5,0.3,3.8c0,0.3,0,0.6,0.1,1c0.2-0.1,0.3-0.2,0.3-0.4c0.2-1,0.3-2.1,0.4-3.1c0-1,0.1-2,0.2-3.1
			c0.4,0.6,0.3,1.3,0.6,1.9c0-0.1,0-0.2,0-0.3c0.1-1.8,0.1-3.5,0.1-5.3c0-1.3,0-2.6,0.1-3.9c0-0.8,0-1.5,0.1-2.3
			c0.1,0.4,0.1,0.8,0.1,1.2c0.1,0.7,0.1,1.3,0.2,2c0.1,0.9,0,1.8,0.1,2.7c0.1,0.9,0,1.8,0.1,2.7c0,0.5,0.1,1,0.2,1.5
			c0-0.1,0-0.3,0-0.4c0-1.6,0-3.1,0-4.7c0.1-3.6,0-7.3,0.1-10.9c0-1.8,0-3.6,0.1-5.4c0.2,0,0.1,0.2,0.1,0.3c0,0.5,0,0.9,0,1.4
			c0,0.8,0,1.6,0,2.4c0.1,3.6,0.1,7.3,0.1,10.9c0,1.2,0,2.4,0.1,3.6c0-1,0.2-2,0.1-3c0-0.6,0.2-1.2,0.1-1.9c0.1,0.6,0.1,1.2,0.1,1.8
			c0.1,1.9,0.1,3.7,0.2,5.6c0.1,1.2,0.2,2.4,0.2,3.6c0,0.1,0,0.3,0.2,0.4c0-0.6,0.1-1.2,0.1-1.8c0-0.6,0.1-1.2,0.1-1.9
			c0-0.1,0-0.3,0.2-0.2c0.1,0,0.2,0.1,0.2,0.2c0,0.1,0,0.1,0,0.2c0,1,0.1,2,0.1,3c0,0.6,0.1,1.2,0.1,1.9c0.2,0,0.2-0.1,0.2-0.2
			c0-0.7,0.1-1.4,0.1-2.1c0.1-1.2,0.1-2.4,0.3-3.6c0.1-0.8,0.1-1.6,0.2-2.4c0-0.4,0.1-0.7,0.1-1.1c0-0.2,0.1-0.3,0.2-0.4
			c0,0.3,0,0.6,0,0.9c0,1.3,0.1,2.6,0.1,3.9c0,1,0,2,0.1,2.9c0,0.5,0,1.1,0.2,1.6c0,0.1,0.1,0.2,0.2,0.3c0.1,0,0.1-0.2,0.1-0.3
			c0-1,0.1-2,0.1-2.9c0.1-1.1,0-2.1,0.3-3.2c0-0.1,0.1-0.3,0.2-0.4c0.1,0.6,0.2,1.3,0.2,1.9c0.1-0.1,0.1-0.2,0.1-0.3
			c0.1-1.7,0.1-3.5,0.1-5.2c0-1.1,0.1-2.3,0.1-3.4c0.1-0.3,0-0.6,0.2-0.9c0.2,0.9,0,1.6,0.1,2.3c0,1.4,0.1,2.8,0.1,4.2
			c0.2-0.3,0.1-0.6,0.2-0.9c0.1-0.3,0-0.7,0.1-1.1c0.2,0.3,0.2,0.5,0.3,0.8c0.2-0.5,0.1-1,0.2-1.5c0.1-0.5,0-1,0.2-1.4
			c0.3,2.9,0.1,5.8,0.6,8.7c0.2-1.1,0.2-2.2,0.3-3.4c0,0,0.1,0,0.1,0c0.1,0.9,0.1,1.8,0.2,2.7c0,0,0.1,0,0.1,0c0-0.7,0.1-1.3,0.1-2
			c0.1-1.1,0.1-2.2,0.1-3.3c0-0.1,0-0.2,0.1-0.3c0.1,0.4,0.1,0.8,0.2,1.1c0,0.2,0.1,0.4,0.1,0.6c0,0.1,0.1,0.2,0.2,0.2
			c0.1,0,0.1-0.1,0.1-0.2c0-0.8,0.2-1.7,0.2-2.5c0-0.2,0-0.4,0.2-0.6c0.2-0.2,0.3-0.2,0.5,0c0.1,0.1,0.1,0.3,0.1,0.5
			c0,0.2,0.1,0.5,0.2,0.7c0.2-0.1,0.1-0.2,0.1-0.3c0-0.9,0-1.8,0-2.7c0.1-1.3,0-2.7,0.1-4c0.1-0.8,0-1.6,0.1-2.5
			c0.1,0.2,0.1,0.3,0.1,0.5c0,1.5,0.1,3.1,0.1,4.6c0,1.4,0,2.9,0.1,4.3c0.1,1.1,0,2.1,0.1,3.2c0.1,1.1,0,2.2,0.1,3.2
			c0.1,1,0.1,2,0.1,2.9c0,0.1,0,0.2,0.1,0.3c0.1,0,0.1-0.2,0.1-0.2c0-0.5,0-1,0-1.6c0-1,0.1-2,0.1-3c0.1-0.8,0-1.6,0.1-2.3
			c0.2,0.6,0,1.3,0.2,1.9c0,0.1,0,0.1,0,0.2c0.1,0.9,0,1.8,0.1,2.7c0,0,0,0,0,0c0,0,0,0,0,0c0.3-1.3,0.1-2.6,0.2-3.9
			c0-0.8,0-1.7,0-2.5c0.1-1.3,0.1-2.5,0.1-3.8c0-0.1,0-0.2,0.1-0.2c0.2,0,0.1,0.1,0.1,0.2c0,0.6,0,1.2,0,1.8c0,1.7,0.1,3.4,0.1,5.1
			c0,0.2,0,0.3,0.1,0.5c0.1-0.1,0.1-0.3,0.1-0.4c0-1,0-2,0-3c0.1-2.2,0-4.5,0.1-6.7c0.1-1.4,0-2.8,0.1-4.2c0.1,0,0.1,0.1,0.1,0.1
			c0,1.4,0.1,2.7,0.1,4.1c0,1.5,0.1,3.1,0.1,4.6c0,1,0,2,0.1,3c0.1,1.2,0,2.5,0.1,3.7c0.1,0.9,0,1.8,0.1,2.7c0,0.1,0,0.3,0,0.4
			c0.2,0,0.1-0.1,0.1-0.2c0-0.3,0-0.7,0-1c0-1.6,0.1-3.1,0.1-4.7c0-0.9,0-1.8,0.1-2.7c0-0.1,0-0.2,0.1-0.3c0.2,0.2,0.3,0.5,0.3,0.8
			c0,0.9,0.1,1.8,0.1,2.7c0.1,1.8,0.2,3.6,0.4,5.4c0,0.3,0.1,0.6,0.3,0.8c0.1,0.1,0.1,0.3,0.2,0.5c0.1,0.5,0.1,1,0.2,1.5
			c0.2-0.5,0.1-1,0.2-1.5c0.1-0.5,0-0.9,0.4-1.3c0.1-0.1,0.1-0.3,0.1-0.4c0.1-2.4,0-4.8,0.1-7.2c0.1-2.1,0-4.2,0.1-6.4
			c0.1-2.1,0-4.2,0.1-6.3c0-0.1,0-0.2,0.1-0.3c0.2,0.3,0.3,0.5,0.3,0.9c0,1,0,2,0,2.9c0.1,1.5,0,3,0.1,4.5c0.1,1.4,0,2.7,0.1,4.1
			c0.1,2.1,0.1,4.1,0.2,6.2c0,0.8,0.1,1.6,0.1,2.4c0,0.4,0.1,0.8,0.2,1.2c0-0.3,0-0.7,0-1c0-1.6,0.1-3.1,0.1-4.6
			c0-0.9,0-1.9,0.1-2.8c0.1,0.3,0.2,0.5,0.2,0.8c0,0.6,0.1,1.2,0.1,1.9c0.1-0.2,0.1-0.4,0.1-0.5c0-0.9,0-1.8,0-2.7
			c0.1-2.6,0-5.1,0.1-7.7c0.1-1.4,0-2.8,0.1-4.2c0.3-0.1,0.2,0.2,0.2,0.3c0,0.8,0,1.6,0,2.4c0,0.8-0.1,1.6,0,2.5c0,0.5,0,1,0,1.6
			c0.1,1.9,0.1,3.8,0.1,5.7c0,0.6,0.2,1.1,0.3,1.8c0.2-0.6,0.2-1.1,0.4-1.7c0.5,0.9,0.4,2,0.6,3.1c0.2-0.9,0.3-1.6,0.3-2.4
			c0-0.9,0-1.8,0-2.6c0.1-2,0-4,0.1-6c0.1-1.7,0-3.4,0.1-5.1c0-0.1,0-0.3,0.1-0.5c0.1,0.1,0.1,0.2,0.1,0.4c0,1,0,2.1,0,3.1
			c0.1,1.5,0,3,0.1,4.5c0,0.7,0,1.4,0.1,2.2c0.2-0.9,0.1-1.7,0.4-2.6c0,0.5,0,0.9,0,1.4c0,1.6,0.1,3.1,0.1,4.7
			c0,0.7,0.1,1.4,0.1,2.3c0.1-0.2,0.1-0.4,0.1-0.5c0-1.1,0-2.3,0-3.4c0.1-3.4,0-6.8,0.1-10.2c0.1-1.9,0-3.8,0.1-5.8
			c0.4-0.1,0.2,0.2,0.2,0.3c0,1.1,0,2.2,0,3.2c0,0.4-0.1,0.9,0,1.3c0,0.6,0,1.2,0,1.8c0.1,2.1,0.1,4.2,0.1,6.3
			c0,0.5,0.2,0.9,0.3,1.4c0.2-0.8,0.3-1.6,0.3-2.3c0.1-1.7,0.1-3.3,0.1-5c0-1.2,0-2.4,0.1-3.6c0-0.1,0-0.1,0-0.2
			c0.2,0.1,0.1,0.2,0.1,0.3c0,1.2,0,2.4,0,3.6c0.1,1.7,0,3.5,0.1,5.2c0.1,1.2,0,2.5,0.1,3.7c0,0.8,0.1,1.5,0.2,2.3
			c0,0.2,0,0.5,0.1,0.7c0,0.2,0,0.3,0.1,0.4c0.4,0.6,0.4,1.3,0.5,2c0.2,1.1,0.3,2.2,0.3,3.4c0,0.2,0.1,0.4,0.2,0.5
			c0-0.2,0-0.4,0-0.6c0-1.6,0.1-3.1,0.1-4.6c0-0.9,0-1.7,0.1-2.6c0-0.1,0-0.2,0.1-0.4c0.1,0.7,0.1,1.5,0.1,2.2
			c0.1,0.7,0,1.4,0.2,2.2c0.1-0.2,0.1-0.3,0.2-0.5c0.1-0.3,0.1-0.6,0.4-0.9c0.1-0.1,0.1-0.3,0.1-0.5c0-1,0.1-2,0.1-3
			c0.1-2.1,0.1-4.1,0.2-6.2c0.1-1.9,0-3.7,0.1-5.6c0.1-1.9,0-3.8,0.1-5.7c0-0.5,0.1-0.9,0.2-1.4c0,0.9,0,1.8,0,2.7
			c0.1,2,0.1,4,0.1,6.1c0,1.2,0,2.4,0.1,3.6c0.1,1.9,0.2,3.8,0.2,5.7c0,0.6,0,1.2,0.1,1.8c0.1,1.4,0.1,2.9,0.2,4.3
			c0,0.4,0.1,0.8,0.1,1.2c0-0.1,0-0.3,0-0.4c0.1-2,0.1-4,0.1-6c0-0.8,0-1.5,0-2.3c0.1-1.5,0-3,0.1-4.4c0.4-0.1,0.2,0.2,0.2,0.3
			c0,1,0,2,0,2.9c0,0.6-0.1,1.3,0,1.9c0,2.9,0.1,5.7,0.2,8.6c0.2-0.5,0.3-0.9,0.3-1.4c0-1.1,0-2.2,0-3.3c0.1-2.5,0-5,0.1-7.4
			c0.1-1.7,0-3.4,0.1-5.1c0-0.2,0-0.3,0.1-0.5c0.2,0.1,0.1,0.3,0.1,0.5c0,1.6,0,3.1,0,4.7c0,0.9,0,1.9,0,2.8c0.1,2.9,0,5.7,0.1,8.6
			c0.1,1.5,0,3.1,0.1,4.6c0,0.2,0,0.3,0,0.4c0.2,0,0.1-0.1,0.2-0.2c0.3-1.3,0.1-2.6,0.2-3.9c0.1-1.5,0-3,0.1-4.5
			c0.1-1.1,0-2.3,0.1-3.4c0.1-0.1,0.1-0.1,0.2,0c0,0,0,0.1,0,0.1c0.1,0.5,0,1.1,0.1,1.6l0,0c0.2,0.4,0,0.9,0.1,1.3
			c0-0.9,0-1.9,0.1-2.8c0.1-3.2,0.1-6.3,0.3-9.5c0,0.2,0,0.3,0,0.5c0,1.6,0,3.2,0,4.8c0.1,2.1,0,4.1,0.1,6.2c0.1,1.4,0,2.8,0.1,4.2
			c0,0.1,0,0.2,0,0.2c0.2,0,0.1-0.2,0.1-0.3c0-0.3,0-0.6,0-1c0-1.2,0.1-2.5,0.1-3.7c0-1,0-2,0.1-3c0.1-1.2,0-2.5,0.1-3.7
			c0.1-1.2,0.1-2.4,0.1-3.6c0-0.3,0-0.5,0.1-0.7c0.1,0.1,0.1,0.2,0.1,0.3c0,0.9,0,1.9,0,2.8c0.1,1.4,0,2.8,0.1,4.1
			c0,0.7,0,1.5,0.1,2.3c0-0.1,0.1-0.2,0.1-0.2c0-1.2,0.1-2.4,0.1-3.6c0-1.1,0.1-2.2,0.1-3.3c0.1,0.1,0.1,0.3,0.1,0.4
			c0.1,1.8,0.1,3.5,0.1,5.3c0.1,1.4,0,2.7,0.1,4.1c0,1.4,0.2,2.9,0.4,4.3c0.1,0.4,0.1,0.8,0.2,1.1c0,0.1,0,0.2,0.1,0.3
			c0.1-0.2,0-0.3,0-0.5c0-1.1,0-2.1,0-3.2c0.1-2.3,0-4.7,0.1-7c0.1-1.6,0-3.1,0.1-4.7c0-0.1,0-0.2,0-0.3c0.1,0.1,0.1,0.2,0.1,0.2
			c0.1,1.8,0.1,3.7,0.1,5.5c0,0.8,0,1.5,0,2.3c0.1,2.3,0,4.6,0.1,6.9c0,0.9,0,1.9,0.1,2.9c0.2-0.5,0.3-0.9,0.3-1.3
			c0-1,0.1-1.9,0.1-2.9c0.1-1.3,0.1-2.7,0.2-4c0.1-0.6,0.1-1.2,0.1-1.8c0.1-1.3,0.1-2.7,0.1-4c0.1-1.6,0-3.2,0.1-4.8
			c0.1-1.9,0-3.7,0.1-5.6c0-0.5,0.1-0.9,0.1-1.4c0.1,0.2,0.1,0.3,0.1,0.4c0,1.2,0,2.4,0,3.6c0.1,1.6,0,3.2,0.1,4.9
			c0.1,1.3,0,2.6,0.1,3.9c0.1,1.6,0.1,3.3,0.2,4.9c0,0.4,0.1,0.9,0.1,1.4c0.1-0.1,0.1-0.2,0.1-0.3c0-2.7,0.1-5.4,0.1-8.1
			c0-2,0-4.1,0.1-6.1c0-1,0-2.1,0.1-3.1c0-0.1,0-0.2,0-0.3c0-0.1,0-0.3,0.2-0.3c0.2,0,0.1,0.2,0.1,0.3c0.1,1.5,0.1,3,0.1,4.4
			c0.1,1.5,0,3,0.1,4.5c0,0.8,0,1.6,0.1,2.5c0.2-1,0.1-2,0.3-3c0,0.6,0,1.3,0,1.9c0.1,1.8,0,3.7,0.1,5.5c0.1,1.3,0,2.6,0.1,3.9
			c0,0.1,0,0.3,0,0.4c0.2-0.1,0.1-0.2,0.1-0.3c0-1,0-1.9,0-2.9c0.1-1.8,0-3.7,0.1-5.5c0.1-1.6,0-3.2,0.1-4.8c0.1-1.5,0-3,0.1-4.5
			c0.1-1.3,0-2.6,0.1-3.9c0.1-0.9,0.1-1.8,0.2-2.8c0,0.6,0,1.2,0,1.8c0,0.8,0,1.6,0,2.3c0.1,2.5,0,5,0.1,7.5c0.1,1.9,0,3.7,0.1,5.6
			c0,0.2,0,0.4,0.1,0.6c0.1-0.2,0.1-0.4,0.1-0.5c0-0.8,0-1.7,0-2.5c0.1-1.5,0-3,0.1-4.5c0.1-1,0-2,0.1-2.9c0.1-1,0.1-2,0.2-3.1
			c0.2,0.1,0.2,0.3,0.2,0.4c0,1.8,0,3.5,0,5.3c0.1,2.3,0,4.6,0.1,6.8c0.1,2,0,3.9,0.1,5.9c0,1,0.1,2,0.4,2.9c0-0.1,0-0.3,0-0.4
			c0.1-2.1,0.1-4.2,0.1-6.4c0.1-1.8,0-3.6,0.1-5.4c0-0.9,0.1-1.8,0.2-2.7c0,0.7,0,1.4,0,2.1c0.1,1.8,0.1,3.5,0.1,5.3
			c0,1,0,2.1,0.1,3.1c0,0.1,0,0.2,0.1,0.3c0.2-0.2,0.1-0.5,0.2-0.7c0.1-0.1,0-0.3,0.2-0.4c0.3-0.2,0.2-0.5,0.3-0.8
			c0.1-1.1,0-2.2,0.1-3.3c0.1-1,0.1-2.1,0.1-3.1c0-0.3,0.1-0.6,0.1-1c0.1,0.1,0.1,0.3,0.1,0.4c0,1.3,0,2.5,0,3.8
			c0.1,1.7,0,3.4,0.1,5.2c0.1,1.3,0,2.5,0.1,3.8c0,0.1,0,0.2,0,0.3c0.1,0,0.2-0.1,0.2-0.1c0.1-1.2,0.2-2.5,0.2-3.7
			c0-1.1,0-2.3,0.1-3.4c0.1-1.1,0-2.1,0.1-3.2c0-0.1,0-0.2,0.1-0.3c0.1,0.1,0.1,0.3,0.1,0.4c0,1,0,1.9,0,2.9
			c0.1,1.4,0.1,2.8,0.1,4.2c0,0.1,0,0.2,0.1,0.2c0.1-0.2,0.1-0.3,0.1-0.5c0-2.4,0-4.9,0-7.3c0.1-2.2,0-4.3,0.1-6.5
			c0.1-0.2,0-0.4,0-0.5c0-2.4,0-4.9,0-7.3c0-0.2,0-0.4,0-0.5c0-0.2,0-0.4,0-0.6c0.3,0.1,0.1,0.3,0.1,0.5c0,1.6,0,3.2,0,4.7
			c0,0.2,0,0.3,0,0.5c0,0.9,0,1.8,0,2.6c0.1,4.2,0.1,8.5,0.1,12.7c0,0.6,0.2,1.1,0.2,1.7c0-0.2,0-0.3,0-0.5c0-1.5,0.1-3,0.1-4.4
			c0-0.6,0-1.2,0.1-1.8c0.2,0.5,0.2,0.9,0.3,1.3c0.1-0.2,0.1-0.3,0.1-0.5c0-1.1,0-2.2,0-3.3c0.1-2.3,0-4.6,0.1-6.9
			c0.1-1.5,0-3.1,0.1-4.6c0-0.1,0-0.2,0.1-0.3c0,0.7,0,1.3,0,1.9c0.1,2.6,0,5.3,0.1,7.9c0.1,2.3,0,4.7,0.1,7c0,0.9,0,1.7,0.1,2.6
			c0,0.1,0,0.3,0.1,0.3c0.2,0.1,0.2,0.2,0.2,0.4c0,0.4,0.1,0.9,0.1,1.3c0,0.1,0,0.2,0.2,0.3c0-0.1,0-0.3,0-0.4c0-1.2,0-2.4,0-3.6
			c0.1-2.1,0-4.1,0.1-6.2c0.1-1.6,0-3.1,0.1-4.7c0-0.2,0-0.4,0.1-0.6c0.2,0.1,0.1,0.3,0.1,0.4c0,1.1,0,2.2,0,3.3
			c0.1,1.5,0,3.1,0.1,4.6c0,0.7,0,1.3,0.1,2c0,0.1,0,0.3,0.1,0.4c0.2,0.2,0.2,0.5,0.2,0.8c0.1,1.1,0,2.3,0.1,3.4
			c0.1,1,0,2.1,0.1,3.1c0.1,0.9,0,1.7,0.1,2.6c0.2-0.1,0.2-0.2,0.2-0.3c0-0.9,0.1-1.8,0.1-2.7c0-0.3,0.1-0.6,0.1-1
			c0,0,0-0.1,0.1-0.1c0.4,0,0.3-0.3,0.3-0.6c0.1-1.3,0.1-2.6,0.2-3.9c0-0.1,0-0.2,0.1-0.2c0.5-0.2,0.3-0.7,0.4-1
			c0.1-0.4,0.1-0.8,0.1-1.3c0-0.1,0-0.1,0.1-0.2c0.1,0.3,0.1,0.6,0.1,0.9c0.1,0.5,0.1,1.1,0.2,1.6c0.1,1.2,0,2.4,0.1,3.5
			c0.1,1,0,2,0.1,2.9c0,0.7,0.1,1.3,0.1,2c0.2-2.3,0.2-4.7,0.3-7.1c0.2,0.3,0.1,0.5,0.3,0.8c0.1-0.5,0.2-0.9,0.2-1.3
			c0.2,1.2,0.2,2.4,0.4,3.5c0-0.1,0-0.3,0-0.4c0-1.9,0-3.8,0-5.7c0.1-4.7,0-9.4,0.1-14.1c0-2.1,0-4.2,0.1-6.3c0.3,0,0.1,0.3,0.1,0.4
			c0,0.5-0.1,1.1,0.1,1.6c0,0.9,0,1.8,0,2.7c0.1,4.2,0.1,8.5,0.1,12.7c0,1.4,0,2.9,0.1,4.3c0-0.8,0.1-1.6,0.1-2.4
			c0-0.9,0.1-1.7,0.2-2.6c0,0.4,0,0.7,0,1.1c0,1.5,0.1,3,0.1,4.4c0,1,0,2,0.1,3c0,0.1,0,0.3,0.1,0.4c0.2-0.1,0.1-0.3,0.3-0.5
			c0.1,2.6,0.2,5.2,0.3,7.7c0,0,0.1,0,0.1,0c0-0.7,0-1.5,0-2.2c0.1-1.3,0-2.6,0.1-3.8c0.1-1,0-2.1,0.1-3.1c0.1-1.8,0.1-3.6,0.2-5.4
			c0-0.7,0-1.5,0.1-2.2c0-0.3,0-0.5,0.1-0.9c0.1,0.5,0.2,1,0.3,1.5c0,1.5,0.1,3,0.1,4.5c0,1.1,0,2.2,0.1,3.3c0,0.7,0.1,1.3,0.1,2
			c0.1-0.4,0.1-0.8,0.1-1.2c0-0.8,0.1-1.6,0.1-2.4c0.1-1,0-2,0.1-3c0.1-1,0-2,0.1-2.9c0.1-1,0-2.1,0.1-3.1c0-0.4,0.1-0.8,0.1-1.3
			c0.2,0.3,0.2,0.5,0.3,0.9c0.1-0.5,0.1-0.9,0.2-1.3c0.2,0,0.1,0.2,0.1,0.3c0,0.9,0,1.7,0,2.6c0.1,1.3,0,2.7,0.1,4
			c0,0.7,0,1.4,0.1,2.1c0.1-0.1,0.1-0.3,0.1-0.4c0-0.9,0-1.9,0-2.8c0.1-3,0-6,0.1-9.1c0-1.6,0-3.1,0.1-4.7c0.3,0,0.1,0.3,0.1,0.4
			c0,0.8,0,1.6,0.1,2.4c0,0.9,0,1.7,0,2.6c0.1,3.8,0,7.5,0.1,11.3c0,1.8,0,3.6,0.1,5.4c0.3-0.2,0.1-0.6,0.4-1c0,0.2,0,0.3,0,0.4
			c0,1.2,0.1,2.5,0.1,3.7c0,0.4,0.1,0.9,0.2,1.4c0-0.2,0-0.4,0-0.6c0-1.4,0-2.9,0-4.3c0.1-4.1,0-8.2,0.1-12.3c0-2.1,0-4.1,0.1-6.2
			c0.1-0.1,0.1-0.1,0.2,0c0,0.4,0,0.8,0,1.2c0.1,4,0.1,8.1,0.1,12.1c0,2,0,3.9,0.1,5.9c0,0.1,0,0.3,0.1,0.4c0.4-2,0.4-4.1,0.5-6.1
			c0.2,0.1,0.1,0.2,0.1,0.4c0,0.4,0,0.8,0,1.3c0,0.1,0,0.3,0.1,0.4c0,6.3,0,12.6,0,18.9c-0.2,0-0.3,0.2-0.4,0.3
			c-0.2,0.3-0.4,0.3-0.5-0.1c-0.1-0.2-0.1-0.5-0.2-0.7c0-0.2-0.1-0.3-0.3-0.2c-0.3,0.2-0.5,0.1-0.7-0.2c-0.2,0.1-0.1,0.3-0.2,0.4
			c-0.1,0.1-0.1,0.3-0.3,0.3c-0.2,0-0.3-0.1-0.3-0.3c-0.1-0.4-0.3-0.5-0.6-0.1c-0.1,0.1-0.2,0.1-0.3,0.1c-0.4-0.2-0.4,0.2-0.5,0.4
			c-0.1,0.3,0,0.7-0.4,0.7c-0.3,0-0.2-0.4-0.3-0.7c0-0.1,0-0.3-0.1-0.4c-0.1,0-0.1,0.1-0.1,0.2c-0.1,0.2,0,0.5-0.3,0.5
			c-0.3,0-0.7,0.2-0.9-0.4c-0.2-0.5-0.3-1-0.6-1.5c-0.2,0.3-0.3,0.5-0.4,0.8c-0.1,0.2-0.1,0.3-0.2,0.5c-0.2,0.3-0.3,0.3-0.5,0
			c-0.3-0.5-0.5-0.5-0.8,0c-0.2,0.3-0.4,0.2-0.6,0c-0.1,0-0.1,0-0.1,0.1c-0.1,0.2-0.1,0.7-0.4,0.6c-0.3,0-0.2-0.4-0.3-0.7
			c-0.1-0.2,0-0.5-0.2-0.5c-0.3,0-0.2,0.3-0.3,0.6c-0.1,0.3-0.1,0.7-0.2,1c0,0.1-0.1,0.3-0.3,0.3c-0.1,0-0.2-0.1-0.2-0.2
			c-0.1-0.4-0.2-0.7-0.7-0.6c-0.1,0-0.2-0.1-0.3-0.2c-0.1-0.1-0.1-0.2-0.2-0.2c-0.3,0.1-0.4-0.1-0.4-0.3c-0.1-0.5-0.5,0-0.7-0.2
			c-0.1-0.1-0.1,0.2-0.2,0.3c-0.1,0.2,0,0.6-0.4,0.7c-0.4,0-0.5-0.3-0.6-0.7c0-0.2-0.1-0.4-0.2-0.7c-0.1,0.4-0.1,0.8-0.2,1.1
			c0,0.2,0,0.5-0.3,0.5c-0.2,0-0.2-0.3-0.3-0.5c-0.1-0.3-0.1-0.5-0.2-0.8c-0.1,0.2-0.2,0.5-0.2,0.7c0,0.5-0.4,0.5-0.7,0.6
			c-0.2,0-0.2-0.1-0.3-0.3c0-0.3-0.1-0.5-0.2-0.9c-0.2,0.5-0.3,0.9-0.4,1.3c-0.1,0.2-0.1,0.4-0.3,0.4c-0.2,0-0.3-0.2-0.4-0.4
			c0-0.1,0-0.2-0.1-0.3c-0.1,0-0.1,0.1-0.1,0.2c-0.1,0.2-0.1,0.4-0.3,0.4c-0.2,0-0.3-0.3-0.3-0.4c0-0.6-0.2-1.2-0.3-1.8
			c-0.1,0.3-0.1,0.5-0.2,0.8c-0.1,0.3-0.1,0.6-0.4,0.6c-0.4,0-0.4-0.3-0.5-0.6c0-0.1-0.1-0.2-0.2-0.3c-0.2,0.1-0.1,0.3-0.3,0.4
			c-0.3,0.2-0.2-0.2-0.4-0.2c-0.1,0.3-0.1,0.6-0.2,0.8c-0.1,0.3-0.3,0.4-0.5,0.1c-0.2-0.3-0.3-0.3-0.5,0c-0.1,0.1-0.2,0.3-0.3,0.2
			c-0.2,0-0.2-0.2-0.2-0.4c-0.1-0.2-0.1-0.5-0.2-0.7c-0.1-0.2-0.2-0.4-0.4-0.1c-0.2,0.3-0.4,0.4-0.7,0.1c-0.1-0.1-0.2-0.2-0.3-0.1
			c-0.2,0.2-0.3-0.1-0.5-0.2c-0.1,0.1-0.1,0.2-0.2,0.4c-0.1,0.4-0.2,0.7-0.7,0.6c-0.2-0.1-0.4,0.1-0.6,0.3c-0.2,0.2-0.4,0.4-0.7,0.1
			c-0.1-0.1-0.2,0-0.2,0.1c-0.3,0.4-0.3,0.1-0.4-0.1c0-0.1,0-0.3-0.1-0.4c-0.1-0.2-0.1-0.5-0.5-0.2c-0.2,0.2-0.3-0.1-0.3-0.2
			c-0.1-0.7-0.1-1.3-0.2-2c0-0.2,0-0.4-0.1-0.7c-0.1,0.8-0.2,1.5-0.2,2.2c0,0.3,0,0.5-0.4,0.6c-0.3,0.1-0.3,0.4-0.4,0.6
			c-0.1,0.1-0.1,0.4-0.3,0.3c-0.2,0-0.2-0.2-0.3-0.3c-0.1-0.3-0.2-0.4-0.5-0.4c-0.3,0-0.4-0.3-0.5-0.5c-0.2,0-0.2,0.1-0.2,0.2
			c-0.2,0.3-0.5,0.4-0.8,0.2c-0.2-0.2-0.4-0.2-0.5,0.1c0,0.1-0.1,0.2-0.3,0.2c-0.2,0-0.2-0.2-0.3-0.3c-0.1-0.5-0.2-1-0.3-1.6
			c-0.3,0.3-0.3,0.7-0.4,1c-0.1,0.2-0.2,0.4-0.4,0.1c-0.2-0.2-0.3-0.1-0.4,0.1c-0.1,0.2-0.2,0.4-0.3,0.6c-0.2,0.4-0.5,0.4-0.9,0.2
			c-0.4-0.2-0.7-0.7-1.2-0.7c-0.2,0-0.3,0-0.4,0.2c-0.1,0.4-0.4,0.7-0.8,0.6c-0.2,0-0.3,0.1-0.5,0.2c-0.4,0.2-0.5,0.2-0.6-0.2
			c-0.1-0.2-0.2-0.4-0.4-0.5c-0.2,0-0.2-0.3-0.4-0.4c-0.1,0.2-0.1,0.5-0.2,0.7c0,0.1-0.1,0.3-0.2,0.3c-0.1,0-0.2-0.1-0.3-0.2
			c-0.1-0.2-0.1-0.5-0.4-0.5c-0.2,0-0.3,0.3-0.4,0.5c0,0.1-0.1,0.2-0.2,0.2c-0.3-0.2-0.6,0.1-0.9-0.1c-0.3-0.2-0.5-0.5-0.5-0.8
			c0-0.1,0-0.3-0.2-0.4c-0.2,0-0.2,0.2-0.3,0.3c-0.2,0.3-0.2,0.6-0.4,0.9c-0.1,0.1-0.1,0.2-0.3,0.2c-0.1,0-0.2-0.2-0.2-0.3
			c-0.1-0.4-0.2-0.7-0.3-1.1c-0.1,0.3-0.1,0.6-0.2,0.8c-0.1,0.2-0.1,0.6-0.4,0.1c-0.2-0.3-0.4,0.1-0.5-0.1c-0.3-0.3-0.3,0-0.4,0.2
			c-0.1,0.2-0.3,0.2-0.4,0.1c-0.2-0.1-0.3-0.2-0.5-0.1c-0.1,0.1-0.2,0-0.3-0.1c-0.1-0.1-0.1-0.4-0.3-0.3c-0.2,0.1-0.6,0.1-0.7,0.4
			c0,0.1-0.1,0.3-0.2,0.4c-0.1,0.2-0.3,0.3-0.4,0c-0.1-0.2-0.1-0.5-0.2-0.8c-0.1,0.2-0.1,0.3-0.2,0.5c-0.2,0.3-0.3,0.3-0.6,0.1
			c-0.1-0.1-0.2-0.3-0.3-0.4c-0.1-0.1-0.2-0.2-0.4-0.1c-0.4,0.3-0.4,0.3-0.7-0.2c0-0.1,0-0.3-0.2-0.3c-0.1,0-0.2,0.1-0.2,0.2
			c-0.1,0.2-0.2,0.4-0.3,0.5c-0.2,0.3-0.4,0.3-0.6,0c-0.3-0.4-0.4-0.4-0.8-0.1c-0.4,0.3-0.5,0.3-0.7-0.2c0-0.2-0.1-0.3-0.2-0.5
			c-0.4,0.2-0.9,0.2-1.3,0.5c-0.2,0.2-0.4-0.1-0.5-0.3c-0.2-0.4-0.3-0.4-0.6,0c-0.1,0.2-0.2,0.4-0.3,0.6c-0.1,0.2-0.2,0.3-0.4,0
			c-0.1-0.1-0.1-0.4-0.3-0.4c-0.2,0.1-0.5,0.2-0.6,0.4c0,0.1,0,0,0,0c-0.1,0.2-0.2,0.5-0.5,0.5c-0.3,0-0.3-0.4-0.4-0.6
			c-0.1-0.4-0.2-0.7-0.3-1.1c-0.3,0.4-0.3,0.8-0.5,1.2c-0.1,0.3,0,0.7-0.3,0.7c-0.4,0-0.3-0.4-0.4-0.7c0,0,0-0.1-0.1-0.1
			c-0.2,0.4-0.5,0.2-0.7,0c-0.3-0.3-0.5-0.2-0.6,0.2c0,0.1,0,0,0,0c-0.3,0.7-0.4,0.7-0.8,0.1c0,0,0,0,0,0c-0.2,0.2-0.2,0.6-0.5,0.5
			c-0.3-0.1-0.3-0.4-0.4-0.6c-0.1-0.2-0.1-0.7-0.6-0.4c-0.1,0.1-0.2-0.1-0.3-0.3c-0.1-0.2-0.2-0.5-0.4-0.8c-0.1,0.5-0.1,0.9-0.2,1.3
			c0,0.2,0,0.4-0.2,0.4c-0.2,0-0.2-0.2-0.3-0.4c-0.1-0.6-0.2-1.1-0.3-1.7c-0.2,0.6-0.2,1.2-0.4,1.8c0,0.1-0.1,0.3-0.1,0.4
			c-0.1,0.3-0.3,0.3-0.4,0c-0.1-0.2-0.2-0.4-0.2-0.7c-0.1-0.3-0.2-0.3-0.4-0.1c-0.3,0.3-0.4,0.1-0.6-0.2c-0.2-0.5-0.2-0.5-0.5-0.1
			c-0.1,0.1-0.2,0.2-0.3,0.1c-0.3-0.3-0.5-0.2-0.7,0.1c-0.2,0.2-0.3,0-0.4-0.1c-0.1-0.4-0.3-0.3-0.5,0c-0.3,0.6-0.8,0.6-1.3,0.5
			c-0.3-0.1-0.5,0-0.6,0.3c-0.2,0.2-0.3,0.7-0.6,0.6c-0.3,0-0.2-0.5-0.3-0.7c-0.1,0-0.1,0-0.2,0.1c-0.2,0.2-0.4,0.4-0.7,0.3
			c-0.3-0.1-0.2-0.4-0.3-0.7c-0.1-0.4-0.1-0.8-0.2-1.3c-0.2,0.4-0.1,0.8-0.2,1.1c-0.1,0.3-0.2,0.3-0.5,0.1c-0.1-0.1-0.2-0.3-0.3-0.2
			c-0.2,0.1-0.5,0.2-0.6,0.5c0,0.1,0,0.2-0.1,0.2c-0.1,0.2,0,0.4-0.3,0.5c-0.2,0-0.2-0.2-0.3-0.3c-0.3-0.2-0.5-0.5-0.9-0.6
			c0,0-0.1,0-0.1,0c-0.6-0.2-0.6-0.2-1,0.2c-0.2,0.2-0.3,0.1-0.3-0.1c-0.1-0.3-0.1-0.6-0.2-1c-0.1,0.1-0.1,0.3-0.1,0.4
			c-0.1,0.5-0.1,0.5-0.6,0.3c-0.3-0.2-0.5,0.1-0.8,0.1c-0.3,0.1-0.6,0.2-0.8,0.3c-0.4,0.1-0.6,0.2-0.8-0.3c-0.1-0.2-0.2-0.1-0.3,0
			c-0.1,0.1-0.2,0.3-0.4,0.2c-0.2-0.1-0.1-0.3-0.1-0.5c-0.1-0.9-0.2-1.7-0.2-2.6c-0.2,0.9-0.2,1.8-0.3,2.7c-0.1,0.7-0.5,1-1.2,0.9
			c-0.2,0-0.3-0.2-0.4-0.4c-0.2-0.3-0.2-0.7-0.3-1.1c-0.1,0.3-0.2,0.5-0.2,0.7c0,0.2-0.1,0.3-0.2,0.5c-0.4,0.4-0.6,0.4-0.9-0.2
			c-0.1-0.2-0.1-0.5-0.3-0.7c-0.1,0.6-0.6,0.3-0.9,0.6c-0.1,0.1-0.2-0.1-0.2-0.1c-0.1-0.2-0.1-0.4-0.2-0.6c-0.3,0.5-0.8,0.8-1,1.4
			c-0.1,0.2-0.3,0.2-0.5,0c-0.3-0.2-0.5-0.5-0.7-0.8c-0.1-0.1-0.1-0.2-0.3-0.2c-0.1,0-0.1,0.2-0.1,0.3c0,0.1,0,0.2-0.1,0.2
			c0,0.1-0.1,0.3-0.3,0.3c-0.1,0-0.2-0.2-0.3-0.3c-0.3-0.5-0.4-1.2-0.6-1.9c-0.1,0.6-0.2,1-0.2,1.4c0,0.4-0.3,0.4-0.6,0.4
			c-0.3,0-0.3-0.2-0.3-0.4c-0.1-0.3-0.1-0.6-0.2-1c-0.1,0.5-0.2,0.9-0.2,1.3c0,0.2-0.1,0.4-0.3,0.4c-0.2,0-0.3-0.2-0.3-0.3
			c-0.2-0.4-0.3-0.2-0.4,0c-0.1,0.1-0.1,0.3-0.3,0.2c-0.1-0.1-0.1-0.2-0.2-0.3c0-0.5-0.1-0.9-0.2-1.4c0,0.8-0.7,0.9-1,1.4
			c-0.2,0.2-0.4,0-0.5-0.1c-0.2-0.2-0.3-0.2-0.5,0.1c-0.1,0.2-0.1,0.6-0.4,0.6c-0.4,0-0.5-0.3-0.7-0.6c0,0,0-0.1-0.1-0.1
			c-0.1,0.3-0.2,0.6-0.2,0.9c0,0.2-0.1,0.4-0.3,0.3c-0.2,0-0.2-0.2-0.2-0.3c-0.1-0.4-0.1-0.7-0.2-1.1c-0.1,0.1-0.1,0.2-0.2,0.3
			c-0.2,0.5-0.2,0.5-0.7,0.4c-0.1,0-0.2-0.1-0.3,0c-0.5,0.4-1,0.1-1.4-0.3c-0.3-0.2-0.4-0.1-0.4,0.2c-0.1,0.3-0.1,0.6-0.2,0.8
			c-0.2,0.3-0.3,0.4-0.5,0c-0.2-0.3-0.6-0.5-0.9-0.7c-0.1-0.1-0.2-0.1-0.3,0c-0.3,0.3-0.4,0.1-0.5-0.1c-0.1-0.2-0.2-0.5-0.3-0.7
			c-0.3,0.2-0.1,0.9-0.7,0.7c-0.3-0.1-0.9,0.1-0.8-0.6c-0.2,0.2-0.2,0.4-0.3,0.6c-0.1,0.3-0.2,0.4-0.5,0.2c-0.3-0.1-0.5-0.5-0.9-0.4
			c0,0,0,0,0,0c-0.2-0.5-0.5-0.5-0.8-0.1c0,0-0.1,0-0.1,0c-0.3-0.4-0.5,0-0.8,0.2c-0.3,0.2-0.6,0.2-0.8-0.3
			c-0.2,0.3-0.3,0.6-0.4,0.9c-0.2,0.4-0.4,0.4-0.7,0c-0.1-0.1-0.1-0.2-0.2-0.3c-0.2-0.2-0.3-0.3-0.5,0c-0.3,0.3-0.8,0.3-1.1,0.5
			c-0.1,0-0.2,0-0.2,0c-0.2-0.5-0.9-0.5-0.9-1.2c0-0.2,0-0.4-0.2-0.6c-0.3,0.1-0.3,0.3-0.3,0.6c0,0.2,0,0.4-0.1,0.6
			c0,0.2,0,0.4-0.2,0.4c-0.2,0-0.2-0.2-0.3-0.3c-0.2-0.4-0.4-0.1-0.6,0c-0.5,0.2-0.5,0.2-0.6-0.3c0-0.2-0.1-0.4-0.1-0.5
			c0-0.1,0-0.2-0.2-0.2c-0.1,0-0.2,0.1-0.2,0.2c-0.1,0.2-0.1,0.4-0.1,0.6c0,0.1-0.1,0.2-0.2,0.3c-0.1,0-0.1,0-0.1-0.1
			c0-0.4-0.6,0-0.7-0.5c0-0.3-0.1-0.6-0.2-0.9c-0.1,0.4-0.2,0.8-0.2,1.3c0,0.2,0,0.4-0.2,0.5c-0.2,0.1-0.3-0.2-0.4-0.2
			c-0.5,0-0.7-0.3-0.9-0.7c-0.2-0.2-0.5-0.2-0.7,0.2c-0.1,0.2-0.2,0.5-0.4,0.6c-0.3,0.2-0.4,0.2-0.5-0.2c-0.1-0.3-0.1-0.7-0.2-1
			c-0.3,0.2-0.3,0.5-0.4,0.7c0,0.1-0.1,0.3-0.2,0.3c-0.2,0.1-0.2-0.1-0.3-0.2c-0.1-0.1-0.1-0.2-0.3-0.1c-0.1,0.1-0.2,0.1-0.3,0.1
			c-0.5,0-0.7-0.2-0.8-0.9c-0.3,0.5-0.6,0.8-0.7,1.2c0,0.1-0.1,0.3-0.3,0.3c-0.2,0-0.2-0.2-0.3-0.3c-0.1-0.3-0.2-0.5-0.3-0.8
			c-0.2,0.1-0.2,0.3-0.3,0.5c-0.2,0.4-0.4,0.5-0.8,0.4c-0.6-0.2-1.2-0.3-1.8,0.1c-0.3,0.2-0.4,0-0.5-0.3c-0.1-0.3-0.1-0.6-0.2-0.9
			c-0.2,0.3-0.2,0.7-0.4,1c-0.1,0.1-0.1,0.3-0.2,0.3c-0.2,0-0.2-0.2-0.2-0.3c-0.1-0.3-0.1-0.5-0.4-0.5c-0.2,0-0.2-0.2-0.3-0.3
			c-0.2-0.4-0.6-0.4-0.9,0c-0.2,0.3-0.6,0.4-0.7,0.8c0,0.1-0.1,0.1-0.2,0.1c-0.1,0-0.1-0.1-0.2-0.1c-0.7,0.7-0.4-0.2-0.7-0.4
			c-0.1,0.1-0.2,0.3-0.5,0.2c-0.2,0-0.2,0.2-0.2,0.3c-0.2,0.4-0.3,0.4-0.6,0.1c-0.3-0.4-0.6-0.6-1.1-0.3c-0.3,0.2-0.6-0.1-0.7-0.3
			c-0.2-0.5-0.5-0.8-1-1c-0.1,0.3-0.1,0.7-0.2,1.1c0,0.2,0,0.4-0.3,0.4c-0.2,0-0.3-0.2-0.3-0.3c-0.2-0.4-0.3-0.8-0.5-1.3
			c-0.1,0.3-0.2,0.6-0.3,0.9c-0.1,0.3-0.3,0.5-0.6,0.5c-0.3,0-0.4-0.2-0.5-0.4c-0.1-0.2-0.2-0.5-0.3-0.8c-0.2,0.5-0.2,0.9-0.4,1.3
			c0,0.1-0.1,0.3-0.2,0.3c-0.1,0-0.1-0.2-0.2-0.3c-0.1-0.5-0.1-1.1-0.2-1.6c-0.1,0.5-0.1,1-0.2,1.5c0,0.2,0,0.4-0.2,0.4
			c-0.2,0.1-0.2-0.1-0.4-0.2c-0.1-0.1-0.2-0.1-0.2-0.2c-0.2-0.2-0.4-0.2-0.7-0.1c-0.7,0.3-0.7,0.3-1-0.4c-0.1-0.2-0.1-0.4-0.2-0.6
			c-0.1,0.4-0.1,0.7-0.2,1.1c0,0.2,0,0.4-0.2,0.4c-0.2,0-0.3-0.2-0.4-0.3c-0.3-0.3-0.7-0.6-0.7-1.3c-0.2,0.3-0.2,0.5-0.3,0.6
			c-0.1,0.3-0.2,0.5-0.4,0.6c-0.2,0.2-0.4,0.2-0.6-0.1c-0.2-0.3-0.3-0.5-0.7-0.4c-0.2,0-0.4-0.3-0.7-0.2c-0.3,0-0.4,0.1-0.5,0.3
			c-0.1,0.2-0.3,0.4-0.4,0.5c-0.1,0.1-0.2,0.2-0.3,0.1c-0.2-0.1-0.4-0.2-0.7,0c-0.2,0.1-0.3-0.1-0.4-0.3c-0.1-0.4-0.1-0.8-0.2-1.2
			c-0.2,0.4-0.1,0.7-0.2,1c-0.1,0.2-0.1,0.4-0.4,0.3c-0.2-0.1-0.2,0.1-0.3,0.2c-0.1,0.3-0.2,0.6-0.4,0.9c-0.1,0.3-0.3,0.4-0.6,0.1
			c-0.3-0.2-0.5-0.5-0.7-0.9c-0.1-0.2-0.2-0.2-0.3-0.1c-0.3,0.3-0.7,0.3-0.9,0.6c-0.1,0.1-0.2,0.1-0.3,0c-0.2-0.1-0.3-0.1-0.5,0
			c-0.2,0.2-0.4,0-0.6-0.2c-0.1-0.2-0.2-0.5-0.4-0.8c-0.1,0.4-0.1,0.7-0.2,1.1c-0.1,0.4-0.3,0.5-0.6,0.2c-0.3-0.3-0.5-0.7-0.6-1.1
			C19,53.2,19,53,18.7,53c-0.2,0-0.3,0.2-0.3,0.3c-0.1,0.2-0.2,0.3-0.3,0.5c-0.1,0.1-0.3,0.2-0.3,0.1c-0.3-0.3-1-0.1-1.1-0.7
			c-0.1,0.1-0.1,0.2-0.1,0.2c-0.1,0.2,0,0.5-0.3,0.6c-0.3,0.1-0.3-0.2-0.4-0.4c-0.1-0.2-0.2-0.2-0.3,0c-0.1,0.3-0.1,0.7-0.5,0.4
			c-0.1,0-0.1,0.2-0.2,0.3c-0.1,0.1-0.1,0.3-0.2,0.3c-0.2,0-0.2-0.2-0.3-0.3c-0.1-0.3-0.2-0.5-0.2-0.8c0-0.1,0-0.3-0.2-0.3
			c-0.1,0-0.2,0.1-0.2,0.2c-0.1,0.1-0.1,0.4-0.2,0.3c-0.2,0-0.2-0.3-0.2-0.4c-0.1-0.4-0.1-0.8-0.2-1.2c-0.2,0.3-0.3,0.6-0.4,0.8
			c-0.1,0.2-0.1,0.4-0.3,0.4c-0.2,0-0.5-0.1-0.6-0.3c-0.1-0.1-0.1-0.3-0.2-0.5c-0.3,0.2-0.6,0.5-0.9,0.1c-0.2-0.3-0.2-0.7-0.4-1.1
			c-0.1,0.5-0.2,0.9-0.3,1.3c0,0.2,0,0.4-0.3,0.4c-0.2,0-0.3-0.2-0.3-0.3c-0.1-0.3-0.2-0.2-0.4,0c-0.1,0.1-0.2,0.2-0.3,0.3
			c-0.4,0.3-0.7,0.2-0.9-0.2c-0.1-0.2-0.1-0.3-0.3-0.5c-0.2,0.7-0.8,1-1,1.5c-0.2,0.4-0.4,0-0.6-0.1c-0.1,0.6-0.4,0.8-0.9,1
			c-0.3,0.1-0.4,0-0.4-0.2c0-0.1,0-0.3-0.1-0.4c-0.1-0.6-0.4-0.7-0.9-0.4c-0.2,0.1-0.2,0-0.3-0.1c-0.1-0.2-0.1-0.5-0.2-0.7
			C3,53.4,3,53.6,2.9,53.7c-0.1,0.4-0.3,0.5-0.7,0.3c-0.3-0.2-0.5-0.4-0.7-0.7c-0.1-0.3-0.3-0.2-0.4,0c-0.1,0.1-0.1,0.2-0.2,0.4
			c-0.1,0.1-0.1,0.2-0.3,0.3c-0.4,0-0.8,0.2-1,0.5c0,0.1-0.1,0.1-0.2,0c0-7.4,0-14.7,0-22.1c0.2,0.2,0.2,0.5,0.2,0.7
			c0,1.5,0,3,0,4.5c0,1,0.1,2,0.1,2.9c0,0.1,0,0.1,0.1,0.2C0,40.7,0,40.6,0,40.5c0-0.9,0.2-1.8,0.2-2.7c0.1-1.3,0.2-2.5,0.4-3.8
			c0-0.5,0.1-0.9,0.1-1.4c0.1-1.2,0.2-2.4,0.2-3.7c0-1.1,0.1-2.2,0.2-3.3c0.1-1.7,0.2-3.3,0.5-5c0-0.1,0.1-0.3,0.2-0.4
			c0,0.1,0,0.3,0,0.4c0.1,1.8,0.1,3.5,0.1,5.3C2,27.5,2,28.9,2,30.3c0.1,0.9,0,1.7,0.1,2.7c0.3-0.3,0.1-0.7,0.4-1c0,0.5,0,0.9,0,1.3
			c0.1,0.6,0,1.1,0,1.7c0,0.2,0,0.4,0,0.5c0,0.2,0,0.5,0,0.7c0,0,0,0.1,0,0.1c-0.1,1,0.1,2,0.1,3c0,0.1,0,0.2,0,0.3
			c0-0.9,0.1-1.9,0.1-2.9c0-1-0.1-2,0-2.9c0-2.2,0.1-4.3,0.1-6.5c0.1-0.2,0.1-0.3,0-0.5c0-0.3,0-0.5,0-0.8c0.4-0.1,0.2,0.2,0.2,0.3
			c0,0.8,0,1.7,0,2.5c0,0.2,0,0.3,0,0.5c0,1.2,0.1,2.5,0.2,3.7c0-0.5,0-1,0-1.4c0-2.6,0.1-5.2,0.1-7.8c0-1.9,0-3.7,0.1-5.6
			c0.1-2.1,0-4.2,0.1-6.3c0.1-2.1,0-4.3,0.1-6.4c0.1-1.7,0-3.3,0.1-5c0-0.1,0-0.2,0.1-0.2c0.1,0.2,0.1,0.3,0.1,0.5
			c0,2.2,0,4.3,0,6.5c0.1,2.6,0,5.1,0.1,7.7c0.1,2,0,4,0.1,6c0.1,2,0,4.1,0.1,6.1c0.1,1.9,0,3.7,0.1,5.6c0.1,1.6,0,3.2,0.1,4.8
			c0.1,1.2,0.2,2.5,0.2,3.7C4.9,41.4,5,41.7,5,42c0,0,0.1,0,0.1,0c0-0.2,0-0.4,0-0.6c0-1,0-2,0-3c0.1-2.9,0-5.8,0.1-8.6
			c0-1.5,0-3,0.1-4.4c0.1-0.1,0.1-0.1,0.2,0c0,0.7,0,1.3,0,2c0.1,3.1,0.1,6.1,0.1,9.2c0,1.3,0,2.7,0.2,4c0-0.2,0-0.4,0-0.6
			c0.1-1.1,0.1-2.3,0.1-3.4c0-0.6,0.1-1.1,0.2-1.7c0.1,1.9,0.2,3.7,0.2,5.6c0.1-0.3,0.2-0.6,0.2-0.9c0-0.9,0-1.7,0-2.6
			c0.1-1.3,0-2.5,0.1-3.8c0-0.4,0.1-0.9,0.2-1.3c0,0.2,0,0.3,0,0.5c0.1,1.8,0.1,3.7,0.2,5.5c0.1,1.3,0.2,2.7,0.2,4
			c0,0.4,0.1,0.8,0.2,1.2c0-0.3,0-0.7,0-1c0-0.8,0-1.7,0-2.5c0.1-2.2,0-4.5,0.1-6.7c0.1-2.2,0-4.4,0.1-6.6c0-0.6,0.1-1.2,0.1-1.8
			c0.2,2.9,0.2,5.7,0.6,8.7c0.2-0.6,0.1-1.2,0.3-1.9c0.2,1.4,0.1,2.7,0.4,4c0.2-0.1,0.3-0.3,0.4-0.5c0.2-1.3,0.3-2.6,0.5-3.9
			c0.2,0.8,0.2,1.7,0.4,2.5c0.3-1.4,0.4-2.9,0.4-4.3c0-1.5,0.2-3,0.2-4.5c0-0.1,0-0.1,0-0.2c0.1,0,0.1,0.1,0.1,0.2
			c0,1,0.2,2,0.2,3.1c0,1.4,0.1,2.9,0.1,4.3c0,0.9,0.1,1.8,0.1,2.6c0,0.1,0,0.2,0.1,0.3c0.1-0.1,0.1-0.3,0.1-0.4c0-1.9,0-3.8,0-5.7
			c0-1.5,0.1-3,0.1-4.4c0.1-0.3,0-0.7,0-1c0-1.3,0-2.6,0-3.8c0-0.2,0-0.3,0-0.5l0,0c0.3,0,0.1,0.3,0.1,0.4c0,1,0,1.9,0,2.9
			c0,0.2,0,0.3,0,0.5c0,0.4,0,0.7,0,1.1c0.1,2.1,0,4.1,0.1,6.2c0,1.3,0,2.6,0.1,3.8c0.1,1.3,0,2.6,0.1,3.9c0.1,1.1,0,2.2,0.1,3.2
			c0,0.1,0,0.2,0.1,0.3c0.1-0.2,0.1-0.3,0.1-0.5c0-1.7,0.1-3.5,0.1-5.2c0-0.9,0-1.7,0.1-2.6c0,0,0-0.1,0-0.1c0-0.1,0-0.3,0.2-0.3
			c0.2,0,0.2,0.2,0.2,0.4c0,0.1,0,0.2,0,0.3c0,1.3,0.1,2.7,0.1,4c0,1.2,0.1,2.5,0.2,3.7c0.1,0.9,0.1,1.8,0.2,2.7
			c0,0.1,0.1,0.3,0.1,0.5c0.2-0.5,0.3-1,0.4-1.4c0-1.1,0.2-2.1,0.3-3.2c0,0.4,0.1,0.9,0.1,1.3c0.1,1,0.1,2,0.1,2.9
			c0,0.2,0.1,0.4,0.1,0.7c0,0.1,0,0.1,0.1,0.1c0.1,0,0.1,0,0.2-0.1c0-0.1,0.1-0.3,0.1-0.4c0.1-0.9,0.1-1.8,0.2-2.7
			c0.1-1.6,0.2-3.2,0.2-4.8c0-0.7,0.1-1.3,0.1-2c0.1,0.3,0.2,0.6,0.2,0.9c0,1.3,0.1,2.7,0.2,4c0,0.2,0.1,0.4,0.2,0.7
			c0.2-0.4,0.2-0.6,0.2-0.9c0-0.8,0-1.5,0-2.3c0.1-1.2,0-2.3,0.1-3.5c0.1-1,0-2,0.1-3c0.1-1.9,0.1-3.7,0.2-5.6c0-0.7,0-1.4,0.1-2.2
			c0.1,0.1,0.1,0.2,0.1,0.3c0,0.1,0,0.3,0,0.4c0,1.3,0.1,2.7,0.1,4c0.1,1.5,0.1,2.9,0.2,4.4c0,0.9,0.1,1.7,0.1,2.6
			c0,0.2,0.1,0.4,0.2,0.6c0-0.8,0-1.7,0-2.5c0.1-1.6,0-3.2,0.1-4.8c0-1.1,0-2.1,0.1-3.2c0-0.1,0-0.1,0-0.2c0.2,1.8,0.1,3.6,0.3,5.5
			c0-0.1,0-0.1,0-0.2c0.1-2.2,0-4.3,0.1-6.5c0.1-2.2,0-4.4,0.1-6.5c0.1-1.7,0-3.3,0.1-5c0.1-1.2,0-2.5,0.1-3.7
			c0.1-1.1,0.1-2.1,0.1-3.2c0-0.6,0.1-1.2,0.2-1.8c0,0.2,0,0.4,0,0.6c0,2,0,3.9,0,5.9c0.1,2.4,0,4.8,0.1,7.1c0.1,2.3,0,4.7,0.1,7
			c0.1,1.3,0,2.6,0.1,3.9c0.1,1.1,0,2.3,0.1,3.4c0.1,1.3,0,2.7,0.1,4c0,0.9,0.1,1.8,0.3,2.6c0.1,0.4,0.1,0.9,0.1,1.4
			c0,1.1,0.1,2.1,0.1,3.2c0,0.5,0,1,0.1,1.5c0.1-0.1,0-0.2,0-0.3c0-1.2,0-2.4,0-3.6c0.1-2.7,0-5.5,0.1-8.2c0.1-2.4,0-4.8,0.1-7.1
			c0-0.3,0.1-0.6,0.1-0.8c0.1,0.6,0.1,1.2,0.1,1.7c0,1.1,0.1,2.1,0.1,3.2c0.1,1.6,0.1,3.3,0.2,4.9c0.1,1.5,0.1,3,0.2,4.5
			c0.1,1.3,0.1,2.7,0.2,4c0-0.3,0.1-0.6,0.1-0.9c0-0.8,0.1-1.7,0.1-2.5c0-0.5,0.1-1.1,0.1-1.6c0-0.1,0-0.2,0.1-0.3
			c0.3-0.2,0.3-0.5,0.4-0.9c0.1-0.4,0.2-0.9,0.5-1.3c0.1,0.8,0.2,1.7,0.3,2.5c0,0,0,0,0.1,0c0-0.4,0.1-0.9,0.1-1.3
			c0-0.9,0-1.8,0-2.6c0.1-1.3,0.1-2.7,0.1-4c0-0.1,0-0.2,0.2-0.4c0,2.5,0.1,5,0.1,7.4c0,0,0,0.1,0,0.1c0,1.6,0.1,3.2,0.1,4.6
			c-0.2-1.1,0.2-2.5,0.1-3.8c0-0.5-0.1-1.1,0-1.7c0-2.2,0.1-4.4,0.1-6.7c0-1.3,0-2.6,0.1-3.9c0.1-1.1,0-2.3,0.1-3.4
			c0.1-1,0.1-2,0.1-2.9c0.1,0.1,0.1,0.2,0.1,0.3c0.1,2.1,0.1,4.3,0.1,6.4c0,0.9,0,1.7,0,2.6c0.1,2.6,0,5.2,0.1,7.8
			c0.1,1.4,0,2.8,0.1,4.2c0.2-1,0.1-2,0.3-3c0.2,1.3,0.1,2.5,0.3,3.8c0.1-0.2,0-0.4,0-0.6c0-1.4,0-2.8,0-4.2c0.1-3.7,0-7.4,0.1-11.1
			c0.1-3.6,0-7.1,0.1-10.7c0-1.8,0-3.6,0.1-5.4c0-0.1,0-0.1,0.1-0.2c0,0.6,0,1.2,0,1.7c0,1.4,0.1,2.8,0.1,4.2c0.1,1.4,0,2.8,0.1,4.2
			c0.1,2.3,0,4.7,0.1,7c0.1,2,0,4,0.1,6.1c0.1,2.4,0,4.7,0.1,7.1c0,1.3,0.1,2.5,0.2,3.8c0,0.2,0,0.5,0,0.8c0.2-0.1,0.2-0.2,0.2-0.4
			c0-0.3,0-0.6,0-1c0-1.2,0.1-2.3,0.1-3.5c0-0.6,0-1.2,0.1-1.7c0.2,0.1,0.1,0.3,0.3,0.4c0.2,0,0.1-0.3,0.3-0.4
			c0.1,1.3,0.2,2.5,0.3,3.8c0.1-0.3,0.2-0.6,0.2-0.8c0-0.7,0-1.5,0-2.2c0-0.9,0.1-1.9,0.1-2.8c0.1-0.6,0-1.2,0.1-1.8
			c0.2,0.6,0,1.2,0.2,1.7c0,0.2,0,0.4,0,0.6c0.1,0.5,0,1.1,0.2,1.6c0,0.1,0.1-0.1,0,0c-0.1,0.1-0.1-0.6,0-1c0-0.5,0-1,0-1.5
			c0.1-2,0-4,0.1-6.1c0.1-1.8,0-3.5,0.1-5.3c0-0.2,0.1-0.4,0.1-0.6c0,0.8,0.2,1.6,0.2,2.4c0.2,0,0.2-0.2,0.2-0.3c0-0.4,0-0.8,0-1.2
			c0-1.3,0.1-2.7,0.1-4c0-0.4,0.1-0.7,0.1-1c0,0,0.1,0,0.1,0c0,0.9,0,1.8,0,2.7c0.1,2.1,0.1,4.2,0.1,6.4c0,1.2,0,2.5,0.1,3.7
			c0,0.1,0,0.3,0.1,0.4c0.1-0.5,0.1-0.9,0.2-1.3c0.2,2,0.2,4,0.4,5.9c0.1-1,0.2-2.1,0.3-3.1c0.1,1.9,0.2,3.9,0.3,5.8
			c0.4-1.4,0.5-2.8,0.6-4.3c0.2-1.4,0.2-2.9,0.4-4.4c0,0.5,0,0.9,0,1.4c0,1.7,0.1,3.5,0.1,5.2c0,0.8,0.1,1.5,0.1,2.3
			c0-0.1,0-0.2,0-0.3c0-1,0-2.1,0-3.1c0.1-3.3,0-6.5,0.1-9.8c0.1-1.8,0-3.5,0.1-5.3c0.1-0.6,0-1.3,0.1-2c0.2,0.1,0.1,0.3,0.1,0.4
			c0,1.1,0,2.2,0,3.3c0,0.2,0,0.3,0,0.5c0.1,3.9,0.1,7.7,0.4,11.6c0.1-0.1,0.1-0.2,0.1-0.3c0-1.5,0.1-3,0.1-4.4c0-1.3,0-2.6,0.1-3.9
			c0-1.4,0.1-2.8,0.2-4.1c0-0.5,0-1,0.1-1.6c0.2,0.2,0.1,0.4,0.1,0.5c0,0.9,0,1.8,0,2.6c0.1,1.2,0,2.5,0.1,3.7c0.1,1,0,1.9,0.1,2.9
			c0.1,1.7,0.1,3.4,0.2,5c0,0.7,0,1.4,0.1,2.2c0,0.2,0,0.5,0.3,0.6c0.2,0,0.1,0.2,0.1,0.4c0.1,1.1,0.1,2.2,0.2,3.3c0,0,0,0.1,0,0.1
			c0.2-0.1,0.1-0.3,0.1-0.4c0-1.6,0-3.2,0-4.9c0.1-2.2,0-4.5,0.1-6.7c0.1-1.5,0-3.1,0.1-4.6c0-0.1,0-0.2,0-0.3
			c0.2,0.8,0.1,1.7,0.2,2.5c0.1,1.9,0.1,3.8,0.2,5.8c0,0.8,0,1.5,0.1,2.3c0,0.6,0.1,1.2,0.1,1.8c0.1-0.1,0.1-0.3,0.1-0.4
			c0.1-3.3,0-6.5,0.1-9.8c0-1.7,0-3.4,0.1-5.1c0.1-1.1,0-2.2,0-3.3c0-0.3,0-0.6,0-0.9c0.2,0.2,0.1,0.4,0.1,0.6c0,1.5,0,2.9,0,4.4
			c0,0.2,0,0.3,0,0.5c0,0.5,0,1.1,0,1.6c0.1,2.5,0,5.1,0.1,7.6c0,1.5,0.1,3.1,0.2,4.6c0,0.3,0,0.7,0,1c0,0.1,0,0.3,0.1,0.5
			c0.3-2.4,0.4-4.8,0.6-7.1c0.2,0.6,0.2,1.2,0.2,1.8c0,0.6,0.2,1.2,0.4,1.8c0.2-0.9,0.2-1.8,0.4-2.8c0.1,0.6,0.2,1.1,0.2,1.6
			c0,0.5,0.2,1.1,0.4,1.6c0-0.1,0-0.2,0-0.4c0-1.7,0.1-3.3,0.1-5c0-1.2,0-2.4,0.1-3.6c0-0.5,0.1-1.1,0.1-1.6
			c0.1,0.8,0.2,1.6,0.2,2.4c0.1,2.4,0.1,4.8,0.1,7.2c0.1,2,0,4,0.1,6c0,1.1,0,2.2,0.1,3.2c0.2-1,0.1-2,0.2-3c0.1-1,0-2,0.2-3
			c0.2,0.5,0,1.1,0.2,1.6c0.1,0.5,0,1.1,0.1,1.6c0.1,0,0.1,0,0.1-0.1c0-0.8,0.1-1.6,0.1-2.4c0-0.7,0.1-1.4,0.1-2.1
			c0,0.1,0.1,0.1,0.1,0.1c0,1.1,0.1,2.3,0.1,3.4c0,0.8,0.1,1.6,0.2,2.4c0-0.4,0-0.9,0-1.3c0-1,0-2,0-3c0.1-2.7,0-5.4,0.1-8.1
			c0.1-1.9,0-3.9,0.1-5.8c0-0.1,0-0.3,0.1-0.4c0.2,0.1,0.1,0.3,0.1,0.4c0,2.5,0,5,0,7.4c0.1,3,0,5.9,0.1,8.9c0,1.3,0,2.6,0.1,3.9
			c0,0.1,0,0.2,0,0.3c0.4-0.5,0.6-1.2,0.6-1.8c0-2.3,0.1-4.7,0.1-7c0-1.5,0-3,0.1-4.5c0-0.6,0.1-1.3,0.1-1.9
			c0.1,0.5,0.1,0.9,0.1,1.4c0.1,1,0.1,2,0.2,3c0.1,1.4,0,2.9,0.1,4.3c0.1,1.3,0,2.6,0.1,3.8c0.1,0.8,0.1,1.6,0.2,2.5
			c0-0.2,0-0.5,0-0.7c0.1-1.4,0.1-2.9,0.1-4.3c0.1-1.2,0-2.5,0.1-3.7c0-0.3,0.1-0.5,0.1-0.8c0,0.4,0.1,0.7,0.1,1.1
			c0,0.2-0.1,0.6,0.4,0.6c0.1,0,0.1,0.1,0.1,0.2c0,0.5,0.1,1,0.1,1.6c0,0.3,0.1,0.7,0.2,1c0-1.1,0-2.2,0-3.3c0.1-2.3,0-4.6,0.1-6.9
			c0.1-1.7,0-3.4,0.1-5.1c0-0.2,0-0.3,0.1-0.5c0.2,0.1,0.1,0.2,0.1,0.3c0,1.1,0,2.1,0,3.2c0.1,1.9,0.1,3.7,0.1,5.6
			c0,0.4,0.1,0.8,0.2,1.3c0-0.6,0-1.2,0-1.8c0-1.8,0.1-3.5,0.1-5.3c0-0.7,0.1-1.4,0.2-2.1c0,0.8,0,1.6,0,2.4
			c0.1,2.3,0.1,4.5,0.1,6.8c0,0.9,0,1.9,0.1,2.8c0,0.1,0,0.2,0.1,0.2c0-0.4,0.1-0.8,0.1-1.3c0-1.3,0-2.6,0-3.9
			c0.1-1.7,0-3.4,0.1-5.1c0-0.8,0-1.7,0.1-2.5c0-0.3,0-0.5,0.3-0.7c0.2,2.1,0.1,4.2,0.4,6.2c0-4.8,0.2-9.6,0.2-14.5
			c0.1-0.2,0-0.4,0-0.5c0-2.5,0-4.9,0-7.4c0-0.2,0-0.4,0-0.5c0-0.1,0-0.2,0-0.3c0.3,0.1,0.1,0.3,0.1,0.5c0,2,0,4.1,0,6.1
			c0,0.2,0,0.4,0,0.5c0,1.3,0,2.5,0,3.8c0.1,5.3,0,10.7,0.1,16c0,1.8,0,3.5,0.1,5.3c0,0.2,0,0.4,0.3,0.6c0.1-0.3,0.1-0.6,0.1-1
			c0-1.7,0-3.3,0-5c0-1.5,0.1-3.1,0.1-4.6c0.1-0.7,0-1.4,0-2.1c0-0.7,0-1.4,0-2.1c0-0.2-0.1-0.3,0.1-0.5c0.2,0.2,0.1,0.3,0.1,0.5
			c0,1.5,0,3,0,4.5c0,0.2,0,0.3,0,0.5c0,0.6,0,1.1,0,1.7c0.1,2.9,0.1,5.8,0.1,8.6c0,0.3,0.1,0.6,0.1,0.9c0.1-0.9,0.1-1.7,0.3-2.7
			c0.1,0.5,0.2,0.9,0.2,1.3c0.2-0.2,0.1-0.3,0.1-0.5c0-2.5,0-5,0-7.4c0-1.7,0-3.4,0.1-5c0.1-0.2,0-0.4,0-0.5c0-1.8,0-3.6,0-5.4
			c0-0.2,0-0.4,0-0.5c0-0.1,0-0.2,0-0.3c0.3,0.1,0.1,0.3,0.1,0.4c0,1.2,0,2.4,0,3.6c0,0.2,0,0.3,0,0.5c0,0.6,0,1.3,0,1.9
			c0.1,3.3,0.1,6.6,0.1,10c0,1,0,2,0.1,3c0,0.6,0.1,1.3,0.2,1.9c0.2,0,0.1-0.1,0.1-0.2c0-1.3,0.1-2.6,0.1-3.9c0.1-2.5,0.2-5,0.2-7.5
			c0-0.9,0-1.7,0.1-2.6c0.1-0.8,0-1.5,0-2.3c0-0.3-0.1-0.6,0-0.9c0-0.1,0-0.1,0-0.2c0.3,0.1,0.1,0.3,0.1,0.4c0,1.3,0,2.6,0,3.9
			c0,0.2,0,0.3,0,0.5c0,2.1,0.1,4.2,0.1,6.3c0,0,0,0,0,0c0,1.5,0.1,3,0.1,4.5c0,0.1,0,0.1,0,0.1c0-0.3,0-0.6,0-0.9
			c0-0.5-0.1-0.9,0.1-1.4l0,0c0.1-0.5,0-1.1,0.1-1.6c0-0.2,0-0.4,0-0.6c0-0.2,0-0.5,0-0.7c0.1-0.2,0-0.5,0-0.7c0-0.1,0-0.3,0.1-0.2
			l0,0c0.1,0.5,0,1,0,1.5c0,0.2,0,0.4,0,0.5c0,0.9,0.1,1.9,0.2,2.8c0-0.6,0-1.3,0-1.9c0.1-1.9,0-3.8,0.1-5.7c0.1-1.4,0-2.8,0.1-4.2
			c0-0.1,0-0.3,0.1-0.5c0.1,0.2,0.1,0.3,0.1,0.5c0,0.7,0,1.5,0,2.2c0.1,1.2,0,2.3,0.1,3.5c0.1,1.1,0,2.1,0.2,3.2
			c0.1,0.5,0.1,0.9,0.1,1.4c0,0.1,0,0.2,0.1,0.2c0.1,0,0.1-0.1,0.1-0.1c0-1.3,0.1-2.7,0.1-4c0-0.9,0.1-1.8,0.1-2.7c0,0,0.1,0,0.1,0
			c0,0.2,0,0.3,0,0.5c0.1,1.6,0.1,3.2,0.1,4.8c0.1,1.2,0,2.4,0.1,3.6c0,0.4,0.1,0.7,0.1,1.1c0.1-0.3,0.1-0.5,0.2-0.9
			c0.1,0.2,0.1,0.4,0.1,0.6c0,1.3,0.1,2.6,0.1,3.9c0,0.5,0.1,1,0.1,1.5c0.3-2.9,0.4-5.7,0.6-8.6c0,0.5,0.1,1,0.1,1.5c0,1,0,2,0,2.9
			c0.1,1.3,0,2.7,0.1,4c0,0.5,0.1,0.9,0.1,1.4c0.1,0,0.1,0,0.1-0.1c0-1.3,0.1-2.6,0.1-3.9c0-1.4,0.1-2.8,0.1-4.2
			c0-1.1,0.1-2.2,0.2-3.3c0.1-1,0.1-2,0.1-3c0-1,0-1.9,0-2.9c0.1-2.5,0-5,0.1-7.5c0.1-2.2,0-4.5,0.1-6.7c0-0.1,0-0.2,0.1-0.3
			c0.2,0.1,0.1,0.3,0.1,0.4c0,1.8,0,3.6,0,5.5c0,1.3,0,2.6,0,3.9c0.1,3.5,0,7,0.1,10.5c0.1,2.1,0,4.1,0.1,6.2c0,0.2,0,0.3,0.1,0.6
			c0.1-0.6,0-1.1,0.3-1.6c0.1,1.4,0.2,2.7,0.2,4c0.2,0,0.2-0.1,0.2-0.2c0-0.3,0-0.5,0-0.8c0-1.2,0.1-2.5,0.1-3.7
			c0-0.1,0-0.3,0.1-0.4c0.2,2.9,0.1,5.9,0.5,8.8c0,0,0.1,0,0.1,0c0-0.9,0-1.8,0-2.6c0.1-2.1,0-4.3,0.1-6.4c0.1-2,0-3.9,0.1-5.9
			c0-0.3,0-0.6,0.2-0.8c0,0.9,0,1.9,0,2.8c0.1,1.4,0.1,2.9,0.1,4.3c0,0.3,0.1,0.7,0.1,1c0-2.5,0.2-5,0.2-7.5
			c0.1-0.4-0.1-0.8,0.1-1.1c0.2,0.1,0.1,0.3,0.1,0.4c0,1.2,0,2.5,0,3.7c0,0.2,0,0.3,0,0.5c0,2.3,0.1,4.6,0.1,7
			c0.2-0.1,0.2-0.3,0.2-0.4c0-1.3,0-2.6,0-3.8c0.1-1.7,0-3.4,0.1-5.2c0-0.5,0.1-0.9,0.1-1.4c0.1,0.1,0.1,0.2,0.1,0.4
			c0,1.6,0.1,3.2,0.1,4.9c0,0.6,0.1,1.2,0.1,1.8c0.3-0.6,0.1-1.3,0.4-2c0.1,1.2,0.2,2.3,0.2,3.4c0.1-0.4,0.2-0.7,0.2-1.1
			c0-1.7,0-3.5,0.1-5.2c0.1-0.9,0-1.9,0.1-2.8c0.1-2,0.1-4.1,0.2-6.1c0-0.9,0-1.9,0.1-2.9c0.2,0.1,0.2,0.3,0.2,0.4
			c0,0.1,0,0.3,0.1,0.3c0.3,0.1,0.3,0.4,0.3,0.6c0,1.8,0.1,3.7,0.1,5.5c0,1.2,0,2.4,0.1,3.6c0,0.1,0,0.2,0.1,0.3
			c0.1-0.1,0.1-0.2,0.1-0.4c0-1,0-2,0-3c0.1-1.5,0.1-3,0.1-4.5c0.1-0.9,0-1.8,0-2.7c0-0.2,0-0.4,0.1-0.6c0.2,0.2,0.1,0.3,0.1,0.5
			c0,1.4,0,2.9,0,4.3c0,0.2,0,0.3,0,0.5c0,0.6,0,1.2,0,1.9c0.1,2.6,0.1,5.3,0.1,7.9c0,1.6,0.1,3.1,0.2,4.7c0,0.6,0,1.3,0.1,1.9
			c0,0.3,0.1,0.7,0.1,1.1c0.2-0.3,0.3-0.7,0.3-1c0.1-1,0.3-2,0.3-3.1c0.1-1.1,0.1-2.2,0.2-3.3c0.2,0.1,0.2,0.3,0.2,0.4
			c0,0.9,0.1,1.9,0.1,2.8c0,0.5,0,1,0.1,1.5c0.2-0.4,0.1-0.8,0.3-1.2c0.1,1,0.2,2.1,0.3,3.1c0.2,0,0.2-0.1,0.2-0.2
			c0-0.3,0.1-0.6,0.1-0.9c0-0.2,0-0.4,0.3-0.3c0.1,0,0.1-0.1,0.1-0.1c0-0.2,0.1-0.3,0.1-0.5c0-1.3,0.1-2.6,0.1-3.9
			c0-0.7,0.2-1.4,0.1-2.2c0.3,3.2,0.1,6.4,0.6,9.5c0-0.5,0.1-1,0.1-1.6c0-1.4,0-2.8,0-4.2c0.1-1.8,0-3.6,0.1-5.4
			c0-0.9,0-1.9,0.1-2.8c0.1,0.1,0.1,0.2,0.1,0.3c0,1.6,0.1,3.2,0.1,4.9c0,1,0,2,0.1,3c0,0.2-0.1,0.5,0.2,0.5c0.3,0,0.3-0.3,0.3-0.4
			c0.2-0.4,0.2-0.9,0.2-1.3c0-0.5,0.1-1.1,0.1-1.6c0-0.8,0.1-1.6,0.1-2.4c0-0.6,0.2-1.1,0.3-1.7c0,0,0,0,0.1-0.1c0,0.3,0,0.6,0,0.9
			c0,1.8,0.1,3.7,0.1,5.5c0,0.8,0,1.5,0.1,2.3c0.1,0.6,0.1,1.3,0.1,1.8c0,0.2,0.1,0.1,0.1,0.1c0,0,0,0,0,0c-0.1-0.3-0.1-0.7,0-1
			c0.1-0.4,0-0.8,0.1-1.1c0-0.1,0-0.2,0-0.3c0.1-0.1,0-0.3,0.2-0.2l0,0c0.1,0.3,0,0.6,0.1,0.9c0,0,0,0.1,0,0.1
			c0.2,0.2,0.1,0.5,0.1,0.7c0-0.2-0.1-0.5,0.1-0.7c0-1.7,0.1-3.3,0.1-5c0-1,0-2,0.1-3c0.1,0.2,0.1,0.3,0.1,0.5
			c0.1,1.7,0.1,3.4,0.1,5.1c0,0.9,0,1.8,0.1,2.7c0.1,0.9,0.1,1.8,0.2,2.7c0.1-0.4-0.2-0.9,0-1.3l0,0c0.1-0.5,0-1,0.1-1.4
			c0-0.2,0-0.3,0-0.5c0.1-0.1,0.1-0.1,0.2,0c0,0.1,0,0.1,0,0.2c0.1,0.6,0,1.2,0.1,1.7c0,1,0.1,2,0.1,3.1c0.2-0.1,0.2-0.2,0.2-0.3
			c0.1-1.6,0.2-3.1,0.2-4.7c0-2,0-3.9,0.1-5.9c0.1-1.7,0-3.4,0.1-5.1c0-0.3,0.1-0.7,0.1-1c0.1,0.1,0.1,0.3,0.1,0.4
			c0,1.1,0,2.1,0,3.2c0.1,1.5,0,3,0.1,4.5c0,0.9,0,1.7,0.1,2.6c0.2-0.9,0.2-1.9,0.3-2.8c0.3,0.1,0.3,0.3,0.3,0.5
			c0.1,1,0.1,2,0.3,3.1c0-0.4,0.1-0.8,0.1-1.2c0-2.6,0-5.3,0-7.9c0-1.7,0-3.4,0.1-5.1c0.1-0.2,0-0.5,0-0.7c0-1.5,0-3.1,0-4.6
			c0-0.2-0.1-0.3,0.1-0.5c0.2,0.1,0.1,0.2,0.1,0.3c0,0.9,0,1.8,0,2.7c0,0.2,0,0.3,0,0.5c0,0.5,0,0.9,0,1.4c0.1,0.3,0,0.7,0,1
			c0,1.6,0,3.2,0,4.8c0,0.2,0,0.3,0.1,0.5c0,1.3,0.1,2.5,0.1,3.8c0.1,1.8,0.2,3.6,0.2,5.4c0,0.1,0,0.2,0.1,0.3c0-1,0.2-1.9,0.2-2.8
			c0.2,0,0.2,0.1,0.2,0.2c0,1.1,0.1,2.3,0.1,3.4c0,0.6,0.1,1.3,0.1,1.9c0.3-0.8,0.3-1.6,0.4-2.4c0.1-0.8,0.1-1.6,0.2-2.5
			c0.2,0.7,0.1,1.5,0.6,2.1c0.5-3.3,0.5-6.6,0.6-10c0.2,0.2,0.1,0.3,0.1,0.4c0,1.1,0,2.2,0,3.3c0.1,1.6,0,3.2,0.1,4.8
			c0,0.7,0,1.5,0.2,2.2c0-0.8,0-1.7,0-2.5c0.1-1.9,0-3.7,0.1-5.6c0.1-1.6,0-3.1,0.1-4.7c0-0.2,0-0.3,0-0.5c0.1,0,0.1,0,0.1,0.1
			c0,0.7,0.1,1.4,0.1,2.1c0.1,1.1,0.1,2.3,0.1,3.4c0.1,1.1,0,2.3,0.1,3.4c0.1,1.3,0.1,2.5,0.1,3.8c0,0.3,0.2,0.6,0.1,0.9
			c0,0,0.1,0,0.1,0c0-0.5,0-1.1,0-1.6c0-1.9,0.1-3.8,0.1-5.8c0-1.4,0-2.8,0.1-4.2c0-0.6,0.1-1.3,0.3-1.9c0.2,0.5,0.3,0.9,0.3,1.4
			c0,1.4,0.1,2.8,0.1,4.1c0,1.3,0,2.7,0.1,4c0,0.7,0,1.4,0.1,2.1c0,0.1-0.1,0.3,0.1,0.4c0.2,0.1,0.3-0.1,0.4-0.3
			c0-0.1,0-0.2,0.2-0.2c0.2,1.2,0.4,2.5,0.5,3.7c0.1-0.1,0.1-0.2,0.1-0.3c0-1.5,0-3,0-4.5c0.1-2.4,0-4.8,0.1-7.1
			c0.1-1.8,0-3.6,0.1-5.4c0-0.2,0-0.3,0-0.5c0.2,0,0.2,0.1,0.2,0.2c0,1.3,0.1,2.7,0.1,4c0.1,1.9,0.1,3.7,0.2,5.6
			c0,0.8,0,1.7,0.1,2.5c0,0.6,0.1,1.1,0.1,1.7c0.2-0.5,0.1-1,0.3-1.6c0.1,0.9,0.1,1.8,0.4,2.6c0-0.9,0-1.8,0-2.8
			c0.1-2.8,0-5.5,0.1-8.3c0.1-2.4,0-4.8,0.1-7.1c0.1-1.7,0-3.3,0.1-5c0-0.7,0.1-1.3,0.2-2c0.1,0.1,0.1,0.2,0.1,0.2
			c0.1,2,0.1,3.9,0.1,5.9c0,0.8,0,1.7,0,2.5c0.1,2.5,0,5,0.1,7.5c0.1,1.5,0,3.1,0.1,4.6c0,0.1,0,0.3,0.1,0.4c0.1,0,0.1-0.1,0.1-0.2
			c0-0.3,0-0.6,0-0.9c0-1.2,0.1-2.3,0.2-3.5c0,0.6,0.1,1.2,0.1,1.7c0,0.9,0,1.8,0,2.6c0.1,1.5,0.1,2.9,0.1,4.4c0,0.5,0.1,1,0.1,1.5
			c0.1-0.3,0.1-0.7,0.1-1c0-0.8,0.1-1.6,0.1-2.4c0.1-4.2,0-8.4,0.1-12.5c0.1-2.4,0-4.9,0.1-7.3c0.1-0.2,0-0.4,0-0.5
			c0-2.8,0-5.7,0-8.5c0-0.2,0-0.4,0-0.5l0,0c0.3,0.1,0.1,0.3,0.1,0.5c0,1.9,0,3.8,0,5.7c0,0.2,0,0.4,0,0.5c0,0.9,0,1.9,0,2.8
			c0.1,5.1,0.1,10.1,0.1,15.2c0,1.2,0,2.4,0.1,3.5c0.1-0.3,0.1-0.7,0.3-1c0.2,1.3,0.1,2.6,0.4,3.8c0-0.5,0-1.1,0-1.6
			c0.1-1.2,0-2.5,0.1-3.7c0.1-1,0-2.1,0.1-3.1c0.1-1.9,0-3.9,0.1-5.8c0.1-2.2,0-4.4,0.1-6.6c0.1-2.3,0-4.7,0.1-7
			c0-0.1,0-0.3,0.1-0.4c0.1,0.1,0.1,0.2,0.1,0.3c0,1.3,0,2.5,0,3.8c0.1,2,0,3.9,0.1,5.9c0,1,0,2,0.1,3.1c0.3-1.6,0.3-3.2,0.6-4.8
			c0,0.7,0,1.3,0,2c0,0.5,0,1,0,1.6c0.1,2.9,0,5.8,0.1,8.7c0.1,2.5,0,5,0.1,7.5c0,1.2,0,2.4,0.1,3.6c0,0.7,0.1,1.3,0.2,2
			c0,0.1,0,0.1,0.1,0.3c0.3-1.7,0.1-3.3,0.6-4.8c0.2,1,0.2,2,0.4,3c0.2-0.2,0.3-0.4,0.3-0.7c0.1-1.2,0.3-2.4,0.3-3.7
			c0.1-1.5,0.2-3,0.2-4.5c0-0.3,0.1-0.6,0.1-0.9c0.5,2.2,0.3,4.5,0.6,6.6c0-0.2,0-0.4,0-0.6c0-1.9,0.1-3.8,0.1-5.8
			c0-1.3,0-2.7,0.1-4c0.1-1.8,0-3.7,0.1-5.5c0.1-1.3,0-2.6,0.1-3.8c0.1-0.7,0-1.3,0-2c0-0.9-0.1-1.8,0-2.8c0-0.6,0-1.1,0-1.7
			c0.3,0.1,0.1,0.3,0.1,0.4c0,0.7,0,1.5,0,2.2c0,0.2,0,0.3,0,0.5c0,0.7,0,1.5,0,2.2c0.1,3.8,0,7.6,0.1,11.4c0,2,0,3.9,0.1,5.9
			c0,0.1,0,0.2,0,0.3c0.1,0,0.1-0.1,0.1-0.2c0.2-1.5,0.2-3,0.2-4.5c0.1-1.3,0-2.7,0.1-4c0.1-1.3,0-2.5,0.1-3.8
			c0-0.5,0.1-0.9,0.1-1.4c0.1,0.5,0.1,1.1,0.2,1.7c0.1-0.2,0.1-0.3,0.1-0.4c0-1.2,0.2-2.4,0.1-3.6c0-0.2,0.1-0.4,0.1-0.7
			c0.1,0.1,0.1,0.3,0.1,0.4c0,1.5,0,3.1,0,4.6c0.1,2,0,3.9,0.1,5.9c0.1,1.2,0,2.5,0.1,3.7c0,0.1,0,0.2,0.1,0.3
			c0.2,0,0.1-0.2,0.1-0.3c0-0.9,0-1.8,0-2.6c0.1-1,0.1-2,0.1-3.1c0.1,0.1,0.1,0.2,0.1,0.3c0.1,2.3,0,4.6,0.1,6.8
			c0,1.2,0,2.4,0.1,3.6c0.1,0.3,0.2,0.6,0.1,1c-0.1,1.1-0.1,2.2,0,3.3c0,0.1,0,0.1,0,0.1c0.1-0.1,0-0.3,0-0.5c0-1.3,0-2.5,0.1-3.8
			c0.1-0.7,0-1.4,0-2.1c0-0.3-0.1-0.6,0-0.9c0-2.2,0.1-4.3,0.1-6.5c0.2,1,0.1,2,0.2,2.9c0.1,1.2,0.1,2.4,0.1,3.5
			c0.1,1.4,0.1,2.8,0.2,4.1c0,0.1,0,0.1,0,0.2c-0.1,0.8,0.1,1.6,0.2,2.2c0.1-1.7,0-3.6,0-5.5c0-0.1,0-0.2,0-0.3c0-0.7,0-1.5,0-2.2
			c0.1-3.5,0.1-7,0.1-10.5c0-1.9,0-3.7,0.1-5.6c0-0.1,0-0.1,0-0.2c0.1,0.1,0.1,0.2,0.1,0.3c0,1.7,0.1,3.5,0.1,5.2
			c0,1.4,0,2.7,0.1,4.1c0.1,0.8,0,1.7,0.1,2.5c0.1,1.5,0.1,3.1,0.2,4.7c0.2-0.2,0.2-0.4,0.2-0.6c0-0.8,0-1.7,0-2.5
			c0.1-1.4,0-2.7,0.1-4.1c0-0.7,0-1.3,0.1-2.1c0.2,0.6,0.1,1.2,0.3,1.8c0,0,0-0.1,0-0.1c0-1.6,0.1-3.1,0.1-4.7
			c0-0.7,0.1-1.5,0.1-2.2c0.1,0.1,0.1,0.2,0.1,0.3c0,2,0.1,4,0.1,6c0,1.6,0,3.2,0.1,4.9c0,0.8,0,1.6,0.1,2.4
			c0.1,1.7,0.2,3.3,0.3,5.1c0.2-0.3,0.3-0.6,0.4-0.8c0.3-1.6,0.4-3.2,0.5-4.9c0.1-0.8,0.1-1.6,0.3-2.4c0.1,0.3,0.1,0.5,0.1,0.8
			c0,0.8,0,1.6,0,2.4c0.1,1.4,0,2.7,0.1,4.1c0,0.8,0,1.5,0.1,2.3c0.2-2.1,0.2-4.1,0.3-6.2c0.2,0.9,0.1,1.8,0.2,2.8
			c0.1,1.6,0.1,3.1,0.1,4.7c0,0.4,0.1,0.7,0.1,1.1c0-0.1,0-0.3,0-0.4c0-1.3,0.1-2.6,0.1-3.8c0.1-1.3,0.1-2.6,0.2-3.9
			c0.1-1,0.1-1.9,0.2-2.9c0.1,0.1,0,0.3,0.1,0.4c0.1,1.3,0.1,2.5,0.1,3.8c0,0.7,0,1.5,0.1,2.2c0.2-0.1,0.2-0.2,0.2-0.4
			c0-0.9,0-1.9,0-2.8c0.1-1.4,0.1-2.9,0.1-4.3c0-0.5,0.1-0.9,0.2-1.4c0,0.3,0,0.7,0,1c0,1.9,0.1,3.8,0.1,5.7c0,0.4,0.1,0.7,0.2,1.1
			c0-0.1,0-0.3,0-0.4c0-2.2,0-4.5,0-6.7c0.1-2,0-3.9,0.1-5.9c0.1-0.2,0-0.4,0-0.5c0-2.2,0-4.3,0-6.5c0-0.2,0-0.4,0-0.5
			c0-0.1,0-0.2,0-0.3c0.3,0.1,0.1,0.3,0.1,0.5c0,1.7,0,3.5,0,5.2c0,0.2,0,0.4,0,0.5c0,0.6,0,1.2,0,1.8c-0.1,0.2-0.1,0.5,0,0.7
			c0,0.1,0,0.2,0,0.4c0.1,4.6,0.1,9.2,0.1,13.8c0,1.3,0,2.7,0.1,4c0.2-0.6,0.2-1.2,0.3-1.7c0.1-1.3,0.1-2.6,0.1-3.8
			c0.1-2,0.1-4.1,0.1-6.1c0.1-1.5,0-3,0.1-4.5c0-0.6,0.1-1.3,0.2-1.9c0-0.1,0-0.2,0.2-0.2c0,0.8,0,1.6,0,2.3c0.1,1.7,0,3.4,0.1,5.1
			c0.1,1.5,0,3,0.1,4.4c0,0.5,0.1,1,0.1,1.5c0-0.1,0-0.1,0-0.1c0-1.1,0.1-2.3,0.1-3.4c0.1-1.3,0.1-2.7,0.3-4
			c0.1-0.6,0.1-1.2,0.1-1.9c0-0.2,0-0.4,0.2-0.4c0.2,0,0.2,0.3,0.2,0.4c0,1.4,0.1,2.8,0.1,4.2c0,1.2,0,2.5,0.1,3.7
			c0.1,1.1,0,2.1,0.2,3.2c0.1,0.8,0.1,1.6,0.3,2.4c0,0.2,0.1,0.4,0.2,0.6c0.1-0.1,0.1-0.3,0.1-0.4c0.3-1.4,0.2-2.9,0.2-4.3
			c0.1-4.2,0-8.5,0.1-12.7c0-2.2,0-4.3,0.1-6.5c0.1-0.1,0.2-0.2,0.2,0c0,0.1,0,0.3,0,0.4c0,2.7,0,5.3,0,8c0,0.2,0,0.4,0,0.5
			c0,4.7,0.1,9.5,0.1,14.2c0.2-0.1,0.2-0.2,0.2-0.3c0-0.3,0-0.6,0-0.9c0-1.3,0.1-2.6,0.1-3.8c0-1.1,0.1-2.1,0.3-3.2
			c0-0.1,0-0.2,0-0.4c0.1-1.6,0.1-3.3,0.1-5c0.1-1.6,0-3.2,0.1-4.8c0-0.8,0-1.6,0.2-2.4c0,0.4,0,0.9,0,1.3c0.1,1.5,0.1,3.1,0.1,4.6
			c0,0.7,0,1.4,0.1,2.1c0.1-0.1,0.1-0.2,0.1-0.3c0.1-1.5,0.1-3,0.1-4.4c0-1,0-1.9,0.1-2.9c0,0,0-0.1,0.1-0.1c0,0.4,0.1,0.7,0.1,1.1
			c0,1.3,0,2.6,0,3.8c0,1.1,0.1,2.2,0.1,3.2c0.1,0.7,0,1.4,0,2.2c0,0.5,0,1,0.1,1.5c0,0.1,0.1,0,0,0c0,0,0,0,0,0
			c0-0.1,0-0.2,0.1-0.2c0,0,0-0.1,0-0.1c0.1-0.4,0-0.8,0.1-1.2c0-0.1,0-0.1,0-0.2c0.1-0.1,0.1-0.1,0.2,0c0,0.1,0,0.2,0,0.3
			c0.1,0.8,0,1.6,0,2.4c0,0.3-0.1,0.6,0,0.9c0,1.2,0.1,2.4,0.1,3.6c0.2-0.2,0.2-0.4,0.2-0.6c0-0.4,0-0.8,0-1.3
			c0-1.3,0.1-2.6,0.1-3.8c0-0.2,0.1-0.5,0.1-0.7c0.1,0.9,0.2,1.8,0.2,2.8c0,0.3,0.1,0.6,0.2,0.8c0.1,0.5,0.2,1,0.2,1.5
			c0.1,1.5,0.1,3,0.2,4.5c0,0.1,0,0.1,0.1,0.2c0-0.4,0.1-0.8,0.1-1.2c0.1-1,0.1-2.1,0.1-3.1c0.1-2.2,0-4.5,0.1-6.7
			c0.1-2.2,0-4.4,0.1-6.6c0.1-1.4,0-2.8,0.1-4.1c0.1,0,0.1,0.1,0.1,0.1c0,1.1,0.1,2.3,0.1,3.4c0,1.2,0.1,2.3,0.1,3.5
			c0,0.2,0.1,0.4,0.2,0.6c0.2,0.3,0.2,0.6,0.2,1c0,0.9,0,1.7,0,2.6c0.1,1.6,0,3.2,0.1,4.8c0.1,1.2,0,2.5,0.1,3.7
			c0,0.1,0,0.3,0.2,0.5c0-4.9,0.1-9.8,0.1-14.6c0.1-0.5,0-1.1,0.1-1.7c0.2,0.2,0.1,0.4,0.1,0.5c0,2,0,3.9,0,5.9c0,0.2,0,0.4,0,0.5
			c0,3,0.1,6.1,0.1,9.2c0.2-0.3,0.2-0.5,0.2-0.7c0-1.6,0-3.2,0-4.9c0.1-2.5,0-4.9,0.1-7.4c0-1.2,0-2.4,0.1-3.6
			c0-0.6,0.1-1.1,0.3-1.6c0,0.2,0,0.3,0,0.5c0.1,2,0,3.9,0.1,5.9c0.1,1.8,0,3.6,0.1,5.4c0.1,1.5,0,3,0.1,4.5c0,0.2-0.1,0.5,0.2,0.5
			c0.3,0.1,0.2-0.2,0.3-0.4c0-0.1,0.1-0.2,0.1-0.3c0.2,0.9,0.1,1.7,0.3,2.6c0.2-0.2,0.1-0.3,0.1-0.5c0-1.5,0-3,0-4.6
			c0-1.5,0.1-2.9,0.1-4.4c0.1-1.1,0-2.1,0-3.2c0-0.4,0-0.9,0-1.4c0.3,0.1,0.2,0.2,0.2,0.3c0,0.9,0,1.9,0,2.8c0,0.2,0,0.3,0,0.5
			c0,1.9,0.1,3.8,0.1,5.7c0.1,1,0,2,0.1,2.8c0-0.3-0.1-0.7,0.1-1l0,0C114.4,37.4,114.3,36.9,114.4,36.5z"/>
		<path fill="#11B2D3" d="M-0.4,58.5c0-1.3,0-2.6,0-3.8c0.3-0.3,0.7-0.7,1.2-0.7C1,54,1,53.8,1.1,53.6c0.1-0.2,0.1-0.5,0.3-0.5
			c0.3,0,0.3,0.2,0.4,0.4c0.2,0.4,0.5,0.4,0.8,0.6c0.1,0.1,0.2,0,0.3-0.1c0.1-0.1,0.1-0.3,0.3-0.2c0.1,0,0.2,0.2,0.2,0.3
			c0,0.1,0,0.3,0.1,0.4c0.2-0.3,0.2-0.7,0.7-0.5c0.2,0.1,0.3,0.1,0.3,0.4c0.1,0.4,0,0.7,0.3,1.1c0.2-0.2,0.4-0.4,0.7-0.4
			c0.2,0,0.3-0.1,0.3-0.3c0.1-0.3,0.2-0.4,0.5-0.1c0.2,0.2,0.2,0,0.3-0.1c0.1-0.6,0.6-0.9,0.9-1.3c0.2-0.2,0.3-0.2,0.4,0.1
			c0.2,0.5,0.6,0.6,1,0.2c0.4-0.4,0.4-0.4,0.7,0c0.2,0.3,0.3,0,0.4-0.1c0.1-0.2,0.1-0.4,0.1-0.6c0-0.2,0.1-0.4,0.2-0.6
			c0.2,0.1,0.2,0.3,0.2,0.5c0.2,0.4,0.4,0.5,0.8,0.3c0.2-0.1,0.3-0.1,0.4,0.1c0,0.1,0.1,0.1,0.1,0.2c0.1,0.3,0.4,0.3,0.7,0.4
			c0.2,0,0.2-0.3,0.3-0.4c0.1-0.2,0.1-0.5,0.3-0.5c0.3,0,0.2,0.4,0.3,0.6c0,0.4,0.2,0.8,0.2,1.3c0.2-0.3,0.2-0.6,0.3-0.8
			c0.1-0.1,0.1-0.3,0.2-0.3c0.2,0,0.2,0.2,0.2,0.3c0.1,0.5,0.3,0.9,0.5,1.4c0.2-0.1,0.1-0.3,0.2-0.5c0-0.1,0.1-0.3,0.2-0.2
			c0.4,0.2,0.4-0.1,0.5-0.3c0-0.2,0.1-0.4,0.3-0.4c0.2,0,0.3,0.2,0.3,0.4c0.1,0.1,0.1,0.3,0.2,0.4c0.1,0,0.1-0.1,0.1-0.2
			c0.1-0.3,0-0.9,0.6-0.4c0.1,0.1,0.5,0,0.7,0.2c0.1,0.1,0.2,0,0.4-0.1c0.1-0.1,0.2-0.3,0.3-0.5c0.1-0.2,0.2-0.4,0.4-0.3
			c0.2,0,0.3,0.2,0.4,0.4c0.2,0.6,0.5,1,1,1.5c0.2-0.3,0.2-0.7,0.3-1c0.1-0.1,0-0.3,0.2-0.4c0.2,0,0.2,0.2,0.2,0.3
			c0.1,0.4,0.3,0.7,0.8,0.4c0.5,0.3,0.7-0.1,1.1-0.3c0.2-0.1,0.4-0.1,0.5-0.3c0.1-0.2,0.3,0,0.3,0.1c0.2,0.3,0.4,0.6,0.6,0.8
			c0.3,0.3,0.4,0.2,0.6-0.1c0.1-0.2,0.1-0.4,0.2-0.6c0.2-0.4,0.2-0.4,0.7-0.3c0.1-0.3,0.1-0.5,0.2-0.8c0-0.1,0-0.2,0.1-0.2
			c0.1,0,0.1,0.1,0.2,0.2c0,0.1,0.1,0.1,0.1,0.2c0,0.4,0.1,0.7,0.6,0.4c0.1,0,0.1,0,0.2,0c0.3,0.3,0.5,0,0.7-0.1
			c0.3-0.3,0.5-0.8,1-0.6c0.5,0.2,1.2,0,1.4,0.7c0.1,0.2,0.2,0.2,0.3,0c0.2-0.2,0.5-0.4,0.6-0.7c0-0.1,0.1-0.2,0.2-0.2
			c0.1,0,0.2,0.1,0.2,0.2c0.1,0.5,0.7,0.6,0.9,1c0.1,0.1,0.2,0.1,0.2-0.1c0.1-0.2,0-0.5,0.1-0.7c0.1-0.1,0-0.3,0.2-0.4
			c0.2,0,0.2,0.2,0.3,0.3c0,0,0,0.1,0,0.1c0.2,0.5,0.2,0.5,0.7,0.3c0.5-0.2,0.7-0.2,1.1,0.3c0.1,0.1,0.2,0.3,0.3,0.4
			c0.2-0.4,0.1-0.8,0.2-1.1c0-0.1,0-0.2,0.2-0.2c0.1,0,0.1,0.1,0.1,0.2c0,0.4,0.2,0.8,0.2,1.2c0.2-0.5,0.3-0.9,0.4-1.4
			c0-0.2,0.1-0.3,0.2-0.3c0.2,0,0.2,0.2,0.3,0.3c0,0.1,0.1,0.2,0.1,0.3c0.1,0.2,0.1,0.4,0.4,0.4c0.3,0,0.5-0.2,0.6-0.5
			c0.1-0.2,0-0.5,0.3-0.5c0.3,0,0.2,0.3,0.3,0.5c0.1,0.2,0.2,0.4,0.2,0.6c0.1,0.1,0.2,0.2,0.3,0.2c0.1,0,0.2-0.1,0.2-0.3
			c0-0.2,0.1-0.4,0.1-0.5c0-0.2,0.1-0.6,0.2-0.5c0.3,0.1,0.7,0,0.8,0.5c0,0.3,0.2,0.5,0.4,0.6c0.2,0.1,0.3,0.2,0.5,0.1
			c0.4-0.2,0.7-0.2,1,0.2c0.3,0.4,0.4,0.4,0.6,0c0.2-0.4,0.5-0.1,0.8-0.3c0.2-0.1,0.2,0.2,0.3,0.4c0,0.1,0,0.2,0.1,0.4
			c0.2-0.2,0.1-0.7,0.6-0.4c0.1,0.1,0.2-0.1,0.2-0.2c0-0.6,0.6-0.7,0.9-1.2c0.1-0.2,0.6,0,0.7,0.3c0.1,0.3,0.2,0.5,0.5,0.6
			c0.3,0.1,0.2,0.5,0.4,0.8c0.2-0.3,0.3-0.6,0.4-0.9c0-0.1,0.1-0.2,0.2-0.3c0.1,0,0.1,0.2,0.2,0.2c0,0,0,0.1,0,0.1
			c0,0.2,0,0.5,0.2,0.6c0.2,0.1,0.3-0.2,0.4-0.2c0.5-0.1,1-0.3,1.6,0c0.5,0.2,0.6,0.2,0.9-0.3c0.1-0.1,0.1-0.3,0.3-0.3
			c0.2,0,0.2,0.2,0.2,0.3c0.1,0.3,0.2,0.5,0.4,0.8c0.3-0.3,0.3-0.8,0.6-1.1c0.1-0.1,0.2-0.3,0.4-0.3c0.2,0,0.2,0.2,0.2,0.4
			c0,0.1,0.1,0.2,0.1,0.3c0.6-0.3,1-0.2,1.3,0.4c0.1-0.3,0.2-0.5,0.3-0.8c0-0.2,0.1-0.3,0.3-0.3c0.2,0,0.2,0.2,0.2,0.3
			c0.1,0.3,0,0.7,0.3,0.9c0.3-0.2,0.5-0.5,0.7-0.9c0.1-0.2,0.2-0.3,0.4-0.3c0.2,0,0.4,0.2,0.5,0.4c0.1,0.1,0.1,0.3,0.1,0.4
			c0,0.1,0.1,0.2,0.2,0.1c0.4-0.4,0.5,0.1,0.7,0.3c0,0,0.1,0.1,0.1,0.1c0.1-0.3,0.2-0.6,0.2-1c0-0.1,0-0.3,0.2-0.3
			c0.2,0,0.2,0.2,0.2,0.3c0,0.2,0.1,0.4,0.2,0.5c0.5-0.4,0.5,0.2,0.6,0.5c0.1-0.5,0.2-0.9,0.3-1.3c0-0.1,0-0.3,0.2-0.3
			c0.2,0,0.2,0.2,0.2,0.3c0.1,0.4,0.1,0.8,0.3,1.3c0.1-0.4,0.4-0.6,0.8-0.5c0.5,0.1,0.3,0.6,0.5,0.9c0.1-0.4,0.2-0.8,0.2-1.2
			c0-0.2,0-0.4,0.1-0.5c0-0.1,0.1-0.2,0.2-0.2c0.1,0,0.2,0.1,0.2,0.2c0.1,0.3,0.1,0.5,0.2,0.8c0.1,0.2,0.1,0.3,0.3,0.2
			c0.1-0.1,0.2,0,0.3,0.1c0.1,0.4,0.4,0.3,0.6,0.2c0.3-0.2,0.8-0.1,1.1-0.5c0.1-0.1,0.3,0,0.4,0.1c0.1,0.1,0.1,0.3,0.2,0.4
			c0.2,0.2,0.4,0.3,0.5,0c0.1-0.1,0.1-0.2,0.2-0.3c0.1-0.3,0.2-0.6,0.6-0.3c0.2,0.1,0.5,0,0.7-0.3c0.2-0.2,0.3-0.2,0.4,0
			c0.2,0.3,0.2,0.1,0.3-0.1c0.3-0.4,0.3-0.4,0.6,0c0.1,0.1,0.1,0.3,0.2,0.2c0.4-0.2,0.6,0.2,0.9,0.3c0.3,0.1,0.4,0.2,0.4-0.2
			c0.1-0.3,0.2-0.5,0.5-0.1c0.2,0.2,0.4-0.1,0.7,0.1c0.3,0.2,0.4-0.1,0.5-0.3c0.1-0.3,0.3-0.2,0.4,0c0.1,0.2,0.2,0.5,0.4,0.7
			c0.4-0.4,0.9-0.3,1.3,0.3c0.1,0.1,0.1,0.4,0.3,0.4c0.2,0,0.3-0.3,0.3-0.5c0-0.1,0.1-0.2,0.1-0.3c0.2-0.7,0.2-0.6,0.8-0.3
			c0.3,0.2,0.7,0.5,1.1,0.1c0.1-0.2,0.4-0.1,0.6,0c0.2,0.1,0.4,0.2,0.5-0.2c0-0.1,0.1-0.2,0.2-0.2c0.1,0,0.1,0.1,0.1,0.2
			c0,0.2,0.1,0.4,0.1,0.6c0,0.1,0,0.2,0.1,0.2c0.1,0,0.2-0.1,0.3-0.2c0.1-0.2,0.1-0.4,0.2-0.6c0.1-0.3,0.2-0.4,0.4-0.1
			c0.1,0.1,0.1,0.2,0.3,0.3c0.3,0.2,0.5,0.1,0.6-0.3c0.2-0.6,0.2-0.6,0.7-0.2c0.1,0.1,0.3,0.2,0.4,0c0.2-0.4,0.5-0.4,0.7-0.7
			c0.2-0.2,0.3-0.2,0.3,0.1c0.1,0.2,0.1,0.5,0.1,0.7c0,0.3,0.1,0.5,0.1,0.8c0.1-0.2,0.2-0.5,0.2-0.7c0-0.1,0.1-0.3,0.2-0.3
			c0.2,0,0.2,0.1,0.3,0.2c0.1,0.1,0.1,0.4,0.3,0.3c0.2,0,0.2-0.2,0.2-0.4c0-0.1,0-0.3,0.1-0.4c0-0.1,0-0.3,0.2-0.3
			c0.1,0,0.2,0.2,0.2,0.3c0,0,0,0.1,0,0.1c0,0.2,0,0.5,0.2,0.4c0.2-0.1,0.6,0,0.6-0.5c0-0.2,0.1-0.4,0.1-0.6c0-0.1,0-0.2,0.2-0.2
			c0.1,0,0.2,0.1,0.2,0.2c0.1,0.5,0.3,0.9,0.5,1.3c0,0.1,0.1,0.1,0.2,0.2c0.2-0.2,0.1-0.4,0.2-0.6c0.1-0.4,0.3-0.4,0.5-0.1
			c0.2,0.2,0.4,0.4,0.6,0.6c0.4,0.3,0.5,0.3,0.7-0.2c0.1-0.3,0.2-0.4,0.5-0.5c0.5-0.3,0.5-0.3,0.7,0.3c0,0,0,0.1,0.1,0.2
			c0.1-0.5,0.6-0.3,0.8-0.7c0-0.1,0.2,0,0.2,0.1c0,0.1,0,0.2,0.1,0.2c0.1,0.2,0.2,0.6,0.4,0.6c0.3-0.1,0.6-0.3,0.7-0.7
			c0-0.1,0-0.1,0.1-0.2c0-0.1,0.1-0.2,0.2-0.2c0.2,0,0.1,0.2,0.2,0.2c0.1,0.1,0,0.2,0.1,0.3c0.1,0.6,0.3,0.7,0.8,0.6
			c0.7-0.1,0.7-0.2,0.8-0.9c0.1-0.4,0.1-0.7,0.1-1.1c0-0.2,0-0.4,0.2-0.4c0.2,0,0.1,0.2,0.1,0.4c0,0.4,0.1,0.9,0.1,1.3
			c0,0.1,0,0.3,0.1,0.3c0.1,0.1,0.2-0.1,0.3-0.2c0.2-0.3,0.4-0.2,0.5,0.1c0.1,0.2,0.2,0.2,0.4,0.1c0.5-0.2,1.1-0.4,1.6-0.5
			c0.4-0.1,0.5,0.2,0.6,0.4c0.2-0.1,0.1-0.5,0.3-0.4c0.4,0.1,0.2,0.5,0.4,0.8c0,0,0.1,0,0.1,0c0.2-0.2,0.2-0.7,0.5-0.7
			c0.4,0,0.8,0.1,1.2,0.4c0.4,0.3,0.7,0.6,0.8,1.1c0.3-0.3,0.2-0.6,0.3-0.9c0.2-0.6,0.6-0.8,1.1-0.3c0.2,0.2,0.3,0.1,0.4-0.1
			c0-0.1,0-0.4,0.2-0.4c0.2,0,0.2,0.3,0.2,0.5c0,0.2,0,0.4,0.1,0.6c0.1,0.2,0.1,0.2,0.3,0.1c0,0,0.1,0,0.1-0.1
			c0.7-0.2,0.7-0.4,0.9,0.4c0,0.1,0,0.1,0.1,0.2c0.2-0.2,0.3-0.5,0.4-0.7c0.2-0.3,0.4-0.6,0.9-0.4c0.4,0.1,0.9,0.1,1.2-0.4
			c0.2-0.4,0.4-0.3,0.5,0.1c0,0.1,0.1,0.3,0.2,0.4c0.2-0.1,0.2-0.3,0.3-0.4c0.1-0.2,0.3-0.3,0.5-0.1c0.2,0.2,0.3,0.1,0.4-0.1
			c0.2-0.3,0.3-0.3,0.5,0.1c0,0.1,0.1,0.2,0.1,0.3c0.1,0.2,0.1,0.2,0.3,0.1c0.4-0.3,0.5-0.3,0.7,0.2c0.1,0.3,0.2,0.6,0.4,0.8
			c0.2-0.4,0.2-0.8,0.3-1.3c0-0.1,0.1-0.3,0.1-0.4c0-0.1,0.1-0.2,0.2-0.2c0.1,0,0.2,0.1,0.2,0.3c0.1,0.4,0.1,0.8,0.3,1.2
			c0,0.1,0.1,0.2,0.2,0.2c0.2-0.4,0.1-0.9,0.2-1.3c0-0.1,0-0.2,0.2-0.3c0.2,0,0.2,0.1,0.3,0.2c0.1,0.1,0.1,0.3,0.2,0.4
			c0,0.1,0.1,0.2,0.2,0.2c0.4-0.3,0.4,0.1,0.6,0.3c0,0,0,0.1,0,0.1c0.3,0.6,0.3,0.6,0.7,0.2c0.1-0.1,0.3-0.1,0.3,0.1
			c0.2,0.4,0.4,0.2,0.5-0.1c0,0,0-0.1,0.1-0.1c0.3-0.6,0.4-0.7,1-0.2c0.1,0.1,0.2,0.2,0.3,0.1c0.3-0.2,0.4,0,0.5,0.3
			c0,0.2,0.1,0.3,0.3,0.3c0.2,0,0.2-0.2,0.3-0.3c0.1-0.4,0.1-0.7,0.3-1.1c0-0.1,0.1-0.3,0.3-0.3c0.2,0,0.2,0.2,0.3,0.3
			c0.1,0.3,0.1,0.5,0.2,0.8c0.1,0.2,0.1,0.4,0.3,0.4c0.2,0,0.3-0.2,0.4-0.4c0.1-0.2,0.2-0.3,0.4-0.4c0.3-0.2,0.5-0.2,0.6,0.2
			c0,0.1,0.1,0.2,0.2,0.3c0.3-0.2,0.3-0.6,0.5-0.8c0.1-0.2,0.1-0.4,0.4-0.4c0.2,0,0.3,0.2,0.3,0.4c0.1,0.3,0.3,0.4,0.5,0.2
			c0.4-0.4,0.8-0.1,1.2-0.2c0.2-0.1,0.2,0.3,0.2,0.4c0.2,0.4,0.2,0.4,0.6,0.1c0.4-0.3,0.7-0.3,1,0.1c0.2,0.3,0.3,0.2,0.5,0
			c0.1-0.2,0.2-0.4,0.3-0.6c0.2-0.2,0.4-0.3,0.5,0.1c0.1,0.4,0.3,0.5,0.6,0.3c0.3-0.2,0.5,0.1,0.6,0.3c0.3,0.4,0.3,0.4,0.6,0
			c0.1-0.1,0.1-0.2,0.2-0.2c0.1,0,0.1,0.1,0.2,0.2c0.1,0.2,0.1,0.4,0.2,0.7c0.2-0.2,0.3-0.4,0.4-0.6c0.1-0.2,0.2-0.4,0.4-0.5
			c0.4-0.2,0.6-0.1,0.9,0.5c0.2-0.1,0.2-0.4,0.4-0.3c0.2,0,0.3,0.2,0.5,0.4c0.2-0.2,0.3-0.5,0.7-0.4c0.4,0.1,0.5,0.3,0.6,0.7
			c0.1-0.4,0-0.7,0.2-0.9c0.1-0.1,0-0.3,0.2-0.2c0.1,0,0.2,0.1,0.2,0.2c0,0.3,0.1,0.6,0.3,0.6c0.3,0,0.3-0.4,0.4-0.6
			c0.1-0.3,0.2-0.7,0.5-0.7c0.4,0,0.3,0.5,0.4,0.7c0.1,0.3,0.7,0.7,0.9,0.6c0.1,0,0.2-0.1,0.2,0c0.2,0.2,0.3,0,0.4-0.2
			c0-0.1,0.1-0.2,0.1-0.3c0.1-0.3,0.3-0.3,0.5,0c0,0.1,0,0,0,0c0.1,0.2,0.1,0.5,0.4,0.5c0.3,0,0.2-0.4,0.3-0.6
			c0.1-0.2,0.2-0.3,0.3-0.1c0.2,0.2,0.6,0.3,0.7,0.7c0,0.2,0.2,0.3,0.4,0.1c0.3-0.2,0.5-0.4,0.9-0.3c0.2,0.1,0.3-0.2,0.4-0.4
			c0.3-0.5,0.7-0.5,1.1-0.1c0.3,0.3,0.7,0.4,1,0.6c0.1,0.1,0.3,0,0.4-0.2c0-0.1,0.1-0.2,0.1-0.3c0.3-0.7,0.3-0.7,0.8-0.1
			c0.2-0.3,0.2-0.6,0.3-0.9c0.1-0.1,0.1-0.2,0.2-0.2c0.1,0,0.1,0.1,0.2,0.2c0.1,0.3,0.1,0.7,0.2,1c0,0.2,0.1,0.4,0.3,0.4
			c0.2,0.1,0.2-0.2,0.3-0.3c0.1-0.2,0.2-0.3,0.5-0.1c0.3,0.1,0.5,0.2,0.7-0.1c0.2-0.2,0.3-0.1,0.4,0.1c0.1,0.2,0.2,0.3,0.5,0.3
			c0.2,0,0.4,0.1,0.4,0.4c0,0.2,0.1,0.3,0.2,0.5c0.3-0.2,0.3-0.4,0.4-0.6c0.1-0.3,0.3-0.4,0.5-0.1c0.1-0.4,0.2-0.7,0.2-1.1
			c0-0.1,0-0.2,0-0.3c0-0.1,0.1-0.3,0.2-0.3c0.2,0,0.2,0.2,0.2,0.3c0,0.6,0.2,1.1,0.1,1.8c0.1-0.2,0.1-0.4,0.2-0.6
			c0.1-0.1,0.1-0.3,0.3-0.3c0.2,0,0.2,0.2,0.2,0.3c0,0.4,0.2,0.7,0.2,1.1c0.1-0.1,0.1-0.3,0.2-0.4c0.1-0.1,0.1-0.2,0.3-0.2
			c0.4,0.3,0.5,0,0.7-0.2c0.2-0.2,0.4-0.3,0.7-0.2c0.3,0.1,0.4,0.1,0.5-0.3c0-0.3,0.1-0.5,0.5-0.4c0.2,0.1,0.5-0.1,0.8,0.2
			c0.1,0.1,0.2,0,0.3-0.2c0.1-0.1,0.2-0.3,0.3-0.2c0.2,0,0.2,0.2,0.3,0.4c0.1,0.3,0,0.7,0.3,1c0.1,0,0.2-0.2,0.3-0.3
			c0.3-0.4,0.3-0.4,0.7,0c0.2,0.2,0.3,0.2,0.4-0.1c0-0.1,0-0.1,0.1-0.2c0.1-0.1,0-0.3,0.2-0.4c0.2-0.1,0.2,0.2,0.3,0.3
			c0,0,0,0,0.1-0.1c0.1-0.2,0-0.5,0.3-0.6c0.2,0,0.2,0.3,0.3,0.4c0.1,0.1,0.1,0.3,0.3,0.3c0.2,0,0.3-0.2,0.3-0.3
			c0-0.1,0.1-0.2,0.1-0.2c0-0.1,0-0.3,0.2-0.3c0.2,0,0.2,0.2,0.2,0.3c0,0.3,0.1,0.6,0.1,0.9c0,0.2,0.1,0.4,0.3,0.5
			c0.2,0.1,0.2-0.2,0.3-0.3c0.2-0.2,0.3-0.2,0.4,0.1c0.1,0.1,0.1,0.4,0.3,0.3c0.2,0,0.2-0.2,0.3-0.4c0.1-0.2,0.1-0.4,0.2-0.6
			c0.1-0.1,0.1-0.3,0.3-0.3c0.1,0,0.2,0.2,0.2,0.3c0,0.2,0.1,0.3,0.1,0.5c0.7,0,0.8-0.5,0.9-1.1c0.4,0.3,0.3,0.9,0.7,1.2
			c0.2-0.3,0.1-0.7,0.2-1c0-0.1,0-0.3,0.2-0.3c0.1,0,0.2,0.1,0.2,0.3c0,0.2,0.1,0.3,0.3,0.4c0.3,0.2,0.5,0.1,0.5-0.2
			c0-0.2,0.1-0.5,0.3-0.5c0.3,0,0.7-0.2,0.8,0.4c0,0.1,0.1,0.2,0.1,0.1c0.5-0.3,0.7,0.4,1.1,0.3c0.3-0.1,0.3,0.3,0.3,0.5
			c0.1,0.1,0.1,0.4,0.3,0.4c0.2,0,0.2-0.2,0.2-0.4c0.1-0.3,0.1-0.7,0.2-1c0-0.1,0.1-0.3,0.2-0.3c0.2,0,0.3,0.2,0.3,0.3
			c0,0.2,0.1,0.4,0.1,0.6c0,0.1,0.1,0.2,0.2,0.2c0.2,0,0.2-0.1,0.2-0.2c0.1-0.3,0.2-0.5,0.5-0.2c0.1,0.1,0.1,0,0.2-0.1
			c0.1-0.1,0.1-0.3,0.2-0.4c0.3-0.4,0.5-0.3,0.7,0.1c0.1,0.1,0,0.3,0.2,0.3c0.2,0,0.3-0.2,0.3-0.3c0.1-0.3,0.1-0.6,0.3-0.8
			c0.1-0.1,0.1-0.3,0.3-0.3c0.2,0,0.3,0.2,0.3,0.3c0.1,0.4,0.3,0.8,0.4,1.1c0.1,0.2,0.1,0.5,0.5,0.5c0.2,0,0.5,0.2,0.6-0.2
			c0.1-0.2,0.2-0.1,0.3,0c0.1,0.1,0.1,0.2,0.1,0.3c0,0.1,0,0.3,0.2,0.3c0.1,0,0.2-0.1,0.3-0.2c0-0.1,0.1-0.3,0.1-0.4
			c0.1-0.3,0.1-0.5,0.5-0.4c0.1,0,0.2-0.1,0.3-0.2c0.2-0.2,0.4-0.2,0.5,0.1c0,0.1,0.1,0.2,0.1,0.3c0.1,0.1,0.1,0.2,0.3,0.2
			c0.1,0,0.1-0.1,0.2-0.2c0.1-0.3,0.2-0.5,0.5-0.2c0.1,0.1,0.2,0,0.2,0c0.4-0.2,0.5,0,0.6,0.3c0,0.2,0,0.4,0.1,0.5
			c0.1,0.1,0,0.3,0.2,0.3c0.1,0,0.2-0.1,0.3-0.2c0.1-0.1,0.1-0.3,0.3-0.3c0.2,0,0.1,0.2,0.2,0.3c0,1.6,0,3.1,0,4.7
			c-0.1,0.2-0.2,0.2-0.4,0.1c-0.5-0.1-0.9-0.2-1.3,0.2c-0.1,0.1-0.3,0-0.4-0.1c-0.3-0.2-0.6-0.3-0.9,0c0,0-0.1,0.1-0.1,0
			c-0.4-0.2-0.7,0-1.1,0c-0.3,0-0.7-0.1-1,0c-0.1,0-0.1,0-0.2,0c-0.5-0.6-1.1-0.3-1.6-0.2c-0.4,0.1-0.8,0.2-1.3,0
			c-0.4-0.1-0.8,0.1-1.2,0c-0.7-0.1-1.4,0.1-2.1-0.2c-0.3-0.1-0.5,0.1-0.8,0.2c-0.1,0.1-0.2,0.2-0.3,0.2c-0.6-0.4-1.2,0.1-1.8-0.3
			c-0.4-0.2-0.9,0-1.3,0.2c-0.2,0.1-0.4,0.1-0.7,0c-0.5-0.1-1.1-0.2-1.6-0.1c-0.5,0.1-0.9,0.2-1.4,0c-0.2-0.1-0.4-0.1-0.5,0
			c-0.3,0.2-0.5,0.2-0.7-0.1c-0.2-0.2-0.3-0.2-0.5-0.1c-0.3,0.2-0.6,0.2-1,0.1c-0.4-0.1-0.8,0-1.2,0.1c-0.1,0-0.3,0.1-0.3,0
			c-0.4-0.6-1,0-1.4-0.1c-0.6-0.2-1.2-0.1-1.7,0.1c-0.6,0.2-1.1-0.2-1.6,0.1c-0.2,0.1-0.5,0-0.6-0.2c-0.1-0.3-0.1,0.1-0.1-0.3
			c0,0.3,0.1-0.2,0,0.1c-0.2,0.2-0.3,0-0.5,0c-0.2,0-0.4-0.1-0.5,0c-0.4,0.3-0.5,0.1-0.6-0.3c0,0,0-0.1-0.1-0.1
			c-0.3,0.4-0.6,0.6-1,0.8c-0.3,0.3-0.6,0-1-0.1c-0.1,0-0.2-0.2-0.3-0.2c-0.6,0.4-1.2-0.2-1.8,0.3c-0.1,0.1-0.2,0.1-0.3,0
			c-0.3-0.3-0.5-0.1-0.9,0c-0.6,0.2-1.2,0.3-1.8-0.2c-0.2-0.1-0.3-0.1-0.5,0.1c-0.2,0.2-0.4,0.2-0.6,0.2c-0.4,0-0.8-0.1-1.3,0
			c-0.1,0.1-0.3,0-0.4-0.1c-0.2-0.3-0.4-0.2-0.6-0.1c-0.3,0.2-0.7-0.1-1,0c-0.1,0-0.2-0.1-0.3-0.1c-0.4,0.2-0.7,0-0.9-0.4
			c-0.2,0.1-0.3,0.5-0.5,0.5c-0.5,0-0.9,0.3-1.3,0.2c-0.5-0.2-0.8-0.2-1.3,0c-0.4,0.2-0.8,0.2-1.2,0.1c-0.5-0.1-0.9-0.4-1.4,0
			c-0.4-0.4-1,0.1-1.4-0.3c-0.7,0.3-1.4,0.1-2.1-0.2c-0.2-0.1-0.6,0.2-0.9,0.3c-0.2,0-0.4,0.1-0.5,0c-0.3-0.3-0.6-0.2-0.9-0.1
			c-0.2,0.1-0.4,0.1-0.6,0.1c-0.4-0.1-0.7,0-1,0.1c-0.3,0.1-0.8,0.1-1.1-0.1c-0.2-0.1-0.3-0.1-0.5-0.1c-0.4,0.1-0.9,0.3-1.3,0.1
			c-0.5-0.2-1.1-0.1-1.7-0.1c-0.3,0-0.6-0.1-0.7-0.5c-0.2,0.3-0.1,0.7-0.6,0.7c-0.4,0-0.6-0.4-0.8-0.8c-0.1,0.6-0.5,0.7-1,0.7
			c-0.3,0-0.7,0-1.1,0.1c-0.3,0.1-0.6-0.1-1,0c-0.2,0-0.3-0.2-0.4-0.4c-0.1-0.2-0.2-0.3-0.4-0.1c-0.2,0.2-0.3,0.3-0.6,0.2
			c-0.2-0.1-0.4,0.1-0.5,0.3c-0.2,0.2-0.4,0.2-0.6,0c-0.2-0.2-0.3-0.4-0.6-0.2c-0.2,0.1-0.4-0.1-0.6-0.1c-0.3,0-0.5,0-0.7,0.2
			c-0.2,0.2-0.5,0.1-0.7-0.1c-0.2-0.2-0.4-0.3-0.7,0c-0.1,0.1-0.3,0.2-0.5,0.1c-0.2-0.1-0.4-0.1-0.6,0c-0.1,0-0.1,0.1-0.2,0
			c-0.5-0.4-1,0-1.5-0.1c-0.4-0.1-0.8-0.1-1.2,0c-0.2,0.1-0.4,0.2-0.7,0.2c-0.3,0.1-0.7,0.2-1-0.1c0,0-0.1-0.1-0.2-0.1
			c-0.4,0.2-0.7,0.1-0.9-0.2c-0.1-0.1-0.2,0-0.3,0.1c-0.5,0.4-0.7,0.4-1.2,0c-0.2-0.2-0.4-0.2-0.7-0.1c-0.3,0.1-0.6,0-0.9,0
			c-0.5,0-0.9,0.2-1.4-0.1c-0.3,0.3-0.7,0.1-1,0.3c-0.1,0.1-0.2,0.1-0.3,0c-0.3-0.2-0.5-0.2-0.8-0.1c-0.2,0.1-0.3-0.1-0.4-0.2
			c-0.1-0.2-0.1-0.5-0.2-0.7c-0.1,0.2-0.1,0.4-0.1,0.6c-0.1,0.3-0.3,0.4-0.5,0.4c-0.9,0-1.7-0.2-2.6,0c-0.1,0-0.3,0-0.4-0.1
			c-0.2-0.1-0.4-0.1-0.6,0.1c-0.1,0.1-0.2,0.2-0.3,0.1c-0.4-0.2-0.8-0.3-1.3-0.3c-0.2,0-0.3-0.1-0.5,0.1c-0.6,0.4-1.2,0.1-1.8,0.1
			c-0.1,0-0.2-0.1-0.3,0c-0.6,0.2-1.1,0.4-1.7,0.1c-0.2-0.1-0.4,0.1-0.7,0.1c-0.1,0-0.3,0-0.4,0c-0.4,0-0.8-0.3-1.2,0.1c0,0,0,0,0,0
			c-0.4-0.6-1-0.1-1.4-0.5c-0.1-0.1-0.2-0.1-0.3,0.1c-0.1,0.2-0.4,0.3-0.6,0.2c-0.2-0.1-0.3,0-0.5,0c-0.2,0.1-0.4,0.1-0.6,0
			c-0.5-0.1-0.9-0.2-1.3,0.2c-0.3,0.3-0.7,0-1-0.1c-0.3-0.1-0.5-0.2-0.7,0.1c-0.2,0.2-0.4,0.1-0.5,0c-0.4-0.4-1-0.1-1.4-0.4
			c0,0-0.1,0-0.2,0.1c-0.3,0.3-0.6,0.3-0.9,0.1c-0.2-0.2-0.4,0-0.5,0.1c-0.2,0.2-0.5,0.2-0.8,0.1c-0.4-0.2-0.8-0.2-1.2,0
			c-0.3,0.2-0.5,0.1-0.7-0.1c-0.3-0.3-0.6-0.3-0.9-0.2c-0.4,0.1-0.7,0.1-1.1,0.2c-0.5,0.1-0.9-0.1-1.4,0.1c-0.2,0.1-0.3,0-0.4-0.2
			c-0.1-0.1-0.1-0.3-0.2-0.5c-0.2,0.2-0.4,0.3-0.6,0.5c-0.4,0.3-0.7,0.3-1.2,0.1c-0.4-0.2-0.9-0.1-1.3,0.1c-0.3,0.1-0.5,0.2-0.7-0.1
			c-0.2-0.2-0.6-0.2-0.9,0c-0.4,0.3-0.9,0.3-1.3,0.1c-0.4-0.2-0.9-0.3-1.3-0.3c-0.2,0-0.6,0-0.9,0.2c-0.2,0.2-0.4,0.2-0.5,0.1
			c-0.3-0.2-0.7-0.3-1-0.2c-0.1,0-0.2,0-0.3-0.1c-0.3-0.3-0.7-0.2-0.9-0.1c-0.5,0.2-1,0.2-1.5,0.1c-0.2,0-0.4-0.1-0.6-0.2
			c-0.2-0.1-0.4,0-0.5,0.1c-0.4,0.3-0.9,0.4-1.4,0c-0.1-0.1-0.2-0.1-0.3-0.1c-0.3,0.3-0.8,0.1-1.1,0.2c-0.1,0-0.2,0.1-0.4,0.1
			c-0.2-0.1-0.3-0.2-0.5-0.4c-0.1,0.2-0.1,0.4-0.2,0.6c-0.1,0.3-0.3,0.3-0.4,0.1c-0.2-0.2-0.4-0.3-0.7-0.4c-0.3-0.1-0.2-0.4-0.4-0.7
			c-0.1,0.6-0.5,0.8-1,0.8c-0.1,0-0.2,0-0.3-0.1c-0.5-0.5-1.1-0.3-1.6-0.1c-0.3,0.1-0.6,0.1-0.8,0.2c-0.1,0.1-0.2-0.1-0.3-0.2
			c-0.1-0.2-0.1-0.3-0.2-0.5c-0.2,0.2-0.3,0.3-0.5,0.5c-0.3,0.2-0.5,0.3-0.8,0.1c-0.1-0.1-0.3-0.1-0.4,0c-0.3,0.2-0.6,0.2-0.9,0.1
			c-0.3-0.1-0.5-0.2-0.8,0c0,0-0.1,0-0.1,0c-0.4-0.4-0.9,0-1.4-0.2c-0.1,0-0.2,0-0.3,0c-0.2,0.3-0.5,0.2-0.7,0.1
			c-0.3-0.2-0.7-0.3-1.1-0.2c-0.1,0-0.2-0.1-0.3-0.1c-0.1-0.1-0.3-0.1-0.4-0.1c-0.5,0.3-1.1,0.2-1.6,0.3c-0.1,0-0.3,0-0.4-0.1
			c-0.1-0.1-0.3-0.1-0.4-0.1c-0.5,0.3-1.1,0.2-1.6,0.3c-0.1,0-0.1,0-0.2,0c-0.3-0.4-0.7-0.2-1.1-0.2c0,0-0.1,0-0.1,0
			c-0.6-0.3-1.1,0-1.7,0.1c-0.2,0-0.4,0.1-0.5,0c-0.4-0.4-0.8-0.2-1.2-0.2c-0.1,0-0.2,0-0.2,0c-0.3-0.2-0.6-0.1-0.9,0.1
			c-0.2,0.1-0.3,0.2-0.5,0c-0.3-0.2-0.5-0.2-0.8-0.1c-0.5,0.1-1.1,0.2-1.6,0c0,0-0.1,0-0.1,0c-0.6,0.2-1.2,0-1.8,0.1
			c-0.6,0.1-1.1,0-1.6,0.1c-0.5,0.1-0.9,0-1.2-0.3c0,0-0.1-0.1-0.1,0c-0.4,0.4-1,0-1.5,0.3c-0.4,0.2-0.8,0.1-1.2,0.1
			c-0.4,0-0.8,0-1.2,0.1c-0.4,0-0.8-0.2-1.1-0.4c-0.2-0.2-0.3-0.2-0.4,0c-0.3,0.5-0.6,0.5-1,0.3c-0.4-0.3-0.8-0.2-1.2,0
			c-0.3,0.2-0.6,0.2-1,0c-0.1,0-0.1-0.1-0.2-0.1c-1,0.2-2-0.1-3.1,0.2c-0.1,0-0.2,0.1-0.3,0c-0.3-0.2-0.6-0.2-1,0.1
			c-0.2,0.1-0.3,0-0.5-0.1c-0.3-0.2-0.6-0.3-1-0.1c-0.2,0.1-0.3,0.1-0.5,0c-0.3-0.2-0.7,0-1.1,0C-0.2,58.5-0.3,58.6-0.4,58.5z"/>
		<path fill="#26528C" d="M179.6,53.8c-0.1-0.1-0.1-0.2-0.2-0.3c-0.2,0.1-0.2,0.3-0.3,0.4c-0.3,0.3-0.5,0.2-0.5-0.1
			c-0.1-0.3-0.1-0.5-0.2-0.8c-0.1-0.3-0.1-0.3-0.4-0.1c0,0-0.1,0-0.1,0.1c-0.2,0.2-0.3,0.1-0.4-0.1c0,0-0.1-0.1-0.1-0.1
			c-0.2,0.1-0.2,0.4-0.2,0.5c-0.1,0.3-0.2,0.3-0.4,0.1c-0.2-0.2-0.2-0.5-0.4-0.7c-0.2,0-0.2,0.1-0.3,0.2c-0.2,0.2-0.3,0.3-0.6,0.1
			c-0.1,0.2-0.1,0.5-0.2,0.7c0,0.1,0,0.2-0.1,0.3c-0.1,0.1-0.2,0.4-0.4,0.3c-0.2,0-0.1-0.3-0.2-0.4c0-0.2,0-0.3-0.1-0.5
			c-0.1,0.1-0.1,0.2-0.1,0.3c-0.1,0.1,0,0.3-0.1,0.3c-0.2,0-0.2-0.1-0.2-0.2c-0.1-0.2-0.2-0.2-0.3,0c-0.2,0.2-0.2,0.1-0.3-0.1
			c-0.2-0.4-0.4-0.8-0.5-1.3c-0.1-0.2-0.1-0.5-0.3-0.7c-0.2,0.2-0.3,0.6-0.4,0.9c-0.1,0.3-0.2,0.5-0.4,0.7c-0.1,0.1-0.2,0.1-0.3-0.1
			c-0.1-0.1-0.1-0.3-0.2-0.4c-0.1-0.3-0.3-0.4-0.5-0.1c-0.1,0.2-0.2,0.4-0.3,0.5c0,0.1-0.1,0.2-0.2,0.3c-0.2,0-0.1-0.3-0.3-0.4
			c-0.2,0.1-0.1,0.4-0.2,0.6c-0.1,0.2-0.2,0.2-0.3,0.1c-0.2-0.1-0.2-0.3-0.3-0.5c-0.1-0.3-0.1-0.6-0.3-0.9c-0.2,0.4-0.2,0.7-0.3,1.1
			c0,0.2-0.1,0.4-0.1,0.5c0,0.2-0.2,0.3-0.4,0.3c-0.2,0-0.2-0.1-0.3-0.2c0-0.1-0.1-0.2-0.1-0.3c-0.1-0.2-0.1-0.4-0.4-0.3
			c-0.3,0.1-0.4-0.2-0.6-0.4c-0.1,0-0.1,0-0.1,0c-0.1,0.1-0.1,0.3-0.3,0.3c-0.1,0-0.1-0.2-0.2-0.4c0-0.1-0.1-0.2-0.1-0.3
			c-0.2-0.1-0.2,0.2-0.3,0.2c-0.2,0-0.2-0.2-0.3-0.2c-0.1,0.2-0.1,0.5-0.2,0.8c0,0.1-0.1,0.2-0.2,0.2c-0.4-0.1-0.6-0.3-0.7-0.7
			c0-0.1,0-0.1-0.1-0.2c-0.2,0.4-0.1,0.8-0.2,1.1c0,0.1,0,0.2-0.1,0.3c0,0,0,0.1-0.1,0.1c-0.1,0-0.1,0-0.2-0.1
			c-0.1-0.2-0.3-0.5-0.3-0.8c0-0.1,0-0.3-0.1-0.4c-0.1,0.3-0.1,0.5-0.2,0.8c-0.1,0.4-0.1,0.4-0.4,0.1c0,0-0.1,0-0.1,0
			c0,0-0.1,0.1-0.1,0.1c-0.1,0.1,0,0.4-0.3,0.3c-0.2,0-0.1-0.3-0.2-0.4c-0.1-0.2,0-0.5-0.2-0.8c-0.2,0.3-0.2,0.6-0.3,0.9
			c0,0.1-0.1,0.3-0.1,0.4c-0.1,0.2-0.4,0.2-0.6,0c-0.1-0.1-0.1-0.3-0.2-0.4c-0.2,0.1-0.1,0.4-0.3,0.6c-0.3-0.1-0.5-0.4-0.5-0.7
			c0-0.4-0.1-0.7-0.1-1.1c-0.2,0-0.1,0.1-0.2,0.2c0,0.1,0,0.3-0.1,0.4c-0.2,0.4-0.5,0.4-0.7,0.1c-0.1-0.2-0.1-0.4-0.3-0.6
			c-0.2,0.3-0.1,0.7-0.3,0.9c-0.3-0.1-0.2-0.4-0.4-0.6c-0.1,0.3-0.1,0.6-0.2,0.8c-0.1,0.2-0.1,0.3-0.3,0.1c-0.2-0.1-0.3-0.4-0.4-0.6
			c-0.2,0.3-0.3,0.5-0.5,0.7c0,0.1-0.1,0.1-0.2,0.1c-0.1,0-0.1-0.1-0.1-0.2c-0.1-0.3-0.1-0.7-0.2-1c0-0.1,0-0.2-0.1-0.3
			c-0.1-0.1-0.2-0.2-0.3,0c0,0,0,0,0,0c-0.3,0.5-0.4,0.5-0.8,0c0,0-0.1,0-0.1,0c-0.3,0.4-0.3,0.4-0.6-0.1c-0.1,0.2-0.1,0.4-0.2,0.5
			c-0.1,0.3-0.2,0.4-0.5,0.3c-0.3-0.2-0.5,0-0.7,0.2c-0.1,0.1-0.2,0.2-0.2,0.2c-0.3,0.2-0.3,0.2-0.6-0.1c-0.1,0.2-0.1,0.5-0.2,0.7
			c0,0.1-0.1,0.2-0.2,0.1c-0.1,0-0.1-0.1-0.1-0.1c-0.1-0.4-0.1-0.7-0.2-1.1c0-0.1,0-0.3-0.2-0.4c-0.2,0.1-0.1,0.3-0.2,0.4
			c-0.1,0.2-0.1,0.3-0.1,0.5c0,0-0.1,0.1-0.1,0.1c-0.1,0-0.1-0.1-0.1-0.1c0-0.1,0-0.2,0-0.3c0-0.6-0.1-1.2-0.1-1.9
			c-0.2,0.3-0.1,0.7-0.2,1c0,0.3-0.1,0.6-0.1,0.9c-0.3,0-0.2-0.3-0.4-0.4c-0.1,0.3-0.2,0.5-0.4,0.8c-0.1,0.1-0.1,0.3-0.3,0.3
			c-0.2,0-0.2-0.3-0.2-0.4c0-0.2-0.1-0.3-0.1-0.5c0-0.2-0.2-0.2-0.3-0.2c-0.4,0.2-0.5,0-0.6-0.3c0,0-0.1-0.1-0.1-0.2
			c-0.2,0.2-0.2,0.5-0.5,0.4c-0.2,0-0.4-0.1-0.6-0.2c-0.2,0.1-0.2,0.3-0.3,0.5c-0.1,0.2-0.2,0.2-0.4,0.1c-0.1-0.1-0.2-0.3-0.3-0.5
			c-0.1-0.4-0.1-0.8-0.2-1.3c-0.4,0.5-0.3,1-0.6,1.5c-0.3-0.1-0.2-0.5-0.5-0.7c-0.2,0.2-0.2,0.4-0.3,0.7c-0.2,0.5-0.7,0.6-1,0.2
			c-0.1-0.1-0.1-0.2-0.2-0.1c-0.3,0.3-0.4,0-0.4-0.3c-0.1-0.2-0.1-0.4-0.4-0.2c-0.1,0-0.1,0-0.2-0.1c-0.1-0.1-0.2-0.1-0.3,0.1
			c-0.1,0.2-0.2,0.4-0.3,0.6c-0.1,0.1-0.3,0.3-0.5,0.1c-0.1-0.1-0.3,0-0.4,0c-0.2,0.1-0.3,0.2-0.5,0.4c-0.1,0.1-0.2,0.1-0.3-0.1
			c0-0.1-0.1-0.3-0.1-0.4c-0.1-0.2,0-0.4-0.3-0.3c-0.2,0.1-0.2-0.3-0.4-0.3c-0.1,0.2-0.1,0.5-0.1,0.7c0,0.1,0,0.2-0.1,0.3
			c-0.1,0.1-0.2-0.1-0.3-0.2c-0.2-0.2-0.2-0.4-0.3-0.6c0-0.1-0.1-0.1-0.1-0.2c-0.3,0.3-0.3,0.8-0.5,1.1c-0.2,0-0.2-0.3-0.3-0.3
			c-0.2,0-0.2,0.3-0.4,0.3c-0.2-0.1-0.2-0.2-0.2-0.4c-0.1-0.1-0.1-0.2-0.2-0.1c-0.2,0.1-0.3-0.1-0.3-0.2c0-0.2-0.1-0.4-0.1-0.5
			c0-0.1,0-0.4-0.2-0.4c-0.2,0-0.2,0.2-0.3,0.4c-0.1,0.3-0.2,0.7-0.4,1c-0.1,0.3-0.2,0.3-0.4,0.1c-0.2-0.2-0.2-0.4-0.3-0.6
			c0-0.1,0-0.2-0.1-0.3c-0.2,0.4-0.1,0.9-0.3,1.4c-0.3-0.3-0.2-0.6-0.4-0.9c-0.3,0.2-0.3,0.2-0.6-0.1c-0.2,0.1-0.1,0.3-0.2,0.4
			c-0.1,0.3-0.2,0.3-0.3,0.1c-0.1-0.1-0.1-0.4-0.3-0.4c-0.2,0-0.2,0.3-0.3,0.4c0,0.1-0.1,0.1-0.1,0.1c-0.1,0-0.1-0.1-0.1-0.1
			c0-0.1,0-0.2-0.1-0.2c-0.1-0.2,0-0.5-0.2-0.4c-0.2,0-0.5,0-0.6,0.4c-0.1,0.3-0.3,0.7-0.5,1c-0.3-0.4-0.2-0.8-0.4-1.2
			c-0.2,0-0.1,0.2-0.2,0.3c-0.2,0.3-0.5,0.2-0.6,0c-0.1-0.1-0.1-0.2-0.2-0.3c-0.2-0.3-0.2-0.3-0.5-0.1c-0.4,0.3-0.5,0.2-0.6-0.2
			c0-0.1-0.1-0.2-0.1-0.4c-0.2,0.1-0.2,0.3-0.3,0.4c-0.1,0.1-0.1,0.3-0.2,0.4c-0.3,0.5-0.4,0.5-0.7,0c-0.2-0.4-0.5-0.5-0.8-0.1
			c-0.1,0.1-0.1,0.2-0.3,0.2c-0.3,0.1-0.4,0-0.4-0.2c-0.1-0.2-0.1-0.4-0.1-0.5c-0.1,0-0.1,0-0.2,0c-0.1,0.2-0.2,0.2-0.4,0
			c-0.1-0.2-0.3-0.2-0.4,0c0,0-0.1,0.1-0.2,0.1c-0.5,0.4-0.6,0.4-0.8-0.2c0,0,0,0,0,0c0-0.1-0.1-0.2-0.2-0.2c-0.1,0-0.2,0.1-0.2,0.2
			c-0.1,0.2-0.2,0.4-0.2,0.6c-0.1,0.2-0.2,0.4-0.2,0.6c-0.1,0.2-0.2,0.2-0.3,0c-0.1-0.2-0.1-0.4-0.2-0.7c-0.3,0.1-0.6,0.2-0.7,0.6
			c0,0.1-0.1,0.2-0.1,0.2c-0.2,0.3-0.5,0.3-0.6-0.1c-0.2-0.4-0.3-0.9-0.4-1.4c-0.2,0.1-0.2,0.3-0.3,0.5c-0.1,0.3-0.2,0.7-0.2,1
			c0,0.2-0.2,0.3-0.4,0.3c-0.2,0-0.2-0.2-0.3-0.3c-0.1-0.1,0-0.3-0.2-0.4c-0.2,0-0.1,0.3-0.3,0.3c-0.2-0.1-0.3-0.3-0.5-0.5
			c-0.2-0.2-0.4-0.2-0.5,0.1c-0.1,0.2-0.2,0.5-0.3,0.7c-0.2,0.3-0.3,0.3-0.5,0c0-0.1,0-0.2-0.1-0.3c-0.1,0.1-0.1,0.2-0.2,0.3
			c-0.3,0.3-0.5,0.3-0.6-0.1c-0.1-0.3-0.2-0.6-0.4-0.9c0,0-0.1,0-0.1,0c-0.3,0.4-0.3,0.4-0.5-0.1c-0.1-0.2-0.1-0.5-0.3-0.7
			c-0.1,0.3-0.1,0.7-0.2,1c0,0.3-0.1,0.5-0.1,0.8c0,0,0,0.1-0.1,0.1c-0.1,0-0.1,0-0.2-0.1c-0.2-0.3-0.3-0.6-0.4-1
			c0-0.3-0.1-0.6-0.2-0.9c-0.3,0.7-0.3,1.4-0.6,2.1c-0.2,0-0.2-0.2-0.3-0.3c-0.1-0.2-0.2-0.4-0.3-0.6c-0.1-0.2-0.1-0.5-0.2-0.5
			c-0.2-0.1-0.3,0.2-0.4,0.4c-0.1,0.2-0.2,0.2-0.3-0.1c-0.1-0.2-0.1-0.5-0.2-0.7c-0.1-0.2-0.2-0.2-0.2,0c0,0,0,0.1,0,0.1
			c-0.1,0.1-0.1,0.4-0.2,0.4c-0.2,0.1-0.2-0.2-0.3-0.3c-0.1-0.2-0.2-0.1-0.3,0c-0.1,0.2-0.1,0.5-0.4,0.7c-0.3-0.3-0.2-0.7-0.4-1
			c-0.2,0.1-0.3,0.3-0.3,0.4c-0.1,0.2-0.2,0.3-0.4,0.3c-0.3,0-0.6,0.1-0.8-0.1c-0.3-0.1-0.4,0-0.5,0.1c-0.2,0.2-0.3,0.5-0.4,0.8
			c0,0.1-0.1,0.2-0.1,0.3c0,0.1-0.1,0.1-0.1,0.1c-0.1,0-0.1-0.1-0.1-0.1c-0.1-0.3-0.1-0.6-0.2-0.9c-0.2,0.3-0.6,0.2-0.9,0.5
			c-0.1,0.1-0.2,0-0.2-0.1c0-0.3-0.1-0.5-0.1-0.8c0-0.2,0-0.4-0.1-0.6c-0.1,0.2-0.1,0.4-0.1,0.6c-0.1,0.3-0.1,0.3-0.4,0.1
			c-0.1-0.1-0.2-0.2-0.3-0.3c0-0.1-0.1-0.1-0.2-0.1c-0.1,0-0.5,0.4-0.6,0.5c-0.1,0.3-0.1,0.7-0.2,1c0,0.1,0,0.2-0.2,0.2
			c-0.1,0-0.1-0.1-0.1-0.1c0-0.1-0.1-0.1-0.1-0.2c0-0.6-0.5-0.7-0.8-1.1c-0.1-0.1-0.2-0.1-0.2-0.1c-0.3,0-0.5-0.1-0.7-0.3
			c-0.2,0.1-0.3,0.4-0.3,0.6c-0.1,0.1-0.1,0.3-0.2,0.4c0,0.1-0.1,0.1-0.2,0.1c-0.1,0-0.1-0.1-0.1-0.1c0-0.2-0.1-0.3-0.1-0.5
			c0-0.1,0-0.3-0.1-0.4c-0.2,0.2-0.1,0.5-0.3,0.7c-0.2-0.1-0.2-0.3-0.3-0.4c-0.1-0.1-0.1-0.3-0.3-0.2c-0.2,0.1-0.5,0-0.7,0.2
			c-0.2,0.1-0.4,0.2-0.7,0.2c-0.3,0-0.3,0.3-0.6,0.4c-0.3-0.1-0.2-0.5-0.4-0.6c-0.2,0.1-0.2,0.3-0.3,0.4c-0.1,0.1-0.2,0.2-0.3,0.2
			c-0.1,0-0.1-0.2-0.1-0.3c0-0.5-0.1-1-0.1-1.6c0-0.1,0-0.2,0-0.3c-0.2,0.3-0.2,0.5-0.2,0.8c0,0.5-0.1,1-0.3,1.5
			c-0.1,0.2-0.2,0.3-0.4,0.1c-0.1-0.1-0.2-0.1-0.3-0.1c-0.5,0.1-0.8,0-0.9-0.6c0-0.2-0.1-0.4-0.1-0.5c-0.1,0-0.1,0.1-0.1,0.2
			c0,0.5-0.5,0.7-0.8,1c-0.1,0.1-0.2,0-0.3-0.1c-0.1-0.2-0.3-0.3-0.3-0.6c0-0.1-0.1-0.3-0.1-0.4c-0.2,0-0.1,0.1-0.2,0.2
			c-0.1,0.2-0.2,0.3-0.3,0.1c-0.1-0.1-0.2,0-0.2,0.1c-0.1,0.2,0,0.5-0.2,0.4c-0.2,0-0.2-0.3-0.2-0.5c-0.1-0.1,0-0.3-0.1-0.5
			c-0.1,0.2-0.2,0.5-0.5,0.4c-0.1,0-0.1,0.2-0.2,0.3c-0.1,0.2-0.1,0.3-0.2,0.4c-0.2,0.2-0.3,0.2-0.6,0c-0.4-0.3-0.7-0.6-0.9-1
			c0,0-0.1,0-0.1,0c-0.1,0.3-0.2,0.6-0.2,1c0,0.1,0,0.2-0.1,0.2c-0.1,0-0.2-0.1-0.2-0.2c-0.2-0.4-0.5-0.9-0.6-1.3
			c0-0.1,0-0.3-0.2-0.4c-0.1,0.3-0.1,0.7-0.2,1c0,0.2-0.1,0.3-0.3,0.3c-0.2-0.1-0.2,0.1-0.3,0.2c-0.1,0.1-0.2,0.1-0.3-0.1
			c-0.1-0.3,0-0.6-0.2-1c-0.1,0.3-0.1,0.5-0.1,0.8c0,0,0,0.1,0,0.1c-0.1,0.2-0.2,0.3-0.4,0.3c-0.2,0-0.2-0.2-0.3-0.3
			c0,0,0-0.1,0-0.1c0-0.1,0-0.2-0.2-0.2c-0.1,0-0.2,0.1-0.2,0.3c-0.1,0.2-0.1,0.4-0.2,0.6c0,0.1,0,0.1-0.1,0.2c0,0-0.1,0.1-0.1,0.1
			c-0.1,0-0.1,0-0.1-0.1c0-0.3-0.1-0.7-0.1-1c0-0.3-0.1-0.6-0.1-0.8c-0.1,0.1-0.1,0.2-0.2,0.4c0,0.1-0.1,0.1-0.1,0.1
			c-0.3-0.2-0.3,0.1-0.4,0.2c-0.2,0.3-0.4,0.3-0.7,0.1c0,0-0.1-0.1-0.1-0.2c-0.1-0.1-0.2-0.1-0.3,0.1c-0.1,0.2-0.1,0.4-0.2,0.6
			C80.3,54,80.2,54,80,53.9c-0.5-0.2-0.5-0.2-0.7-0.6c-0.1,0.2-0.1,0.4-0.1,0.5c0,0.1,0,0.2-0.1,0.3c-0.1,0.2-0.2,0.4-0.4,0.3
			c-0.2,0-0.2-0.3-0.2-0.4c0-0.3-0.1-0.6-0.1-0.8c0,0-0.1,0-0.1,0c-0.2,0.5-0.2,0.5-0.7,0.3c-0.2-0.1-0.4-0.1-0.6,0.1
			c-0.2,0.2-0.3,0.2-0.5,0c0,0-0.1-0.1-0.2-0.1c-0.3,0-0.4-0.1-0.6-0.3c-0.2-0.2-0.2-0.2-0.3,0.1c-0.1,0.4-0.2,0.8-0.4,1.1
			c-0.1,0.1-0.1,0.2-0.2,0.2c-0.3-0.2-0.2-0.5-0.5-0.7c-0.2-0.2-0.5-0.4-0.7-0.5c-0.2,0.1-0.2,0.3-0.2,0.4c-0.1,0.2-0.2,0.2-0.3,0
			c-0.2-0.3-0.3-0.6-0.5-1c0,0.1-0.1,0.2-0.1,0.3c-0.1,0.4-0.2,0.4-0.5,0.3c-0.2-0.1-0.4-0.2-0.6,0c-0.1,0.1-0.2,0-0.2-0.1
			c-0.1-0.1-0.1-0.3-0.2-0.4c-0.1,0.2-0.1,0.4-0.2,0.6c-0.1,0.2-0.1,0.3-0.3,0.1c-0.2-0.2-0.5-0.2-0.7-0.5c-0.1-0.1-0.2,0-0.3,0.1
			c-0.2,0.2-0.2,0.1-0.3-0.1C69,53.2,69,53,68.8,52.8c-0.2,0.1-0.3,0.4-0.4,0.6c0,0.1-0.1,0.2-0.2,0.2c-0.1,0-0.1-0.1-0.2-0.2
			c-0.1-0.1,0-0.2-0.2-0.3c-0.1,0.4-0.6,0.3-0.8,0.6c0,0-0.1,0-0.2-0.1c-0.1-0.1-0.1-0.2-0.2-0.3c-0.1,0.3-0.2,0.5-0.4,0.7
			c-0.2,0.4-0.5,0.4-0.8,0c-0.1-0.1-0.2-0.3-0.2-0.4c-0.1-0.1-0.2-0.2-0.3,0c-0.1,0.2-0.2,0.4-0.5,0.3c-0.1,0-0.2,0-0.3,0.1
			c-0.1,0.1-0.2,0.1-0.3,0.1c-0.5,0.2-0.5,0.2-0.8-0.3c0,0,0-0.1-0.1-0.1C63,53.7,63,54,62.8,54c-0.1,0-0.1,0-0.1-0.1
			c-0.1-0.3-0.1-0.6-0.2-0.9c0-0.2-0.1-0.4-0.2-0.5c-0.3,0.7-0.2,1.5-0.5,2.2c-0.2,0-0.2-0.2-0.2-0.3c0-0.2-0.1-0.3-0.1-0.5
			c0-0.1,0-0.4-0.1-0.4c-0.1-0.1-0.3,0.1-0.5,0c-0.1,0-0.1,0.1-0.2,0.2c-0.1,0.2-0.1,0.4-0.3,0.5c-0.2-0.6-0.2-1.2-0.4-1.9
			c-0.2,0.3-0.2,0.7-0.3,1c-0.1,0.3-0.1,0.6-0.2,0.9c-0.3-0.2-0.1-0.6-0.4-0.9c-0.2,0.1-0.1,0.4-0.3,0.4c-0.2,0-0.1-0.3-0.2-0.5
			c0-0.2-0.1-0.4-0.1-0.7c-0.2,0.6-0.1,1.1-0.3,1.6C58,54,58,53.6,57.7,53.4c-0.2,0-0.1,0.2-0.2,0.3c-0.1,0.1-0.2,0.1-0.2,0
			c-0.1-0.1-0.1-0.3-0.1-0.4c0-0.1-0.1-0.3-0.1-0.4c-0.1-0.2-0.2-0.2-0.4-0.2c-0.2,0-0.2,0.1-0.3,0.2c-0.1,0.4-0.5,0.7-0.7,1
			c-0.1,0.1-0.1,0.2-0.2,0.1c-0.1,0-0.1-0.2-0.1-0.3c-0.1-0.4-0.1-0.8-0.3-1.2c-0.2,0.2-0.2,0.5-0.3,0.8c-0.1,0.2,0,0.6-0.3,0.6
			c-0.2,0-0.2-0.4-0.3-0.6c0,0,0-0.1-0.1-0.1c-0.2,0-0.1,0.3-0.3,0.2c-0.2,0-0.2-0.3-0.3-0.3c-0.2,0.1-0.1,0.4-0.4,0.3
			C53,53.6,53,53.3,53,53.2c-0.1-0.1,0-0.3-0.2-0.5c-0.3,0.3-0.5,0.7-0.6,1.1c-0.1,0.2-0.1,0.4-0.2,0.5c-0.2,0-0.2-0.3-0.3-0.5
			c-0.1-0.3-0.2-0.5-0.3-0.8c-0.1,0.1-0.2,0.2-0.2,0.4c-0.2,0.4-0.5,0.6-0.8,0.4c-0.5-0.3-1-0.1-1.5-0.1c-0.2,0-0.3,0.2-0.5,0.3
			c-0.2,0.2-0.3,0.2-0.3-0.1c-0.1-0.3-0.1-0.6-0.2-0.9c-0.1,0.4-0.2,0.7-0.4,1.1c0,0.1-0.1,0.2-0.1,0.3c0,0.1-0.1,0.1-0.2,0.1
			c0,0-0.1-0.1-0.1-0.1c-0.1-0.2-0.1-0.5-0.2-0.7c0-0.2-0.1-0.4-0.3-0.2c-0.1,0.1-0.2,0-0.2-0.1c-0.1-0.1-0.1-0.3-0.1-0.4
			c-0.1-0.2-0.2-0.3-0.4-0.4c-0.2-0.1-0.3,0-0.4,0.2c-0.1,0.2-0.1,0.5-0.4,0.4c-0.1,0-0.1,0.1-0.1,0.2c-0.1,0.2-0.1,0.4-0.2,0.6
			c0,0.1,0,0.2-0.2,0.2c-0.1,0-0.1-0.1-0.2-0.2c0-0.1,0-0.1-0.1-0.1c-0.2,0.2-0.1,0.5-0.3,0.7c-0.3-0.3-0.1-0.7-0.4-1
			c-0.3,0.3-0.3,0.3-0.6,0.1c-0.1,0.1-0.1,0.3-0.2,0.4c-0.1,0.2-0.2,0.3-0.4,0.1c-0.1-0.1-0.2-0.2-0.3-0.3c-0.1-0.2-0.3-0.3-0.5-0.3
			c-0.2-0.1-0.3-0.1-0.4,0.1c-0.2,0.2-0.4,0.2-0.6,0c-0.3-0.2-0.4-0.4-0.5-0.8c0-0.2-0.1-0.4-0.4-0.2c-0.1,0.1-0.2-0.2-0.3-0.2
			c-0.1,0.4-0.1,0.7-0.2,1.1c0,0.2-0.1,0.3-0.2,0.3c-0.2,0-0.3,0-0.4-0.2c-0.1-0.3-0.2-0.6-0.3-0.8c0-0.1,0-0.2-0.2-0.3
			C38,52.6,38,52.7,38,52.9c0,0.2-0.1,0.3-0.3,0.4c-0.5,0.3-0.6,0.3-0.8-0.2c-0.1-0.2-0.2-0.5-0.3-0.7c-0.2,0.5-0.3,1-0.4,1.5
			c0,0.1-0.1,0.2-0.1,0.3c0,0.1,0,0.2-0.2,0.2c-0.1,0-0.1-0.1-0.1-0.2c-0.1-0.5-0.1-1-0.1-1.5c-0.2,0.5-0.1,1-0.3,1.6
			C35,54.2,35,54,35,53.9c-0.1-0.2-0.2-0.3-0.3-0.4c-0.2-0.1-0.2-0.3-0.4-0.3c-0.2,0.1-0.5,0.1-0.7,0.3c-0.2,0.2-0.3,0.2-0.4-0.1
			c-0.1-0.3-0.2-0.5-0.4-0.9c-0.1,0.3-0.1,0.5-0.1,0.7c0,0.2-0.1,0.4-0.1,0.6c0,0.2-0.1,0.2-0.3,0.1c-0.1-0.1-0.2-0.2-0.3-0.3
			c-0.1-0.2-0.2-0.5-0.5-0.4c-0.1,0-0.1-0.1-0.2-0.2c-0.1-0.1,0-0.3-0.2-0.4c-0.1,0.1-0.1,0.2-0.1,0.4c0,0.2-0.1,0.3-0.2,0.4
			c-0.2,0.1-0.3,0.2-0.4,0.4c-0.2,0.2-0.2,0.2-0.4-0.1c-0.1-0.2-0.1-0.3-0.2-0.5c-0.1-0.2-0.2-0.3-0.4-0.1c-0.2,0.2-0.3,0.1-0.3-0.1
			c-0.1-0.2-0.2-0.3-0.4-0.1c0,0-0.1,0.1-0.1,0c-0.3-0.3-0.3,0-0.5,0.2c-0.2,0.2-0.4,0.4-0.6,0.7c-0.1,0.2-0.2,0.2-0.3,0
			c0-0.1-0.1-0.2-0.2-0.2c-0.1,0-0.1,0.1-0.2,0.1c-0.3,0.2-0.5,0.1-0.6-0.2c0-0.1,0-0.2,0-0.3c0-0.1-0.1-0.2-0.1-0.3
			c0,0.3-0.1,0.6-0.1,0.9c0,0.1,0,0.3-0.2,0.3c-0.2,0-0.2-0.1-0.2-0.2c0,0,0-0.1-0.1-0.1c-0.2,0.2-0.2,0.5-0.3,0.7
			c0,0.1-0.1,0.2-0.1,0.3c-0.1,0.3-0.3,0.4-0.6,0.2c-0.3-0.2-0.5-0.5-0.7-0.8c-0.1-0.1-0.1-0.2-0.2-0.3c-0.2,0.3-0.3,0.5-0.7,0.4
			c-0.1,0-0.3,0.2-0.4,0.4c-0.2,0.3-0.2,0.3-0.5,0c-0.1-0.1-0.2-0.1-0.3,0c-0.4,0.3-0.5,0.2-0.7-0.2c-0.1-0.2-0.1-0.4-0.3-0.6
			c-0.1,0.5-0.2,1-0.2,1.4c0,0.1,0,0.2-0.1,0.2c-0.1,0-0.1,0-0.2-0.1c-0.4-0.5-0.8-1-1-1.6c0-0.1-0.1-0.2-0.1-0.3
			c-0.1-0.1-0.2-0.1-0.3,0c-0.1,0.2-0.2,0.4-0.3,0.6c-0.2,0.3-0.4,0.4-0.7,0.1c-0.2-0.1-0.3-0.3-0.5,0c-0.1,0.1-0.2,0.1-0.3-0.1
			c0-0.1,0-0.2-0.1-0.2c-0.2,0.1-0.1,0.4-0.2,0.5c0,0.1,0,0.2-0.1,0.3c0,0.1,0,0.2-0.2,0.2c-0.1,0-0.1-0.1-0.1-0.2
			c-0.1-0.2-0.1-0.4-0.2-0.6c0-0.1-0.1-0.2-0.2-0.3c-0.2,0.3-0.1,0.8-0.4,1.1c-0.2,0-0.1-0.3-0.3-0.3c-0.2,0.3-0.1,0.7-0.3,0.9
			c-0.2,0-0.2-0.1-0.2-0.2c-0.1-0.4-0.3-0.9-0.4-1.3c0-0.1-0.1-0.3-0.2-0.4c-0.3,0.4-0.2,0.9-0.5,1.4c-0.3-0.8-0.2-1.5-0.4-2.2
			c-0.2,0.3-0.3,0.6-0.4,0.9c-0.1,0.2-0.2,0.3-0.4,0.1c0,0-0.1-0.1-0.2-0.1c-0.3,0-0.4-0.3-0.5-0.5c0-0.1-0.1-0.1-0.1-0.2
			c-0.2,0.2-0.3,0.4-0.5,0.3c-0.2-0.1-0.4-0.1-0.5-0.3c-0.1-0.2-0.1-0.4-0.2-0.6c-0.1,0.3-0.1,0.6-0.2,0.9c0,0.1,0,0.2-0.1,0.3
			c-0.1,0.1-0.2,0.4-0.4,0.3c-0.2,0-0.1-0.2-0.2-0.4c0-0.1-0.1-0.2-0.1-0.2c-0.1,0-0.2,0-0.2,0.1c-0.2,0.4-0.5,0.5-0.9,0.6
			c-0.3,0-0.3,0.1-0.4-0.3c-0.1-0.2,0-0.3-0.2-0.5c-0.5,0.6-1.1,1.1-1.1,1.9c-0.4,0-0.3-0.4-0.4-0.5c-0.2,0-0.1,0.2-0.2,0.3
			c-0.1,0.2-0.2,0.3-0.4,0.3c-0.3,0-0.5,0.2-0.6,0.4c0,0.1-0.1,0.2-0.2,0.1c-0.1,0-0.1-0.1-0.1-0.2c-0.1-0.4-0.1-0.8-0.2-1.1
			c0-0.2-0.1-0.4-0.3-0.3c-0.1,0-0.1-0.1-0.3-0.1c-0.2,0.2-0.1,0.6-0.4,0.8c-0.3-0.3-0.2-0.7-0.3-1c-0.1,0-0.1,0-0.1,0.1
			c-0.2,0.5-0.2,0.5-0.6,0.2C2,54,1.7,53.8,1.6,53.3c0-0.1-0.1-0.1-0.1-0.1c-0.1,0-0.1,0.1-0.2,0.1c-0.1,0.3-0.2,0.5-0.2,0.8
			c0,0.1-0.1,0.2-0.3,0.1c-0.1-0.1-0.2-0.3-0.3-0.1c-0.2,0.2-0.5,0.1-0.6,0.4c0,0.2-0.2,0.2-0.4,0.2c0-0.1,0-0.1,0-0.2
			c0.1,0,0.2-0.1,0.2-0.3c0-0.1,0.1-0.2,0.1-0.2c0.3,0.1,0.4-0.1,0.5-0.3c0.1-0.1,0.1-0.1,0.2,0c0.2,0.2,0.2,0.1,0.3-0.1
			c0.1-0.3,0.2-0.5,0.4-0.7c0.1-0.1,0.2-0.1,0.3,0.1c0,0.1,0.1,0.2,0.1,0.3c0.1,0.4,0.4,0.6,0.8,0.7c0.2,0.1,0.2,0,0.3-0.1
			c0.1-0.3,0.1-0.6,0.3-0.9c0.3,0.1,0.2,0.4,0.2,0.5c0,0.2,0.1,0.4,0.1,0.6c0.2-0.1,0.1-0.3,0.3-0.4c0.2,0.1,0.3,0.3,0.6,0.1
			c0.1-0.1,0.2,0.1,0.2,0.2c0.1,0.3,0.1,0.6,0.1,0.8c0,0.1,0,0.2,0.1,0.4C4.9,55,5,54.9,5.2,54.9c0.3,0,0.4-0.1,0.5-0.4
			c0.1-0.2,0.1-0.5,0.3-0.6c0.2,0.1,0.2,0.3,0.3,0.5c0.2-0.2,0.2-0.5,0.4-0.6c0.2-0.1,0.3-0.3,0.5-0.5c0.1-0.1,0.1-0.3,0.2-0.4
			c0.1-0.1,0.1-0.3,0.3-0.4c0.2,0.2,0.2,0.5,0.3,0.7c0.1,0.4,0.4,0.5,0.7,0.2c0.2-0.2,0.3-0.4,0.4-0.6c0-0.1,0.1-0.2,0.2-0.2
			c0.1,0,0.1,0.1,0.2,0.2c0.1,0.2,0.1,0.4,0.3,0.6c0.3-0.7,0.2-1.4,0.5-2.1c0.2,0,0.2,0.2,0.2,0.3c0.1,0.3,0.1,0.6,0.2,0.8
			c0,0.2,0.2,0.3,0.4,0.4c0.2,0.1,0.3-0.1,0.3-0.2c0.1-0.1,0.1-0.2,0.2-0.2c0.1,0,0.1,0.1,0.2,0.2c0,0,0,0.1,0,0.1
			c0.1,0.4,0.3,0.6,0.7,0.6c0.1-0.2,0.2-0.4,0.3-0.6c0.1-0.2,0.2-0.4,0.3-0.5c0-0.1,0.1-0.2,0.2-0.1c0.1,0,0.1,0.1,0.1,0.2
			c0,0.3,0.1,0.5,0.1,0.8c0,0.3,0.1,0.5,0.1,0.8c0.2-0.2,0.1-0.5,0.4-0.6c0.2-0.1,0.3-0.1,0.4,0.1c0.1,0.3,0.1,0.6,0.2,0.8
			c0.1,0.2,0.1,0.4,0.2,0.5c0.1-0.2,0.1-0.5,0.2-0.7c0-0.1,0-0.2,0.1-0.2c0.1,0,0.2,0.1,0.2,0.2c0,0.1,0,0.1,0.2,0.1
			c0-0.2,0.1-0.4,0.1-0.6c0.1-0.3,0.2-0.3,0.4-0.1c0.2,0.2,0.2,0.4,0.3,0.6c0.2-0.3,0.1-0.5,0.2-0.8c0-0.1,0-0.4,0.2-0.4
			c0.2,0,0.1,0.2,0.2,0.4c0,0.1,0,0.2,0.1,0.2c0,0.1,0.1,0.1,0.1,0.1c0.2-0.2,0.3,0,0.5,0.1c0.3,0.3,0.4,0.2,0.6-0.1
			c0.1-0.1,0.2-0.3,0.2-0.4c0.1-0.1,0.1-0.2,0.3-0.3c0.2-0.1,0.3-0.1,0.4,0.1c0.1,0.3,0.3,0.6,0.4,1c0.1,0.3,0.4,0.5,0.6,0.7
			c0.2-0.6,0.1-1.1,0.3-1.7c0.3,0.1,0.3,0.3,0.4,0.5c0.1,0.1,0.1,0.3,0.2,0.4c0.2,0.5,0.2,0.5,0.6,0.1c0.2-0.1,0.2-0.1,0.4,0
			c0,0.1,0.1,0.1,0.2,0.2c0.1-0.1,0.2-0.2,0.3-0.3c0.1-0.1,0.1-0.2,0.2-0.2c0.3,0,0.5-0.2,0.6-0.4c0.1-0.1,0.2,0,0.3,0.1
			c0.2,0.3,0.3,0.7,0.6,0.9c0,0,0.1,0.1,0.1,0.1c0.3,0.3,0.3,0.3,0.5-0.1c0.1-0.3,0.2-0.7,0.4-1c0.2-0.4,0.2-0.4,0.5-0.1
			c0.2-0.3,0.1-0.7,0.2-1.1c0-0.1,0-0.2,0.1-0.3c0-0.1,0-0.2,0.2-0.2c0.1,0,0.1,0.1,0.1,0.2c0.1,0.4,0.1,0.8,0.2,1.1
			c0,0.1,0,0.2,0,0.2c0.1,0.2,0.2,0.2,0.3,0.1c0,0,0,0,0,0c0.3-0.3,0.3-0.3,0.5,0.1c0,0,0,0,0.1,0.1c0.3-0.2,0.6-0.5,0.7-0.8
			c0.1-0.2,0.2-0.4,0.4-0.1c0,0,0.1,0.1,0.2,0c0.3-0.4,0.4,0,0.6,0.2c0,0,0,0,0,0c0.4-0.2,0.5-0.2,0.7,0.2c0.1,0.1,0.2,0.3,0.3,0.5
			c0.4-0.2,0.6-0.5,0.7-0.9c0-0.2,0-0.5,0.3-0.6c0.2,0.2,0.2,0.5,0.3,0.8c0,0.1,0,0.3,0.1,0.3c0.4,0,0.4,0.4,0.6,0.6
			c0,0.1,0.1,0.1,0.2,0.1c0.2-0.5,0.1-1.2,0.4-1.8c0.3,0.2,0.3,0.5,0.4,0.7c0.1,0.2,0.2,0.5,0.4,0.8c0.2-0.2,0.6-0.2,0.8-0.4
			c0.1-0.1,0.2-0.1,0.3,0c0.2,0.3,0.6,0.4,0.8,0.8c0.1-0.7,0.2-1.3,0.2-1.9c0-0.1,0-0.1,0-0.2c0-0.1,0-0.3,0.2-0.3
			c0.1,0,0.1,0.2,0.1,0.3c0.1,0.6,0.1,1.3,0.2,2c0.1-0.5,0.2-0.9,0.3-1.3c0-0.1,0.1-0.3,0.1-0.4c0-0.1,0-0.1,0.1-0.1
			c0.1,0,0.1,0.1,0.2,0.1c0.1,0.3,0.2,0.7,0.4,1c0.1,0.1,0.1,0.3,0.3,0.3c0.2,0,0.4-0.1,0.4-0.4c0.1-0.3,0.1-0.6,0.2-0.9
			c0-0.1,0-0.2,0.2-0.3c0.2,0.2,0.2,0.5,0.3,0.8c0.1,0.3,0.2,0.5,0.3,0.8c0,0.1,0.1,0.3,0.2,0.2c0.1,0,0.1-0.2,0.1-0.3
			c0.1-0.4,0.1-0.7,0.2-1.1c0-0.1,0-0.3,0.2-0.3c0.1,0,0.1,0.1,0.2,0.2c0.1,0.1,0.1,0.3,0.2,0.2c0.4-0.2,0.4,0.1,0.5,0.3
			c0.1,0.3,0.1,0.6,0.4,0.7c0.1,0.1,0.3,0.2,0.4,0c0.1-0.1,0.2-0.3,0.3-0.2c0.2,0.1,0.6,0.1,0.7,0.4c0.1,0.1,0.1,0.4,0.3,0.4
			c0.2,0,0.2-0.3,0.2-0.5c0-0.1,0-0.1,0.1-0.2c0.1-0.2,0.2-0.2,0.3,0c0,0,0.1,0.1,0.1,0.1c0.2-0.1,0.1-0.3,0.2-0.4
			c0-0.1,0.1-0.1,0.1-0.1c0.1,0,0.1,0.1,0.1,0.1c0.1,0.3,0.1,0.5,0.2,0.8c0.2-0.1,0.1-0.4,0.3-0.5c0.2,0,0.2,0.2,0.3,0.3
			c0.1,0,0.1,0,0.1-0.1c0-0.2,0.1-0.3,0.1-0.5c0-0.1,0.1-0.2,0.2-0.2c0.3,0.1,0.3-0.1,0.4-0.3c0.2-0.3,0.2-0.3,0.5-0.3
			c0.3,0.1,0.6,0.2,0.6,0.6c0,0.1,0.1,0.2,0.2,0.1c0.3-0.2,0.3,0,0.4,0.2c0.1,0.2,0.1,0.4,0.2,0.6c0.3-0.5,0.3-1.2,0.6-1.7
			c0.3,0.5,0.2,1.1,0.4,1.6c0.3-0.1,0.4-0.4,0.7-0.4c0.2,0,0.5,0,0.7,0c0.2,0,0.4,0,0.7,0.1c0.4,0.2,0.6,0.1,0.7-0.3
			c0.1-0.2,0.1-0.5,0.3-0.7c0.3,0.4,0.3,1,0.6,1.4c0.2-0.6,0.7-1.1,0.9-1.8c0.3,0.3,0.2,0.7,0.4,1c0.2,0,0.1-0.3,0.3-0.2
			c0.2,0,0.1,0.3,0.3,0.3c0.2-0.1,0.1-0.4,0.3-0.4c0.3,0,0.1,0.3,0.3,0.5c0,0,0.1,0.1,0.1,0.1c0.2-0.4,0.2-1,0.6-1.3
			c0.3,0.5,0.2,1.1,0.4,1.6c0.3-0.2,0.5-0.5,0.6-0.8c0.1-0.2,0.1-0.5,0.4-0.4c0.3,0.1,0.6,0.1,0.7,0.5c0,0.1,0,0.2,0.2,0.3
			c0.1,0,0.2-0.4,0.4-0.2c0.1,0.1,0.2,0.3,0.4,0.5c0.2-0.7,0.1-1.5,0.4-2.2c0.2,0.3,0.2,0.5,0.3,0.8c0,0.3,0.1,0.5,0.1,0.8
			c0.1,0,0.1-0.1,0.2-0.1c0-0.1,0.1-0.2,0.2-0.1c0.1,0,0.1,0.1,0.1,0.2c0,0.1,0.1,0.3,0.2,0.4c0.2-0.2,0.1-0.5,0.2-0.7
			c0-0.2,0-0.5,0.4-0.4c0.3,0,0.3,0.2,0.3,0.4c0,0.3,0.1,0.6,0.2,1c0.2-0.2,0.2-0.5,0.5-0.3c0.1,0.1,0.2-0.1,0.2-0.1
			c0.2-0.2,0.3-0.2,0.3,0.1c0,0.1,0,0.3,0.2,0.4C62,53.5,62,53.3,62,53c0-0.3,0.1-0.6,0.3-0.8c0.1-0.1,0.1-0.2,0.3-0.2
			c0.1,0,0.1,0.2,0.1,0.3c0,0.2,0.1,0.5,0.1,0.7c0,0.1,0,0.3,0.1,0.4c0.3-0.2,0.3-0.2,0.4,0.1c0.3,0.6,0.3,0.6,0.8,0.3
			c0.1,0,0.2-0.1,0.2-0.1c0.4,0.1,0.4-0.2,0.6-0.4c0.1-0.1,0.2-0.1,0.3,0c0.2,0.2,0.3,0.4,0.5,0.6c0.2,0.3,0.3,0.2,0.4,0
			c0.1-0.2,0.2-0.5,0.3-0.7c0.1-0.1,0.1-0.3,0.2-0.4c0.1,0,0.1,0.1,0.2,0.2c0.1,0.1,0.1,0.4,0.3,0.3c0.2-0.1,0.5,0,0.6-0.3
			c0-0.1,0.1-0.1,0.1-0.2c0.1-0.2,0.2-0.2,0.3,0c0,0,0,0.1,0.1,0.1c0,0,0.1,0.1,0.1,0.2c0.2-0.1,0.2-0.4,0.4-0.5
			c0.2-0.1,0.3-0.1,0.4,0.1c0,0.1,0.1,0.2,0.1,0.3c0.1,0.1,0.1,0.2,0.2,0.1c0.1-0.1,0.2-0.1,0.3,0c0.2,0.3,0.5,0.3,0.8,0.5
			c0.1-0.3,0.2-0.7,0.2-1c0-0.1,0.1-0.2,0.2-0.2c0.1,0,0.1,0.1,0.1,0.1c0,0.1,0,0.2,0.1,0.3c0.1,0.2,0.1,0.5,0.4,0.3
			c0.1-0.1,0.2,0.1,0.3,0.1c0.2,0.1,0.3,0,0.4-0.2c0.1-0.2,0.1-0.4,0.2-0.6c0-0.1,0.1-0.1,0.2-0.2c0.3,0.4,0.3,0.9,0.6,1.3
			c0.1,0,0.1,0,0.1,0c0.2-0.4,0.2-0.4,0.6-0.1c0.4,0.3,0.8,0.5,0.9,0.9c0.2-0.1,0.3-0.4,0.3-0.6c0.1-0.2,0.1-0.4,0.2-0.6
			c0.1-0.4,0.3-0.5,0.5-0.1c0.2,0.3,0.7,0.2,0.9,0.5c0.1,0.1,0.1,0,0.2,0c0.3-0.3,0.6-0.3,0.9-0.1c0,0,0.1,0,0.2,0
			c0.2-0.3,0.2-0.7,0.4-1.1c0.3,0.6,0.2,1.2,0.4,1.8c0.2,0,0.2-0.2,0.2-0.3c0.1-0.3,0.1-0.7,0.2-1c0-0.1,0-0.1,0.1-0.2
			c0.1,0,0.1,0.1,0.2,0.1c0.1,0.2,0.1,0.3,0.2,0.5c0,0.3,0.3,0.3,0.5,0.3c0.1,0,0.1-0.1,0.2-0.1c0.1-0.2,0.1-0.3,0.2-0.5
			c0.1-0.4,0.3-0.4,0.6-0.2c0.1,0.1,0.1,0.4,0.4,0.3c0.2,0,0.2-0.3,0.3-0.4c0.1-0.1,0.1-0.3,0.2-0.2c0.3,0.1,0.3-0.1,0.3-0.3
			c0.1-0.3,0.1-0.5,0.3-0.8c0.2,0.3,0.2,0.7,0.2,1c0,0.3,0.1,0.7,0.1,1.1c0.2-0.2,0.2-0.5,0.4-0.6c0.1-0.1,0.2-0.1,0.3,0.1
			c0.1,0.2,0.1,0.4,0.3,0.6c0.3-0.7,0.2-1.4,0.5-2c0.2,0.3,0.2,0.6,0.3,0.8c0.1,0.3,0.1,0.6,0.1,0.8c0,0,0,0,0.1,0
			c0.4,0,0.5-0.2,0.5-0.6c0-0.3,0.1-0.7,0.1-1c0-0.1,0-0.3,0.2-0.4c0.2,0.4,0.2,0.8,0.3,1.2c0.1,0.4,0.3,0.8,0.5,1.2
			c0.2-0.3,0.2-0.5,0.2-0.8c0-0.1,0-0.3,0.2-0.3c0.1,0,0.2,0.1,0.3,0.2c0.3,0.3,0.5,0.7,0.9,1c0.2,0.1,0.3,0.1,0.4-0.1
			c0.1-0.1,0.1-0.3,0.2-0.5c0.1-0.2,0.1-0.4,0.4-0.3c0.2,0,0.2-0.1,0.2-0.2c0.1-0.2,0.1-0.4,0.3-0.6c0.3,0.3,0.1,0.7,0.3,1
			c0.2-0.1,0.1-0.3,0.3-0.4c0.1,0,0.2,0.2,0.3,0.2c0.1-0.1,0.1-0.3,0.2-0.4c0-0.1,0.1-0.2,0.2-0.2c0.1,0,0.1,0.1,0.1,0.2
			c0.1,0.3,0.2,0.6,0.3,0.9c0.1,0.3,0.2,0.3,0.5,0.1c0.2-0.2,0.3-0.3,0.4-0.6c0-0.2,0.1-0.5,0.2-0.7c0-0.1,0.1-0.1,0.1-0.1
			c0,0,0.1,0.1,0.1,0.1c0.1,0.3,0.1,0.6,0.2,0.9c0,0.1,0.1,0.3,0.1,0.4c0.2,0.4,0.3,0.4,0.6,0.2c0.1,0,0.2-0.1,0.3-0.1
			c0.3,0.2,0.3,0,0.4-0.2c0.2-0.3,0.1-0.7,0.2-1c0.1-0.7,0.1-1.4,0.2-2.2c0-0.1,0-0.3,0.1-0.3c0.1,0,0.1,0.2,0.1,0.3
			c0.1,0.9,0.1,1.8,0.2,2.7c0,0.1,0,0.2,0.1,0.3c0.2-0.1,0.2-0.3,0.3-0.5c0.1-0.1,0.2-0.1,0.3,0c0.1,0.2,0.1,0.4,0.2,0.6
			c0.6-0.2,1.2-0.4,1.8-0.6c0.3-0.1,0.5,0.1,0.6,0.3c0.2-0.4,0.1-0.8,0.4-1.2c0.3,0.5,0.2,1,0.4,1.5c0.2-0.3,0.3-0.6,0.6-0.8
			c0.3,0.3,0.5,0.5,0.9,0.5c0.1,0,0.2,0.1,0.2,0.2c0.1,0.1,0.2,0.2,0.3,0.2c0.3,0,0.3,0.4,0.4,0.5c0.1,0,0.1-0.1,0.1-0.1
			c0-0.6,0.4-0.8,0.8-1.2c0.1-0.1,0.2,0,0.3,0.1c0.1,0.1,0.1,0.2,0.2,0.3c0,0.1,0.1,0.1,0.2,0.2c0.2-0.5,0.1-1.1,0.5-1.7
			c0.2,0.8,0.2,1.6,0.4,2.3c0.5,0.1,0.6-0.3,0.9-0.6c0.2,0.3,0.2,0.7,0.4,1.1c0.2-0.3,0.3-0.6,0.5-0.8c0.2-0.4,0.3-0.3,0.7-0.2
			c0.2,0.1,0.5,0.1,0.7,0.1c0.2,0,0.3-0.1,0.3-0.3c0.1-0.2,0.2-0.4,0.4-0.5c0.1-0.1,0.2-0.1,0.3,0.1c0.1,0.2,0.1,0.4,0.2,0.5
			c0.2-0.1,0.2-0.4,0.4-0.5c0.3-0.2,0.3,0.2,0.5,0.3c0.1,0,0.1-0.1,0.2-0.2c0.1-0.1,0.1-0.3,0.3-0.2c0.2,0,0.3,0.1,0.4,0.3
			c0.1,0.2,0.1,0.4,0.2,0.5c0.1,0,0.1,0,0.2,0c0.4-0.4,0.6-0.4,0.8,0.2c0.1,0.2,0.2,0.4,0.3,0.7c0,0,0.1,0,0.1,0.1
			c0.2-0.7,0.3-1.4,0.4-2c0-0.2,0.1-0.3,0.1-0.5c0-0.1,0-0.1,0.1-0.1c0.1,0,0.1,0.1,0.1,0.1c0.1,0.3,0.1,0.7,0.1,1
			c0.1,0.4,0.1,0.8,0.2,1.3c0.2-0.4,0.2-0.7,0.2-1c0.1-0.2,0.1-0.4,0.1-0.6c0-0.1,0-0.2,0.1-0.2c0.1,0,0.1,0.1,0.2,0.2
			c0.1,0.3,0.2,0.6,0.3,0.8c0,0.1,0.1,0.1,0.1,0.2c0.4-0.4,0.4-0.4,0.6,0.1c0.1,0.2,0.2,0.5,0.3,0.7c0,0.1,0.1,0.2,0.2,0.2
			c0.1,0,0.1-0.1,0.2-0.2c0.1-0.2,0.1-0.4,0.3-0.6c0.2,0.2,0.2,0.5,0.4,0.7c0.2-0.2,0.3-0.4,0.4-0.7c0.1-0.3,0.3-0.4,0.6-0.2
			c0.2,0.1,0.3,0.3,0.5,0.4c0.2-0.1,0.2-0.4,0.4-0.5c0.2,0.3,0.2,0.7,0.4,1c0.2-0.2,0.2-0.4,0.2-0.6c0.1-0.5,0.2-0.9,0.4-1.4
			c0-0.1,0.1-0.2,0.2-0.2c0.1,0,0.1,0.1,0.2,0.2c0.1,0.3,0.2,0.7,0.2,1c0.1,0.3,0.1,0.5,0.3,0.7c0.1,0,0.2,0,0.2-0.1
			c0.1-0.5,0.6-0.7,0.9-0.9c0.1-0.1,0.2-0.1,0.3,0.1c0.1,0.2,0.1,0.4,0.2,0.6c0.2-0.2,0.2-0.4,0.3-0.6c0.1-0.1,0.1-0.3,0.2-0.5
			c0.1-0.2,0.2-0.2,0.4-0.2c0.2,0,0.2,0.1,0.3,0.2c0.3,0.6,0.3,0.6,0.8,0.2c0.2-0.2,0.4-0.3,0.6,0c0,0,0.1,0,0.1-0.1
			c0.1-0.1,0.1-0.4,0.3-0.4c0.2,0,0.2,0.3,0.2,0.5c0.1,0.2,0.1,0.5,0.2,0.7c0.2,0.1,0.2-0.1,0.3-0.1c0.5-0.5,0.8-0.4,1.1,0.1
			c0,0.1,0.1,0.1,0.1,0.1c0.2-0.1,0.2-0.3,0.3-0.5c0.1-0.2,0.2-0.4,0.4-0.6c0.1-0.1,0.2-0.1,0.3,0.1c0.1,0.2,0.1,0.4,0.2,0.6
			c0.1,0.2,0.1,0.2,0.3,0.1c0.1-0.1,0.2-0.4,0.4-0.3c0.2,0.1,0.3,0.3,0.4,0.4c0.1,0.1,0.1,0.4,0.3,0.3c0.2,0,0.2-0.3,0.3-0.4
			c0.1-0.2,0-0.5,0.3-0.5c0.3,0,0.1,0.4,0.2,0.5c0.1,0.2,0.1,0.4,0.2,0.7c0.2-0.2,0.2-0.4,0.3-0.6c0.1-0.2,0.1-0.4,0.4-0.3
			c0.2,0.1,0.2-0.2,0.5-0.3c0.2,0.2,0.1,0.5,0.3,0.7c0.3-0.4,0.3-0.4,0.9,0.1c0.1-0.2,0.1-0.4,0.2-0.5c0-0.1,0-0.2,0.1-0.2
			c0.1,0,0.1,0.1,0.2,0.2c0,0.1,0.1,0.2,0.1,0.3c0.2,0,0.2-0.3,0.3-0.3c0.2,0.1,0.1,0.3,0.3,0.5c0.2-0.3,0.1-0.7,0.2-1
			c0-0.1,0-0.2,0-0.3c0-0.1,0-0.1,0.1-0.2c0.1,0,0.1,0.1,0.2,0.1c0.1,0.3,0.1,0.7,0.2,1c0,0.2,0,0.3,0.2,0.5
			c0.1-0.1,0.2-0.2,0.2-0.3c0.1-0.3,0.2-0.6,0.3-0.8c0.1-0.1,0.1-0.3,0.3-0.3c0.2-0.1,0.3-0.1,0.4,0.1c0.1,0.2,0.1,0.5,0.2,0.7
			c0,0.1,0,0.3,0.1,0.2c0.3-0.1,0.3,0.3,0.5,0.4c0.2,0,0.1-0.3,0.3-0.3c0.2,0,0.1,0.2,0.3,0.3c0.1-0.2,0.2-0.5,0.3-0.7
			c0.3-0.3,0.4-0.3,0.5,0.1c0.1,0.2,0.1,0.4,0.3,0.5c0,0,0.1,0,0.1,0c0.1-0.3,0.2-0.7,0.2-1.1c0-0.1,0-0.2,0.1-0.2
			c0.1,0,0.1,0.1,0.2,0.2c0,0.1,0.1,0.3,0.1,0.4c0,0.1,0.1,0.2,0.2,0.1c0.3-0.1,0.3,0.1,0.4,0.3c0,0.1,0,0.2,0.1,0.2
			c0.1,0.4,0.1,0.4,0.5,0.2c0.2-0.1,0.3-0.3,0.5-0.3c0.6,0.2,0.6-0.2,0.8-0.6c0-0.1,0.1-0.1,0.1-0.2c0.1-0.1,0.2-0.2,0.3-0.1
			c0.1,0.1,0.2,0.2,0.4,0c0.2-0.1,0.2,0,0.3,0.1c0,0.1,0.1,0.2,0.1,0.3c0,0.1,0.1,0.1,0.1,0.1c0.3-0.2,0.4,0.1,0.5,0.2
			c0.2,0.3,0.5,0.2,0.6-0.1c0.1-0.1,0.1-0.3,0.2-0.5c0-0.1,0.1-0.2,0.2-0.3c0.3-0.3,0.3-0.3,0.5,0.1c0,0,0,0,0.1,0.1
			c0.2-0.5,0.3-1,0.7-1.5c0.2,0.4,0.2,0.8,0.3,1.1c0.1,0.3,0.1,0.6,0.2,0.8c0,0.1,0.1,0.1,0.1,0.1c0,0,0.1-0.1,0.1-0.1c0,0,0,0,0,0
			c0.1-0.2,0.1-0.4,0.2-0.5c0.2-0.1,0.3,0.2,0.4,0.3c0.3,0.1,0.5,0.1,0.6-0.2c0.1-0.1,0.1-0.3,0.3-0.4c0.2,0.1,0.2,0.3,0.3,0.5
			c0.1,0.2,0.1,0.3,0.4,0.2c0.4-0.1,0.4,0,0.5,0.3c0,0.1,0.1,0.3,0.1,0.4c0,0,0,0,0.1,0.1c0.2-0.3,0.3-0.6,0.4-0.9
			c0.1-0.1,0.1-0.3,0.3-0.2c0.1,0.1,0.1-0.1,0.2-0.2c0-0.5,0.1-1,0.1-1.5c0-0.4,0.1-0.8,0.1-1.2c0-0.1,0-0.1,0.1-0.2
			c0.2,0.3,0.1,0.7,0.2,1c0,0.4,0.1,0.7,0.1,1.1c0,0.4,0.1,0.7,0.1,1.1c0.1-0.1,0.1-0.4,0.4-0.3c0.2,0.1,0.3,0.2,0.3,0.4
			c0,0.2,0.1,0.5,0.2,0.7c0,0,0,0,0.1,0c0.3-0.6,0.3-0.6,0.6,0c0.2-0.1,0.3-0.3,0.5-0.4c0.2-0.2,0.4-0.3,0.7-0.2
			c0.2,0.1,0.3,0,0.4-0.2c0.1-0.3,0.1-0.6,0.2-0.8c0,0,0,0,0.1-0.1c0.2,0.1,0.2,0.3,0.3,0.4c0.1,0,0.1-0.1,0.1-0.1
			c0.1-0.2,0.2-0.2,0.4,0c0,0.1,0.1,0.1,0.1,0.2c0.2,0.2,0.2,0.2,0.4,0c0.1-0.1,0.1-0.4,0.3-0.3c0.2,0.1,0.3,0.2,0.4,0.5
			c0.1,0.3,0.1,0.6,0.2,1c0.3-0.1,0.3-0.4,0.4-0.6c0.1-0.1,0.1-0.2,0.2-0.2c0.1,0,0.1,0.1,0.2,0.2c0.1,0.2,0.1,0.4,0.3,0.5
			c0.3-0.4,0.1-1,0.4-1.4c0.2,0.1,0.2,0.4,0.3,0.6c0.1-0.2,0.1-0.4,0.2-0.6c0-0.1,0-0.1,0.1-0.1c0.1,0,0.1,0.1,0.1,0.1
			c0.1,0.1,0.1,0.3,0.1,0.4c0,0.1,0.1,0.2,0.1,0.3c0.1,0.1,0.1,0.3,0.3,0.3c0.1,0,0.2-0.2,0.2-0.3c0.1-0.3,0.1-0.5,0.1-0.8
			c0.1-0.2,0-0.5,0.3-0.7c0.2,0.9,0.2,1.8,0.4,2.7c0.3-0.3,0.2-0.7,0.5-0.9c0.2,0.2,0.2,0.4,0.3,0.6c0.1,0.1,0,0.3,0.2,0.3
			c0.2,0,0.2-0.2,0.2-0.3c0.1-0.4,0.2-0.7,0.4-1.1c0-0.2,0-0.4,0.2-0.4c0.2,0,0.2,0.2,0.2,0.4c0.1,0.3,0.1,0.6,0.2,0.9
			c0.3-0.3,0.3-0.3,0.6-0.1c0.1-0.4,0.1-0.8,0.2-1.1c0-0.1,0-0.3,0.2-0.3c0.1,0,0.1,0.2,0.2,0.3c0.1,0.3,0.1,0.6,0.2,0.9
			c0,0.1,0,0.3,0.2,0.4c0.2-0.3,0.1-0.7,0.2-1c0-0.2,0.1-0.5,0.1-0.7c0-0.1,0-0.1,0.1-0.1c0.1,0,0.1,0.1,0.1,0.1
			c0.1,0.3,0.2,0.7,0.2,1c0,0.2,0.1,0.3,0.2,0.4c0.2,0.1,0.3,0.1,0.4-0.2c0.1-0.2,0.1-0.5,0.2-0.7c0-0.1,0-0.2,0.2-0.2
			c0.1,0,0.1,0.1,0.2,0.2c0,0.1,0.1,0.1,0.1,0.2c0.2,0,0.1-0.3,0.3-0.3c0.3,0.2,0.2,0.6,0.3,0.8c0.1,0,0.1,0,0.1,0
			c0.1-0.2,0.2-0.2,0.3,0c0.1,0.3,0.3,0.5,0.7,0.4c0.2-0.1,0.2,0.1,0.3,0.2c0.1,0.2,0.1,0.5,0.3,0.7c0.2-0.1,0.2-0.4,0.2-0.5
			c0.1-0.2,0.1-0.5,0.1-0.7c0-0.1,0-0.3,0.1-0.4c0.1-0.2,0.2-0.4,0.4-0.4c0.2,0,0.2,0.3,0.2,0.4c0.1,0.3,0.2,0.7,0.2,1
			c0,0,0.1,0,0.1,0.1c0.1,0,0.1-0.2,0.2-0.3c0.1-0.2,0.1-0.4,0.1-0.5c0-0.1,0.1-0.2,0.2-0.2c0.1,0,0.1,0.1,0.1,0.1
			c0.1,0.1,0,0.2,0.2,0.3c0.1,0,0.1-0.1,0.2-0.2c0.1-0.2,0.2-0.3,0.3-0.4c0.3-0.2,0.6-0.2,0.7,0.2c0.1,0.1,0.1,0.3,0.2,0.4
			c0.3-0.1,0.3-0.3,0.3-0.4c0.1-0.4,0.2-0.7,0.4-1.1c0-0.1,0.1-0.2,0.2-0.2c0.1,0,0.1,0.1,0.2,0.2c0.2,0.4,0.3,0.9,0.5,1.3
			c0.1,0.2,0.1,0.4,0.3,0.5c0.2,0,0.2-0.2,0.4-0.2c0.2,0,0.1,0.2,0.3,0.2c0.2-0.3,0.1-0.7,0.3-1c0.3,0.5,0.2,1,0.4,1.5
			c0.2,0,0.2-0.1,0.2-0.2c0.1-0.2,0.1-0.5,0.2-0.7c0.1-0.3,0.1-0.4,0.4-0.2c0.1,0.1,0.2,0,0.3,0c0.1-0.1,0.1-0.1,0.2-0.2
			c0.3-0.3,0.3-0.3,0.5,0.1c0.1,0.2,0.1,0.4,0.3,0.6c0.2-0.2,0.2-0.5,0.3-0.8c0-0.1,0-0.2,0.1-0.2c0.1,0,0.1,0.1,0.2,0.1
			c0.1,0.1,0.1,0.3,0.2,0.4c0.1,0,0.1,0,0.2,0c0.5-0.3,0.5-0.3,0.7,0.3c0.1,0.3,0.1,0.6,0.3,0.9c0.2-0.1,0.2-0.3,0.3-0.5
			c0.2-0.3,0.2-0.3,0.4,0C179.6,53.4,179.6,53.6,179.6,53.8z"/>
		<path fill="#B5C0CB" d="M114,30.4c-0.2-0.1-0.1-0.3-0.1-0.5c0-0.9,0-1.7,0-2.6c0-0.2,0-0.3,0-0.5c-0.1,0.2,0,0.3,0,0.5
			c0,1.1,0,2.3,0,3.4c0,0.2,0.1,0.4-0.1,0.5c0-1.4-0.1-2.9,0-4.3c0.1-1.2,0-2.3,0.1-3.5c0,0,0.1,0,0.1,0.1
			C114,25.8,114,28.1,114,30.4z"/>
		<path fill="#B0BCC8" d="M84.3,7.2c0,3.1,0,6.2,0,9.2c0,0.1,0,0.3-0.1,0.4c0-3.1,0-6.2,0-9.2C84.2,7.4,84.2,7.3,84.3,7.2z"/>
		<path fill="#D5DAE1" d="M2.9,33.7c0,2,0.1,4-0.2,6c-0.1-0.6-0.1-1.2-0.1-1.8c-0.1-0.6,0-1.2,0-1.8c0.1,0.1,0.1,0.3,0.1,0.5
			c0,0.5,0,1,0,1.4c0.1-0.2,0.1-0.4,0.1-0.6c0-1.1,0-2.2,0-3.2C2.8,34.1,2.7,33.9,2.9,33.7z"/>
		<path fill="#B4BFCB" d="M47.7,4.9c0,2.7,0,5.4,0,8.1c0,0.1,0,0.3-0.1,0.4c0-2.7,0-5.5,0-8.2C47.6,5.1,47.6,5,47.7,4.9z"/>
		<path fill="#B7C1CD" d="M164.8,14.2c0,2.7,0,5.4,0,8.1c0,0.1,0,0.2-0.1,0.3c0-2.7,0-5.4,0-8.1C164.8,14.4,164.7,14.3,164.8,14.2z"
			/>
		<path fill="#AFBBC8" d="M100.9,16.3c0,2.4,0,4.8,0,7.2c0,0.1,0,0.3-0.1,0.4c0-2.4,0-4.8,0-7.3C100.9,16.5,100.9,16.4,100.9,16.3z"
			/>
		<path fill="#AFBBC8" d="M49.9,18c0,2,0,4.1,0,6.1c0,0.1,0,0.3-0.1,0.4c0-2.1,0-4.1,0-6.2C49.8,18.2,49.8,18.1,49.9,18z"/>
		<path fill="#B2BECA" d="M73.7,29.2c-0.1-0.1-0.1-0.2-0.1-0.4c0-2,0-3.9,0-5.9c0.1,0.1,0.1,0.2,0.1,0.3
			C73.7,25.2,73.7,27.2,73.7,29.2z"/>
		<path fill="#B7C1CD" d="M11.7,18.8c0,1.7,0,3.3,0,5c0,0.1,0,0.3-0.1,0.4c0-1.7,0-3.4,0-5C11.6,19,11.6,18.9,11.7,18.8z"/>
		<path fill="#B0BCC8" d="M90.6,14.5c0,1.5,0,2.9,0,4.4c0,0.1,0,0.3-0.1,0.4c0-1.5,0-3,0-4.4C90.6,14.7,90.5,14.6,90.6,14.5z"/>
		<path fill="#BAC4CF" d="M51.2,21.4c0,1,0,1.9,0,2.9c0,0.1,0,0.2-0.1,0.3c0-1,0-1.9,0-2.9C51.1,21.6,51.1,21.5,51.2,21.4z"/>
		<path fill="#D5DAE1" d="M2.6,35.5c-0.1-0.1-0.1-0.2-0.1-0.3c0-0.6,0-1.3,0-1.9c0.1,0.1,0.1,0.2,0.1,0.3
			C2.6,34.2,2.6,34.8,2.6,35.5z"/>
		<path fill="#AFBBC8" d="M101.1,24.7c-0.2-0.2-0.2-0.5,0-0.7C101.1,24.2,101.1,24.5,101.1,24.7z"/>
		<path fill="#BBC5D0" d="M3,26.7c0.1,0.2,0.1,0.3,0,0.5C3,27.1,3,26.9,3,26.7z"/>
		<path fill="#FFFFFF" d="M164.6,37.5c0,0.2,0,0.3,0,0.5C164.5,37.8,164.6,37.7,164.6,37.5z"/>
		<path fill="#FFFFFF" d="M62.5,31.3c0.1,0.2,0.1,0.3,0,0.6C62.5,31.6,62.5,31.5,62.5,31.3z"/>
		<path fill="#FFFFFF" d="M134.8,38.3C134.7,38.3,134.7,38.3,134.8,38.3c0-0.1,0-0.2,0-0.3c0,0,0,0,0,0
			C134.8,38.1,134.8,38.2,134.8,38.3C134.8,38.3,134.8,38.3,134.8,38.3z"/>
	</g>
</g>
</svg>
