<?xml version="1.0" encoding="utf-8"?>
<!-- Generator: Adobe Illustrator 18.1.1, SVG Export Plug-In . SVG Version: 6.00 Build 0)  -->
<!DOCTYPE svg PUBLIC "-//W3C//DTD SVG 1.1//EN" "http://www.w3.org/Graphics/SVG/1.1/DTD/svg11.dtd">
<svg version="1.1" id="Layer_1" xmlns="http://www.w3.org/2000/svg" xmlns:xlink="http://www.w3.org/1999/xlink" x="0px" y="0px"
	 width="140px" height="140px" viewBox="0 0 140 140" enable-background="new 0 0 140 140" xml:space="preserve">
<g>
	<g>
		<path fill="none" d="M34.3,83.6c0-2.7-1.1-4.9,0.2-7.4c-4.8-4.8-1.9-2.2-1.9-5.3c0-1.6-1.5-3.2-3.2-4.5c-0.2,1.5-0.2,3-0.2,4.5
			c0,12,5.2,22.8,13.4,30.2l-3.2-6.5C36,94.6,34.3,86.9,34.3,83.6z"/>
		<path fill="none" d="M98,85.3c-3.4-3.4-3.4-6.8-3.4-6.8s-6.8,6.8-10.2,3.4c-3.4-3.4-3.4,0-6.8-6.8C74.2,68.3,81,64.9,81,64.9
			s0-6.8,3.4-6.8c3.4,0,6.8-6.8,13.6,0c0,0,3.9-2.6,9.5-3.3c-1.7-4.1-4.1-7.8-7-11.1c-0.6,0.4-1.4,0.8-2.4,0.8c-3.4,0,3.4,6.8,0,6.8
			c-3.4,0-3.4-3.4-6.8-3.4c-3.4,0-3.4,3.4-6.8,6.8c-3.4,3.4,0,0-3.4-3.4c-3.4-3.4,6.8,0,3.4-3.4c-3.4-3.4,3.4-3.4,3.4-6.8
			c0-2.7,4.2-3.2,6-3.4c-2-1.4-4.1-2.7-6-3.4c3.4,3.4-3.4,6.8-6.8,6.8c-3.2,0-0.4-6,0-9.5c-3.5-1-7.2-1.5-11-1.5
			c-2.1,0-4.1,0.2-6.1,0.4c-0.4,0.9-0.7,1.9-0.7,2.9c0,3.4-3.4-3.4-6.8,3.4c-3.4,6.8,0,0,0,6.8c0,3.4-4.9,0.9-3.4,1.7
			c3.4,1.7,3.4,1.7,0,5.1c0,0-6.8-3.4-6.8,0c0,3.4-3.4,3.4-6.8,3.4c-3.4,0,0,6.8-3.4,6.8c-2.6,0-1.2-4-3.5-5.9
			c-0.9,2-1.6,4.2-2.1,6.4c2.3,2.1,2.7,10.2,5.6,13.1c3.4-3.4,3.4,0,6.8,0c3.4,0,3.4,0,5.1,3.4c3.4,0,5.1,3.4,8.5,6.8
			c3.4,3.4,10.2,3.4,10.2,6.8s-3.4,0-3.4,6.8c0,3.4,0,3.4-3.4,3.4c-2.1,0-4.3,4-5.6,7c4.9,2,10.2,3.2,15.8,3.2
			c11.4,0,21.7-4.7,29.1-12.2l-1.9-3.9C97.2,95.4,101.4,88.6,98,85.3z"/>
		<path fill="#676767" d="M114.7,70.8c0-24.7-20.1-44.7-44.7-44.7c-17.5,0-32.7,10.1-40.1,24.8c-1.9,3.9-3.3,8.1-4.1,12.5
			c-0.4,2.4-0.6,4.9-0.6,7.4c0,24.7,20.1,44.7,44.7,44.7C94.7,115.6,114.7,95.5,114.7,70.8z M29.2,70.8c0-1.5,0.1-3,0.2-4.5
			c1.6,1.3,3.2,2.9,3.2,4.5c0,3.1-2.9,0.5,1.9,5.3c-1.3,2.5-0.2,4.7-0.2,7.4c0,3.4,1.7,11,5.1,11l3.2,6.5
			C34.4,93.6,29.2,82.8,29.2,70.8z M99.1,99.3c-7.4,7.6-17.7,12.2-29.1,12.2c-5.6,0-10.9-1.1-15.8-3.2c1.3-3,3.4-7,5.6-7
			c3.4,0,3.4,0,3.4-3.4c0-6.8,3.4-3.4,3.4-6.8s-6.8-3.4-10.2-6.8c-3.4-3.4-5.1-6.8-8.5-6.8c-1.7-3.4-1.7-3.4-5.1-3.4
			c-3.4,0-3.4-3.4-6.8,0c-3-3-3.3-11.1-5.6-13.1c0.5-2.2,1.2-4.3,2.1-6.4c2.3,1.9,0.9,5.9,3.5,5.9c3.4,0,0-6.8,3.4-6.8
			c3.4,0,6.8,0,6.8-3.4c0-3.4,6.8,0,6.8,0c3.4-3.4,3.4-3.4,0-5.1c-1.5-0.8,3.4,1.7,3.4-1.7c0-6.8-3.4,0,0-6.8c3.4-6.8,6.8,0,6.8-3.4
			c0-1,0.3-2,0.7-2.9c2-0.3,4-0.4,6.1-0.4c3.8,0,7.5,0.5,11,1.5c-0.4,3.5-3.2,9.5,0,9.5c3.4,0,10.2-3.4,6.8-6.8c1.9,0.8,4,2,6,3.4
			c-1.8,0.1-6,0.7-6,3.4c0,3.4-6.8,3.4-3.4,6.8c3.4,3.4-6.8,0-3.4,3.4c3.4,3.4,0,6.8,3.4,3.4c3.4-3.4,3.4-6.8,6.8-6.8
			c3.4,0,3.4,3.4,6.8,3.4c3.4,0-3.4-6.8,0-6.8c1,0,1.8-0.3,2.4-0.8c2.9,3.3,5.3,7,7,11.1c-5.6,0.6-9.5,3.3-9.5,3.3
			c-6.8-6.8-10.2,0-13.6,0c-3.4,0-3.4,6.8-3.4,6.8s-6.8,3.4-3.4,10.2c3.4,6.8,3.4,3.4,6.8,6.8c3.4,3.4,10.2-3.4,10.2-3.4
			s0,3.4,3.4,6.8c3.4,3.4-0.8,10.2-0.8,10.2L99.1,99.3z"/>
	</g>
	<path fill="none" stroke="#07B0D2" stroke-linecap="round" stroke-miterlimit="10" d="M39.6,24.1c-15.2,9.9-25.3,27.1-25.3,46.7
		c0,30.8,24.9,55.7,55.7,55.7s55.7-24.9,55.7-55.7S100.8,15.1,70,15.1"/>
	<circle fill="none" stroke="#676767" stroke-miterlimit="10" cx="45.7" cy="20.5" r="7"/>
	<circle fill="#07B0D2" cx="45.7" cy="20.5" r="4.8"/>
</g>
</svg>
