<?xml version="1.0" encoding="utf-8"?>
<!-- Generator: Adobe Illustrator 18.1.1, SVG Export Plug-In . SVG Version: 6.00 Build 0)  -->
<!DOCTYPE svg PUBLIC "-//W3C//DTD SVG 1.1//EN" "http://www.w3.org/Graphics/SVG/1.1/DTD/svg11.dtd">
<svg version="1.1" id="Layer_1" xmlns="http://www.w3.org/2000/svg" xmlns:xlink="http://www.w3.org/1999/xlink" x="0px" y="0px"
	 width="140px" height="140px" viewBox="0 0 140 140" enable-background="new 0 0 140 140" xml:space="preserve">
<g>
	<path fill="none" d="M91.9,62.5c-4.2,0-5.6,2.1-6.3,3.3h-0.1v-2.5H79v23.3h7V73.9c0-1.4,0-4.9,4-4.9c0.1,0,0.2,0,0.3,0
		c1.1-2.5,3-4.6,5.3-5.9C94.4,62.8,93.1,62.5,91.9,62.5z"/>
	<path fill="#07B0D2" d="M136.6,74.3c-0.9,0-1.5,0.6-1.6,1.5c-1.5-0.3-3-0.3-4.5-0.3c-8.3,0.2-16.7,0.1-25.1-0.3
		c-3.6-0.2-7.3-0.4-10.9-0.6l-0.1,1c3.6,0.3,7.2,0.5,10.9,0.6c8.4,0.4,16.9,0.5,25.2,0.3c1.6,0,3.2-0.1,4.7,0.4
		c0.3,0.4,0.8,0.7,1.4,0.7c0.9,0,1.7-0.7,1.7-1.7C138.3,75,137.6,74.3,136.6,74.3z"/>
	<path fill="#666666" d="M65.3,73l-1.4-1.4c-0.1-0.1-0.3-0.2-0.5-0.1c-0.2,0-0.3,0.2-0.4,0.3l-1.3,4l-1.5-14.1
		c0-0.3-0.2-0.5-0.5-0.5c-0.3,0-0.5,0.2-0.5,0.5l-2,30.2l-1.3-76.7c0-0.3-0.2-0.5-0.5-0.5h0c-0.3,0-0.5,0.2-0.5,0.5L53.5,82
		l-1.6-24.8c0-0.3-0.2-0.5-0.5-0.5c-0.3,0-0.5,0.2-0.5,0.5l-1.5,15l-1-44.3c0-0.3-0.2-0.5-0.5-0.5c0,0,0,0,0,0
		c-0.3,0-0.5,0.2-0.5,0.5l-2,61.7l-2-28.9c0-0.3-0.2-0.5-0.5-0.5c0,0,0,0,0,0c-0.3,0-0.5,0.2-0.5,0.5l-1.4,22.6l-1.7-44.5
		c0-0.3-0.2-0.5-0.5-0.5c-0.3,0-0.5,0.2-0.5,0.5l-1.1,64.7L36,53.3c0-0.3-0.2-0.5-0.5-0.5c0,0,0,0,0,0c-0.3,0-0.5,0.2-0.5,0.5
		l-1.4,30.4l-1.9-72.6c0-0.3-0.2-0.5-0.5-0.5c0,0,0,0,0,0c-0.3,0-0.5,0.2-0.5,0.5L29.9,74l-1.1-17.8c0-0.3-0.2-0.5-0.5-0.5
		c0,0,0,0,0,0c-0.3,0-0.5,0.2-0.5,0.5l-0.8,25l-1.3-37c0-0.3-0.2-0.5-0.5-0.5c-0.3,0-0.5,0.2-0.5,0.5l-1.1,53.1l-1-41.2
		c0-0.3-0.2-0.5-0.5-0.5c-0.3,0-0.5,0.2-0.5,0.5l-1.5,24.2l-1.3-23.5c0-0.3-0.2-0.5-0.5-0.5c-0.3,0-0.5,0.2-0.5,0.5l-0.3,15.2
		l-1.2-56.6c0-0.3-0.2-0.5-0.5-0.5c-0.3,0-0.5,0.2-0.5,0.5l-1.9,82l-0.5-43.6c0-0.3-0.2-0.5-0.5-0.5c0,0,0,0,0,0
		c-0.3,0-0.5,0.2-0.5,0.5L11,71L9.6,11.6c0-0.3-0.2-0.5-0.5-0.5c0,0,0,0,0,0c-0.3,0-0.5,0.2-0.5,0.5L7.9,72.4L6.3,59.7
		c0-0.3-0.3-0.5-0.5-0.5c0,0,0,0,0,0c-0.3,0-0.5,0.2-0.5,0.5l-1.4,13c-0.8,0.2-1.3,0.8-1.3,1.6c0,0.9,0.7,1.7,1.7,1.7
		s1.7-0.7,1.7-1.7c0-0.7-0.4-1.3-1-1.5l0.9-8.5l1.9,16c0,0.3,0.3,0.5,0.5,0.5c0.3,0,0.5-0.2,0.5-0.5l0.4-39.9l1.1,44.8
		c0,0.3,0.2,0.5,0.5,0.5c0.2,0,0.5-0.2,0.5-0.5L12,71.3l0.6,56.5c0,0.3,0.2,0.5,0.5,0.5c0,0,0,0,0,0c0.3,0,0.5-0.2,0.5-0.5l2-89.5
		L17,97c0,0.3,0.2,0.5,0.5,0.5h0c0.3,0,0.5-0.2,0.5-0.5l0.5-26.4l1,18.5c0,0.3,0.2,0.5,0.5,0.5c0,0,0,0,0,0c0.3,0,0.5-0.2,0.5-0.5
		l1.3-21l1.3,52.6c0,0.3,0.2,0.5,0.5,0.5c0,0,0,0,0,0c0.3,0,0.5-0.2,0.5-0.5l1.2-57.4l1.2,34c0,0.3,0.2,0.5,0.5,0.5c0,0,0,0,0,0
		c0.3,0,0.5-0.2,0.5-0.5l0.9-29.6l1.2,20.6c0,0.3,0.2,0.5,0.5,0.5c0.3,0,0.5-0.2,0.5-0.5l0.6-50.7L33,97.8c0,0.3,0.2,0.5,0.5,0.5
		c0.2,0,0.5-0.2,0.5-0.5L35.4,68l1.4,60.7c0,0.3,0.2,0.5,0.5,0.5c0,0,0,0,0,0c0.3,0,0.5-0.2,0.5-0.5l1.2-71l1.4,36
		c0,0.3,0.2,0.5,0.5,0.5c0.3,0,0.5-0.2,0.5-0.5l1.6-25l2.1,31.3c0,0.3,0.3,0.5,0.5,0.5c0.3,0,0.5-0.2,0.5-0.5l1.7-53l0.7,33.8
		c0,0.3,0.2,0.5,0.5,0.5c0.3,0,0.5-0.2,0.5-0.5l1.7-17.2l2,30.9c0,0.3,0.3,0.5,0.5,0.5c0.3,0,0.5-0.2,0.5-0.5l1-51.3l1.1,61
		c0,0.3,0.2,0.5,0.5,0.5c0.3,0,0.5-0.2,0.5-0.5l2.4-36.6L61,78.3c0,0.2,0.2,0.4,0.5,0.5c0.2,0,0.5-0.1,0.5-0.4l1.8-5.5l1.6,1.6
		c0-0.3,0-0.6,0-1C65.3,73.3,65.3,73.2,65.3,73z"/>
	<path fill="#00B1D3" d="M94.5,74.6c3.6,0.3,7.3,0.5,10.9,0.6c0-0.6,0.1-1.1,0.1-1.7c0-11.1-9-20.1-20.1-20.1
		c-10.9,0-19.8,8.7-20.1,19.6c0,0.2,0,0.3,0,0.5c0,0.3,0,0.7,0,1c0.5,10.6,9.3,19.1,20.1,19.1c10.2,0,18.6-7.6,19.9-17.4
		c-3.6-0.2-7.3-0.4-10.9-0.6L94.5,74.6z M90.2,69c-0.1,0-0.2,0-0.3,0c-4,0-4,3.4-4,4.9v12.7h-7V63.3h6.5v2.5h0.1
		c0.7-1.1,2.2-3.3,6.3-3.3c1.2,0,2.5,0.3,3.6,0.7C93.2,64.5,91.3,66.5,90.2,69z"/>
</g>
</svg>
