<?xml version="1.0" encoding="utf-8"?>
<!-- Generator: Adobe Illustrator 18.1.1, SVG Export Plug-In . SVG Version: 6.00 Build 0)  -->
<svg version="1.1" id="Layer_1" xmlns="http://www.w3.org/2000/svg" xmlns:xlink="http://www.w3.org/1999/xlink" x="0px" y="0px"
	 width="122.4px" height="34.5px" viewBox="0 0 122.4 34.5" enable-background="new 0 0 122.4 34.5" xml:space="preserve">
<g>
	<defs>
		<rect id="SVGID_1_" y="0" width="122.4" height="34.5"/>
	</defs>
	<clipPath id="SVGID_2_">
		<use xlink:href="#SVGID_1_"  overflow="visible"/>
	</clipPath>
	<path clip-path="url(#SVGID_2_)" fill="none" stroke="#000000" stroke-linecap="round" stroke-miterlimit="10" d="M0.9,33.8
		c0,0,3.9-0.2,4.8-0.4C6.5,33.2,7.3,33,7.5,33c0.2,0,1.2,0.3,2.6,0.4s0.4-0.1,3.5,0c3.1,0.1,2.6-0.7,3.7-0.7c1.1,0,0.1,0.2,1.7,0.2
		c1.6,0,1.2,0.1,2.5,0c1.3-0.1,1.6-0.1,2.4-0.3s1.4-0.6,1.6-0.6c0.2,0,1.4,0.2,3,0.2c1.6,0,3.8,0.1,3.8,0.1s0.9,0.2,1.5,0.2
		s3.5-0.8,3.5-0.8s-0.2-0.1,0.8,0.3c1,0.4,1.2,0.6,1.8,0.7c0.5,0.1,4.2,0,4.7,0c0.5,0,1.4-0.4,2.7-0.4c1.3,0,3,0.1,3.4,0.1
		c0.4,0,1.2,0.2,2.1,0.2c0.9,0.1,2.3-0.2,2.6-0.3c0.3-0.1,0.9-0.3,1.6-0.3c0.8,0,1.3-0.1,1.9,0.1c0.5,0.2,0.5,0.2,1.5,0.2
		c1,0,1.3-0.1,2.5-0.1c1.2,0,1.3-0.2,1.8-0.2c0.5,0,0.1-0.3,1.9,0c1.8,0.4,2.6,0.5,2.6,0.5s0.2,0.1,2.3,0l2.1-0.1l2-0.7
		c0,0,1.9-0.4,2.3-0.2c0.5,0.2,1.4,0.2,2.4,0.2c1,0,2-0.3,3.1-0.3c1.1,0,2.5-0.3,3.1-0.3c0.6,0-0.2-0.1,2,0c2.2,0.1-0.6,0.2,2.2,0.1
		c2.8,0,3.7,0.1,5.2-0.2s0.7-0.6,2.8-0.7c2.1,0,2.7,0,2.7,0s1.1,0.1,2.1,0c1-0.2,2.6-0.3,3-0.3c0.4,0,0.8-0.2,1.9-0.3
		c1.1-0.1,1.4-0.3,1.8-0.2c0.4,0.1,0,0.1,0.9,0.4c1.1,0.4,1.3,0.3,2.3,0.3c1,0,2.5,0.1,3.3,0.1c0.8,0,1.1,0,1.8,0c0.7,0,1,0,2.3,0
		c1.3,0.1,1,0.1,1,0.1 M1.2,33.9c0,0,2.8,0,4.4,0c1.6,0,2.2,0,3.3-0.2c1.2-0.1,5.3-0.8,5.3-0.8l3.2-0.8c0,0,4.2,0.2,4.5,0.2
		c0.3,0,1.7,0,4.3-0.6c2.6-0.6,4.5-1.5,5.4-1.5s4.5,0.2,5.4,0s1.5-0.2,2.1-0.3s2.6-0.8,3.1-0.8c0.5,0,5.3-0.7,6.3-0.8
		c0.9,0,1.1,0.2,4.5-0.3c3.4-0.5,5.7-0.6,6.7-0.3c1,0.3,2.9,0.4,2.9,0.4s1.8,0.4,2.8,0.6c1,0.2,0.7,0.3,2,0.3c1.3,0,3.3,0,4.6-0.1
		c1.2-0.1,5.1-0.3,5.1-0.3s4.2,0.1,6.5,0.1c2.3,0,2.7-0.2,3.6-0.3c0.9-0.1,3-0.7,4.9-0.7c1.9,0,5.1,0,6,0c0.9,0,1.4-0.4,3.8-0.4
		c2.4,0,2.3,0.1,3.7,0c1.4-0.1,1.5,0.2,3.1,0c1.6-0.2,1-0.3,3-0.3c2-0.1,2.5,0,4.3,0c1.8,0,3.2,0.2,4,0.3c0.9,0,1.6,0,1.6,0
		 M0.9,17.6L5.7,16c0,0,2.8,0.1,3.3,0c0.5-0.1,7.4-2.2,8.3-2.2c0.9,0,2.1-0.4,3.6-0.3c1.5,0.1,2.6,0.2,2.6,0.2s1.8-0.4,2-0.6
		c0.2-0.2,2.1-1.6,2.1-1.6s2.2,0.1,2.8,0c0.5-0.1,2.8,0.3,2.8,0.3s1.3,0.2,1.9,0.3c0.5,0,2,0,2.3,0.2c0.3,0.2,2.2,1,2.7,1.1
		c0.5,0,1.9,0,1.9,0s1.6,0.4,2.1,0.4c0.5,0.1,2.6,0.2,2.6,0.2s1.5,0.7,2.2,1c0.7,0.3,1.3,0.7,1.7,0.8c0.4,0.1,1.5,0.3,1.5,0.3
		s1.4,1.7,2,1.8c0.6,0.1,2.6,0.2,2.6,0.2l2.9,0.8c0,0,4,0.1,4.3,0c0.3-0.1,3.3,0.3,4.1,0.4c0.8,0.2,0.7,0.5,2.3,1
		c1.6,0.5,2.2,0.9,2.5,1c0.2,0.1,0.5,0.4,1.2,0.4c0.8,0,3.9-0.2,4.3,0c0.5,0.2,2.3,0.5,3.3,0.6c0.9,0.1,2-0.1,2.8,0
		c0.8,0.1,2,0.4,3.3,0.5c1.3,0.1,3-0.1,3.5,0c0.5,0.1,1.5,0,1.5,0s1.3,0.5,2,0.5c0.7,0,3.1-0.2,3.1-0.2s0.6,0.4,2.3,0.6
		c1.7,0.2,1.1,0.4,3.5,0.4c2.4,0,2.2,0.2,4,0c1.9-0.2,4.5-0.2,4.5-0.2s1.8,0.2,2.1,0.3c0.3,0.1,3.3,1,4,1.1c0.7,0.1,2.6,0.5,3.2,0.5
		 M0.9,10.6c0.5-0.1,5.4-2.1,5.4-2.1L9,9c0,0,1.6-0.8,1.9-1c0.4-0.2,1.9-1,1.9-1s2.6-0.9,2.9-1c0.3-0.1,2.9-1.6,2.9-1.6
		s4.7,0.1,5.3,0c0.6-0.1,3.3-3.2,4-3.3c0.7-0.1,2.5-0.4,2.5-0.4l2,0.4c0,0,0.2-0.4,2.2-0.4c2,0,3.3-0.1,3.6,0
		c0.4,0.1,1.8,1.1,1.8,1.1l2.4,0c0,0,1.9,0,2.2-0.1c0.3,0,2-0.4,2-0.4s2.6,1,2.9,1.1c0.3,0.1,1.2,0.5,2.1,0.7
		c0.9,0.2,1.4,0.6,1.4,0.6l1.2,0.8l2.9,0l2.4,1.1h1.6c0.9,0,5.6,0.4,5.6,0.4s2.2,1.4,2.5,1.6c0.2,0.1,3.4,1.5,3.4,1.5
		s-0.2,0.4,0.9,0.4s3.3-0.4,3.3-0.4s3.7,0.6,4.5,0.6c0.8,0,4.5-0.9,4.5-0.9s5,0.5,5.4,0.4c0.5-0.1,1.4-0.7,1.7-0.6
		c0.3,0.1,3.2,0.8,3.3,0.7c0.2-0.1,1.9-1.3,2.4-1.3c0.5,0,1.4,0.4,1.6,0.4c0.2,0,2.3-0.2,2.8-0.2c0.5,0,2.9-0.1,2.9-0.1l2.5-1
		c0,0,0.5-0.1,2.5,0c1.9,0.2,4,0.1,4.8,0.3c0.9,0.2,1.8,0.5,2.6,0.7c0.8,0.2,1.6,0.5,2.5,0.5c0.9,0,1,0,1,0"/>
	<path clip-path="url(#SVGID_2_)" d="M0.6,11.3c0.4,0,0.6-0.3,0.6-0.6C1.3,10.3,1,10,0.6,10S0,10.3,0,10.6C0,11,0.3,11.3,0.6,11.3"
		/>
	<path clip-path="url(#SVGID_2_)" d="M0.6,18.4c0.4,0,0.6-0.3,0.6-0.6c0-0.4-0.3-0.7-0.6-0.7S0,17.3,0,17.7
		C0,18.1,0.3,18.4,0.6,18.4"/>
	<path clip-path="url(#SVGID_2_)" d="M0.6,34.5c0.4,0,0.6-0.3,0.6-0.6c0-0.4-0.3-0.7-0.6-0.7S0,33.5,0,33.8
		C0,34.2,0.3,34.5,0.6,34.5"/>
	<path clip-path="url(#SVGID_2_)" d="M121.8,9.1c0.4,0,0.6-0.3,0.6-0.6c0-0.4-0.3-0.7-0.6-0.7c-0.4,0-0.6,0.3-0.6,0.7
		C121.1,8.8,121.4,9.1,121.8,9.1"/>
	<path clip-path="url(#SVGID_2_)" d="M121.8,26.2c0.4,0,0.6-0.3,0.6-0.6c0-0.4-0.3-0.7-0.6-0.7c-0.4,0-0.6,0.3-0.6,0.7
		C121.1,25.9,121.4,26.2,121.8,26.2"/>
	<path clip-path="url(#SVGID_2_)" d="M121.8,31.7c0.4,0,0.6-0.3,0.6-0.6c0-0.4-0.3-0.6-0.6-0.6c-0.4,0-0.6,0.3-0.6,0.6
		C121.1,31.4,121.4,31.7,121.8,31.7"/>
	<path clip-path="url(#SVGID_2_)" d="M121.8,27.9c0.4,0,0.6-0.3,0.6-0.6c0-0.4-0.3-0.6-0.6-0.6c-0.4,0-0.6,0.3-0.6,0.6
		C121.1,27.6,121.4,27.9,121.8,27.9"/>
</g>
</svg>
