<?xml version="1.0" encoding="utf-8"?>
<!-- Generator: Adobe Illustrator 18.1.1, SVG Export Plug-In . SVG Version: 6.00 Build 0)  -->
<svg version="1.1" id="Layer_1" xmlns="http://www.w3.org/2000/svg" xmlns:xlink="http://www.w3.org/1999/xlink" x="0px" y="0px"
	 width="113.6px" height="19.3px" viewBox="0 0 113.6 19.3" enable-background="new 0 0 113.6 19.3" xml:space="preserve">
<g>
	<defs>
		<rect id="SVGID_1_" y="0" width="113.6" height="19.3"/>
	</defs>
	<clipPath id="SVGID_2_">
		<use xlink:href="#SVGID_1_"  overflow="visible"/>
	</clipPath>
	
		<path clip-path="url(#SVGID_2_)" fill="none" stroke="#000000" stroke-width="0.75" stroke-linecap="round" stroke-linejoin="round" d="
		M0.6,14c0,0,0-0.7,0.7-0.7S2,13,2,13l0.3,0.5c0,0,0-0.6,0.3-0.6c0.3,0,0.3-0.3,1.1-0.3s0.5,0.3,0.7-0.3c0.2-0.6,0.3-1.5,0.3-1.5
		l0.9,0l1,0.7l0.2-0.9l0.7-1.2c0,0,0.3,0.2,0.3,0.6c0,0.4,1.1-0.2,1.6-0.4C10,9.4,10.9,9.3,10.9,9c0-0.3,0.3-0.7,0.3-0.7l0.3-1.1
		L12.4,8c0,0,1-2,1.2-2.4c0.2-0.4-0.4-0.7,0.3-0.7c0.7,0,0.7,0.2,0.9-0.3c0.2-0.5,0.5-1.4,1-1.1c0.5,0.4,1.2-0.3,1.2-0.3
		s0.3-0.4,0.3-1c0-0.6-0.8-0.9,0.3-1.1c1.1-0.2,1.6,0.4,1.6,0.4l0.3-1.1L20,1.3l0.7,0.6l0.7-0.7l1,0.2l1,0.6h0.7l0.7,1.9l0.7-1.1
		c0,0-0.2-0.7,0.3-0.7c0.5,0,1.4,0.7,1.4,0.7l1.2-0.4l0.7,0.6l0.7-0.7l0.7,1.1l0.3,0.6h1.4l0.5,0.2c0,0,0.2,1.3,0.7,1.5
		c0.5,0.2,1.2-1.1,1.2-1.1L35,6l0.3,0.8h0.3l0.2,0.8l0.3,1.1l0.3,0.9l0.3,0.9L37.6,9l0.8,0.2l0.1-0.6l0.3,1.5c0,0,0,0.7,0.3,0.7
		c0.3,0,1.3-1.1,1.3-1.1l0.3,0.6l0.9,0.2h0.5c0,0-0.5,1.5,0,1.3c0.5-0.2,1.2-1.5,1.2-1.5l0.3,0.7l1.1,0.5l0.2,0.7l0.3,0.7l1-0.9
		l0.7,1.1c0,0,0.5,1.3,0.5,0.9c0-0.4,0.3-2.2,0.3-2.2l0.9,1.3c0,0,0.3,0.2,0.3,0.7c0,0.5,0.9-2.1,0.9-2.1l0.7,1.3l0.3,0.7l0.3,0.5
		l0.8-1.6l0.7-0.7l0.3,0.7l0.3,0.4c0,0-0.5-0.9,0.3-1.1c0.8-0.2,0.8-1.1,0.8-1.1l0.3,0.9l0.3,0.6l0.5-1.3c0,0,0.2-0.6,0.8-0.7
		c0.6-0.2,0.6,0.2,0.6,0.2l0.3,0.7l0.9-1.3l0.3-0.7l0.3,0.6l0.3,0.6l0.3,1.3l0.3-2.2l0.8-0.6l0.2,0.9l0.3,0.4l0.7-0.9l0.3-1.3
		l1.1-0.5l0.2,0.3l0.3,0.6L64,7.7l0.7-0.3l0.2,0.3l0.8-0.7l0.3-1.1l0.3,1.5l0.9,0.3l0.2-1.3l0.3-0.2l1-0.9L68.8,6l0.7,7.6l0.4-6.7
		l0.8-0.7l0.2-0.9l0.3,1.5l0.3,1.9l1-2.8l0.3-0.2l0.2-0.6l0.3,0.7l0.3,0.9l1-0.2l0.1,0.8h0.3L76,6.9l0.2-0.6L77.4,6V5.6l0.9,1.7
		l1-1.2l0.3,1.2c0,0,0-0.6,0.3-0.6c0.4,0,1.1-0.4,1.1-0.4l0.5,1l0.3,0.3l0.3,0.4l0.9,0.4l0.7,0.9l0.3,0.9c0,0,0.3,1.7,0.3,1.3
		c0-0.4,0.3-0.9,0.3-0.9l0.3-1.5l0.3,1.9c0,0,0.3,0.2,0.8,0.4c0.5,0.2,0.1,0.4,0.1,0.4l0.8-1.3l0.3,1.3l0.3,0.7l0.3,0.1l0.7-0.3
		l0.2,0.4l0.8-0.7l0.3,1.1l0.9-0.9l0.3,0.9l0.3,0.9l0.9-1.3l0.3,0.7l0.3,0.2l0.2,0.7l0.8,2.2l0.3,0.1l0.7,0.2l0.5,0.6l0.7,0.7
		l0.3,0.6l0.3-0.6l0.6-0.4l0.2,0.2l0.3,0.7l0.7-1.5l0.3-1.5l0.3,1.3l1-0.4c0,0-0.2-0.7,0.1-0.7c0.3,0,0.6,0.5,0.6,0.5l0.3-0.7
		l0.6,0.6l0.2-1.3l1.2-1.1l0.3,1.1l0.3,0.4l0.3-1.1l0.3-0.6l0.3-0.2l0.9-0.6l0.2-0.6c0,0-0.1-0.7,0.3-0.7s0.9-0.6,0.9-0.6l0.3,0.4
		l0.3,0.6c0,0,0,0.4,0.3,0.4c0.3,0,0.6-0.7,0.6-0.7l1,1.1l0.3,0.4l0.3-1.5l0.3-0.4c0,0-0.2-0.4,0.3-0.4c0.5,0,1-0.7,1-0.7l0.3-0.6
		h0.3c0,0,0.3,0.5,0.3,0c0-0.5,0.3-1.3,0.3-1.3"/>
	<path clip-path="url(#SVGID_2_)" d="M0.6,14.8c0.4,0,0.6-0.3,0.6-0.6c0-0.4-0.3-0.6-0.6-0.6S0,13.8,0,14.1
		C0,14.5,0.3,14.8,0.6,14.8"/>
	<path clip-path="url(#SVGID_2_)" d="M113,8.9c0.4,0,0.6-0.3,0.6-0.6c0-0.4-0.3-0.7-0.6-0.7c-0.4,0-0.6,0.3-0.6,0.7
		C112.3,8.6,112.6,8.9,113,8.9"/>
</g>
</svg>
