<?xml version="1.0" encoding="utf-8"?>
<!-- Generator: Adobe Illustrator 18.1.1, SVG Export Plug-In . SVG Version: 6.00 Build 0)  -->
<svg version="1.1" id="Layer_1" xmlns="http://www.w3.org/2000/svg" xmlns:xlink="http://www.w3.org/1999/xlink" x="0px" y="0px"
	 width="200px" height="200px" viewBox="0 0 200 200" enable-background="new 0 0 200 200" xml:space="preserve">
<g>
	<path d="M100,0C44.9,0,0,44.9,0,100s44.9,100,100,100s100-44.9,100-100S155.1,0,100,0z M100,195.2c-52.5,0-95.2-42.7-95.2-95.2
		S47.5,4.8,100,4.8c52.5,0,95.2,42.7,95.2,95.2S152.5,195.2,100,195.2z"/>
	<polygon points="37.9,60.7 110.4,102.5 160.8,73.2 88.4,31.4 	"/>
	<path d="M170,73.2L170,73.2L170,73.2L88.4,24.6L28.9,60.7l0,0l0,0l-0.2,65.6l29.4,17v-22.7l12.9,7.4v22.7l39.3,22.7l59.5-34.6
		L170,73.2L170,73.2L170,73.2z M45.8,105.8l-14-8.1L32,69l13.8,8V105.8z M65.5,117.2l-18.1-10.4V77.9l18.1,10.4V117.2z M87,129.6
		l-19.8-11.5V89.3L87,100.8V129.6z M109.5,142.5L109.5,142.5l-20.9-12v-28.8l20.9,12.1V142.5z M129.9,130.7l-18.8,10.9V113
		l18.8-10.9V130.7z M148.1,120.1l-16.6,9.7v-28.6l16.6-9.7V120.1z M166.1,109.6l-16.4,9.5V90.6l16.6-9.6L166.1,109.6z M110.4,107.8
		l-80-46.2l58-35.2l79.9,47.7L110.4,107.8z"/>
</g>
</svg>
