<?xml version="1.0" encoding="utf-8"?>
<!-- Generator: Adobe Illustrator 18.1.1, SVG Export Plug-In . SVG Version: 6.00 Build 0)  -->
<svg version="1.1" id="Layer_1" xmlns="http://www.w3.org/2000/svg" xmlns:xlink="http://www.w3.org/1999/xlink" x="0px" y="0px"
	 width="200px" height="200px" viewBox="0 0 200 200" enable-background="new 0 0 200 200" xml:space="preserve">
<g>
	<path d="M100,0C44.9,0,0,44.9,0,100s44.9,100,100,100s100-44.9,100-100S155.1,0,100,0z M100,195.2c-52.5,0-95.2-42.7-95.2-95.2
		S47.5,4.8,100,4.8s95.2,42.7,95.2,95.2S152.5,195.2,100,195.2z"/>
</g>
<g>
	<path d="M100,164.3l-51.9-51.9c-7-7-10.9-16.4-10.9-26.3s3.9-19.3,10.9-26.3s16.4-10.9,26.3-10.9c9.6,0,18.7,3.6,25.6,10.2
		c6.9-6.6,16-10.2,25.6-10.2c9.9,0,19.3,3.9,26.3,10.9s10.9,16.4,10.9,26.3s-3.9,19.3-10.9,26.3L100,164.3z M74.4,53.7
		c-8.7,0-16.8,3.4-22.9,9.5S42,77.4,42,86.1s3.4,16.8,9.5,22.9l48.5,48.5l48.5-48.5c6.1-6.1,9.5-14.3,9.5-22.9s-3.4-16.8-9.5-22.9
		c-6.1-6.1-14.3-9.5-22.9-9.5c-8.7,0-16.8,3.4-22.9,9.5l-2.7,2.7l-2.7-2.7C91.2,57,83.1,53.7,74.4,53.7z"/>
</g>
<g>
	<path d="M141.7,70c-4.3-4.3-10-6.7-16.1-6.7s-11.8,2.4-16.1,6.7l-2.7,2.7l-3.4,3.4l-3.4,3.4l-3.4-3.4l-3.4-3.4L90.5,70
		c-4.3-4.3-10-6.7-16.1-6.7S62.6,65.7,58.3,70s-6.7,10-6.7,16.1s2.4,11.8,6.7,16.1l41.7,41.7l41.7-41.7c4.3-4.3,6.7-10,6.7-16.1
		C148.3,80,146,74.3,141.7,70z"/>
</g>
</svg>
