<?xml version="1.0" encoding="utf-8"?>
<!-- Generator: Adobe Illustrator 18.1.1, SVG Export Plug-In . SVG Version: 6.00 Build 0)  -->
<!DOCTYPE svg PUBLIC "-//W3C//DTD SVG 1.1//EN" "http://www.w3.org/Graphics/SVG/1.1/DTD/svg11.dtd">
<svg version="1.1" id="Layer_1" xmlns="http://www.w3.org/2000/svg" xmlns:xlink="http://www.w3.org/1999/xlink" x="0px" y="0px"
	 width="800px" height="170px" viewBox="0 0 800 170" enable-background="new 0 0 800 170" xml:space="preserve">
<g>
	<polygon fill="#07B2D4" points="410.7,117.9 417.4,94.4 402.1,94.4 409,117.9 	"/>
	<path fill="#07B2D4" d="M463.4,49.5h-1l-11.8,42h11.1c0-2.8,0.1-5.6,0.1-8.8C462,78.2,462.5,67.1,463.4,49.5z"/>
	<path fill="#07B2D4" d="M353.6,49.3c1.4,17.5,2.1,31.6,2.3,42.2h10.7l-12-42.2H353.6z"/>
	<rect x="0.2" y="160.2" fill="#07B2D4" width="106.4" height="6.1"/>
	<polygon fill="#07B2D4" points="106.6,127.3 44.1,127.3 44.1,127.3 0.2,127.3 0.2,144.3 106.6,144.3 	"/>
	<rect x="0.2" y="3.8" fill="#07B2D4" width="43.9" height="87.7"/>
	<rect x="0.2" y="94.4" fill="#07B2D4" width="43.9" height="23.5"/>
	<rect x="121.8" y="3.8" fill="#07B2D4" width="44.1" height="87.7"/>
	<rect x="121.8" y="94.4" fill="#07B2D4" width="44.1" height="23.5"/>
	<rect x="121.8" y="160.2" fill="#07B2D4" width="44.1" height="6.1"/>
	<rect x="121.8" y="127.3" fill="#07B2D4" width="44.1" height="17"/>
	<rect x="219.7" y="160.2" fill="#07B2D4" width="43.9" height="6.1"/>
	<rect x="219.7" y="127.3" fill="#07B2D4" width="43.9" height="17"/>
	<polygon fill="#07B2D4" points="263.6,39.7 303.1,39.7 303.1,3.8 180,3.8 180,39.7 219.7,39.7 219.7,91.5 263.6,91.5 	"/>
	<rect x="219.7" y="94.4" fill="#07B2D4" width="43.9" height="23.5"/>
	<polygon fill="#07B2D4" points="409,117.9 402.1,94.4 367.5,94.4 374.1,117.9 	"/>
	<polygon fill="#07B2D4" points="443.2,117.9 449.8,94.4 417.4,94.4 410.7,117.9 	"/>
	<path fill="#07B2D4" d="M356,117.9V95.7c0-0.4,0-0.9,0-1.3h-38.9v23.5H356z"/>
	<path fill="#07B2D4" d="M461.7,117.9h40.3V94.4h-40.3c0,0.2,0,0.4,0,0.6V117.9z"/>
	<path fill="#07B2D4" d="M353.6,49.3h1l12,42.2h34.7L375.5,3.8h-58.4v87.7h38.9C355.8,80.9,355,66.8,353.6,49.3z"/>
	<path fill="#07B2D4" d="M462.4,49.5h1c-0.9,17.6-1.4,28.7-1.5,33.2c-0.1,3.1-0.1,6-0.1,8.8h40.3V3.8h-58.6l-25.3,87.7h32.4
		L462.4,49.5z"/>
	<polygon fill="#07B2D4" points="435.8,144.3 440.6,127.3 376.8,127.3 381.6,144.3 	"/>
	<rect x="461.7" y="127.3" fill="#07B2D4" width="40.3" height="17"/>
	<rect x="317.1" y="127.3" fill="#07B2D4" width="38.9" height="17"/>
	<polygon fill="#07B2D4" points="387.9,166.3 429.6,166.3 431.4,160.2 386.1,160.2 	"/>
	<rect x="317.1" y="160.2" fill="#07B2D4" width="38.9" height="6.1"/>
	<rect x="461.7" y="160.2" fill="#07B2D4" width="40.3" height="6.1"/>
	<path fill="#07B2D4" d="M620.9,117.9h45.2c0.9-5.1,1.4-10.5,1.4-16.3v-7.2h-43.9v4.5C623.6,106.7,622.6,113,620.9,117.9z"/>
	<path fill="#07B2D4" d="M529.6,117.9h45.8c-1.9-4.9-2.9-11.1-2.9-18.7v-4.8h-44.1v8.2C528.4,108,528.8,113.1,529.6,117.9z"/>
	<rect x="623.6" y="3.8" fill="#07B2D4" width="43.9" height="87.7"/>
	<rect x="528.4" y="3.8" fill="#07B2D4" width="44.1" height="87.7"/>
	<path fill="#07B2D4" d="M655.1,144.3c3.7-5,6.6-10.7,8.6-17h-49.4c-4,3.1-9.4,4.7-16.4,4.7c-6.5,0-11.7-1.6-15.7-4.7h-50.4
		c1.9,6.4,4.7,12.1,8.3,17H655.1z"/>
	<path fill="#07B2D4" d="M597.3,168.5c15.6,0,28.6-2.8,39.1-8.3h-77.9C569,165.7,581.9,168.5,597.3,168.5z"/>
	<path fill="#07B2D4" d="M727,99.4c11.7,5.3,18.9,8.7,21.6,10.4c2.7,1.7,4.7,3.4,5.9,5.1c0.7,0.9,1.1,1.9,1.4,3h44.2
		c0-0.3,0-0.6,0-1c0-8.7-1.7-16.2-5.2-22.5h-78.1C719.9,96.1,723.3,97.7,727,99.4z"/>
	<path fill="#07B2D4" d="M792,89.7c-5.4-7.2-15.2-14-29.2-20.3c-14.6-6.7-23.5-11.3-26.8-13.8c-3.3-2.5-4.9-5.4-4.9-8.6
		c0-3,1.3-5.4,3.9-7.4c2.6-2,6.7-3,12.4-3c11,0,24.1,3.5,39.3,10.4l13.4-33.9c-17.5-7.8-34.6-11.7-51.4-11.7c-19,0-34,4.2-44.9,12.6
		c-10.9,8.4-16.3,20-16.3,35c0,8,1.3,14.9,3.8,20.8c2.6,5.9,6.5,11,11.8,15.6c2.4,2,5.3,4,8.7,6.1h81.5
		C792.9,90.9,792.5,90.3,792,89.7z"/>
	<path fill="#07B2D4" d="M709.3,166.2c7.3,1.5,16.4,2.3,27.2,2.3c13,0,24.3-2.2,33.9-6.5c1.3-0.6,2.5-1.2,3.7-1.8h-83.5
		C697.1,162.9,703.3,165,709.3,166.2z"/>
	<path fill="#07B2D4" d="M751.7,129.4c-3,2.3-7.8,3.4-14.3,3.4c-7.6,0-15.9-1.2-24.9-3.6c-2.2-0.6-4.4-1.2-6.6-1.9h-19.5v17h105.7
		c0.1-0.2,0.3-0.4,0.4-0.5c3.3-5,5.5-10.5,6.7-16.5H754C753.3,128.1,752.6,128.8,751.7,129.4z"/>
</g>
</svg>
