<?xml version="1.0" encoding="utf-8"?>
<!-- Generator: Adobe Illustrator 18.1.1, SVG Export Plug-In . SVG Version: 6.00 Build 0)  -->
<svg version="1.1" id="Layer_1" xmlns="http://www.w3.org/2000/svg" xmlns:xlink="http://www.w3.org/1999/xlink" x="0px" y="0px"
	 width="137.9px" height="53.4px" viewBox="0 0 137.9 53.4" enable-background="new 0 0 137.9 53.4" xml:space="preserve">
<g>
	<defs>
		<rect id="SVGID_1_" y="0" width="137.9" height="53.4"/>
	</defs>
	<clipPath id="SVGID_2_">
		<use xlink:href="#SVGID_1_"  overflow="visible"/>
	</clipPath>
	<path clip-path="url(#SVGID_2_)" fill="none" stroke="#000000" d="M0.5,52.8c0,0,1.5-0.4,2.2-0.4c0.7-0.1,1.5,0.2,1.8-0.3
		c0.3-0.5,0.2-1,1.4-1s0.8,0.1,1.3-0.3c0.5-0.4,1.7-0.2,2.5-0.2s3.4-1.4,4.1-4.7c0,0,0.3-0.7,1.7-0.8c1.4-0.1,0.4-0.5,1.7-0.7
		c1.2-0.2,2.4-0.3,3.3-0.3s1-0.3,2-0.6c1-0.3,2.4-2.5,3.6-2.9c1.2-0.4,1.9,0.2,2.5,1.1c0.6,0.9,0.9,0.9,1.7,0.9h2c0,0,0.8-0.2,1-0.7
		c0.1-0.5,1.2-1.3,2-1.7c0.8-0.4,0.6-0.4,2.5-1.4c1.9-1,1-1.6,2.1-2.4c1.2-0.8,2.6-0.4,3.2-0.5c0,0,0.5-0.7,2.5-1.1c2-0.3,4,0,4.7,0
		c0.7,0,0.4-2.2,2-2c1.6,0.2,1.8,0.9,2.7,2c0.9,1.1,0,1.2,1.8,1.6s2.4,0.5,2.9,1.5c0.4,1.1-0.4,1.6,0.9,1.8c1.3,0.2,1.5,0.7,1.9,1.1
		c0.4,0.4,0.8,1.8,1.9-0.9c1.1-2.7,1.8-6.7,3.3-7.5c1.6-0.8,2.3-0.6,3.1-1c0.8-0.4,1.7-0.9,2.1-1.7c0.4-0.8,1.2-1.8,2-1.8
		s1.9-0.3,2.1-0.8c0.3-0.5,0.7-0.9,1.4-0.9c0.7,0,1.5-0.6,2-1.1c0.4-0.4,2-0.9,2.7-0.5c0.7,0.3,0.8,0.9,1.3,1c0.5,0.1,1.3,0.3,2,0.3
		s1.7,0.3,2.4,0.6c0.7,0.2,2,0.8,2.7,0.8c0.7,0,2.5-1.1,3-3c0.5-1.9,1.9-1.5,2.8-1.8c0.9-0.3,1.7-0.4,1.9-0.8c0.2-0.4,0.3-1.3,1-1.3
		c0.7-0.1,0.3,0,1.2-0.6c0.9-0.6,1.4-1.8,2.1-0.3c0.8,1.5,1,2.2,1.8,2.2c0.8,0,1.2-0.6,2-1c0.8-0.4,1.2-0.9,2-0.9
		c0.8,0,2.7-1,3.2-2.3c0.5-1.3,1.2-2.1,2-2.7c0.8-0.5,1-1.8,1.4-2.3s0.9-1.3,2-1.3s1.6,0.2,2.1-0.1c0.5-0.3,1.7-1.5,2-2.9
		c0.3-1.4,0.8-0.9,1.1-1.6c0.3-0.7,2-5.1,2.8-5.5c0.7-0.4,1.3-0.6,2,1.3c0.7,2,1.2,4.1,2.3,4.5c1.2,0.4,1.3,0.6,2.1,1.1
		c0.8,0.5,0.3,0.7,1.2,1.1c1,0.4,0.3,0.1,1,0.6c0.7,0.5,0.4-0.1,1.2,0.7c0.8,0.8,1.6,1.9,1.6,3.2"/>
	<path clip-path="url(#SVGID_2_)" d="M0.6,53.4c0.4,0,0.6-0.3,0.6-0.6c0-0.4-0.3-0.7-0.6-0.7S0,52.3,0,52.7
		C0,53.1,0.3,53.4,0.6,53.4"/>
	<path clip-path="url(#SVGID_2_)" d="M137.2,13.9c0.4,0,0.6-0.3,0.6-0.6c0-0.4-0.3-0.7-0.6-0.7c-0.4,0-0.6,0.3-0.6,0.7
		C136.6,13.6,136.9,13.9,137.2,13.9"/>
</g>
</svg>
