<?xml version="1.0" encoding="utf-8"?>
<!-- Generator: Adobe Illustrator 18.1.1, SVG Export Plug-In . SVG Version: 6.00 Build 0)  -->
<svg version="1.1" id="Layer_1" xmlns="http://www.w3.org/2000/svg" xmlns:xlink="http://www.w3.org/1999/xlink" x="0px" y="0px"
	 width="200px" height="200px" viewBox="0 0 200 200" enable-background="new 0 0 200 200" xml:space="preserve">
<g>
	<path d="M100,0C44.9,0,0,44.9,0,100s44.9,100,100,100s100-44.9,100-100S155.1,0,100,0z M100,4.8c52.1,0,94.5,42.1,95.1,94h-2.3
		c-1.4-3.1-4.6-5.3-8.3-5.3s-6.8,2.2-8.3,5.3h-19.1c-1.4-3.1-4.6-5.3-8.3-5.3c-1.1,0-2.2,0.2-3.1,0.6l-21.8-25
		c0.8-1.4,1.3-2.9,1.3-4.6c0-5-4.1-9.1-9.1-9.1c-3.9,0-7.2,2.5-8.5,5.9H91c-1.3-3.5-4.6-5.9-8.5-5.9s-7.2,2.5-8.5,5.9H57.2
		c-1.3-3.5-4.6-5.9-8.5-5.9c-5,0-9.1,4.1-9.1,9.1c0,1.6,0.4,3.1,1.1,4.4L18.2,94.1c-1-0.4-2.1-0.6-3.3-0.6c-3.7,0-6.8,2.2-8.3,5.3
		H4.9C5.5,46.9,47.9,4.8,100,4.8z M141,98.3c-0.1,0.2-0.2,0.4-0.3,0.5h-17.3c-1.4-3.1-4.6-5.3-8.3-5.3c-3.7,0-6.8,2.2-8.3,5.3H89.7
		c-1.4-3.1-4.6-5.3-8.3-5.3c-3.7,0-6.8,2.2-8.3,5.3H55.9c-1.4-3.1-4.6-5.3-8.3-5.3s-6.8,2.2-8.3,5.3H23.2c-0.1-0.1-0.1-0.3-0.2-0.4
		L45.7,73c0.9,0.3,2,0.5,3,0.5c3.9,0,7.1-2.4,8.5-5.8H74c1.3,3.4,4.6,5.8,8.5,5.8s7.1-2.4,8.5-5.8h16.9c1.3,3.4,4.6,5.8,8.5,5.8
		c1,0,1.9-0.2,2.7-0.4L141,98.3z M100,195.2c-50.7,0-92.3-39.9-95-89.9h1.3c1.1,3.7,4.6,6.4,8.7,6.4s7.5-2.7,8.7-6.4H39
		c1.1,3.7,4.6,6.4,8.7,6.4c0.9,0,1.8-0.1,2.7-0.4L73.1,137c-0.5,1.1-0.8,2.4-0.8,3.7c0,5,4.1,9.1,9.1,9.1c3.8,0,7.1-2.4,8.4-5.7
		h16.9c1.3,3.4,4.6,5.7,8.4,5.7s7.1-2.4,8.4-5.7h16.9c1.3,3.4,4.6,5.7,8.4,5.7c5,0,9.1-4.1,9.1-9.1s-4.1-9.1-9.1-9.1
		c-3.9,0-7.3,2.5-8.5,6h-16.7c-1.3-3.5-4.6-6-8.5-6s-7.3,2.5-8.5,6H89.9c-1.3-3.5-4.6-6-8.5-6c-1.3,0-2.6,0.3-3.7,0.8l-22.3-25.2
		c0.4-0.6,0.7-1.3,0.9-2h16.4c1.1,3.7,4.6,6.4,8.7,6.4s7.5-2.7,8.7-6.4h16.4c1.1,3.7,4.6,6.4,8.7,6.4s7.5-2.7,8.7-6.4h16.4
		c1.1,3.7,4.6,6.4,8.7,6.4s7.5-2.7,8.7-6.4h18.2c1.1,3.7,4.6,6.4,8.7,6.4s7.5-2.7,8.7-6.4h1.8C192.3,155.3,150.7,195.2,100,195.2z"
		/>
</g>
</svg>
