<?xml version="1.0" encoding="utf-8"?>
<!-- Generator: Adobe Illustrator 18.1.1, SVG Export Plug-In . SVG Version: 6.00 Build 0)  -->
<svg version="1.1" id="Layer_1" xmlns="http://www.w3.org/2000/svg" xmlns:xlink="http://www.w3.org/1999/xlink" x="0px" y="0px"
	 width="116px" height="61.3px" viewBox="0 0 116 61.3" enable-background="new 0 0 116 61.3" xml:space="preserve">
<g>
	<defs>
		<rect id="SVGID_1_" y="0" width="116" height="61.3"/>
	</defs>
	<clipPath id="SVGID_2_">
		<use xlink:href="#SVGID_1_"  overflow="visible"/>
	</clipPath>
	
		<path clip-path="url(#SVGID_2_)" fill="none" stroke="#000000" stroke-width="0.6" stroke-linecap="round" stroke-miterlimit="10" d="
		M0.8,49.6c0,0,3,0.5,5,1.2c2,0.7,5.4,2,8.6,1.8c3.2-0.2,5.4-0.8,8-2.6c2.7-1.8,4.4-3.6,5-11.2c0.5-7.7,3-27.1,3-27.1
		s1.4-13.9,3-8.3c1.5,5.6,3.5,28.1,3.5,28.1s1.6,15.9,3.6,11.2c2-4.8,3.4-10.6,5.2-7.2c1.8,3.4,2.3,7.5,4.2,7
		c1.9-0.5,4-11.2,6.4-5.6c2.4,5.7,3.2,17,8.3,12.9c3.4-2.7,4.8,0.8,4.8,0.8s1.9,3.7,4.8,3.2c2.9-0.5,3.6-1.4,5.5,0
		c1.9,1.4,2.4,2.8,5.1,3.2c2.7,0.4,4.5,0.2,6.8,0.7s3.9,1.3,6.3,1.2c2.4-0.1,5.6-0.1,7.4,0.5c1.8,0.6,3,0.8,4.4,0.8
		c1.4,0,5.5,0.2,5.5,0.2"/>
	
		<line clip-path="url(#SVGID_2_)" fill="none" stroke="#000000" stroke-width="0.5" stroke-miterlimit="10" x1="0.8" y1="50.1" x2="0.8" y2="59.9"/>
</g>
<rect y="50" width="1.6" height="0.2"/>
<rect y="59.8" width="1.6" height="0.2"/>
<line fill="none" stroke="#000000" stroke-width="0.5" stroke-miterlimit="10" x1="3.9" y1="35.9" x2="3.9" y2="55.3"/>
<rect x="3.1" y="35.8" width="1.6" height="0.2"/>
<rect x="3.1" y="55.2" width="1.6" height="0.2"/>
<line fill="none" stroke="#000000" stroke-width="0.5" stroke-miterlimit="10" x1="7.9" y1="34.7" x2="7.9" y2="51.9"/>
<rect x="7.1" y="34.6" width="1.6" height="0.2"/>
<rect x="7.1" y="51.8" width="1.6" height="0.2"/>
<line fill="none" stroke="#000000" stroke-width="0.5" stroke-miterlimit="10" x1="6.2" y1="47.3" x2="6.2" y2="57.2"/>
<rect x="5.3" y="47.2" width="1.6" height="0.2"/>
<rect x="5.3" y="57" width="1.6" height="0.2"/>
<line fill="none" stroke="#000000" stroke-width="0.5" stroke-miterlimit="10" x1="10.5" y1="42.2" x2="10.5" y2="53.3"/>
<rect x="9.7" y="42.1" width="1.6" height="0.2"/>
<rect x="9.7" y="53.1" width="1.6" height="0.2"/>
<line fill="none" stroke="#000000" stroke-width="0.5" stroke-miterlimit="10" x1="9.3" y1="51.2" x2="9.3" y2="57.2"/>
<rect x="8.4" y="51.1" width="1.6" height="0.2"/>
<rect x="8.4" y="57" width="1.6" height="0.2"/>
<line fill="none" stroke="#000000" stroke-width="0.5" stroke-miterlimit="10" x1="11.5" y1="51.2" x2="11.5" y2="56.8"/>
<rect x="10.7" y="51.1" width="1.6" height="0.2"/>
<rect x="10.7" y="56.7" width="1.6" height="0.2"/>
<line fill="none" stroke="#000000" stroke-width="0.5" stroke-miterlimit="10" x1="12.8" y1="51.9" x2="12.8" y2="55.3"/>
<rect x="12" y="51.8" width="1.6" height="0.2"/>
<rect x="12" y="55.2" width="1.6" height="0.2"/>
<line fill="none" stroke="#000000" stroke-width="0.5" stroke-miterlimit="10" x1="14.3" y1="50.6" x2="14.3" y2="54.3"/>
<rect x="13.5" y="50.5" width="1.6" height="0.2"/>
<rect x="13.5" y="54.2" width="1.6" height="0.2"/>
<line fill="none" stroke="#000000" stroke-width="0.5" stroke-miterlimit="10" x1="15.6" y1="51.6" x2="15.6" y2="54.6"/>
<rect x="14.7" y="51.4" width="1.6" height="0.2"/>
<rect x="14.7" y="54.5" width="1.6" height="0.2"/>
<line fill="none" stroke="#000000" stroke-width="0.5" stroke-miterlimit="10" x1="17" y1="50.6" x2="17" y2="53.3"/>
<rect x="16.2" y="50.5" width="1.6" height="0.2"/>
<rect x="16.2" y="53.1" width="1.6" height="0.2"/>
<line fill="none" stroke="#000000" stroke-width="0.5" stroke-miterlimit="10" x1="18.2" y1="52.4" x2="18.2" y2="54.6"/>
<rect x="17.3" y="52.3" width="1.6" height="0.2"/>
<rect x="17.3" y="54.5" width="1.6" height="0.2"/>
<line fill="none" stroke="#000000" stroke-width="0.5" stroke-miterlimit="10" x1="19.5" y1="53.5" x2="19.5" y2="55.1"/>
<rect x="18.7" y="53.4" width="1.6" height="0.2"/>
<rect x="18.7" y="55" width="1.6" height="0.2"/>
<line fill="none" stroke="#000000" stroke-width="0.5" stroke-miterlimit="10" x1="20.9" y1="50.6" x2="20.9" y2="52.3"/>
<rect x="20.1" y="50.5" width="1.6" height="0.2"/>
<rect x="20.1" y="52.2" width="1.6" height="0.2"/>
<line fill="none" stroke="#000000" stroke-width="0.5" stroke-miterlimit="10" x1="22.8" y1="48.7" x2="22.8" y2="49.9"/>
<rect x="22" y="48.6" width="1.6" height="0.2"/>
<rect x="22" y="49.8" width="1.6" height="0.2"/>
<line fill="none" stroke="#000000" stroke-width="0.5" stroke-miterlimit="10" x1="24.6" y1="47.1" x2="24.6" y2="48.1"/>
<rect x="24" y="47" width="1.6" height="0.2"/>
<rect x="24" y="48.2" width="1.6" height="0.2"/>
<line fill="none" stroke="#000000" stroke-width="0.5" stroke-miterlimit="10" x1="25.2" y1="46.3" x2="25.2" y2="47.1"/>
<rect x="24.4" y="46.2" width="1.6" height="0.2"/>
<rect x="24.4" y="47" width="1.6" height="0.2"/>
<line fill="none" stroke="#000000" stroke-width="0.5" stroke-miterlimit="10" x1="27.2" y1="39.8" x2="27.2" y2="40.8"/>
<rect x="26.4" y="39.7" width="1.6" height="0.2"/>
<rect x="26.4" y="40.7" width="1.6" height="0.2"/>
<line fill="none" stroke="#000000" stroke-width="0.5" stroke-miterlimit="10" x1="28.3" y1="29.2" x2="28.3" y2="30.6"/>
<rect x="27.5" y="29.1" width="1.6" height="0.2"/>
<rect x="27.5" y="30.5" width="1.6" height="0.2"/>
<line fill="none" stroke="#000000" stroke-width="0.5" stroke-miterlimit="10" x1="29.3" y1="20" x2="29.3" y2="21.6"/>
<rect x="28.5" y="19.8" width="1.6" height="0.2"/>
<rect x="28.5" y="21.4" width="1.6" height="0.2"/>
<line fill="none" stroke="#000000" stroke-width="0.5" stroke-miterlimit="10" x1="30.5" y1="9.8" x2="30.5" y2="11.6"/>
<rect x="29.7" y="9.6" width="1.6" height="0.2"/>
<rect x="29.7" y="11.4" width="1.6" height="0.2"/>
<line fill="none" stroke="#000000" stroke-width="0.5" stroke-miterlimit="10" x1="31.6" y1="2.8" x2="31.6" y2="4.7"/>
<rect x="30.8" y="2.7" width="1.6" height="0.2"/>
<rect x="30.8" y="4.6" width="1.6" height="0.2"/>
<g>
	<defs>
		<rect id="SVGID_3_" y="0" width="116" height="61.3"/>
	</defs>
	<clipPath id="SVGID_4_">
		<use xlink:href="#SVGID_3_"  overflow="visible"/>
	</clipPath>
	
		<line clip-path="url(#SVGID_4_)" fill="none" stroke="#000000" stroke-width="0.5" stroke-miterlimit="10" x1="32.8" y1="0.1" x2="32.8" y2="1.7"/>
</g>
<rect x="32" y="0" width="1.6" height="0.2"/>
<rect x="32" y="1.6" width="1.6" height="0.2"/>
<line fill="none" stroke="#000000" stroke-width="0.5" stroke-miterlimit="10" x1="34.5" y1="8.9" x2="34.5" y2="10.3"/>
<rect x="33.7" y="8.8" width="1.6" height="0.2"/>
<rect x="33.7" y="10.2" width="1.6" height="0.2"/>
<line fill="none" stroke="#000000" stroke-width="0.5" stroke-miterlimit="10" x1="35.5" y1="17.8" x2="35.5" y2="19"/>
<rect x="34.7" y="17.7" width="1.6" height="0.2"/>
<rect x="34.7" y="18.9" width="1.6" height="0.2"/>
<line fill="none" stroke="#000000" stroke-width="0.5" stroke-miterlimit="10" x1="36.6" y1="28.1" x2="36.6" y2="28.9"/>
<rect x="35.8" y="28" width="1.6" height="0.2"/>
<rect x="35.8" y="28.8" width="1.6" height="0.2"/>
<line fill="none" stroke="#000000" stroke-width="0.5" stroke-miterlimit="10" x1="37.7" y1="37.3" x2="37.7" y2="38"/>
<rect x="36.9" y="37.1" width="1.6" height="0.2"/>
<rect x="36.9" y="37.9" width="1.6" height="0.2"/>
<line fill="none" stroke="#000000" stroke-width="0.5" stroke-miterlimit="10" x1="38.7" y1="42" x2="38.7" y2="42.6"/>
<rect x="37.9" y="41.9" width="1.6" height="0.2"/>
<rect x="37.9" y="42.5" width="1.6" height="0.2"/>
<line fill="none" stroke="#000000" stroke-width="0.5" stroke-miterlimit="10" x1="39.8" y1="43.4" x2="39.8" y2="44"/>
<rect x="39" y="43.3" width="1.6" height="0.2"/>
<rect x="39" y="43.9" width="1.6" height="0.2"/>
<line fill="none" stroke="#000000" stroke-width="0.5" stroke-miterlimit="10" x1="41" y1="41.1" x2="41" y2="41.5"/>
<rect x="40.2" y="41" width="1.6" height="0.2"/>
<rect x="40.2" y="41.3" width="1.6" height="0.2"/>
<line fill="none" stroke="#000000" stroke-width="0.5" stroke-miterlimit="10" x1="42.2" y1="37.8" x2="42.2" y2="38.4"/>
<rect x="41.4" y="37.6" width="1.6" height="0.2"/>
<rect x="41.4" y="38.3" width="1.6" height="0.2"/>
<line fill="none" stroke="#000000" stroke-width="0.5" stroke-miterlimit="10" x1="43.5" y1="34.9" x2="43.5" y2="35.5"/>
<rect x="42.7" y="34.7" width="1.6" height="0.2"/>
<rect x="42.7" y="35.3" width="1.6" height="0.2"/>
<line fill="none" stroke="#000000" stroke-width="0.5" stroke-miterlimit="10" x1="45.2" y1="34.5" x2="45.2" y2="35"/>
<rect x="44.4" y="34.4" width="1.6" height="0.2"/>
<rect x="44.4" y="34.8" width="1.6" height="0.2"/>
<line fill="none" stroke="#000000" stroke-width="0.5" stroke-miterlimit="10" x1="46.1" y1="35.9" x2="46.1" y2="36.6"/>
<rect x="45.3" y="35.8" width="1.6" height="0.2"/>
<rect x="45.3" y="36.5" width="1.6" height="0.2"/>
<line fill="none" stroke="#000000" stroke-width="0.5" stroke-miterlimit="10" x1="47.2" y1="39" x2="47.2" y2="39.6"/>
<rect x="46.4" y="38.8" width="1.6" height="0.2"/>
<rect x="46.4" y="39.5" width="1.6" height="0.2"/>
<line fill="none" stroke="#000000" stroke-width="0.5" stroke-miterlimit="10" x1="48.1" y1="41.3" x2="48.1" y2="41.8"/>
<rect x="47.3" y="41.2" width="1.6" height="0.2"/>
<rect x="47.3" y="41.7" width="1.6" height="0.2"/>
<line fill="none" stroke="#000000" stroke-width="0.5" stroke-miterlimit="10" x1="49.1" y1="42.5" x2="49.1" y2="42.6"/>
<rect x="48.3" y="42.4" width="1.6" height="0.2"/>
<rect x="48.3" y="42.5" width="1.6" height="0.2"/>
<line fill="none" stroke="#000000" stroke-width="0.5" stroke-miterlimit="10" x1="50.4" y1="42.4" x2="50.4" y2="42.6"/>
<rect x="49.5" y="42.3" width="1.6" height="0.2"/>
<rect x="49.5" y="42.5" width="1.6" height="0.2"/>
<line fill="none" stroke="#000000" stroke-width="0.5" stroke-miterlimit="10" x1="51.3" y1="40.6" x2="51.3" y2="40.8"/>
<rect x="50.5" y="40.5" width="1.6" height="0.2"/>
<rect x="50.5" y="40.7" width="1.6" height="0.2"/>
<line fill="none" stroke="#000000" stroke-width="0.5" stroke-miterlimit="10" x1="52.6" y1="38" x2="52.6" y2="38.4"/>
<rect x="51.8" y="37.9" width="1.6" height="0.2"/>
<rect x="51.8" y="38.3" width="1.6" height="0.2"/>
<line fill="none" stroke="#000000" stroke-width="0.5" stroke-miterlimit="10" x1="53.4" y1="36.4" x2="53.4" y2="36.6"/>
<rect x="52.6" y="36.3" width="1.6" height="0.2"/>
<rect x="52.6" y="36.5" width="1.6" height="0.2"/>
<line fill="none" stroke="#000000" stroke-width="0.5" stroke-miterlimit="10" x1="54.8" y1="35.3" x2="54.8" y2="35.7"/>
<rect x="54" y="35.2" width="1.6" height="0.2"/>
<rect x="54" y="35.6" width="1.6" height="0.2"/>
<line fill="none" stroke="#000000" stroke-width="0.5" stroke-miterlimit="10" x1="56.2" y1="36.6" x2="56.2" y2="37"/>
<rect x="55.4" y="36.5" width="1.6" height="0.2"/>
<rect x="55.4" y="36.9" width="1.6" height="0.2"/>
<line fill="none" stroke="#000000" stroke-width="0.5" stroke-miterlimit="10" x1="57.3" y1="40.1" x2="57.3" y2="40.2"/>
<rect x="56.5" y="40" width="1.6" height="0.2"/>
<rect x="56.5" y="40.1" width="1.6" height="0.2"/>
<line fill="none" stroke="#000000" stroke-width="0.5" stroke-miterlimit="10" x1="58.4" y1="43.8" x2="58.4" y2="44"/>
<rect x="57.6" y="43.7" width="1.6" height="0.2"/>
<rect x="57.6" y="43.9" width="1.6" height="0.2"/>
<rect x="58.7" y="47.2" width="1.6" height="0.2"/>
<rect x="58.7" y="47.2" width="1.6" height="0.2"/>
<line fill="none" stroke="#000000" stroke-width="0.5" stroke-miterlimit="10" x1="60.8" y1="49.7" x2="60.8" y2="49.7"/>
<rect x="60" y="49.6" width="1.6" height="0.2"/>
<rect x="60" y="49.6" width="1.6" height="0.2"/>
<line fill="none" stroke="#000000" stroke-width="0.5" stroke-miterlimit="10" x1="61.7" y1="50.6" x2="61.7" y2="50.7"/>
<rect x="60.9" y="50.5" width="1.6" height="0.2"/>
<rect x="60.9" y="50.6" width="1.6" height="0.2"/>
<rect x="62.3" y="50.5" width="1.6" height="0.2"/>
<rect x="62.3" y="50.4" width="1.6" height="0.2"/>
<line fill="none" stroke="#000000" stroke-width="0.5" stroke-miterlimit="10" x1="64.1" y1="49.7" x2="64.1" y2="49.9"/>
<rect x="63.3" y="49.6" width="1.6" height="0.2"/>
<rect x="63.3" y="49.8" width="1.6" height="0.2"/>
<line fill="none" stroke="#000000" stroke-width="0.5" stroke-miterlimit="10" x1="65.4" y1="49" x2="65.4" y2="49.2"/>
<rect x="64.6" y="48.8" width="1.6" height="0.2"/>
<rect x="64.6" y="49.1" width="1.6" height="0.2"/>
<rect x="65.8" y="48.8" width="1.6" height="0.2"/>
<rect x="65.8" y="48.8" width="1.6" height="0.2"/>
<line fill="none" stroke="#000000" stroke-width="0.5" stroke-miterlimit="10" x1="69.2" y1="50.5" x2="69.2" y2="50.3"/>
<rect x="68.4" y="50.4" width="1.6" height="0.2"/>
<rect x="68.4" y="50.2" width="1.6" height="0.2"/>
<line fill="none" stroke="#000000" stroke-width="0.5" stroke-miterlimit="10" x1="68" y1="49" x2="68" y2="48.9"/>
<rect x="67.2" y="48.9" width="1.6" height="0.2"/>
<rect x="67.2" y="48.8" width="1.6" height="0.2"/>
<line fill="none" stroke="#000000" stroke-width="0.5" stroke-miterlimit="10" x1="70.2" y1="52.1" x2="70.2" y2="52.1"/>
<rect x="69.4" y="52" width="1.6" height="0.2"/>
<rect x="69.4" y="51.9" width="1.6" height="0.2"/>
<line fill="none" stroke="#000000" stroke-width="0.5" stroke-miterlimit="10" x1="71.4" y1="53.4" x2="71.4" y2="53.2"/>
<rect x="70.6" y="53.3" width="1.6" height="0.2"/>
<rect x="70.6" y="53.1" width="1.6" height="0.2"/>
<line fill="none" stroke="#000000" stroke-width="0.5" stroke-miterlimit="10" x1="72.4" y1="53.9" x2="72.4" y2="53.8"/>
<rect x="71.6" y="53.7" width="1.6" height="0.2"/>
<rect x="71.6" y="53.6" width="1.6" height="0.2"/>
<line fill="none" stroke="#000000" stroke-width="0.5" stroke-miterlimit="10" x1="73.6" y1="54.2" x2="73.6" y2="54.1"/>
<rect x="72.8" y="54.1" width="1.6" height="0.2"/>
<rect x="72.8" y="54" width="1.6" height="0.2"/>
<rect x="73.8" y="53.6" width="1.6" height="0.2"/>
<rect x="73.8" y="53.6" width="1.6" height="0.2"/>
<rect x="75.1" y="53.5" width="1.6" height="0.2"/>
<rect x="75.1" y="53.5" width="1.6" height="0.2"/>
<line fill="none" stroke="#000000" stroke-width="0.5" stroke-miterlimit="10" x1="77.1" y1="53.1" x2="77.1" y2="53"/>
<rect x="76.3" y="53" width="1.6" height="0.2"/>
<rect x="76.3" y="52.9" width="1.6" height="0.2"/>
<line fill="none" stroke="#000000" stroke-width="0.5" stroke-miterlimit="10" x1="78.2" y1="53.4" x2="78.2" y2="53.3"/>
<rect x="77.4" y="53.3" width="1.6" height="0.2"/>
<rect x="77.4" y="53.2" width="1.6" height="0.2"/>
<line fill="none" stroke="#000000" stroke-width="0.5" stroke-miterlimit="10" x1="79.4" y1="53.9" x2="79.4" y2="53.9"/>
<rect x="78.5" y="53.7" width="1.6" height="0.2"/>
<rect x="78.5" y="53.7" width="1.6" height="0.2"/>
<rect x="79.8" y="54.5" width="1.6" height="0.2"/>
<rect x="79.8" y="54.6" width="1.6" height="0.2"/>
<line fill="none" stroke="#000000" stroke-width="0.5" stroke-miterlimit="10" x1="81.6" y1="55.7" x2="81.6" y2="55.6"/>
<rect x="80.8" y="55.6" width="1.6" height="0.2"/>
<rect x="80.8" y="55.5" width="1.6" height="0.2"/>
<rect x="82.1" y="56.3" width="1.6" height="0.2"/>
<rect x="82.1" y="56.4" width="1.6" height="0.2"/>
<rect x="83.1" y="57" width="1.6" height="0.2"/>
<rect x="83.1" y="57" width="1.6" height="0.2"/>
<g>
	<defs>
		<rect id="SVGID_5_" y="0" width="116" height="61.3"/>
	</defs>
	<clipPath id="SVGID_6_">
		<use xlink:href="#SVGID_5_"  overflow="visible"/>
	</clipPath>
	<path clip-path="url(#SVGID_6_)" d="M1.6,58.4c0-0.4-0.3-0.8-0.8-0.8c-0.4,0-0.8,0.3-0.8,0.8s0.3,0.8,0.8,0.8
		C1.2,59.2,1.6,58.8,1.6,58.4"/>
	<path clip-path="url(#SVGID_6_)" d="M1.6,49.6c0-0.4-0.3-0.8-0.8-0.8c-0.4,0-0.8,0.3-0.8,0.8c0,0.4,0.3,0.8,0.8,0.8
		C1.2,50.4,1.6,50.1,1.6,49.6 M4.7,51c0-0.4-0.3-0.8-0.8-0.8c-0.4,0-0.8,0.3-0.8,0.8s0.3,0.8,0.8,0.8C4.3,51.8,4.7,51.4,4.7,51"/>
	<path clip-path="url(#SVGID_6_)" d="M6.9,54.8c0-0.4-0.3-0.8-0.8-0.8c-0.4,0-0.8,0.3-0.8,0.8s0.3,0.8,0.8,0.8
		C6.5,55.6,6.9,55.2,6.9,54.8 M8.6,48.1c0-0.4-0.3-0.8-0.8-0.8c-0.4,0-0.8,0.3-0.8,0.8c0,0.4,0.3,0.8,0.8,0.8
		C8.3,48.9,8.6,48.5,8.6,48.1 M9.3,54.6c-0.4,0-0.8,0.3-0.8,0.8c0,0.4,0.3,0.8,0.8,0.8c0.4,0,0.8-0.3,0.8-0.8
		C10,54.9,9.7,54.6,9.3,54.6 M11.2,49.3c0-0.4-0.3-0.8-0.8-0.8c-0.4,0-0.8,0.3-0.8,0.8c0,0.4,0.3,0.8,0.8,0.8
		C10.9,50.1,11.2,49.8,11.2,49.3 M12.2,54.8c0-0.4-0.3-0.8-0.8-0.8c-0.4,0-0.8,0.3-0.8,0.8s0.3,0.8,0.8,0.8
		C11.9,55.6,12.2,55.2,12.2,54.8"/>
	<path clip-path="url(#SVGID_6_)" d="M17.8,52.1c0-0.4-0.3-0.8-0.8-0.8c-0.4,0-0.8,0.3-0.8,0.8s0.3,0.8,0.8,0.8
		C17.4,52.9,17.8,52.6,17.8,52.1"/>
	<path clip-path="url(#SVGID_6_)" d="M15.6,52.9c-0.2,0-0.4,0.1-0.6,0.2c0-0.1,0.1-0.2,0.1-0.3c0-0.4-0.3-0.8-0.8-0.8
		c-0.4,0-0.8,0.3-0.8,0.8s0.3,0.8,0.8,0.8c0.2,0,0.4-0.1,0.6-0.2c0,0.1-0.1,0.2-0.1,0.3c0,0.4,0.3,0.8,0.8,0.8
		c0.4,0,0.8-0.3,0.8-0.8C16.3,53.2,16,52.9,15.6,52.9"/>
	<path clip-path="url(#SVGID_6_)" d="M13.6,54c0-0.4-0.3-0.8-0.8-0.8c-0.4,0-0.8,0.3-0.8,0.8s0.3,0.8,0.8,0.8
		C13.2,54.7,13.6,54.4,13.6,54"/>
	<path clip-path="url(#SVGID_6_)" d="M25.5,47.8c0-0.4-0.3-0.8-0.8-0.8c-0.4,0-0.8,0.3-0.8,0.8s0.3,0.8,0.8,0.8
		C25.2,48.6,25.5,48.3,25.5,47.8"/>
	<path clip-path="url(#SVGID_6_)" d="M23.6,49.4c0-0.4-0.3-0.8-0.8-0.8c-0.4,0-0.8,0.3-0.8,0.8s0.3,0.8,0.8,0.8
		C23.2,50.2,23.6,49.8,23.6,49.4"/>
	<path clip-path="url(#SVGID_6_)" d="M21.7,51.7c0-0.4-0.3-0.8-0.8-0.8c-0.4,0-0.8,0.3-0.8,0.8c0,0.4,0.3,0.8,0.8,0.8
		C21.3,52.4,21.7,52.1,21.7,51.7"/>
	<path clip-path="url(#SVGID_6_)" d="M20.3,54.4c0-0.4-0.3-0.8-0.8-0.8c-0.4,0-0.8,0.3-0.8,0.8s0.3,0.8,0.8,0.8
		C20,55.2,20.3,54.8,20.3,54.4"/>
	<path clip-path="url(#SVGID_6_)" d="M19,53.6c0-0.4-0.3-0.8-0.8-0.8c-0.4,0-0.8,0.3-0.8,0.8s0.3,0.8,0.8,0.8
		C18.6,54.3,19,54,19,53.6"/>
	<path clip-path="url(#SVGID_6_)" d="M37.3,28.5c0-0.4-0.3-0.8-0.8-0.8c-0.4,0-0.8,0.3-0.8,0.8c0,0.4,0.3,0.8,0.8,0.8
		C37,29.3,37.3,28.9,37.3,28.5"/>
	<path clip-path="url(#SVGID_6_)" d="M36.3,18.5c0-0.4-0.3-0.8-0.8-0.8c-0.4,0-0.8,0.3-0.8,0.8c0,0.4,0.3,0.8,0.8,0.8
		C35.9,19.2,36.3,18.9,36.3,18.5"/>
	<path clip-path="url(#SVGID_6_)" d="M35.3,9.7c0-0.4-0.3-0.8-0.8-0.8c-0.4,0-0.8,0.3-0.8,0.8c0,0.4,0.3,0.8,0.8,0.8
		C34.9,10.4,35.3,10.1,35.3,9.7"/>
	<path clip-path="url(#SVGID_6_)" d="M33.6,0.9c0-0.4-0.3-0.8-0.8-0.8c-0.4,0-0.8,0.3-0.8,0.8c0,0.4,0.3,0.8,0.8,0.8
		C33.2,1.7,33.6,1.4,33.6,0.9"/>
	<path clip-path="url(#SVGID_6_)" d="M31.7,3c-0.4,0-0.8,0.3-0.8,0.8c0,0.4,0.3,0.8,0.8,0.8c0.4,0,0.8-0.3,0.8-0.8
		C32.4,3.3,32.1,3,31.7,3"/>
	<path clip-path="url(#SVGID_6_)" d="M30.5,9.8c-0.4,0-0.8,0.3-0.8,0.8c0,0.4,0.3,0.8,0.8,0.8c0.4,0,0.8-0.3,0.8-0.8
		C31.3,10.2,31,9.8,30.5,9.8"/>
	<path clip-path="url(#SVGID_6_)" d="M29.3,20c-0.4,0-0.8,0.3-0.8,0.8c0,0.4,0.3,0.8,0.8,0.8c0.4,0,0.8-0.3,0.8-0.8
		C30,20.4,29.7,20,29.3,20"/>
	<path clip-path="url(#SVGID_6_)" d="M28.2,29.1c-0.4,0-0.8,0.3-0.8,0.8c0,0.4,0.3,0.8,0.8,0.8c0.4,0,0.8-0.3,0.8-0.8
		C29,29.4,28.7,29.1,28.2,29.1"/>
	<path clip-path="url(#SVGID_6_)" d="M27.2,39.6c-0.4,0-0.8,0.3-0.8,0.8c0,0.4,0.3,0.8,0.8,0.8c0.4,0,0.8-0.3,0.8-0.8
		C28,39.9,27.6,39.6,27.2,39.6"/>
	<path clip-path="url(#SVGID_6_)" d="M25.9,47c0-0.4-0.3-0.8-0.8-0.8c-0.4,0-0.8,0.3-0.8,0.8c0,0.4,0.3,0.8,0.8,0.8
		C25.6,47.7,25.9,47.4,25.9,47"/>
	<path clip-path="url(#SVGID_6_)" d="M52.1,40.7c0-0.4-0.3-0.8-0.8-0.8c-0.4,0-0.8,0.3-0.8,0.8s0.3,0.8,0.8,0.8
		C51.8,41.5,52.1,41.1,52.1,40.7"/>
	<path clip-path="url(#SVGID_6_)" d="M50.4,41.8c-0.3,0-0.6,0.2-0.7,0.5c-0.1-0.2-0.3-0.3-0.6-0.3c-0.4,0-0.8,0.3-0.8,0.8
		s0.3,0.8,0.8,0.8c0.3,0,0.6-0.2,0.7-0.5c0.1,0.2,0.3,0.3,0.6,0.3c0.4,0,0.8-0.3,0.8-0.8C51.1,42.1,50.8,41.8,50.4,41.8"/>
	<path clip-path="url(#SVGID_6_)" d="M48.9,41.5c0-0.4-0.3-0.8-0.8-0.8c-0.4,0-0.8,0.3-0.8,0.8s0.3,0.8,0.8,0.8
		C48.6,42.3,48.9,42,48.9,41.5"/>
	<path clip-path="url(#SVGID_6_)" d="M48,39.3c0-0.4-0.3-0.8-0.8-0.8c-0.4,0-0.8,0.3-0.8,0.8c0,0.4,0.3,0.8,0.8,0.8
		C47.6,40,48,39.7,48,39.3"/>
	<path clip-path="url(#SVGID_6_)" d="M46.8,36.1c0-0.4-0.3-0.8-0.8-0.8c-0.4,0-0.8,0.3-0.8,0.8s0.3,0.8,0.8,0.8
		C46.5,36.9,46.8,36.5,46.8,36.1"/>
	<path clip-path="url(#SVGID_6_)" d="M45.9,34.8c0-0.4-0.3-0.8-0.8-0.8c-0.4,0-0.8,0.3-0.8,0.8s0.3,0.8,0.8,0.8
		C45.6,35.6,45.9,35.2,45.9,34.8"/>
	<path clip-path="url(#SVGID_6_)" d="M44.3,35.3c0-0.4-0.3-0.8-0.8-0.8c-0.4,0-0.8,0.3-0.8,0.8s0.3,0.8,0.8,0.8
		C43.9,36.1,44.3,35.7,44.3,35.3"/>
	<path clip-path="url(#SVGID_6_)" d="M42.9,38.2c0-0.4-0.3-0.8-0.8-0.8c-0.4,0-0.8,0.3-0.8,0.8c0,0.4,0.3,0.8,0.8,0.8
		C42.6,39,42.9,38.6,42.9,38.2"/>
	<path clip-path="url(#SVGID_6_)" d="M41,40.6c-0.4,0-0.8,0.3-0.8,0.8c0,0.4,0.3,0.8,0.8,0.8c0.4,0,0.8-0.3,0.8-0.8
		C41.7,41,41.4,40.6,41,40.6"/>
	<path clip-path="url(#SVGID_6_)" d="M39.8,43c-0.4,0-0.8,0.3-0.8,0.8c0,0.4,0.3,0.8,0.8,0.8c0.4,0,0.8-0.3,0.8-0.8
		C40.5,43.3,40.2,43,39.8,43"/>
	<path clip-path="url(#SVGID_6_)" d="M39.5,42.3c0-0.4-0.3-0.8-0.8-0.8c-0.4,0-0.8,0.3-0.8,0.8c0,0.4,0.3,0.8,0.8,0.8
		C39.1,43.1,39.5,42.7,39.5,42.3"/>
	<path clip-path="url(#SVGID_6_)" d="M38.4,37.6c0-0.4-0.3-0.8-0.8-0.8c-0.4,0-0.8,0.3-0.8,0.8c0,0.4,0.3,0.8,0.8,0.8
		C38.1,38.4,38.4,38.1,38.4,37.6"/>
	<path clip-path="url(#SVGID_6_)" d="M60.3,47.3c0-0.4-0.3-0.8-0.8-0.8c-0.4,0-0.8,0.3-0.8,0.8c0,0.4,0.3,0.8,0.8,0.8
		C60,48,60.3,47.7,60.3,47.3"/>
	<path clip-path="url(#SVGID_6_)" d="M59.2,43.8c0-0.4-0.3-0.8-0.8-0.8c-0.4,0-0.8,0.3-0.8,0.8s0.3,0.8,0.8,0.8
		C58.8,44.5,59.2,44.2,59.2,43.8"/>
	<path clip-path="url(#SVGID_6_)" d="M58.1,40.2c0-0.4-0.3-0.8-0.8-0.8c-0.4,0-0.8,0.3-0.8,0.8s0.3,0.8,0.8,0.8
		C57.7,40.9,58.1,40.6,58.1,40.2"/>
	<path clip-path="url(#SVGID_6_)" d="M57,37c0-0.4-0.3-0.8-0.8-0.8c-0.4,0-0.8,0.3-0.8,0.8c0,0.4,0.3,0.8,0.8,0.8
		C56.6,37.7,57,37.4,57,37"/>
	<path clip-path="url(#SVGID_6_)" d="M55.6,35.3c0-0.4-0.3-0.8-0.8-0.8c-0.4,0-0.8,0.3-0.8,0.8c0,0.4,0.3,0.8,0.8,0.8
		C55.3,36.1,55.6,35.7,55.6,35.3"/>
	<path clip-path="url(#SVGID_6_)" d="M54.1,36.4c0-0.4-0.3-0.8-0.8-0.8c-0.4,0-0.8,0.3-0.8,0.8c0,0.4,0.3,0.8,0.8,0.8
		C53.8,37.2,54.1,36.9,54.1,36.4"/>
	<path clip-path="url(#SVGID_6_)" d="M52.6,37.2c-0.4,0-0.8,0.3-0.8,0.8c0,0.4,0.3,0.8,0.8,0.8c0.4,0,0.8-0.3,0.8-0.8
		C53.4,37.6,53,37.2,52.6,37.2"/>
	<path clip-path="url(#SVGID_6_)" d="M80.1,53.8c0-0.4-0.3-0.8-0.8-0.8c-0.2,0-0.3,0.1-0.4,0.1c-0.1-0.3-0.4-0.6-0.7-0.6
		c-0.2,0-0.4,0.1-0.5,0.2c-0.1-0.2-0.3-0.3-0.6-0.3c-0.3,0-0.6,0.2-0.7,0.5c-0.1-0.1-0.3-0.2-0.5-0.2c-0.3,0-0.5,0.2-0.7,0.4
		c-0.1-0.2-0.4-0.4-0.6-0.4c-0.3,0-0.6,0.2-0.7,0.4c-0.1-0.1-0.2-0.1-0.4-0.1c-0.2,0-0.3,0.1-0.4,0.2c-0.1-0.3-0.4-0.4-0.7-0.4
		c-0.1,0-0.2,0-0.3,0.1c0,0,0,0,0,0c0-0.4-0.3-0.8-0.8-0.8c-0.4,0-0.8,0.3-0.8,0.8s0.3,0.8,0.8,0.8c0.1,0,0.2,0,0.3-0.1c0,0,0,0,0,0
		c0,0.4,0.3,0.8,0.8,0.8c0.2,0,0.3-0.1,0.4-0.2c0.1,0.3,0.4,0.4,0.7,0.4c0.3,0,0.6-0.2,0.7-0.4c0.1,0.1,0.2,0.1,0.4,0.1
		c0.3,0,0.5-0.2,0.7-0.4c0.1,0.2,0.4,0.4,0.6,0.4c0.3,0,0.6-0.2,0.7-0.5c0.1,0.1,0.3,0.2,0.5,0.2c0.2,0,0.4-0.1,0.5-0.2
		c0.1,0.2,0.3,0.3,0.6,0.3c0.2,0,0.3-0.1,0.4-0.2c0.1,0.3,0.4,0.6,0.7,0.6C79.8,54.6,80.1,54.2,80.1,53.8"/>
	<path clip-path="url(#SVGID_6_)" d="M71,51.9c0-0.4-0.3-0.8-0.8-0.8c-0.4,0-0.8,0.3-0.8,0.8c0,0.4,0.3,0.8,0.8,0.8
		C70.6,52.7,71,52.3,71,51.9"/>
	<path clip-path="url(#SVGID_6_)" d="M70,50.3c0-0.4-0.3-0.8-0.8-0.8c-0.4,0-0.8,0.3-0.8,0.8s0.3,0.8,0.8,0.8
		C69.6,51,70,50.7,70,50.3"/>
	<path clip-path="url(#SVGID_6_)" d="M68.8,48.9c0-0.4-0.3-0.8-0.8-0.8c-0.4,0-0.6,0.3-0.7,0.6c-0.1-0.3-0.4-0.6-0.7-0.6
		c-0.4,0-0.6,0.3-0.7,0.6c-0.1-0.1-0.3-0.2-0.5-0.2c-0.4,0-0.7,0.3-0.7,0.7c-0.1-0.1-0.3-0.2-0.5-0.2c-0.4,0-0.8,0.3-0.8,0.8
		c0,0,0,0,0,0.1c-0.1,0-0.2-0.1-0.3-0.1c-0.3,0-0.5,0.1-0.6,0.4c-0.1-0.2-0.3-0.3-0.6-0.3c-0.2,0-0.3,0.1-0.4,0.1c0-0.1,0-0.1,0-0.2
		c0-0.4-0.3-0.8-0.8-0.8c-0.4,0-0.8,0.3-0.8,0.8c0,0.4,0.3,0.8,0.8,0.8c0.2,0,0.3-0.1,0.4-0.1c0,0.1,0,0.1,0,0.2
		c0,0.4,0.3,0.8,0.8,0.8c0.3,0,0.5-0.1,0.6-0.4c0.1,0.2,0.3,0.3,0.6,0.3c0.4,0,0.8-0.3,0.8-0.8c0,0,0,0,0-0.1c0.1,0,0.2,0.1,0.3,0.1
		c0.4,0,0.7-0.3,0.7-0.7c0.1,0.1,0.3,0.2,0.5,0.2c0.4,0,0.6-0.3,0.7-0.6c0.1,0.1,0.3,0.2,0.5,0.2c0.4,0,0.6-0.3,0.7-0.6
		c0.1,0.3,0.4,0.6,0.7,0.6C68.5,49.7,68.8,49.3,68.8,48.9"/>
	<path clip-path="url(#SVGID_6_)" d="M116,60.6c0-0.4-0.3-0.8-0.8-0.8c-0.4,0-0.8,0.3-0.8,0.8s0.3,0.8,0.8,0.8
		C115.7,61.3,116,61,116,60.6"/>
	<path clip-path="url(#SVGID_6_)" d="M112,60.4c0-0.4-0.3-0.8-0.8-0.8c-0.4,0-0.8,0.3-0.8,0.8s0.3,0.8,0.8,0.8
		C111.7,61.2,112,60.8,112,60.4"/>
	<path clip-path="url(#SVGID_6_)" d="M109.7,60.4c0-0.4-0.3-0.8-0.8-0.8c-0.4,0-0.8,0.3-0.8,0.8c0,0.4,0.3,0.8,0.8,0.8
		C109.4,61.1,109.7,60.8,109.7,60.4"/>
	<path clip-path="url(#SVGID_6_)" d="M108.1,60.1c0-0.4-0.3-0.8-0.8-0.8c-0.2,0-0.4,0.1-0.5,0.2c-0.1-0.3-0.4-0.6-0.7-0.6
		c-0.2,0-0.4,0.1-0.5,0.2c-0.1-0.3-0.4-0.5-0.7-0.5c-0.2,0-0.4,0.1-0.5,0.2c-0.1-0.2-0.3-0.3-0.6-0.3c-0.2,0-0.4,0.1-0.5,0.2
		c-0.1-0.2-0.4-0.4-0.7-0.4c-0.2,0-0.4,0.1-0.6,0.3c-0.1-0.2-0.4-0.3-0.6-0.3c-0.2,0-0.5,0.1-0.6,0.3c-0.1-0.2-0.3-0.3-0.6-0.3
		c-0.2,0-0.4,0.1-0.6,0.3c-0.1-0.2-0.4-0.3-0.6-0.3c-0.2,0-0.4,0.1-0.6,0.3c-0.1-0.2-0.3-0.3-0.6-0.3c-0.2,0-0.4,0.1-0.6,0.3
		c-0.1-0.2-0.3-0.3-0.6-0.3c-0.2,0-0.4,0.1-0.5,0.2c-0.1-0.2-0.4-0.3-0.6-0.3c-0.2,0-0.3,0.1-0.4,0.2c-0.1-0.3-0.4-0.5-0.7-0.5
		c-0.2,0-0.3,0.1-0.5,0.2c-0.1-0.3-0.4-0.5-0.7-0.5c-0.2,0-0.3,0.1-0.5,0.2c-0.1-0.3-0.4-0.5-0.7-0.5c-0.2,0-0.3,0.1-0.4,0.2
		C91.6,57.2,91.3,57,91,57c-0.3,0-0.5,0.2-0.6,0.4c-0.1-0.3-0.4-0.6-0.7-0.6c-0.2,0-0.4,0.1-0.6,0.3c-0.1-0.2-0.3-0.3-0.6-0.3
		c-0.2,0-0.4,0.1-0.5,0.2c-0.1-0.1-0.3-0.2-0.5-0.2c-0.2,0-0.5,0.1-0.6,0.3c-0.1-0.2-0.3-0.3-0.6-0.3c-0.2,0-0.4,0.1-0.5,0.2
		c-0.1-0.2-0.4-0.4-0.7-0.4c-0.2,0-0.4,0.1-0.5,0.2c-0.1-0.3-0.4-0.5-0.7-0.5c-0.1,0-0.2,0-0.3,0.1c0-0.4-0.3-0.7-0.7-0.7
		c-0.2,0-0.3,0.1-0.5,0.2c0-0.1,0-0.1,0-0.2c0-0.4-0.3-0.8-0.8-0.8c-0.4,0-0.8,0.3-0.8,0.8s0.3,0.8,0.8,0.8c0.2,0,0.3-0.1,0.5-0.2
		c0,0.1,0,0.1,0,0.2c0,0.4,0.3,0.8,0.8,0.8c0.1,0,0.2,0,0.3-0.1c0,0.4,0.3,0.7,0.7,0.7c0.2,0,0.4-0.1,0.5-0.2
		c0.1,0.3,0.4,0.5,0.7,0.5c0.2,0,0.4-0.1,0.5-0.2c0.1,0.2,0.4,0.4,0.7,0.4c0.2,0,0.5-0.1,0.6-0.3c0.1,0.2,0.3,0.3,0.6,0.3
		c0.2,0,0.4-0.1,0.5-0.2c0.1,0.1,0.3,0.2,0.5,0.2c0.2,0,0.4-0.1,0.6-0.3c0.1,0.2,0.3,0.3,0.6,0.3c0.3,0,0.5-0.2,0.6-0.4
		c0.1,0.3,0.4,0.6,0.7,0.6c0.2,0,0.3-0.1,0.4-0.2c0.1,0.3,0.4,0.4,0.7,0.4c0.2,0,0.3-0.1,0.5-0.2c0.1,0.3,0.4,0.5,0.7,0.5
		c0.2,0,0.3-0.1,0.5-0.2c0.1,0.3,0.4,0.5,0.7,0.5c0.2,0,0.3-0.1,0.4-0.2c0.1,0.3,0.4,0.5,0.7,0.5c0.2,0,0.4-0.1,0.5-0.2
		c0.1,0.2,0.4,0.3,0.6,0.3c0.2,0,0.4-0.1,0.6-0.3c0.1,0.2,0.3,0.3,0.6,0.3c0.2,0,0.4-0.1,0.6-0.3c0.1,0.2,0.3,0.3,0.6,0.3
		c0.2,0,0.4-0.1,0.6-0.3c0.1,0.2,0.4,0.3,0.6,0.3c0.2,0,0.5-0.1,0.6-0.3c0.1,0.2,0.3,0.3,0.6,0.3c0.2,0,0.4-0.1,0.6-0.3
		c0.1,0.2,0.4,0.3,0.6,0.3c0.2,0,0.4-0.1,0.5-0.2c0.1,0.2,0.4,0.4,0.7,0.4c0.2,0,0.4-0.1,0.5-0.2c0.1,0.2,0.3,0.3,0.6,0.3
		c0.2,0,0.4-0.1,0.5-0.2c0.1,0.3,0.4,0.5,0.7,0.5c0.2,0,0.4-0.1,0.5-0.2c0.1,0.3,0.4,0.6,0.7,0.6C107.8,60.8,108.1,60.5,108.1,60.1"
		/>
	<path clip-path="url(#SVGID_6_)" d="M81.3,54.6c0-0.4-0.3-0.8-0.8-0.8c-0.4,0-0.8,0.3-0.8,0.8s0.3,0.8,0.8,0.8
		C81,55.3,81.3,55,81.3,54.6"/>
</g>
</svg>
