<?xml version="1.0" encoding="utf-8"?>
<!-- Generator: Adobe Illustrator 18.1.1, SVG Export Plug-In . SVG Version: 6.00 Build 0)  -->
<svg version="1.1" id="Layer_1" xmlns="http://www.w3.org/2000/svg" xmlns:xlink="http://www.w3.org/1999/xlink" x="0px" y="0px"
	 width="200px" height="200px" viewBox="0 0 200 200" enable-background="new 0 0 200 200" xml:space="preserve">
<g>
	<g>
		<path d="M100,0C44.9,0,0,44.9,0,100s44.9,100,100,100s100-44.9,100-100S155.1,0,100,0z M100,195.2c-52.5,0-95.2-42.7-95.2-95.2
			S47.5,4.8,100,4.8c52.5,0,95.2,42.7,95.2,95.2S152.5,195.2,100,195.2z"/>
	</g>
	<g>
		<path d="M169.7,144.9l-8.6-24.3c-0.1-0.3-0.3-0.6-0.6-0.8c0-0.2,0.1-0.4,0.1-0.5V52.6c0-1.8-1.4-3.2-3.2-3.2H46.4
			c-1.8,0-3.2,1.4-3.2,3.2v66.6c0,0.2,0,0.4,0.1,0.5c-0.2,0.2-0.4,0.4-0.6,0.7l-10.1,24.3c-0.5,1.3,0.5,2.7,2,2.7h133.1
			C169.2,147.5,170.2,146.2,169.7,144.9z M154.2,116h-8.1v12.5c0,1.5-1.2,2.7-2.7,2.7H79.5c-1.5,0-2.7-1.2-2.7-2.7v-5.3h-8.3
			c-1,0-1.9-0.8-1.9-1.9V116H49.6V55.8h104.6V116z"/>
		<path d="M145.2,83.8c0-1-0.8-1.8-1.8-1.8H79.5c-1,0-1.8,0.8-1.8,1.8v5.8h3.6v-3.9h53v41.2h-53v-3.4h-3.6v5.3c0,1,0.8,1.8,1.8,1.8
			h63.9c1,0,1.8-0.8,1.8-1.8V83.8z M138.8,103.7c1.3,0,2.3,1,2.3,2.3s-1,2.3-2.3,2.3c-1.3,0-2.3-1-2.3-2.3S137.5,103.7,138.8,103.7z
			"/>
		<circle cx="138.8" cy="106" r="1.4"/>
		<path d="M84.4,122.4c0.5,0,1-0.4,1-1v-30c0-0.5-0.4-1-1-1h-16c-0.5,0-1,0.4-1,1v30c0,0.5,0.4,1,1,1H84.4z M77.7,119
			c0,0.2,0,0.3-0.1,0.5c-0.2,0.4-0.6,0.8-1.1,0.8c-0.5,0-1-0.3-1.1-0.8c-0.1-0.1-0.1-0.3-0.1-0.5l0,0v0c0-0.2,0-0.3,0.1-0.5
			c0.2-0.4,0.6-0.8,1.1-0.8c0.5,0,1,0.3,1.1,0.8C77.7,118.7,77.7,118.8,77.7,119L77.7,119L77.7,119z M69.4,92.3h14.1v24.2H69.4V92.3
			z"/>
		<circle cx="76.5" cy="119" r="0.8"/>
	</g>
</g>
</svg>
